<svg xmlns="http://www.w3.org/2000/svg" viewBox="0 0 30.48 27.79"><defs><style>.cls-1,.cls-12{fill:#fff;}.cls-2{fill:#abbcd3;}.cls-3{fill:#000201;}.cls-4{fill:#eaedef;}.cls-5{fill:#ccd7dd;}.cls-6{fill:#9ccfce;}.cls-7{fill:#febc2e;}.cls-8{fill:#ff5f57;}.cls-9{fill:#29c940;}.cls-10{fill:#193649;}.cls-11{fill:#325f77;}.cls-12{opacity:0.45;}.cls-13{fill:#4c5389;}.cls-14{fill:#2e3a6d;}.cls-15{fill:#3b447a;}.cls-16{fill:#6773ba;}.cls-17{fill:#61fc54;}.cls-18{fill:#f70d67;}.cls-19{fill:#859cff;}.cls-20{fill:#60fc54;}.cls-21{fill:#383856;}.cls-22{fill:#4a4a68;}.cls-23{fill:#3bc197;}.cls-24{fill:#f76b9a;}.cls-25{fill:#43ffff;}.cls-26{fill:#3c3c5b;}.cls-27{fill:#6f6f8e;}.cls-28{font-size:1.55px;font-family:Jost-Bold, Jost;font-weight:700;}</style></defs><g id="Layer_2" data-name="Layer 2"><g id="Layer_1-2" data-name="Layer 1"><rect class="cls-1" x="4.54" y="14.08" width="4.99" height="6.5"/><rect class="cls-2" x="4.54" y="17.86" width="4.99" height="2.72"/><path class="cls-3" d="M7.63,14.74H5.14a.06.06,0,0,1-.06-.05.06.06,0,0,1,.06-.06H7.63a.06.06,0,0,1,0,.06A0,0,0,0,1,7.63,14.74Z"/><path class="cls-3" d="M6.73,15.06H5.14A.06.06,0,0,1,5.08,15,.06.06,0,0,1,5.14,15H6.73a.06.06,0,0,1,.06.05A.06.06,0,0,1,6.73,15.06Z"/><path class="cls-3" d="M6.1,15.39h-1a.06.06,0,0,1-.06-.06.06.06,0,0,1,.06-.05h1a.06.06,0,0,1,.06.05A.06.06,0,0,1,6.1,15.39Z"/><path class="cls-3" d="M6.64,15.39H6.38s0,0,0-.06a0,0,0,0,1,0-.05h.26a0,0,0,0,1,.05.05S6.67,15.39,6.64,15.39Z"/><path class="cls-3" d="M7.33,15.39H7a.06.06,0,0,1-.06-.06A.06.06,0,0,1,7,15.28h.34a.06.06,0,0,1,.06.05A.06.06,0,0,1,7.33,15.39Z"/><path class="cls-3" d="M6.38,15.7H5.14a.06.06,0,0,1-.06-.06.06.06,0,0,1,.06-.05H6.38s.06,0,.06.05A.06.06,0,0,1,6.38,15.7Z"/><path class="cls-3" d="M7.63,16.18H5.14a.06.06,0,0,1-.06-.06.06.06,0,0,1,.06-.05H7.63a0,0,0,0,1,0,.05A.06.06,0,0,1,7.63,16.18Z"/><path class="cls-3" d="M6.73,16.5H5.14a.06.06,0,0,1-.06-.06.06.06,0,0,1,.06-.05H6.73a.06.06,0,0,1,.06.05A.06.06,0,0,1,6.73,16.5Z"/><path class="cls-3" d="M6.1,16.83h-1a.06.06,0,0,1-.06-.06.06.06,0,0,1,.06-.05h1a.06.06,0,0,1,.06.05A.06.06,0,0,1,6.1,16.83Z"/><path class="cls-3" d="M6.64,16.83H6.38a.06.06,0,0,1,0-.06,0,0,0,0,1,0-.05h.26a0,0,0,0,1,.05.05A.06.06,0,0,1,6.64,16.83Z"/><path class="cls-3" d="M7.33,16.83H7a.06.06,0,0,1-.06-.06A.06.06,0,0,1,7,16.72h.34a.06.06,0,0,1,.06.05A.06.06,0,0,1,7.33,16.83Z"/><path class="cls-3" d="M7.63,17.14H5.14a.06.06,0,0,1-.06-.06.06.06,0,0,1,.06,0H7.63a0,0,0,0,1,0,0A.06.06,0,0,1,7.63,17.14Z"/><path class="cls-3" d="M7.63,17.6H5.14a.06.06,0,0,1-.06-.05.06.06,0,0,1,.06-.06H7.63a.06.06,0,0,1,0,.06A0,0,0,0,1,7.63,17.6Z"/><path class="cls-3" d="M6.73,17.92H5.14a.06.06,0,0,1-.06-.06.06.06,0,0,1,.06-.05H6.73a.06.06,0,0,1,.06.05A.06.06,0,0,1,6.73,17.92Z"/><path class="cls-3" d="M9.53,20.7h-5a.12.12,0,0,1-.12-.12v-6.5A.11.11,0,0,1,4.54,14h5a.11.11,0,0,1,.12.11v6.5A.12.12,0,0,1,9.53,20.7Zm-4.87-.24H9.41V14.2H4.66Z"/><rect class="cls-2" x="0.78" y="19.93" width="12.26" height="7.86" rx="0.88"/><rect class="cls-4" x="0.5" y="18.44" width="11.93" height="8.76" rx="0.5"/><rect class="cls-5" x="0.57" y="19.64" width="11.77" height="0.3"/><rect class="cls-5" x="0.58" y="26.61" width="11.77" height="0.5"/><polygon class="cls-1" points="6.47 18.43 4.76 27.2 4.06 27.2 5.77 18.43 6.47 18.43"/><polygon class="cls-1" points="9.72 18.43 8.02 27.2 6.39 27.2 8.1 18.43 9.72 18.43"/><polygon class="cls-1" points="10.94 18.43 9.23 27.2 8.53 27.2 10.24 18.43 10.94 18.43"/><path class="cls-5" d="M1.45,25.78a.12.12,0,0,1-.13-.12V21a.13.13,0,0,1,.13-.13.12.12,0,0,1,.12.13v4.68A.12.12,0,0,1,1.45,25.78Z"/><path class="cls-6" d="M6.07,20.88h-4a.11.11,0,0,1-.12-.11.12.12,0,0,1,.12-.12h4a.12.12,0,0,1,.12.12A.11.11,0,0,1,6.07,20.88Z"/><path class="cls-6" d="M4.63,21.4H2.05a.12.12,0,0,1-.12-.12.12.12,0,0,1,.12-.12H4.63a.12.12,0,0,1,.12.12A.13.13,0,0,1,4.63,21.4Z"/><path class="cls-6" d="M3.6,21.93H2.05a.11.11,0,0,1-.12-.11.12.12,0,0,1,.12-.12H3.6a.12.12,0,0,1,.12.12A.11.11,0,0,1,3.6,21.93Z"/><path class="cls-6" d="M4.47,21.93H4.06a.12.12,0,0,1-.12-.11.12.12,0,0,1,.12-.12h.41a.12.12,0,0,1,.12.12A.12.12,0,0,1,4.47,21.93Z"/><path class="cls-6" d="M5.59,21.93H5a.11.11,0,0,1-.12-.11A.12.12,0,0,1,5,21.7h.55a.12.12,0,0,1,.12.12A.11.11,0,0,1,5.59,21.93Z"/><path class="cls-6" d="M6.07,22.93h-4a.12.12,0,0,1-.12-.12.12.12,0,0,1,.12-.12h4a.12.12,0,0,1,.12.12A.12.12,0,0,1,6.07,22.93Z"/><path class="cls-6" d="M4.63,23.44H2.05a.12.12,0,0,1-.12-.12.11.11,0,0,1,.12-.11H4.63a.12.12,0,0,1,.12.11A.12.12,0,0,1,4.63,23.44Z"/><path class="cls-6" d="M3.6,24H2.05a.12.12,0,0,1-.12-.12.12.12,0,0,1,.12-.12H3.6a.12.12,0,0,1,.12.12A.12.12,0,0,1,3.6,24Z"/><path class="cls-6" d="M4.47,24H4.06a.12.12,0,0,1-.12-.12.13.13,0,0,1,.12-.12h.41a.13.13,0,0,1,.12.12A.12.12,0,0,1,4.47,24Z"/><path class="cls-6" d="M5.59,24H5a.12.12,0,0,1-.12-.12A.12.12,0,0,1,5,23.74h.55a.12.12,0,0,1,.12.12A.12.12,0,0,1,5.59,24Z"/><path class="cls-5" d="M4.06,22.44h-2a.13.13,0,0,1-.13-.13.12.12,0,0,1,.13-.12h2a.12.12,0,0,1,.13.12A.13.13,0,0,1,4.06,22.44Z"/><path class="cls-7" d="M6.07,24.49h-4a.13.13,0,0,1-.13-.13.12.12,0,0,1,.13-.12h4a.12.12,0,0,1,.13.12A.13.13,0,0,1,6.07,24.49Z"/><path class="cls-6" d="M6.07,25h-4a.12.12,0,0,1-.12-.12.12.12,0,0,1,.12-.12h4a.12.12,0,0,1,.12.12A.12.12,0,0,1,6.07,25Z"/><path class="cls-6" d="M4.63,25.49H2.05a.12.12,0,0,1-.12-.12.12.12,0,0,1,.12-.12H4.63a.13.13,0,0,1,.12.12A.12.12,0,0,1,4.63,25.49Z"/><path class="cls-6" d="M3.6,26H2.05a.12.12,0,0,1-.12-.12.12.12,0,0,1,.12-.12H3.6a.12.12,0,0,1,.12.12A.12.12,0,0,1,3.6,26Z"/><path class="cls-6" d="M4.47,26H4.06a.13.13,0,0,1-.12-.12.12.12,0,0,1,.12-.12h.41a.12.12,0,0,1,.12.12A.13.13,0,0,1,4.47,26Z"/><path class="cls-6" d="M5.59,26H5a.12.12,0,0,1-.12-.12A.12.12,0,0,1,5,25.79h.55a.12.12,0,0,1,.12.12A.12.12,0,0,1,5.59,26Z"/><path class="cls-6" d="M11.45,25.44H9.38a.07.07,0,0,1-.06-.07.06.06,0,0,1,.06-.06h2.07a.06.06,0,0,1,.06.06A.07.07,0,0,1,11.45,25.44Z"/><path class="cls-6" d="M10.71,25.7H9.38a.07.07,0,0,1-.06-.07.06.06,0,0,1,.06-.06h1.33a.06.06,0,0,1,.06.06A.07.07,0,0,1,10.71,25.7Z"/><path class="cls-6" d="M10.18,26h-.8a.06.06,0,0,1-.06-.06.07.07,0,0,1,.06-.07h.8a.07.07,0,0,1,.07.07A.07.07,0,0,1,10.18,26Z"/><path class="cls-6" d="M10.62,26h-.2a.07.07,0,0,1-.07-.06.07.07,0,0,1,.07-.07h.2a.07.07,0,0,1,.07.07A.07.07,0,0,1,10.62,26Z"/><path class="cls-6" d="M11.2,26h-.28a.07.07,0,0,1-.07-.06.07.07,0,0,1,.07-.07h.28a.07.07,0,0,1,.06.07A.06.06,0,0,1,11.2,26Z"/><path class="cls-6" d="M11.45,24.27H9.38a.06.06,0,0,1-.06-.06.07.07,0,0,1,.06-.07h2.07a.07.07,0,0,1,.06.07A.06.06,0,0,1,11.45,24.27Z"/><path class="cls-6" d="M10.71,24.53H9.38a.06.06,0,0,1-.06-.06.07.07,0,0,1,.06-.07h1.33a.07.07,0,0,1,.06.07A.06.06,0,0,1,10.71,24.53Z"/><path class="cls-6" d="M10.18,24.81h-.8a.07.07,0,0,1-.06-.07.06.06,0,0,1,.06-.06h.8a.07.07,0,0,1,.07.06A.07.07,0,0,1,10.18,24.81Z"/><path class="cls-6" d="M10.62,24.81h-.2a.07.07,0,0,1-.07-.07.07.07,0,0,1,.07-.06h.2a.07.07,0,0,1,.07.06A.07.07,0,0,1,10.62,24.81Z"/><path class="cls-6" d="M11.2,24.81h-.28a.07.07,0,0,1-.07-.07.07.07,0,0,1,.07-.06h.28a.06.06,0,0,1,.06.06A.07.07,0,0,1,11.2,24.81Z"/><path class="cls-6" d="M11.45,21.94H9.38a.07.07,0,0,1-.06-.07.06.06,0,0,1,.06-.06h2.07a.06.06,0,0,1,.06.06A.07.07,0,0,1,11.45,21.94Z"/><path class="cls-6" d="M10.71,22.2H9.38a.07.07,0,0,1-.06-.07.06.06,0,0,1,.06-.06h1.33a.06.06,0,0,1,.06.06A.07.07,0,0,1,10.71,22.2Z"/><path class="cls-6" d="M10.18,22.47h-.8a.06.06,0,0,1-.06-.06.06.06,0,0,1,.06-.06h.8a.07.07,0,0,1,.07.06S10.22,22.47,10.18,22.47Z"/><path class="cls-6" d="M10.62,22.47h-.2s-.07,0-.07-.06a.07.07,0,0,1,.07-.06h.2a.07.07,0,0,1,.07.06S10.66,22.47,10.62,22.47Z"/><path class="cls-6" d="M11.2,22.47h-.28s-.07,0-.07-.06a.07.07,0,0,1,.07-.06h.28a.06.06,0,0,1,.06.06A.06.06,0,0,1,11.2,22.47Z"/><path class="cls-6" d="M11.45,23.1H9.38A.06.06,0,0,1,9.32,23,.07.07,0,0,1,9.38,23h2.07a.07.07,0,0,1,.06.07A.06.06,0,0,1,11.45,23.1Z"/><path class="cls-6" d="M10.71,23.37H9.38a.07.07,0,0,1-.06-.07.06.06,0,0,1,.06-.06h1.33a.06.06,0,0,1,.06.06A.07.07,0,0,1,10.71,23.37Z"/><path class="cls-6" d="M10.18,23.64h-.8a.06.06,0,0,1-.06-.06.07.07,0,0,1,.06-.07h.8a.07.07,0,0,1,.07.07A.07.07,0,0,1,10.18,23.64Z"/><path class="cls-6" d="M10.62,23.64h-.2a.07.07,0,0,1-.07-.06.07.07,0,0,1,.07-.07h.2a.07.07,0,0,1,.07.07A.07.07,0,0,1,10.62,23.64Z"/><path class="cls-6" d="M11.2,23.64h-.28a.07.07,0,0,1-.07-.06.07.07,0,0,1,.07-.07h.28a.07.07,0,0,1,.06.07A.06.06,0,0,1,11.2,23.64Z"/><path class="cls-6" d="M11.45,20.77H9.38a.06.06,0,0,1-.06-.06.07.07,0,0,1,.06-.07h2.07a.07.07,0,0,1,.06.07A.06.06,0,0,1,11.45,20.77Z"/><path class="cls-6" d="M10.71,21H9.38A.06.06,0,0,1,9.32,21a.07.07,0,0,1,.06-.07h1.33a.07.07,0,0,1,.06.07A.06.06,0,0,1,10.71,21Z"/><path class="cls-6" d="M10.18,21.31h-.8a.07.07,0,0,1-.06-.07.06.06,0,0,1,.06-.06h.8a.07.07,0,0,1,.07.06A.07.07,0,0,1,10.18,21.31Z"/><path class="cls-6" d="M10.62,21.31h-.2a.07.07,0,0,1-.07-.07.07.07,0,0,1,.07-.06h.2a.07.07,0,0,1,.07.06A.07.07,0,0,1,10.62,21.31Z"/><path class="cls-6" d="M11.2,21.31h-.28a.07.07,0,0,1-.07-.07.07.07,0,0,1,.07-.06h.28a.06.06,0,0,1,.06.06A.07.07,0,0,1,11.2,21.31Z"/><circle class="cls-8" cx="1.45" cy="19.01" r="0.2"/><circle class="cls-7" cx="2.07" cy="19.01" r="0.2"/><circle class="cls-9" cx="2.7" cy="19.01" r="0.2"/><path class="cls-3" d="M11.93,27.32H1a.62.62,0,0,1-.62-.62V18.94A.62.62,0,0,1,1,18.32H2.4a.11.11,0,0,1,.11.12.11.11,0,0,1-.11.11H1a.39.39,0,0,0-.38.39V26.7a.38.38,0,0,0,.38.38H11.93a.38.38,0,0,0,.38-.38V18.94a.39.39,0,0,0-.38-.39H3.17a.12.12,0,0,1-.12-.11.12.12,0,0,1,.12-.12h8.76a.61.61,0,0,1,.61.62V26.7A.61.61,0,0,1,11.93,27.32Z"/><path class="cls-3" d="M3.21,19.71H.57a.08.08,0,0,1-.08-.07.08.08,0,0,1,.08-.08H3.21a.08.08,0,0,1,.08.08A.08.08,0,0,1,3.21,19.71Z"/><path class="cls-3" d="M12.33,19.71H3.9a.08.08,0,0,1-.08-.07.08.08,0,0,1,.08-.08h8.43a.07.07,0,0,1,.08.08A.07.07,0,0,1,12.33,19.71Z"/><rect class="cls-2" x="18.19" y="4.64" width="12.26" height="7.86" rx="0.88"/><rect class="cls-10" x="17.76" y="3.1" width="11.93" height="8.76" rx="0.5"/><polygon class="cls-11" points="23.74 3.1 22.03 11.87 21.33 11.87 23.04 3.1 23.74 3.1"/><polygon class="cls-11" points="26.99 3.1 25.29 11.87 23.66 11.87 25.37 3.1 26.99 3.1"/><polygon class="cls-11" points="28.21 3.1 26.5 11.87 25.8 11.87 27.51 3.1 28.21 3.1"/><path class="cls-11" d="M18.72,10.45a.12.12,0,0,1-.13-.12V5.64a.13.13,0,0,1,.13-.12.12.12,0,0,1,.12.12v4.69A.12.12,0,0,1,18.72,10.45Z"/><path class="cls-7" d="M23.34,5.55h-4a.12.12,0,0,1-.12-.12.12.12,0,0,1,.12-.12h4a.13.13,0,0,1,.12.12A.12.12,0,0,1,23.34,5.55Z"/><path class="cls-7" d="M21.89,6.06H19.32A.11.11,0,0,1,19.2,6a.12.12,0,0,1,.12-.12h2.57A.12.12,0,0,1,22,6,.11.11,0,0,1,21.89,6.06Z"/><path class="cls-7" d="M20.87,6.6H19.32a.12.12,0,0,1-.12-.12.12.12,0,0,1,.12-.12h1.55a.13.13,0,0,1,.12.12A.12.12,0,0,1,20.87,6.6Z"/><path class="cls-7" d="M21.73,6.6h-.4a.12.12,0,0,1-.12-.12.12.12,0,0,1,.12-.12h.4a.12.12,0,0,1,.12.12A.12.12,0,0,1,21.73,6.6Z"/><path class="cls-7" d="M22.86,6.6H22.3a.12.12,0,0,1-.12-.12.13.13,0,0,1,.12-.12h.56a.13.13,0,0,1,.12.12A.12.12,0,0,1,22.86,6.6Z"/><path class="cls-7" d="M23.34,7.6h-4a.12.12,0,0,1-.12-.12.12.12,0,0,1,.12-.12h4a.13.13,0,0,1,.12.12A.12.12,0,0,1,23.34,7.6Z"/><path class="cls-7" d="M21.89,8.11H19.32A.12.12,0,0,1,19.2,8a.12.12,0,0,1,.12-.12h2.57A.12.12,0,0,1,22,8,.12.12,0,0,1,21.89,8.11Z"/><path class="cls-7" d="M20.87,8.65H19.32a.12.12,0,0,1,0-.24h1.55a.12.12,0,0,1,0,.24Z"/><path class="cls-7" d="M21.73,8.65h-.4a.12.12,0,1,1,0-.24h.4a.12.12,0,1,1,0,.24Z"/><path class="cls-7" d="M22.86,8.65H22.3a.12.12,0,0,1,0-.24h.56a.12.12,0,1,1,0,.24Z"/><path class="cls-11" d="M21.33,7.11h-2A.13.13,0,0,1,19.19,7a.12.12,0,0,1,.13-.12h2a.12.12,0,0,1,.12.12A.12.12,0,0,1,21.33,7.11Z"/><path class="cls-7" d="M23.34,9.15h-4A.12.12,0,0,1,19.19,9a.13.13,0,0,1,.13-.13h4a.12.12,0,0,1,.12.13A.12.12,0,0,1,23.34,9.15Z"/><path class="cls-7" d="M23.34,9.65h-4a.12.12,0,0,1-.12-.12.12.12,0,0,1,.12-.12h4a.12.12,0,0,1,.12.12A.13.13,0,0,1,23.34,9.65Z"/><path class="cls-7" d="M21.89,10.16H19.32A.12.12,0,0,1,19.2,10a.12.12,0,0,1,.12-.12h2.57A.12.12,0,0,1,22,10,.12.12,0,0,1,21.89,10.16Z"/><path class="cls-7" d="M20.87,10.7H19.32a.12.12,0,0,1-.12-.12.12.12,0,0,1,.12-.12h1.55a.12.12,0,0,1,.12.12A.13.13,0,0,1,20.87,10.7Z"/><path class="cls-7" d="M21.73,10.7h-.4a.12.12,0,0,1-.12-.12.12.12,0,0,1,.12-.12h.4a.12.12,0,0,1,.12.12A.12.12,0,0,1,21.73,10.7Z"/><path class="cls-7" d="M22.86,10.7H22.3a.13.13,0,0,1-.12-.12.12.12,0,0,1,.12-.12h.56a.12.12,0,0,1,.12.12A.13.13,0,0,1,22.86,10.7Z"/><path class="cls-7" d="M28.71,10.1H26.65a.06.06,0,0,1-.06-.06.07.07,0,0,1,.06-.07h2.06a.07.07,0,0,1,.07.07A.07.07,0,0,1,28.71,10.1Z"/><path class="cls-7" d="M28,10.37H26.65a.07.07,0,0,1-.06-.07.06.06,0,0,1,.06-.06H28a.07.07,0,0,1,.07.06A.07.07,0,0,1,28,10.37Z"/><path class="cls-7" d="M27.45,10.64h-.8a.06.06,0,0,1-.06-.06.07.07,0,0,1,.06-.07h.8a.07.07,0,0,1,.06.07A.06.06,0,0,1,27.45,10.64Z"/><path class="cls-7" d="M27.89,10.64h-.21a.06.06,0,0,1-.06-.06.07.07,0,0,1,.06-.07h.21a.07.07,0,0,1,.07.07A.07.07,0,0,1,27.89,10.64Z"/><path class="cls-7" d="M28.47,10.64h-.29a.06.06,0,0,1-.06-.06.07.07,0,0,1,.06-.07h.29a.07.07,0,0,1,.06.07A.06.06,0,0,1,28.47,10.64Z"/><path class="cls-7" d="M28.71,8.94H26.65a.07.07,0,0,1-.06-.07.06.06,0,0,1,.06-.06h2.06a.07.07,0,0,1,.07.06A.07.07,0,0,1,28.71,8.94Z"/><path class="cls-7" d="M28,9.2H26.65a.07.07,0,0,1-.06-.07.06.06,0,0,1,.06-.06H28a.07.07,0,0,1,.07.06A.07.07,0,0,1,28,9.2Z"/><path class="cls-7" d="M27.45,9.48h-.8a.07.07,0,0,1-.06-.07.06.06,0,0,1,.06-.06h.8a.06.06,0,0,1,.06.06A.07.07,0,0,1,27.45,9.48Z"/><path class="cls-7" d="M27.89,9.48h-.21a.07.07,0,0,1-.06-.07.06.06,0,0,1,.06-.06h.21a.07.07,0,0,1,.07.06A.07.07,0,0,1,27.89,9.48Z"/><path class="cls-7" d="M28.47,9.48h-.29a.07.07,0,0,1-.06-.07.06.06,0,0,1,.06-.06h.29a.06.06,0,0,1,.06.06A.07.07,0,0,1,28.47,9.48Z"/><path class="cls-7" d="M28.71,6.6H26.65a.06.06,0,1,1,0-.12h2.06s.07,0,.07.06S28.75,6.6,28.71,6.6Z"/><path class="cls-7" d="M28,6.87H26.65a.07.07,0,0,1-.06-.07.06.06,0,0,1,.06-.06H28A.07.07,0,0,1,28,6.8.07.07,0,0,1,28,6.87Z"/><path class="cls-7" d="M27.45,7.14h-.8a.06.06,0,0,1-.06-.06A.07.07,0,0,1,26.65,7h.8a.07.07,0,0,1,.06.07A.06.06,0,0,1,27.45,7.14Z"/><path class="cls-7" d="M27.89,7.14h-.21a.06.06,0,0,1-.06-.06A.07.07,0,0,1,27.68,7h.21a.07.07,0,0,1,.07.07A.07.07,0,0,1,27.89,7.14Z"/><path class="cls-7" d="M28.47,7.14h-.29a.06.06,0,0,1-.06-.06A.07.07,0,0,1,28.18,7h.29a.07.07,0,0,1,.06.07A.06.06,0,0,1,28.47,7.14Z"/><path class="cls-7" d="M28.71,7.77H26.65a.06.06,0,0,1-.06-.06.07.07,0,0,1,.06-.07h2.06a.07.07,0,0,1,.07.07A.07.07,0,0,1,28.71,7.77Z"/><path class="cls-7" d="M28,8H26.65A.06.06,0,0,1,26.59,8a.07.07,0,0,1,.06-.07H28A.07.07,0,0,1,28,8,.07.07,0,0,1,28,8Z"/><path class="cls-7" d="M27.45,8.31h-.8a.07.07,0,0,1-.06-.07.06.06,0,0,1,.06-.06h.8a.06.06,0,0,1,.06.06A.07.07,0,0,1,27.45,8.31Z"/><path class="cls-7" d="M27.89,8.31h-.21a.07.07,0,0,1-.06-.07.06.06,0,0,1,.06-.06h.21a.07.07,0,0,1,.07.06A.07.07,0,0,1,27.89,8.31Z"/><path class="cls-7" d="M28.47,8.31h-.29a.07.07,0,0,1-.06-.07.06.06,0,0,1,.06-.06h.29a.06.06,0,0,1,.06.06A.07.07,0,0,1,28.47,8.31Z"/><path class="cls-7" d="M28.71,5.44H26.65a.07.07,0,0,1-.06-.07.06.06,0,0,1,.06-.06h2.06a.07.07,0,0,1,.07.06A.07.07,0,0,1,28.71,5.44Z"/><path class="cls-7" d="M28,5.7H26.65a.06.06,0,0,1-.06-.06.07.07,0,0,1,.06-.07H28a.07.07,0,0,1,.07.07A.07.07,0,0,1,28,5.7Z"/><path class="cls-7" d="M27.45,6h-.8a.07.07,0,0,1-.06-.07.06.06,0,0,1,.06-.06h.8a.06.06,0,0,1,.06.06A.07.07,0,0,1,27.45,6Z"/><path class="cls-7" d="M27.89,6h-.21a.07.07,0,0,1-.06-.07.06.06,0,0,1,.06-.06h.21a.07.07,0,0,1,.07.06A.07.07,0,0,1,27.89,6Z"/><path class="cls-7" d="M28.47,6h-.29a.07.07,0,0,1-.06-.07.06.06,0,0,1,.06-.06h.29a.06.06,0,0,1,.06.06A.07.07,0,0,1,28.47,6Z"/><circle class="cls-8" cx="18.72" cy="3.68" r="0.2"/><circle class="cls-7" cx="19.34" cy="3.68" r="0.2"/><circle class="cls-9" cx="19.96" cy="3.68" r="0.2"/><path class="cls-3" d="M29.19,12H18.26a.62.62,0,0,1-.62-.62V3.6A.62.62,0,0,1,18.26,3H29.19a.62.62,0,0,1,.62.62v7.77A.62.62,0,0,1,29.19,12ZM18.26,3.22a.38.38,0,0,0-.38.38v7.77a.38.38,0,0,0,.38.38H29.19a.38.38,0,0,0,.38-.38V3.6a.38.38,0,0,0-.38-.38Z"/><path class="cls-3" d="M20.48,4.38H17.83a.08.08,0,0,1-.07-.08.07.07,0,0,1,.07-.07h2.65a.07.07,0,0,1,.07.07A.08.08,0,0,1,20.48,4.38Z"/><path class="cls-3" d="M29.6,4.38H21.16a.08.08,0,0,1-.07-.08.07.07,0,0,1,.07-.07H29.6a.08.08,0,0,1,.08.07A.09.09,0,0,1,29.6,4.38Z"/><rect class="cls-12" x="22.53" y="1.54" width="5.27" height="3.87" rx="0.22"/><path class="cls-3" d="M27.76,2.4h-3.9a.09.09,0,0,1,0-.18h3.9a.09.09,0,0,1,0,.18Z"/><circle class="cls-8" cx="22.95" cy="1.93" r="0.09"/><circle class="cls-7" cx="23.23" cy="1.93" r="0.09"/><circle class="cls-9" cx="23.5" cy="1.93" r="0.09"/><polygon class="cls-1" points="26.81 1.54 26.06 5.42 25.34 5.42 26.1 1.54 26.81 1.54"/><polygon class="cls-1" points="27.35 1.54 26.6 5.42 26.29 5.42 27.04 1.54 27.35 1.54"/><path class="cls-3" d="M23.33,2.4h-.77a.09.09,0,0,1,0-.18h.77a.09.09,0,1,1,0,.18Z"/><path class="cls-3" d="M27.58,5.5H22.75a.31.31,0,0,1-.31-.31V1.77a.31.31,0,0,1,.31-.31h4.83a.31.31,0,0,1,.31.31V5.19A.31.31,0,0,1,27.58,5.5ZM22.75,1.63a.13.13,0,0,0-.13.14V5.19a.13.13,0,0,0,.13.14h4.83a.13.13,0,0,0,.13-.14V1.77a.13.13,0,0,0-.13-.14Z"/><rect class="cls-2" x="18.22" y="17.87" width="12.26" height="7.86" rx="0.88"/><rect class="cls-13" x="17.83" y="16.33" width="11.93" height="8.76" rx="0.5"/><path class="cls-14" d="M17.83,21H29.76a0,0,0,0,1,0,0v3.72a.34.34,0,0,1-.34.34H18.17a.34.34,0,0,1-.34-.34V21A0,0,0,0,1,17.83,21Z"/><polygon class="cls-15" points="23.87 16.33 22.16 25.1 21.46 25.1 23.17 16.33 23.87 16.33"/><polygon class="cls-15" points="27.12 16.32 25.42 25.09 23.79 25.09 25.5 16.32 27.12 16.32"/><polygon class="cls-15" points="28.34 16.32 26.63 25.09 25.93 25.09 27.64 16.32 28.34 16.32"/><path class="cls-16" d="M18.78,23.68a.13.13,0,0,1-.13-.12V18.87a.12.12,0,0,1,.13-.12.12.12,0,0,1,.12.12v4.69A.12.12,0,0,1,18.78,23.68Z"/><path class="cls-17" d="M23.4,18.78h-4a.12.12,0,0,1-.12-.12.12.12,0,0,1,.12-.12h4a.12.12,0,0,1,.12.12A.12.12,0,0,1,23.4,18.78Z"/><path class="cls-18" d="M22,19.29H19.38a.12.12,0,0,1-.12-.12.12.12,0,0,1,.12-.12H22a.12.12,0,0,1,.11.12A.11.11,0,0,1,22,19.29Z"/><path class="cls-19" d="M20.93,19.83H19.38a.12.12,0,0,1-.12-.12.12.12,0,0,1,.12-.12h1.55a.12.12,0,0,1,.12.12A.12.12,0,0,1,20.93,19.83Z"/><path class="cls-19" d="M21.8,19.83h-.41a.12.12,0,0,1-.12-.12.13.13,0,0,1,.12-.12h.41a.13.13,0,0,1,.12.12A.12.12,0,0,1,21.8,19.83Z"/><path class="cls-19" d="M22.92,19.83h-.55a.12.12,0,0,1-.12-.12.12.12,0,0,1,.12-.12h.55a.12.12,0,0,1,.12.12A.12.12,0,0,1,22.92,19.83Z"/><path class="cls-17" d="M23.4,20.83h-4a.12.12,0,0,1-.12-.12.12.12,0,0,1,.12-.12h4a.12.12,0,0,1,.12.12A.12.12,0,0,1,23.4,20.83Z"/><path class="cls-18" d="M22,21.34H19.38a.12.12,0,0,1-.12-.12.12.12,0,0,1,.12-.12H22a.12.12,0,0,1,.11.12A.11.11,0,0,1,22,21.34Z"/><path class="cls-19" d="M20.93,21.88H19.38a.12.12,0,0,1-.12-.12.12.12,0,0,1,.12-.12h1.55a.12.12,0,0,1,.12.12A.12.12,0,0,1,20.93,21.88Z"/><path class="cls-19" d="M21.8,21.88h-.41a.13.13,0,0,1-.12-.12.12.12,0,0,1,.12-.12h.41a.12.12,0,0,1,.12.12A.13.13,0,0,1,21.8,21.88Z"/><path class="cls-19" d="M22.92,21.88h-.55a.12.12,0,0,1-.12-.12.12.12,0,0,1,.12-.12h.55a.12.12,0,0,1,.12.12A.12.12,0,0,1,22.92,21.88Z"/><path class="cls-16" d="M23.4,20.33h-4a.12.12,0,0,1-.13-.12.13.13,0,0,1,.13-.13h4a.13.13,0,0,1,.13.13A.12.12,0,0,1,23.4,20.33Z"/><path class="cls-16" d="M23.4,22.38h-4a.12.12,0,0,1-.13-.12.13.13,0,0,1,.13-.13h4a.13.13,0,0,1,.13.13A.12.12,0,0,1,23.4,22.38Z"/><path class="cls-17" d="M23.4,22.88h-4a.12.12,0,0,1-.12-.12.12.12,0,0,1,.12-.12h4a.12.12,0,0,1,.12.12A.12.12,0,0,1,23.4,22.88Z"/><path class="cls-18" d="M22,23.39H19.38a.12.12,0,0,1-.12-.12.12.12,0,0,1,.12-.12H22a.11.11,0,0,1,.11.12A.12.12,0,0,1,22,23.39Z"/><path class="cls-19" d="M20.93,23.92H19.38a.11.11,0,0,1-.12-.11.12.12,0,0,1,.12-.12h1.55a.12.12,0,0,1,.12.12A.11.11,0,0,1,20.93,23.92Z"/><path class="cls-19" d="M21.8,23.92h-.41a.12.12,0,0,1-.12-.11.12.12,0,0,1,.12-.12h.41a.12.12,0,0,1,.12.12A.12.12,0,0,1,21.8,23.92Z"/><path class="cls-19" d="M22.92,23.92h-.55a.11.11,0,0,1-.12-.11.12.12,0,0,1,.12-.12h.55a.12.12,0,0,1,.12.12A.11.11,0,0,1,22.92,23.92Z"/><path class="cls-20" d="M28.78,23.33H26.71a.06.06,0,0,1-.06-.06.07.07,0,0,1,.06-.07h2.07a.07.07,0,0,1,.06.07A.06.06,0,0,1,28.78,23.33Z"/><path class="cls-20" d="M28,23.59H26.71a.06.06,0,0,1-.06-.06.07.07,0,0,1,.06-.07H28a.07.07,0,0,1,.07.07A.07.07,0,0,1,28,23.59Z"/><path class="cls-20" d="M27.51,23.87h-.8a.06.06,0,0,1-.06-.06.07.07,0,0,1,.06-.07h.8a.07.07,0,0,1,.06.07A.06.06,0,0,1,27.51,23.87Z"/><path class="cls-20" d="M28,23.87h-.2a.07.07,0,0,1-.07-.06.07.07,0,0,1,.07-.07H28a.07.07,0,0,1,.07.07A.07.07,0,0,1,28,23.87Z"/><path class="cls-20" d="M28.53,23.87h-.28a.07.07,0,0,1-.07-.06.07.07,0,0,1,.07-.07h.28a.07.07,0,0,1,.06.07A.06.06,0,0,1,28.53,23.87Z"/><path class="cls-20" d="M28.78,22.17H26.71a.07.07,0,0,1-.06-.07.06.06,0,0,1,.06-.06h2.07a.06.06,0,0,1,.06.06A.07.07,0,0,1,28.78,22.17Z"/><path class="cls-20" d="M28,22.43H26.71a.07.07,0,0,1-.06-.07.06.06,0,0,1,.06-.06H28a.07.07,0,0,1,.07.06A.07.07,0,0,1,28,22.43Z"/><path class="cls-20" d="M27.51,22.7h-.8a.06.06,0,0,1-.06-.06.06.06,0,0,1,.06-.06h.8a.06.06,0,0,1,.06.06A.06.06,0,0,1,27.51,22.7Z"/><path class="cls-20" d="M28,22.7h-.2a.07.07,0,0,1-.07-.06s0-.06.07-.06H28s.07,0,.07.06A.07.07,0,0,1,28,22.7Z"/><path class="cls-20" d="M28.53,22.7h-.28a.07.07,0,0,1-.07-.06s0-.06.07-.06h.28a.06.06,0,0,1,.06.06A.06.06,0,0,1,28.53,22.7Z"/><path class="cls-20" d="M28.78,19.83H26.71a.06.06,0,0,1-.06-.06.07.07,0,0,1,.06-.07h2.07a.07.07,0,0,1,.06.07A.06.06,0,0,1,28.78,19.83Z"/><path class="cls-20" d="M28,20.09H26.71a.06.06,0,0,1-.06-.06.06.06,0,0,1,.06-.06H28a.07.07,0,0,1,.07.06S28.07,20.09,28,20.09Z"/><path class="cls-20" d="M27.51,20.37h-.8a.06.06,0,0,1-.06-.06.07.07,0,0,1,.06-.07h.8a.07.07,0,0,1,.06.07A.06.06,0,0,1,27.51,20.37Z"/><path class="cls-20" d="M28,20.37h-.2a.07.07,0,0,1-.07-.06.07.07,0,0,1,.07-.07H28a.07.07,0,0,1,.07.07A.07.07,0,0,1,28,20.37Z"/><path class="cls-20" d="M28.53,20.37h-.28a.07.07,0,0,1-.07-.06.07.07,0,0,1,.07-.07h.28a.07.07,0,0,1,.06.07A.06.06,0,0,1,28.53,20.37Z"/><path class="cls-20" d="M28.78,21H26.71a.07.07,0,0,1-.06-.07.06.06,0,0,1,.06-.06h2.07a.06.06,0,0,1,.06.06A.07.07,0,0,1,28.78,21Z"/><path class="cls-20" d="M28,21.26H26.71a.06.06,0,0,1-.06-.06.07.07,0,0,1,.06-.07H28a.07.07,0,0,1,.07.07A.07.07,0,0,1,28,21.26Z"/><path class="cls-20" d="M27.51,21.54h-.8a.07.07,0,0,1-.06-.07.06.06,0,0,1,.06-.06h.8a.06.06,0,0,1,.06.06A.07.07,0,0,1,27.51,21.54Z"/><path class="cls-20" d="M28,21.54h-.2a.07.07,0,0,1-.07-.07.07.07,0,0,1,.07-.06H28a.07.07,0,0,1,.07.06A.07.07,0,0,1,28,21.54Z"/><path class="cls-20" d="M28.53,21.54h-.28a.07.07,0,0,1-.07-.07.07.07,0,0,1,.07-.06h.28a.06.06,0,0,1,.06.06A.07.07,0,0,1,28.53,21.54Z"/><path class="cls-20" d="M28.78,18.67H26.71a.07.07,0,0,1-.06-.07.06.06,0,0,1,.06-.06h2.07a.06.06,0,0,1,.06.06A.07.07,0,0,1,28.78,18.67Z"/><path class="cls-20" d="M28,18.93H26.71a.07.07,0,0,1-.06-.07.06.06,0,0,1,.06-.06H28a.07.07,0,0,1,.07.06A.07.07,0,0,1,28,18.93Z"/><path class="cls-20" d="M27.51,19.21h-.8a.07.07,0,0,1-.06-.07.06.06,0,0,1,.06-.06h.8a.06.06,0,0,1,.06.06A.07.07,0,0,1,27.51,19.21Z"/><path class="cls-20" d="M28,19.21h-.2a.07.07,0,0,1-.07-.07.07.07,0,0,1,.07-.06H28a.07.07,0,0,1,.07.06A.07.07,0,0,1,28,19.21Z"/><path class="cls-20" d="M28.53,19.21h-.28a.07.07,0,0,1-.07-.07.07.07,0,0,1,.07-.06h.28a.06.06,0,0,1,.06.06A.07.07,0,0,1,28.53,19.21Z"/><circle class="cls-8" cx="18.78" cy="16.91" r="0.2"/><circle class="cls-7" cx="19.4" cy="16.91" r="0.2"/><circle class="cls-9" cx="20.03" cy="16.91" r="0.2"/><path class="cls-3" d="M29.25,25.22H18.33a.62.62,0,0,1-.62-.62V16.83a.62.62,0,0,1,.62-.62H29.25a.62.62,0,0,1,.62.62V24.6A.62.62,0,0,1,29.25,25.22ZM18.33,16.45a.38.38,0,0,0-.38.38V24.6a.38.38,0,0,0,.38.38H29.25a.39.39,0,0,0,.39-.38V16.83a.39.39,0,0,0-.39-.38Z"/><path class="cls-3" d="M20.54,17.61H17.9a.09.09,0,0,1-.08-.08.08.08,0,0,1,.08-.07h2.64a.08.08,0,0,1,.08.07A.09.09,0,0,1,20.54,17.61Z"/><path class="cls-3" d="M29.66,17.61H21.23a.08.08,0,0,1-.08-.08.07.07,0,0,1,.08-.07h8.43a.07.07,0,0,1,.08.07A.08.08,0,0,1,29.66,17.61Z"/><rect class="cls-12" x="16.53" y="22.41" width="5.27" height="3.87" rx="0.22"/><path class="cls-3" d="M21.76,23.27H17.85a.09.09,0,0,1,0-.18h3.91a.09.09,0,0,1,0,.18Z"/><circle class="cls-8" cx="16.95" cy="22.8" r="0.09"/><circle class="cls-7" cx="17.22" cy="22.8" r="0.09"/><circle class="cls-9" cx="17.5" cy="22.8" r="0.09"/><polygon class="cls-1" points="20.81 22.41 20.06 26.28 19.34 26.28 20.09 22.41 20.81 22.41"/><polygon class="cls-1" points="21.35 22.41 20.59 26.28 20.28 26.28 21.04 22.41 21.35 22.41"/><path class="cls-3" d="M17.32,23.27h-.76a.09.09,0,0,1,0-.18h.76a.09.09,0,0,1,0,.18Z"/><path class="cls-3" d="M21.58,26.37H16.75a.31.31,0,0,1-.31-.31V22.63a.31.31,0,0,1,.31-.31h4.83a.3.3,0,0,1,.3.31v3.43A.3.3,0,0,1,21.58,26.37ZM16.75,22.5a.13.13,0,0,0-.13.13v3.43a.13.13,0,0,0,.13.13h4.83a.13.13,0,0,0,.13-.13V22.63a.13.13,0,0,0-.13-.13Z"/><rect class="cls-2" x="1.78" y="4.59" width="12.26" height="7.86" rx="0.88"/><rect class="cls-21" x="1.39" y="3.05" width="11.93" height="8.76" rx="0.5"/><polygon class="cls-22" points="7.43 3.05 5.72 11.82 5.02 11.82 6.73 3.05 7.43 3.05"/><polygon class="cls-22" points="10.68 3.04 8.98 11.81 7.35 11.81 9.06 3.04 10.68 3.04"/><polygon class="cls-22" points="11.9 3.04 10.19 11.81 9.49 11.81 11.2 3.04 11.9 3.04"/><path class="cls-22" d="M2.34,10.4a.13.13,0,0,1-.13-.13V5.59a.12.12,0,0,1,.13-.12.12.12,0,0,1,.12.12v4.68A.12.12,0,0,1,2.34,10.4Z"/><path class="cls-23" d="M7,5.5h-4a.12.12,0,0,1-.12-.12.12.12,0,0,1,.12-.12H7a.12.12,0,0,1,.12.12A.12.12,0,0,1,7,5.5Z"/><path class="cls-24" d="M5.52,6H2.94a.12.12,0,0,1-.12-.12.12.12,0,0,1,.12-.12H5.52a.12.12,0,0,1,.11.12A.11.11,0,0,1,5.52,6Z"/><path class="cls-25" d="M4.49,6.55H2.94a.12.12,0,0,1-.12-.12.12.12,0,0,1,.12-.12H4.49a.12.12,0,0,1,.12.12A.12.12,0,0,1,4.49,6.55Z"/><path class="cls-25" d="M5.36,6.55H5a.13.13,0,0,1-.12-.12A.12.12,0,0,1,5,6.31h.41a.12.12,0,0,1,.12.12A.13.13,0,0,1,5.36,6.55Z"/><path class="cls-25" d="M6.48,6.55H5.93a.12.12,0,0,1-.12-.12.12.12,0,0,1,.12-.12h.55a.12.12,0,0,1,.12.12A.12.12,0,0,1,6.48,6.55Z"/><path class="cls-23" d="M7,7.54h-4a.11.11,0,0,1-.12-.11.12.12,0,0,1,.12-.12H7a.12.12,0,0,1,.12.12A.11.11,0,0,1,7,7.54Z"/><path class="cls-24" d="M5.52,8.06H2.94a.12.12,0,0,1-.12-.12.12.12,0,0,1,.12-.12H5.52a.11.11,0,0,1,.11.12A.12.12,0,0,1,5.52,8.06Z"/><path class="cls-25" d="M4.49,8.59H2.94a.11.11,0,0,1-.12-.11.12.12,0,0,1,.12-.12H4.49a.12.12,0,0,1,.12.12A.11.11,0,0,1,4.49,8.59Z"/><path class="cls-25" d="M5.36,8.59H5a.12.12,0,0,1-.12-.11A.12.12,0,0,1,5,8.36h.41a.12.12,0,0,1,.12.12A.12.12,0,0,1,5.36,8.59Z"/><path class="cls-25" d="M6.48,8.59H5.93a.11.11,0,0,1-.12-.11.12.12,0,0,1,.12-.12h.55a.12.12,0,0,1,.12.12A.11.11,0,0,1,6.48,8.59Z"/><path class="cls-26" d="M7,7.05h-4a.12.12,0,0,1-.13-.12.13.13,0,0,1,.13-.13H7a.13.13,0,0,1,.13.13A.12.12,0,0,1,7,7.05Z"/><path class="cls-26" d="M7,9.1h-4A.13.13,0,0,1,2.81,9a.13.13,0,0,1,.13-.12H7A.13.13,0,0,1,7.09,9,.13.13,0,0,1,7,9.1Z"/><path class="cls-23" d="M7,9.59h-4a.12.12,0,0,1-.12-.12.12.12,0,0,1,.12-.12H7a.12.12,0,0,1,.12.12A.12.12,0,0,1,7,9.59Z"/><path class="cls-24" d="M5.52,10.1H2.94A.12.12,0,0,1,2.82,10a.11.11,0,0,1,.12-.11H5.52a.11.11,0,0,1,.11.11A.11.11,0,0,1,5.52,10.1Z"/><path class="cls-25" d="M4.49,10.64H2.94a.12.12,0,0,1-.12-.12.12.12,0,0,1,.12-.12H4.49a.12.12,0,0,1,.12.12A.12.12,0,0,1,4.49,10.64Z"/><path class="cls-25" d="M5.36,10.64H5a.12.12,0,0,1-.12-.12A.13.13,0,0,1,5,10.4h.41a.13.13,0,0,1,.12.12A.12.12,0,0,1,5.36,10.64Z"/><path class="cls-25" d="M6.48,10.64H5.93a.12.12,0,0,1-.12-.12.12.12,0,0,1,.12-.12h.55a.12.12,0,0,1,.12.12A.12.12,0,0,1,6.48,10.64Z"/><path class="cls-27" d="M12.34,10.05H10.27a.07.07,0,0,1-.06-.07.06.06,0,0,1,.06-.06h2.07a.06.06,0,0,1,.06.06A.07.07,0,0,1,12.34,10.05Z"/><path class="cls-27" d="M11.59,10.31H10.27a.06.06,0,0,1-.06-.06.07.07,0,0,1,.06-.07h1.32a.07.07,0,0,1,.07.07A.07.07,0,0,1,11.59,10.31Z"/><path class="cls-27" d="M11.07,10.59h-.8a.07.07,0,0,1-.06-.07.06.06,0,0,1,.06-.06h.8a.06.06,0,0,1,.06.06S11.11,10.59,11.07,10.59Z"/><path class="cls-27" d="M11.51,10.59h-.2a.07.07,0,0,1-.07-.07.07.07,0,0,1,.07-.06h.2a.07.07,0,0,1,.07.06A.07.07,0,0,1,11.51,10.59Z"/><path class="cls-27" d="M12.09,10.59h-.28a.07.07,0,0,1-.07-.07.07.07,0,0,1,.07-.06h.28a.06.06,0,0,1,.06.06A.07.07,0,0,1,12.09,10.59Z"/><path class="cls-27" d="M12.34,8.88H10.27a.06.06,0,0,1-.06-.06.07.07,0,0,1,.06-.07h2.07a.07.07,0,0,1,.06.07A.06.06,0,0,1,12.34,8.88Z"/><path class="cls-27" d="M11.59,9.15H10.27a.07.07,0,0,1-.06-.07A.06.06,0,0,1,10.27,9h1.32a.07.07,0,0,1,.07.06A.07.07,0,0,1,11.59,9.15Z"/><path class="cls-27" d="M11.07,9.42h-.8a.06.06,0,0,1-.06-.06.07.07,0,0,1,.06-.07h.8s.06,0,.06.07A.06.06,0,0,1,11.07,9.42Z"/><path class="cls-27" d="M11.51,9.42h-.2a.07.07,0,0,1-.07-.06.07.07,0,0,1,.07-.07h.2a.07.07,0,0,1,.07.07A.07.07,0,0,1,11.51,9.42Z"/><path class="cls-27" d="M12.09,9.42h-.28a.07.07,0,0,1-.07-.06.07.07,0,0,1,.07-.07h.28a.07.07,0,0,1,.06.07A.06.06,0,0,1,12.09,9.42Z"/><path class="cls-27" d="M12.34,6.55H10.27a.06.06,0,0,1-.06-.06.07.07,0,0,1,.06-.07h2.07a.07.07,0,0,1,.06.07A.06.06,0,0,1,12.34,6.55Z"/><path class="cls-27" d="M11.59,6.81H10.27a.06.06,0,0,1-.06-.06.07.07,0,0,1,.06-.07h1.32a.07.07,0,0,1,.07.07A.07.07,0,0,1,11.59,6.81Z"/><path class="cls-27" d="M11.07,7.09h-.8A.07.07,0,0,1,10.21,7,.06.06,0,0,1,10.27,7h.8a.06.06,0,0,1,.06.06S11.11,7.09,11.07,7.09Z"/><path class="cls-27" d="M11.51,7.09h-.2A.07.07,0,0,1,11.24,7,.07.07,0,0,1,11.31,7h.2a.07.07,0,0,1,.07.06A.07.07,0,0,1,11.51,7.09Z"/><path class="cls-27" d="M12.09,7.09h-.28A.07.07,0,0,1,11.74,7,.07.07,0,0,1,11.81,7h.28a.06.06,0,0,1,.06.06A.07.07,0,0,1,12.09,7.09Z"/><path class="cls-27" d="M12.34,7.72H10.27a.07.07,0,0,1-.06-.07.06.06,0,0,1,.06-.06h2.07a.06.06,0,0,1,.06.06A.07.07,0,0,1,12.34,7.72Z"/><path class="cls-27" d="M11.59,8H10.27a.07.07,0,0,1-.06-.07.06.06,0,0,1,.06-.06h1.32a.07.07,0,0,1,.07.06A.07.07,0,0,1,11.59,8Z"/><path class="cls-27" d="M11.07,8.25h-.8a.06.06,0,0,1-.06-.06.06.06,0,0,1,.06-.06h.8a.06.06,0,0,1,.06.06A.05.05,0,0,1,11.07,8.25Z"/><path class="cls-27" d="M11.51,8.25h-.2s-.07,0-.07-.06a.07.07,0,0,1,.07-.06h.2a.07.07,0,0,1,.07.06S11.55,8.25,11.51,8.25Z"/><path class="cls-27" d="M12.09,8.25h-.28s-.07,0-.07-.06a.07.07,0,0,1,.07-.06h.28a.06.06,0,0,1,.06.06A.06.06,0,0,1,12.09,8.25Z"/><path class="cls-27" d="M12.34,5.38H10.27a.06.06,0,0,1-.06-.06.07.07,0,0,1,.06-.07h2.07a.07.07,0,0,1,.06.07A.06.06,0,0,1,12.34,5.38Z"/><path class="cls-27" d="M11.59,5.65H10.27a.07.07,0,0,1-.06-.07.06.06,0,0,1,.06-.06h1.32a.07.07,0,0,1,.07.06A.07.07,0,0,1,11.59,5.65Z"/><path class="cls-27" d="M11.07,5.92h-.8a.06.06,0,0,1-.06-.06.07.07,0,0,1,.06-.07h.8s.06,0,.06.07A.06.06,0,0,1,11.07,5.92Z"/><path class="cls-27" d="M11.51,5.92h-.2a.07.07,0,0,1-.07-.06.07.07,0,0,1,.07-.07h.2a.07.07,0,0,1,.07.07A.07.07,0,0,1,11.51,5.92Z"/><path class="cls-27" d="M12.09,5.92h-.28a.07.07,0,0,1-.07-.06.07.07,0,0,1,.07-.07h.28a.07.07,0,0,1,.06.07A.06.06,0,0,1,12.09,5.92Z"/><circle class="cls-8" cx="2.34" cy="3.63" r="0.2"/><circle class="cls-7" cx="2.96" cy="3.63" r="0.2"/><circle class="cls-9" cx="3.59" cy="3.63" r="0.2"/><path class="cls-3" d="M12.82,11.93H1.89a.62.62,0,0,1-.62-.62V3.55a.62.62,0,0,1,.62-.62H12.82a.61.61,0,0,1,.61.62v7.76A.61.61,0,0,1,12.82,11.93ZM1.89,3.17a.38.38,0,0,0-.38.38v7.76a.39.39,0,0,0,.38.39H12.82a.39.39,0,0,0,.38-.39V3.55a.38.38,0,0,0-.38-.38Z"/><path class="cls-3" d="M4.1,4.32H1.46a.07.07,0,1,1,0-.14H4.1a.07.07,0,1,1,0,.14Z"/><path class="cls-3" d="M13.22,4.32H4.79a.07.07,0,1,1,0-.14h8.43a.07.07,0,1,1,0,.14Z"/><rect class="cls-12" x="0.09" y="9.13" width="5.27" height="3.87" rx="0.22"/><path class="cls-3" d="M5.32,10H1.41a.09.09,0,0,1,0-.18H5.32a.09.09,0,0,1,0,.18Z"/><circle class="cls-8" cx="0.51" cy="9.52" r="0.09"/><circle class="cls-7" cx="0.78" cy="9.52" r="0.09"/><circle class="cls-9" cx="1.06" cy="9.52" r="0.09"/><polygon class="cls-1" points="4.37 9.13 3.62 13 2.9 13 3.65 9.13 4.37 9.13"/><polygon class="cls-1" points="4.91 9.13 4.15 13 3.84 13 4.6 9.13 4.91 9.13"/><path class="cls-3" d="M.88,10H.12a.09.09,0,1,1,0-.18H.88a.09.09,0,0,1,0,.18Z"/><path class="cls-3" d="M5.14,13.09H.31A.31.31,0,0,1,0,12.78V9.35A.31.31,0,0,1,.31,9H5.14a.31.31,0,0,1,.31.31v3.43A.31.31,0,0,1,5.14,13.09ZM.31,9.22a.13.13,0,0,0-.13.13v3.43a.13.13,0,0,0,.13.13H5.14a.13.13,0,0,0,.13-.13V9.35a.13.13,0,0,0-.13-.13Z"/><circle class="cls-1" cx="13.79" cy="2.24" r="2.12"/><path class="cls-3" d="M13.79,4.47A2.24,2.24,0,1,1,16,2.24,2.23,2.23,0,0,1,13.79,4.47Zm0-4.23a2,2,0,1,0,2,2A2,2,0,0,0,13.79.24Z"/><text class="cls-28" transform="translate(12.33 2.62)">&lt;/&gt;</text></g></g></svg>