<svg xmlns="http://www.w3.org/2000/svg" viewBox="0 0 412.45 520.49"><defs><style>.cls-1,.cls-4{opacity:0.3;}.cls-2,.cls-4{fill:#77b7b6;}.cls-11,.cls-12,.cls-3{fill:#232144;}.cls-5{fill:#fff;}.cls-6{fill:#7f1212;}.cls-7{fill:#2e4c64;}.cls-8{fill:#1e3c51;}.cls-25,.cls-38,.cls-9{fill:#e0f3fc;}.cls-24,.cls-9{opacity:0.58;}.cls-10{fill:#effdfd;}.cls-11{opacity:0.34;}.cls-12{opacity:0.54;}.cls-13{fill:#ffb999;}.cls-14{fill:#f57a59;}.cls-15{fill:#fe4a65;}.cls-16{fill:#ff859c;}.cls-17{fill:#fce6ed;}.cls-18{fill:#84ecff;}.cls-19,.cls-20{fill:#29afd3;}.cls-19{opacity:0.5;}.cls-21{fill:#ea1859;}.cls-22{fill:#c64f4f;}.cls-23{fill:#a02727;}.cls-26{fill:#29fc97;}.cls-27{fill:#9cf7c9;}.cls-28{fill:#ea6e6e;}.cls-29{fill:#f99;}.cls-30{fill:#acd9ea;}.cls-31{fill:#b20040;}.cls-32{fill:#ffa744;}.cls-33{fill:#f97c00;}.cls-34{fill:#ffdab6;}.cls-35{fill:#9671c3;}.cls-36{fill:#ebdeff;}.cls-37{fill:#c6a2f9;}.cls-38{opacity:0.51;}</style></defs><g id="Layer_2" data-name="Layer 2"><g id="Layer_1-2" data-name="Layer 1"><g class="cls-1"><path class="cls-2" d="M125,494.71c16-4.07,31.12-14,47.42-17.61,19.93-4.45,35.53,15,52.44,22-2.66,5.94-19.42,11.07-25.61,13.41-9.42,3.55-20.26,7.14-30.36,7.92-15.16,1.17-25.11-9.28-36.48-17.34l1.6,1.27"/></g><path class="cls-3" d="M28,123.25A6.25,6.25,0,1,1,34.23,117,6.25,6.25,0,0,1,28,123.25Zm0-11.49A5.25,5.25,0,1,0,33.23,117,5.25,5.25,0,0,0,28,111.76Z"/><path class="cls-4" d="M63.88,86l44.6,22.14,16.63-33.22L78.91,53.06S73.26,75.2,63.88,86Z"/><polygon class="cls-5" points="83.79 61.69 79.94 70.44 90.01 75.24 95.09 66.59 83.79 61.69"/><path class="cls-6" d="M130.31,134.87c-3.06-3.06,2.43,8.52,6,11a16.21,16.21,0,0,0,12.4,2.46v-14S130.49,135.05,130.31,134.87Z"/><path class="cls-3" d="M145.41,149.17A16.49,16.49,0,0,1,136,146.3a14.57,14.57,0,0,1-6.19-11.42.52.52,0,0,1,.5-.51.5.5,0,0,1,.5.5,13.54,13.54,0,0,0,5.76,10.61,15.8,15.8,0,0,0,12,2.38.5.5,0,1,1,.2,1A17.44,17.44,0,0,1,145.41,149.17Z"/><path class="cls-7" d="M202.12,486.09l.41,16A5.88,5.88,0,0,0,204.2,507h0a6,6,0,0,0,2.25,1.41c10,3.42,16.24,5.75,26.69,7l3.5.4L240,516l3.59-.26a52.08,52.08,0,0,0,15-4.21h0a8.35,8.35,0,0,0-1.87-9.61,82.49,82.49,0,0,0-33.25-18.76l-5-7.71c3,1.45,5,3.91,5,6.7,0,4.46-5,8.06-11.19,8.06s-11.18-3.6-11.18-8.06a7.35,7.35,0,0,1,3.81-6.06"/><path class="cls-8" d="M259.3,508.13a8.33,8.33,0,0,1-.77,3.51,51.86,51.86,0,0,1-15,4.21l-3.6.27-3.39-.19-3.5-.41c-10.45-1.21-16.73-3.54-26.68-7a5.76,5.76,0,0,1-2.25-1.41,5.85,5.85,0,0,1-1.68-4.89l-.12-4.95c5.67,5.1,16.09,8.85,28.17,9.51,10.45.57,19.92-1.31,26.29-4.71A8.32,8.32,0,0,1,259.3,508.13Z"/><path class="cls-7" d="M133.15,474.39c-3,1.31-5,3.53-5,6.06,0,4,5,7.29,11.18,7.29s11.18-3.26,11.18-7.29c0-2.19-1.47-4.15-3.81-5.48l3.59,7.35,1.44,16.14a12.11,12.11,0,0,1-1.22,6.46l-.22.42a127.38,127.38,0,0,1-27.78,6.44l-9.11.28a45,45,0,0,1-13.07-3.65h0a7.28,7.28,0,0,1,1.63-8.36,71.91,71.91,0,0,1,27.69-15.95Z"/><path class="cls-8" d="M139.54,489.75a19.6,19.6,0,0,1-5.92-.88,1,1,0,0,1,.63-1.89,17.81,17.81,0,0,0,10.16,0,1,1,0,1,1,.65,1.89A17,17,0,0,1,139.54,489.75Z"/><path class="cls-8" d="M151,504.34l-.54,1.09A125.6,125.6,0,0,1,122.88,512l-3.82.5-5.67-.14a44.33,44.33,0,0,1-12.92-3.83,7.35,7.35,0,0,1-.67-3.06,7.2,7.2,0,0,1,2.3-5.3l.24-.22c7.71,4.09,19.14,5.88,31.52,4.3a65,65,0,0,0,18.07-4.91h0A9.41,9.41,0,0,1,151,504.34Z"/><rect class="cls-9" x="235.32" y="255.2" width="96.56" height="71.91" rx="4.63"/><path class="cls-10" d="M271.81,255.49l-28.2,71.61,26,.19,23.53-71.72,0,0S272.5,255.2,271.81,255.49Z"/><path class="cls-5" d="M297,255.49l-24.2,71.61h6.4l24.11-71.71h-2.07A21.63,21.63,0,0,0,297,255.49Z"/><polygon class="cls-5" points="271.97 285.12 261.99 290.88 252.02 296.64 252.02 285.12 252.02 273.6 261.99 279.36 271.97 285.12"/><path class="cls-11" d="M299.34,112.8a8.62,8.62,0,1,1,8.62-8.62A8.63,8.63,0,0,1,299.34,112.8Zm0-16.24a7.62,7.62,0,1,0,7.62,7.62A7.63,7.63,0,0,0,299.34,96.56Z"/><path class="cls-12" d="M299.34,116.23a12.06,12.06,0,1,1,12.06-12A12.06,12.06,0,0,1,299.34,116.23Zm0-23.11a11.06,11.06,0,1,0,11.06,11.06A11.07,11.07,0,0,0,299.34,93.12Z"/><rect class="cls-5" x="290.66" y="73.91" width="37.27" height="32.56" rx="2.3" transform="translate(-12.88 88.54) rotate(-15.96)"/><path class="cls-13" d="M52.24,170.21c-2.1-5.65-7.5-11.48-7.5-11.48l1.86,2.2,1.89-19.62L31.37,117.6l-1.18-1.32c-1.17-1.32-1.56-.89-1.56-.89l-1.59.32c-1.41,1-.94,3.2-.94,3.2l1,2.45,8.22,16.85-3.1-1c-4.33,1.23-5.18,5.74-5.18,5.74v8.48S39.33,161.13,39.77,172l7.88,3.41Z"/><path class="cls-14" d="M40.9,172.44A1.5,1.5,0,0,1,39.4,171c-.52-10.76-11.4-18.31-11.51-18.38a1.51,1.51,0,0,1-.65-1.23l-.1-8.47a1.28,1.28,0,0,1,0-.19A7.35,7.35,0,0,1,31.57,137a1.5,1.5,0,1,1,1.1,2.79A4.29,4.29,0,0,0,30.14,143l.09,7.6c2.55,1.92,11.65,9.48,12.17,20.26A1.51,1.51,0,0,1,41,172.44Z"/><path class="cls-15" d="M283.73,158.23c-6.36,16.52-36.56,48.27-36.56,48.27l.44.31c-26-17.69-59.72-29.72-68.92-32.82a15,15,0,0,0-4.84-.8H157.47l-16.71,6L119.17,197,97.66,211.36,53,169.19c-6.74,5.64-16.56,1.48-16.93,1.33L81.47,237h6.76a66.48,66.48,0,0,0,33.68-9.16l2.66-1.57v-5.84L128,265.57l6-5.65-10.91,10.92v11.77l5.46,5-7.1,6.22,2,13.17,2.26.91a108.67,108.67,0,0,0,83.2-.91l5.84-10.92-1-5.21-3.51,2-.21-.47-1.31-5.76-4.39-4-.68-1-1.94-31.8a4.63,4.63,0,0,1,.29-1.61l4.65-12.7a4.67,4.67,0,0,0,.29-1.61V219.78l50.32,12.94a6.71,6.71,0,0,0,7.62-3.4l33.26-63.75C290.5,165.29,283.73,158.23,283.73,158.23Z"/><path class="cls-16" d="M112.55,204.84a1.5,1.5,0,0,1-.8-2.77l7.11-4.46,14.89-12.5a1.5,1.5,0,0,1,1.93,2.29l-15,12.57-.17.12-7.2,4.52A1.51,1.51,0,0,1,112.55,204.84Z"/><path class="cls-13" d="M285.75,160.35V127.68l10.94-24.77,1.29-1.36s2.57-2.12,4.08,0a5.83,5.83,0,0,1,.51,4.87l-.92,1.77-8.38,18.44,1.54-3.2h7.25l2.35,1.88,4.89,7.16-1.13,9.41-6.78,9.6-6.58,13.9"/><path class="cls-17" d="M287,147.66a1.5,1.5,0,0,1-1.5-1.5v-14.4a1.5,1.5,0,0,1,3,0v14.4A1.5,1.5,0,0,1,287,147.66Z"/><path class="cls-14" d="M294.24,164.27a1.42,1.42,0,0,1-.64-.14,1.5,1.5,0,0,1-.71-2l5.64-11.86a1.76,1.76,0,0,1,.14-.23l6.78-9.41a1.5,1.5,0,0,1,2.43,1.75l-6.7,9.3-5.58,11.74A1.51,1.51,0,0,1,294.24,164.27Z"/><path class="cls-13" d="M165.56,181.15h0c-4.31,0-8.78-3.67-7.81-7.81V152.47h15.62l.21,21.08C173.58,179.49,173.37,181.15,165.56,181.15Z"/><path class="cls-14" d="M157.3,167.55a15.69,15.69,0,0,0,16.23,0V157.31H157.37S157,167.55,157.3,167.55Z"/><path class="cls-7" d="M206.43,493.43l-5.08-10.3,2.4-4.1,3.38-6.77,7.63-.71,6.63,7.34L228,489.62s-6.35,5.22-7.06,5.36"/><path class="cls-7" d="M133.15,474.39c-3,1.31-5,3.53-5,6.06,0,4,5,7.29,11.18,7.29s11.18-3.26,11.18-7.29c0-2.19-2.53-5.3-5.81-6.57l-9-.35Z"/><path class="cls-13" d="M204,470.48l3,10.82a3.19,3.19,0,0,0,2.71,2.33,10.06,10.06,0,0,0,7.7-2.09,3.18,3.18,0,0,0,1-2.82L217,469"/><path class="cls-14" d="M202,461.73l3,10.81a3.17,3.17,0,0,0,2.7,2.34,10.06,10.06,0,0,0,7.7-2.09,3.19,3.19,0,0,0,1-2.83l-1.33-9.67"/><path class="cls-13" d="M135.73,471.09v8.55s4.53,3.2,9.05,0v-9.09"/><path class="cls-14" d="M135.73,465.44V474s4.53,3.2,9.05,0v-9.1"/><path class="cls-16" d="M90.66,209.36a1.5,1.5,0,0,1-1-.42L58,178.44a1.5,1.5,0,1,1,2.08-2.16l31.63,30.5a1.5,1.5,0,0,1-1,2.58Z"/><path class="cls-18" d="M223.28,466c-14.68,9.32-23.44,2.83-23.44,2.83l-4-28.24-11.58-44-15-49.7L150.71,469c-19.48,7.06-25.41-3.8-25.41-3.8l1.41-156.42c25.72,9.51,56.18,9.63,81.54-.94Z"/><path class="cls-19" d="M149.49,316.37c-3.73,34.89-4.44,110-8.28,155-12.24.28-15.91-6.19-15.91-6.19l1.47-156.75C138,312.57,137.73,316.05,149.49,316.37Z"/><path class="cls-20" d="M161.92,385.76l-.29,0a2,2,0,0,1-1.69-2.27l4.51-30.89a2,2,0,0,1,4,.57l-4.52,30.9A2,2,0,0,1,161.92,385.76Z"/><path class="cls-20" d="M195.79,436.47a2,2,0,0,1-1.93-1.48l-9.41-34.9a2,2,0,1,1,3.86-1l9.41,34.9a2,2,0,0,1-1.41,2.45A2.32,2.32,0,0,1,195.79,436.47Z"/><path class="cls-20" d="M152.46,446.3a1.42,1.42,0,0,1-.29,0,2,2,0,0,1-1.69-2.27L155,413.12a2,2,0,0,1,4,.58l-4.51,30.89A2,2,0,0,1,152.46,446.3Z"/><path class="cls-20" d="M167.57,320.08a111.79,111.79,0,0,1-35.13-5.6,2,2,0,1,1,1.3-3.78c8.82,3,40.19,11.75,73.45-2.68a2,2,0,1,1,1.59,3.67A103.07,103.07,0,0,1,167.57,320.08Z"/><path class="cls-20" d="M156.47,323.08h-.2a115,115,0,0,1-13.52-2.18,2,2,0,0,1,.88-3.9,111,111,0,0,0,13,2.1,2,2,0,0,1-.2,4Z"/><path class="cls-21" d="M78.34,231.47a1.51,1.51,0,0,1-1.24-.65L41.71,179.06a1.5,1.5,0,0,1,2.48-1.7l35.38,51.77a1.49,1.49,0,0,1-.39,2.08A1.46,1.46,0,0,1,78.34,231.47Z"/><path class="cls-16" d="M254.62,202.67a1.49,1.49,0,0,1-1.14-2.47l13.08-15.34,5.33-6.74a1.5,1.5,0,0,1,2.35,1.87l-5.36,6.77-13.12,15.39A1.52,1.52,0,0,1,254.62,202.67Z"/><path class="cls-16" d="M237.91,204.27a1.47,1.47,0,0,1-.82-.24c-18.55-12-49.21-23-49.52-23.14a1.5,1.5,0,1,1,1-2.82c.31.11,31.3,11.21,50.15,23.45a1.5,1.5,0,0,1-.82,2.75Z"/><path class="cls-17" d="M213.08,191.17a1.51,1.51,0,0,1-.62-.14c-3.67-1.66-7.56-3.33-11.55-5a1.5,1.5,0,1,1,1.13-2.77c4,1.65,8,3.33,11.66,5a1.5,1.5,0,0,1-.62,2.87Z"/><path class="cls-21" d="M256.34,232.72a1.14,1.14,0,0,1-.37-.05l-48.22-12.21a1.5,1.5,0,0,1,.74-2.91l48.21,12.22a1.5,1.5,0,0,1-.36,2.95Z"/><path class="cls-21" d="M264.87,227.14a1.49,1.49,0,0,1-1.32-2.2l22.59-42.35a1.5,1.5,0,1,1,2.65,1.41L266.2,226.35A1.49,1.49,0,0,1,264.87,227.14Z"/><path class="cls-21" d="M123.3,224a71.5,71.5,0,0,1-18.1,7.84c-6.17,1.7-13,3-19.43,2.38-1.92-.17-1.91,2.83,0,3a45.78,45.78,0,0,0,10.06-.46,73.5,73.5,0,0,0,10.17-2,74.84,74.84,0,0,0,18.82-8.14A1.5,1.5,0,0,0,123.3,224Z"/><path class="cls-21" d="M123.59,221.45a71.39,71.39,0,0,1-29.24,10c-1.9.21-1.92,3.21,0,3A75,75,0,0,0,125.1,224c1.65-1,.14-3.59-1.51-2.59Z"/><path class="cls-21" d="M124,217.7a72.42,72.42,0,0,1-21,9.16,1.5,1.5,0,0,0,.79,2.89,74.58,74.58,0,0,0,21.77-9.46c1.63-1,.12-3.64-1.51-2.59Z"/><path class="cls-21" d="M124.4,214.5a72.36,72.36,0,0,1-21.06,9.16c-1.87.48-1.07,3.37.8,2.89a74.81,74.81,0,0,0,21.77-9.46c1.62-1,.12-3.64-1.51-2.59Z"/><path class="cls-5" d="M213.08,386.66a2.5,2.5,0,0,1-2.48-2.27l-2.47-26.7a2.5,2.5,0,0,1,5-.47l2.47,26.71a2.51,2.51,0,0,1-2.26,2.72Z"/><path class="cls-5" d="M218.17,441a2.51,2.51,0,0,1-2.49-2.27L213.21,412a2.5,2.5,0,0,1,5-.47l2.47,26.71A2.51,2.51,0,0,1,218.4,441Z"/><path class="cls-21" d="M202.57,264.51,203.66,282l.68,1,4.39,4,1.31,5.75.21.47,3.51-2,1,5.21-5.84,10.92a108.67,108.67,0,0,1-83.2.91l-2.26-.91-2-13.17,7.1-6.22-5.46-5-.1-11.87,5-4.95s-1.28-18.21-1.7-25.69C143.89,256.84,202.57,264.51,202.57,264.51Z"/><path class="cls-22" d="M137.1,117.5a56.14,56.14,0,0,1,2.44,7.25c.79,3,1.1,6.68-1.29,8.61a2.13,2.13,0,0,1-1.09.52c-.41.05-1.76.93-2.13.75-2.87-1.41-2.62-6.18-4.63-8.66-.82-1-1.87-1.83-2.65-2.87-1-1.34-1.1-2.84-1.51-4.47-1.62-6.42-2.69-13.45-.7-19.77s7.07-12,13.59-13.16a6.39,6.39,0,0,0,1.61-.43c1.36-.67,1.93-2.08,2.51-3.48,1.24-3,5.72-6.33,8.87-7s2.82-.32,6-.29c2.13,0,6.32,1.8,7.71,3.52,1,1.27-1.39-.41.25-.41,10.88,0,17.61,5.91,20.39,12.4a12.36,12.36,0,0,1,1.12,5.16,30.15,30.15,0,0,1-1.18,8.2c.82,2.13,1.41,4.12,2.29,6.47s-.07,4.8-1.78,6.63c-.9,1-.94,1.91-2.18,2.31-15.39,5-32.53,5.53-46.23,14.15"/><path class="cls-23" d="M156.4,125A63.45,63.45,0,0,0,139,132c-.16.2,0,.75-.21.92a10.31,10.31,0,0,1-2.21,1.46c-.42,0-1-.37-1.38-.55-2.87-1.41-2.62-6.17-4.63-8.66-.82-1-4.65,1.27-5.43.22-1-1.34-1.1-4-1.06-5.72.21-7.83-.36-15.29,1.63-21.61A18,18,0,0,1,139.09,86c1.66,1.32,2.81,1.94,3.76,3.85,2.53,5.08,1.15,11.14,1.7,16.79A24.72,24.72,0,0,0,156.4,125Z"/><path class="cls-13" d="M185.14,114.89a6.51,6.51,0,0,1,2.38,12.79"/><ellipse class="cls-13" cx="129.59" cy="130" rx="6.54" ry="7.49"/><ellipse class="cls-14" cx="131.07" cy="129.78" rx="5.08" ry="5.82"/><path class="cls-13" d="M183.81,110l3.55,17.48a43.94,43.94,0,0,1,.52,15.38c-1.78,11.64-7.87,19.46-19.08,21.74h0c-6.4,1.3-12.73-.58-18.09-4a34.14,34.14,0,0,1-14.9-22.14l-.78-3.83a5.33,5.33,0,0,0,5.23-5.36c.19-5.27-3.62-11.86-3.62-11.86l1.63,2.92,5.52-1.5,3.27-2.88,2.24-3.25,4.14,2,5.79-.36,4.23-2.73,3.44,3.62,5.65,1.31,5.07-1.84Z"/><path class="cls-14" d="M179.78,159.75a23.42,23.42,0,0,1-10.72,5,20.9,20.9,0,0,1-4.14.41A26.3,26.3,0,0,1,151,160.78a34.17,34.17,0,0,1-14.9-22.14l-.78-3.83s4.36-.08,5.13-4.32c3.37,15.53,7.7,21.52,13.77,26,6.36,4.66,13.21,4.58,18.16,4.58a21,21,0,0,0,4.15-.42A25,25,0,0,0,179.78,159.75Z"/><path class="cls-3" d="M175,116.5a.52.52,0,0,1-.47-.33.51.51,0,0,1,.31-.64,19.94,19.94,0,0,0,6.19-4.08,20.34,20.34,0,0,0,6.24-15.13.49.49,0,0,1,.5-.49h0a.5.5,0,0,1,.5.5,21.52,21.52,0,0,1-6.59,15.88,20.44,20.44,0,0,1-6.51,4.26A.47.47,0,0,1,175,116.5Z"/><path class="cls-3" d="M124.83,125.2a.5.5,0,0,1-.48-.35c-.78-2.61-1.89-8.5-.51-18.64a.51.51,0,0,1,.56-.43.5.5,0,0,1,.43.57c-1.35,10-.28,15.68.48,18.21a.5.5,0,0,1-.34.62A.34.34,0,0,1,124.83,125.2Z"/><path class="cls-3" d="M129.59,138c-3.89,0-7-3.59-7-8s3.16-8,7-8,7,3.59,7,8S133.48,138,129.59,138Zm0-15c-3.33,0-6,3.13-6,7s2.7,7,6,7,6-3.14,6-7S132.91,123,129.59,123Z"/><path class="cls-3" d="M128.08,134a.52.52,0,0,1-.46-.27c-2.66-5.09.8-8,.84-8.07a.51.51,0,0,1,.72.07.52.52,0,0,1-.07.72c-.13.11-2.84,2.48-.58,6.8a.51.51,0,0,1-.22.69A.46.46,0,0,1,128.08,134Z"/><path class="cls-3" d="M130.58,131.78a.52.52,0,0,1-.44-.24,3.38,3.38,0,0,0-3-1.6.53.53,0,0,1-.54-.48.52.52,0,0,1,.48-.54A4.45,4.45,0,0,1,131,131a.51.51,0,0,1-.17.7A.5.5,0,0,1,130.58,131.78Z"/><path class="cls-3" d="M189.05,122.23a.44.44,0,0,1-.44-.43,3,3,0,0,0-1.59-2.46.43.43,0,0,1-.19-.59.44.44,0,0,1,.59-.2,3.86,3.86,0,0,1,2.08,3.23.44.44,0,0,1-.44.45Z"/><path class="cls-3" d="M187.52,128.18a.49.49,0,0,1-.48-.39.5.5,0,0,1,.38-.6,6,6,0,0,0-2.2-11.8.51.51,0,0,1-.57-.42.5.5,0,0,1,.42-.57,7,7,0,0,1,2.56,13.77Z"/><path class="cls-3" d="M188.33,115.71l-.16,0a.51.51,0,0,1-.32-.63A10.72,10.72,0,0,0,186,104.63a.5.5,0,0,1,0-.71.51.51,0,0,1,.71,0,11.71,11.71,0,0,1,2.09,11.41A.5.5,0,0,1,188.33,115.71Z"/><path class="cls-3" d="M157.54,176.14a.5.5,0,0,1-.5-.5v-11.8a.5.5,0,0,1,1,0v11.8A.5.5,0,0,1,157.54,176.14Z"/><path class="cls-3" d="M166.86,182a11,11,0,0,1-8.71-4.2.5.5,0,1,1,.79-.61,10.14,10.14,0,0,0,8.31,3.8,6.62,6.62,0,0,0,5.49-2.76.5.5,0,1,1,.84.54,7.6,7.6,0,0,1-6.29,3.22Z"/><path class="cls-3" d="M173.58,176.14a.5.5,0,0,1-.5-.5v-11.8a.5.5,0,0,1,.5-.5.5.5,0,0,1,.5.5v11.8A.5.5,0,0,1,173.58,176.14Z"/><path class="cls-3" d="M253,211.46a.47.47,0,0,1-.3-.1c-26.17-19.54-63.35-32.91-74.12-36.54a14.53,14.53,0,0,0-4.68-.77h-.34a.5.5,0,1,1,0-1h.34a15.69,15.69,0,0,1,5,.82c10.81,3.64,48.11,17.07,74.4,36.69a.5.5,0,0,1-.3.9Z"/><path class="cls-3" d="M259,233.79a7.63,7.63,0,0,1-1.82-.23l-50.32-12.94a.5.5,0,0,1-.36-.61.51.51,0,0,1,.61-.36l50.32,12.94a6.2,6.2,0,0,0,7.06-3.15l32.9-63.06c-6.26-.59-11.71-5.29-13.42-6.91-6.88,16.6-36.08,47.42-36.38,47.73a.5.5,0,0,1-.71,0,.49.49,0,0,1,0-.7c.3-.32,30.21-31.88,36.46-48.11a.49.49,0,0,1,.36-.31.48.48,0,0,1,.46.14c.07.07,6.73,6.92,14.06,7.19a.51.51,0,0,1,.42.24.53.53,0,0,1,0,.49l-33.26,63.75A7.18,7.18,0,0,1,259,233.79Z"/><path class="cls-3" d="M203.77,283.46a.5.5,0,0,1-.5-.47l-2-32.77a5.18,5.18,0,0,1,.32-1.81l4.65-12.7a4.16,4.16,0,0,0,.25-1.44V212.94a.5.5,0,0,1,.5-.5.5.5,0,0,1,.5.5v21.33a5.13,5.13,0,0,1-.31,1.78l-4.66,12.71a4.35,4.35,0,0,0-.25,1.43l2,32.74a.5.5,0,0,1-.47.53Z"/><path class="cls-3" d="M110.72,203.57a.51.51,0,0,1-.42-.23.5.5,0,0,1,.14-.69L119,197l21.55-17.83.15-.09,16.71-6a.5.5,0,1,1,.34.94L141.08,180l-21.52,17.81-8.56,5.7A.49.49,0,0,1,110.72,203.57Z"/><path class="cls-3" d="M88.3,237.81H81.54a.53.53,0,0,1-.42-.21L35.76,171.15a.48.48,0,0,1,0-.6.49.49,0,0,1,.58-.14c.1,0,9.87,4.23,16.42-1.24a.49.49,0,0,1,.67,0l44.32,41.89,9.92-6.61a.5.5,0,0,1,.56.84L98,212.13a.5.5,0,0,1-.62,0L53.09,170.21c-5.47,4.25-12.56,2.66-15.62,1.67L81.8,236.81h6.5a66,66,0,0,0,33.42-9.09l2.67-1.57a.49.49,0,0,1,.68.18.51.51,0,0,1-.18.69l-2.66,1.56A67,67,0,0,1,88.3,237.81Z"/><path class="cls-3" d="M211.27,342.06a.52.52,0,0,1-.5-.45L207.91,311a.49.49,0,0,1,.45-.54.49.49,0,0,1,.54.45l2.87,30.64a.51.51,0,0,1-.45.55Z"/><path class="cls-3" d="M216.22,395a.51.51,0,0,1-.5-.45l-4.46-47.68a.5.5,0,1,1,1-.09l4.46,47.67a.51.51,0,0,1-.45.55Z"/><path class="cls-3" d="M208,471.46a15.11,15.11,0,0,1-8.63-2.33.53.53,0,0,1-.19-.33l-4-28.24-11.56-44-14.32-47.54-8,53.4a.5.5,0,1,1-1-.15l8.34-55.6a.52.52,0,0,1,.46-.43.53.53,0,0,1,.52.36l15,49.69,11.58,44,3.94,28.07c1.25.8,9.49,5.31,22.44-2.79l-6.34-65.83a.5.5,0,1,1,1-.1l6.38,66.14a.53.53,0,0,1-.23.47C217.1,470.29,211.91,471.46,208,471.46Z"/><path class="cls-3" d="M138.53,471.75a19.2,19.2,0,0,1-8.23-1.67,12.66,12.66,0,0,1-5.63-4.76.54.54,0,0,1-.06-.25L126,406.46a.49.49,0,0,1,.51-.48.5.5,0,0,1,.49.51L125.61,465c.71,1.16,6.71,9.88,24.46,3.56l9.38-60.43a.5.5,0,0,1,.57-.42.51.51,0,0,1,.42.57L151,469a.49.49,0,0,1-.33.39A35.89,35.89,0,0,1,138.53,471.75Z"/><path class="cls-3" d="M126.58,403h0a.5.5,0,0,1-.49-.52l.2-9.17a.49.49,0,0,1,.52-.49.5.5,0,0,1,.48.52l-.2,9.17A.51.51,0,0,1,126.58,403Z"/><path class="cls-3" d="M126.9,388.64a.51.51,0,0,1-.5-.5l-.21-78.77a.5.5,0,0,1,.5-.5h0a.5.5,0,0,1,.5.5l.21,78.77a.5.5,0,0,1-.5.5Z"/><path class="cls-3" d="M172.08,342.1a.51.51,0,0,1-.31-.11l-12.24-9.6a.49.49,0,0,1-.19-.39V312.8a.5.5,0,0,1,1,0v18.95l12,9.45a.51.51,0,0,1,.09.71A.52.52,0,0,1,172.08,342.1Z"/><path class="cls-3" d="M164.73,324.11a.5.5,0,0,1-.5-.5v-2.15a.5.5,0,0,1,.5-.5.5.5,0,0,1,.5.5v2.15A.5.5,0,0,1,164.73,324.11Z"/><path class="cls-3" d="M164.73,329.85a.5.5,0,0,1-.5-.5V327.2a.5.5,0,0,1,.5-.5.5.5,0,0,1,.5.5v2.15A.5.5,0,0,1,164.73,329.85Z"/><path class="cls-3" d="M213.11,335.51c-6,0-10.39-1.58-13.14-4.71a12.84,12.84,0,0,1-2.95-9.41.51.51,0,0,1,.56-.43.49.49,0,0,1,.43.56,12,12,0,0,0,2.72,8.63c2.55,2.89,6.72,4.36,12.38,4.36a.5.5,0,0,1,0,1Z"/><path class="cls-3" d="M123.38,335.51a.5.5,0,0,1,0-1c5.67,0,9.84-1.47,12.39-4.36a12,12,0,0,0,2.71-8.63.5.5,0,0,1,1-.13,12.81,12.81,0,0,1-2.94,9.41C133.78,333.93,129.35,335.51,123.38,335.51Z"/><path class="cls-3" d="M211,484.2c-.51,0-1,0-1.44-.07a3.71,3.71,0,0,1-3.14-2.7l-3-10.82a.49.49,0,0,1,.34-.61.5.5,0,0,1,.62.35l3,10.81a2.67,2.67,0,0,0,2.27,2,9.54,9.54,0,0,0,7.32-2,2.66,2.66,0,0,0,.86-2.38l-1.33-9.67a.51.51,0,0,1,.43-.57.5.5,0,0,1,.56.43l1.33,9.68a3.66,3.66,0,0,1-1.19,3.27A9.93,9.93,0,0,1,211,484.2Z"/><path class="cls-3" d="M140.45,481.55a9.6,9.6,0,0,1-5-1.5.49.49,0,0,1-.21-.41v-8.55a.5.5,0,0,1,.5-.5.5.5,0,0,1,.5.5v8.28a7.49,7.49,0,0,0,8.05,0v-8.83a.5.5,0,0,1,.5-.5.5.5,0,0,1,.5.5v9.09a.49.49,0,0,1-.21.41A7.82,7.82,0,0,1,140.45,481.55Z"/><path class="cls-3" d="M166.37,184.71c-6.48,0-11.76-4.42-11.76-9.85a.5.5,0,0,1,.5-.5.5.5,0,0,1,.5.5c0,4.88,4.83,8.85,10.76,8.85s10.76-4,10.76-8.85v-.51a.5.5,0,0,1,.5-.5.5.5,0,0,1,.5.5v.51C178.13,180.29,172.85,184.71,166.37,184.71Z"/><path class="cls-3" d="M294.81,165.88a.54.54,0,0,1-.21,0,.5.5,0,0,1-.24-.66l6.58-13.9,6.75-9.58,1.09-9.1L304,125.66l-2.15-1.73h-7.07a.5.5,0,0,1-.5-.5.51.51,0,0,1,.5-.5h7.25a.51.51,0,0,1,.31.11l2.35,1.88.1.11,4.89,7.16a.52.52,0,0,1,.09.34l-1.13,9.41a.5.5,0,0,1-.09.23l-6.78,9.6-6.53,13.82A.52.52,0,0,1,294.81,165.88Z"/><path class="cls-3" d="M285.75,160.85a.5.5,0,0,1-.5-.5V127.68a.45.45,0,0,1,0-.2l10.94-24.77a.5.5,0,0,1,.92.41l-10.9,24.67v32.56A.5.5,0,0,1,285.75,160.85Z"/><path class="cls-3" d="M293.27,127.13a.45.45,0,0,1-.2,0,.5.5,0,0,1-.25-.66L301.2,108a.49.49,0,0,1,.66-.25.5.5,0,0,1,.25.66l-8.38,18.45A.52.52,0,0,1,293.27,127.13Z"/><path class="cls-3" d="M302.57,106.92a.51.51,0,0,1-.17,0,.5.5,0,0,1-.3-.64,5.35,5.35,0,0,0-.45-4.41,1.6,1.6,0,0,0-1.09-.72,3.55,3.55,0,0,0-2.26.82.5.5,0,0,1-.64-.78,4.62,4.62,0,0,1,3-1,2.57,2.57,0,0,1,1.77,1.13,6.29,6.29,0,0,1,.58,5.33A.5.5,0,0,1,302.57,106.92Z"/><path class="cls-3" d="M276.35,300.87H252a.5.5,0,0,1-.5-.5.5.5,0,0,1,.5-.5h24.33a.51.51,0,0,1,.5.5A.5.5,0,0,1,276.35,300.87Z"/><path class="cls-3" d="M267.12,304.26H252a.5.5,0,0,1-.5-.5.5.5,0,0,1,.5-.5h15.1a.5.5,0,0,1,.5.5A.5.5,0,0,1,267.12,304.26Z"/><path class="cls-3" d="M267.12,307.65H252a.5.5,0,1,1,0-1h15.1a.5.5,0,0,1,0,1Z"/><path class="cls-3" d="M252,297.14a.51.51,0,0,1-.25-.06.5.5,0,0,1-.25-.44v-23a.48.48,0,0,1,.25-.43.5.5,0,0,1,.5,0l20,11.52a.48.48,0,0,1,.25.43.47.47,0,0,1-.25.43l-20,11.53A.57.57,0,0,1,252,297.14Zm.5-22.67v21.31L271,285.12Z"/><path class="cls-3" d="M242.34,261.14a1.83,1.83,0,1,1,1.83-1.83A1.83,1.83,0,0,1,242.34,261.14Zm0-2.91a1.08,1.08,0,1,0,1.08,1.08A1.08,1.08,0,0,0,242.34,258.23Z"/><path class="cls-3" d="M248.12,261.14a1.83,1.83,0,1,1,1.84-1.83A1.83,1.83,0,0,1,248.12,261.14Zm0-2.91a1.08,1.08,0,1,0,1.09,1.08A1.08,1.08,0,0,0,248.12,258.23Z"/><path class="cls-3" d="M254.05,261.14a1.83,1.83,0,1,1,1.84-1.83A1.83,1.83,0,0,1,254.05,261.14Zm0-2.91a1.08,1.08,0,1,0,1.09,1.08A1.08,1.08,0,0,0,254.05,258.23Z"/><path class="cls-3" d="M139.37,488.24c-6.44,0-11.68-3.49-11.68-7.79,0-2.64,2-5.08,5.26-6.52a.5.5,0,0,1,.4.92c-2.92,1.28-4.66,3.37-4.66,5.6,0,3.74,4.79,6.79,10.68,6.79s10.68-3.05,10.68-6.79c0-1.92-1.29-3.76-3.56-5.05a.5.5,0,1,1,.5-.87c2.58,1.48,4.06,3.64,4.06,5.92C151.05,484.75,145.81,488.24,139.37,488.24Z"/><path class="cls-3" d="M113.44,512.56h-.06a45.12,45.12,0,0,1-13.22-3.69.53.53,0,0,1-.25-.24,7.78,7.78,0,0,1,1.75-8.94,73,73,0,0,1,27.89-16.06.5.5,0,0,1,.62.33.51.51,0,0,1-.33.63,71.7,71.7,0,0,0-27.5,15.84,6.74,6.74,0,0,0-1.59,7.61,44.44,44.44,0,0,0,12.75,3.53.5.5,0,0,1-.06,1Z"/><path class="cls-3" d="M122.55,512.28a.5.5,0,0,1-.06-1A127.12,127.12,0,0,0,150,504.94a13.25,13.25,0,0,0,1.25-6.9l-1.39-15.68a.5.5,0,1,1,1-.08l1.4,15.67a14.2,14.2,0,0,1-1.45,7.61.49.49,0,0,1-.28.25,127.8,127.8,0,0,1-27.89,6.46Zm27.78-6.94h0Z"/><g class="cls-24"><circle class="cls-25" cx="69.77" cy="337.45" r="19.2"/><path class="cls-25" d="M68.64,345.6a2.49,2.49,0,0,1-1.27-.34l-9.6-5.65a2.5,2.5,0,0,1,2.54-4.31l7.39,4.35,6.38-11.51a2.5,2.5,0,1,1,4.37,2.43l-7.62,13.74a2.52,2.52,0,0,1-2.19,1.29Z"/></g><path class="cls-18" d="M69.45,346.7a2.44,2.44,0,0,1-1.26-.35l-9.61-5.65a2.5,2.5,0,0,1,2.54-4.31l7.39,4.35,6.38-11.5a2.5,2.5,0,1,1,4.37,2.42l-7.62,13.75a2.52,2.52,0,0,1-2.19,1.29Z"/><path class="cls-5" d="M53,332.88a1.7,1.7,0,0,1-.54-.09,1.5,1.5,0,0,1-.86-1.94c0-.14,5.28-13.38,19.39-12.82a1.5,1.5,0,0,1-.12,3c-12-.44-16.43,10.78-16.47,10.89A1.5,1.5,0,0,1,53,332.88Z"/><path class="cls-3" d="M69.77,357.16a19.71,19.71,0,1,1,19.71-19.71A19.73,19.73,0,0,1,69.77,357.16Zm0-38.41a18.71,18.71,0,1,0,18.71,18.7A18.72,18.72,0,0,0,69.77,318.75Z"/><path class="cls-3" d="M69.64,347.1a3,3,0,0,1-1.52-.41L58.52,341a3,3,0,0,1-1.06-4.11,3,3,0,0,1,4.1-1.06l7,4.09,6.13-11.06a3,3,0,1,1,5.25,2.91l-7.62,13.75a3,3,0,0,1-2.63,1.54ZM60,336.45a1.77,1.77,0,0,0-.5.07A2,2,0,0,0,58.11,339a2,2,0,0,0,.92,1.23l9.6,5.65a2,2,0,0,0,2.76-.76L79,331.33a2,2,0,0,0-.78-2.72,2,2,0,0,0-2.71.78l-6.63,11.95-7.83-4.61A2.06,2.06,0,0,0,60,336.45Z"/><circle class="cls-26" cx="226.48" cy="102.82" r="19.2"/><path class="cls-27" d="M245.68,103.38a19.19,19.19,0,0,1-9.71,16.7,19.2,19.2,0,0,0-25.19-27.74,19.19,19.19,0,0,1,34.9,11Z"/><path class="cls-26" d="M225.35,111a2.51,2.51,0,0,1-1.27-.35l-9.6-5.65a2.5,2.5,0,1,1,2.53-4.31L224.4,105l6.38-11.5a2.5,2.5,0,0,1,4.38,2.42l-7.63,13.75a2.47,2.47,0,0,1-1.53,1.2A2.37,2.37,0,0,1,225.35,111Z"/><path class="cls-5" d="M226.16,112.06a2.6,2.6,0,0,1-1.27-.34l-9.6-5.65a2.5,2.5,0,1,1,2.54-4.31l7.39,4.35L231.6,94.6A2.5,2.5,0,0,1,236,97l-7.62,13.74a2.52,2.52,0,0,1-2.19,1.29Z"/><path class="cls-5" d="M209.68,98.25a1.47,1.47,0,0,1-.54-.1,1.51,1.51,0,0,1-.87-1.94c.06-.13,5.26-13.35,19.39-12.82a1.5,1.5,0,0,1-.11,3c-12-.45-16.43,10.78-16.47,10.9A1.51,1.51,0,0,1,209.68,98.25Z"/><path class="cls-3" d="M226.48,122.52a19.71,19.71,0,1,1,19.7-19.7A19.72,19.72,0,0,1,226.48,122.52Zm0-38.41a18.71,18.71,0,1,0,18.7,18.71A18.72,18.72,0,0,0,226.48,84.11Z"/><path class="cls-3" d="M226.35,112.47a3.06,3.06,0,0,1-1.53-.42l-9.59-5.65a3,3,0,0,1,.76-5.49,3,3,0,0,1,2.28.32l6.95,4.09,6.13-11a3,3,0,0,1,4.07-1.17,3,3,0,0,1,1.17,4.07L229,110.92a3,3,0,0,1-1.83,1.44A3.07,3.07,0,0,1,226.35,112.47Zm-9.6-10.65a2.22,2.22,0,0,0-.51.06,2,2,0,0,0-1.22.92,2,2,0,0,0-.21,1.52,2,2,0,0,0,.92,1.22l9.6,5.65a2,2,0,0,0,2.77-.75l7.62-13.75a2,2,0,0,0-.78-2.72,2,2,0,0,0-1.52-.17,1.94,1.94,0,0,0-1.2,1l-6.63,12-7.83-4.61A2,2,0,0,0,216.75,101.82Z"/><path class="cls-3" d="M39.77,172.48a.5.5,0,0,1-.5-.48c-.43-10.49-12.42-20.13-12.54-20.22a.51.51,0,0,1-.19-.39v-8.48c.05-.28,1-4.92,5.54-6.22a.5.5,0,1,1,.27,1A7.21,7.21,0,0,0,27.53,143v8.14c1.62,1.33,12.31,10.47,12.73,20.81a.51.51,0,0,1-.48.52Z"/><path class="cls-3" d="M52.24,170.71a.48.48,0,0,1-.47-.33c-2-5.48-7.35-11.26-7.4-11.31a.5.5,0,0,1,0-.71.48.48,0,0,1,.7,0c.23.24,5.49,6,7.6,11.65a.5.5,0,0,1-.29.64Z"/><path class="cls-3" d="M46.6,161.43h-.05a.49.49,0,0,1-.45-.54L48,141.45,31,117.89a.49.49,0,0,1,.11-.7.51.51,0,0,1,.7.11L48.89,141a.52.52,0,0,1,.09.34L47.1,161A.52.52,0,0,1,46.6,161.43Z"/><path class="cls-3" d="M35.32,138.71a.5.5,0,0,1-.45-.28l-8.22-16.85a.5.5,0,0,1,.9-.44L35.77,138a.5.5,0,0,1-.23.67A.54.54,0,0,1,35.32,138.71Z"/><path class="cls-3" d="M26.1,119.41a.49.49,0,0,1-.49-.39c0-.1-.52-2.49,1.14-3.71a.5.5,0,0,1,.59.81c-1.13.83-.75,2.67-.75,2.69a.5.5,0,0,1-.38.59Z"/><path class="cls-3" d="M30.19,116.78a.51.51,0,0,1-.37-.17c-.56-.63-.86-.76-1-.78a.5.5,0,0,1-.6-.78.75.75,0,0,1,.57-.23h0c.49,0,1.05.37,1.73,1.13a.5.5,0,0,1-.38.83ZM29,115.72Z"/><rect class="cls-5" x="83.51" y="82.51" width="36.66" height="3.77" transform="translate(-19.66 136.67) rotate(-62.92)"/><rect class="cls-5" x="89.38" y="85.16" width="36.66" height="3.77" transform="translate(-18.82 143.34) rotate(-62.92)"/><path class="cls-3" d="M108.48,108.76a.55.55,0,0,1-.28-.07L63.6,86.55a.62.62,0,0,1-.2-1C72.58,75,78.24,53.13,78.3,52.91a.63.63,0,0,1,.34-.42.64.64,0,0,1,.54,0l46.2,21.85a.63.63,0,0,1,.29.85L109,108.41A.63.63,0,0,1,108.48,108.76Zm-43.6-23,43.31,21.51L124.26,75.2,79.32,54C78.26,57.87,73.09,75.84,64.88,85.78Z"/><path class="cls-3" d="M90,75.74a.54.54,0,0,1-.22,0L79.72,70.9a.51.51,0,0,1-.24-.66l3.86-8.75a.5.5,0,0,1,.65-.26l11.3,4.9a.45.45,0,0,1,.27.3.49.49,0,0,1,0,.41L90.44,75.5A.52.52,0,0,1,90,75.74ZM80.59,70.2l9.22,4.4,4.56-7.78L84.05,62.35Z"/><path class="cls-3" d="M100.26,86.23a.59.59,0,0,1-.22,0L78.77,75.69a.5.5,0,0,1-.22-.67.5.5,0,0,1,.67-.22l21.27,10.48a.5.5,0,0,1-.23,1Z"/><path class="cls-3" d="M86.52,82.61a.52.52,0,0,1-.21,0l-8.66-4.15a.49.49,0,0,1-.24-.66.5.5,0,0,1,.67-.24l8.66,4.14a.5.5,0,0,1,.23.67A.48.48,0,0,1,86.52,82.61Z"/><path class="cls-3" d="M94.15,90.64a.54.54,0,0,1-.22,0L75.39,81.72a.51.51,0,0,1-.24-.67.5.5,0,0,1,.67-.23l18.54,8.86a.5.5,0,0,1,.24.67A.51.51,0,0,1,94.15,90.64Z"/><path class="cls-3" d="M148.46,106.87a4.16,4.16,0,0,0,2.15,3.73c.42.23.8-.42.38-.65a3.41,3.41,0,0,1-1.78-3.08.38.38,0,0,0-.75,0Z"/><path class="cls-3" d="M181.93,107.54a4.74,4.74,0,0,0,.62-1.28.37.37,0,0,0-.26-.46.38.38,0,0,0-.46.26c0,.13-.09.25-.14.38l0-.09a4.62,4.62,0,0,1-.45.81.41.41,0,0,0,0,.29.41.41,0,0,0,.17.22.38.38,0,0,0,.29,0,.44.44,0,0,0,.23-.17Z"/><path class="cls-3" d="M128.93,97.88a7,7,0,0,0-1.26,2.58.37.37,0,1,0,.72.2,6.09,6.09,0,0,1,.42-1.18,5.33,5.33,0,0,1,.31-.57l.18-.27a.71.71,0,0,1,.1-.14l.06-.09a.37.37,0,0,0-.53-.53Z"/><path class="cls-3" d="M128.5,117.52a35.15,35.15,0,0,1-1-14.43c.07-.47-.65-.67-.72-.19a36,36,0,0,0,1,14.82.38.38,0,0,0,.73-.2Z"/><path class="cls-3" d="M297.52,111a2.82,2.82,0,0,1-2.7-2L287,82.11a2.8,2.8,0,0,1,1.91-3.48l31.36-9.1a2.8,2.8,0,0,1,3.48,1.91l7.79,26.84a2.81,2.81,0,0,1-1.91,3.48h0l-31.36,9.11A3.06,3.06,0,0,1,297.52,111Zm23.56-40.57a1.8,1.8,0,0,0-.5.08l-31.36,9.1A1.8,1.8,0,0,0,288,81.83l7.79,26.84a1.82,1.82,0,0,0,2.24,1.24l31.36-9.11a1.8,1.8,0,0,0,1.23-2.24l-7.79-26.84A1.81,1.81,0,0,0,321.08,70.41Zm8.44,30.87h0Z"/><path class="cls-3" d="M166,110.24c1.6,2.27,4.79,3,7.42,2.84a8.67,8.67,0,0,0,4.12-1.22,17.74,17.74,0,0,0,3.45-3.08c.33-.35-.2-.89-.53-.53-1.95,2-3.89,3.86-6.86,4.07-2.37.16-5.48-.37-7-2.46-.27-.39-.92,0-.65.38Z"/><path class="cls-3" d="M182.49,373.66a.36.36,0,0,1-.34-.26l-2-6.66a.36.36,0,1,1,.69-.21l2,6.67a.35.35,0,0,1-.23.44Z"/><path class="cls-3" d="M181.61,376.49a.35.35,0,0,1-.34-.25l-2-6.66a.36.36,0,1,1,.68-.21l2,6.66a.37.37,0,0,1-.24.45Z"/><path class="cls-3" d="M202.69,221.82a.36.36,0,0,1-.35-.33l-.37-7a.36.36,0,0,1,.34-.38.36.36,0,0,1,.37.34l.37,7a.36.36,0,0,1-.34.37Z"/><path class="cls-3" d="M201.29,224.39a.35.35,0,0,1-.35-.33l-.53-6.94a.34.34,0,0,1,.32-.38.37.37,0,0,1,.39.32l.53,6.95a.35.35,0,0,1-.33.38Z"/><path class="cls-3" d="M245.55,227.42h-.1l-6.68-2a.36.36,0,0,1,.2-.69l6.68,2a.36.36,0,0,1-.1.7Z"/><path class="cls-3" d="M243.64,225.09h-.09l-6.73-1.81a.36.36,0,0,1-.26-.43.35.35,0,0,1,.44-.25l6.73,1.8a.36.36,0,0,1-.09.7Z"/><path class="cls-3" d="M130.63,430.3h0a.36.36,0,0,1-.33-.38l.34-7a.34.34,0,0,1,.37-.33.34.34,0,0,1,.34.37l-.34,7A.36.36,0,0,1,130.63,430.3Z"/><path class="cls-3" d="M128.84,432.67h0a.37.37,0,0,1-.34-.38l.34-7a.34.34,0,0,1,.38-.34.35.35,0,0,1,.33.37l-.33,7A.36.36,0,0,1,128.84,432.67Z"/><ellipse class="cls-28" cx="178.36" cy="92.95" rx="4.92" ry="3.67" transform="translate(-6.18 172.94) rotate(-50.96)"/><ellipse class="cls-28" cx="178.4" cy="100.07" rx="1.99" ry="1.48" transform="translate(-20.88 53.92) rotate(-16.25)"/><path class="cls-14" d="M141.65,133.72A10.34,10.34,0,0,0,143,127.8a18.24,18.24,0,0,0-1.78-7.11l-.89,2.2c4.67-1.11,8.69-3.43,10.72-8a1.55,1.55,0,0,0-.54-2,1.5,1.5,0,0,0-2,.53,10.28,10.28,0,0,1-3.66,4.55,16.62,16.62,0,0,1-5.27,2,1.51,1.51,0,0,0-.9,2.2,11.36,11.36,0,0,1,.84,2.67,18.18,18.18,0,0,1,.53,2.93,7.53,7.53,0,0,1-.91,4.4c-1,1.65,1.57,3.16,2.59,1.52Z"/><path class="cls-3" d="M164.63,165.5A26.91,26.91,0,0,1,150.44,161a34.77,34.77,0,0,1-15.12-22.46l-.78-3.84a.51.51,0,0,1,.1-.41.49.49,0,0,1,.38-.18,4.82,4.82,0,0,0,4.74-4.88c.19-5.06-3.51-11.53-3.55-11.59a.5.5,0,0,1,.86-.5c.16.27,3.89,6.77,3.69,12.13a5.7,5.7,0,0,1-5.13,5.77l.67,3.3A33.75,33.75,0,0,0,151,160.17c4.08,2.6,10.48,5.39,17.72,3.92,10.56-2.15,16.85-9.32,18.68-21.32a40.7,40.7,0,0,0,.4-8.08.5.5,0,0,1,.47-.53.51.51,0,0,1,.53.48,41.92,41.92,0,0,1-.41,8.28c-1.9,12.46-8.46,19.91-19.47,22.15A21.93,21.93,0,0,1,164.63,165.5Z"/><path class="cls-3" d="M138.67,120.84h-.44a.5.5,0,0,1,.09-1c.26,0,6.43.5,10.54-7.36a.5.5,0,0,1,.67-.21.49.49,0,0,1,.21.67C145.9,120.28,140.29,120.84,138.67,120.84Z"/><path class="cls-28" d="M147.18,81.44a10.09,10.09,0,0,1,6.88-4.06,13.77,13.77,0,0,1,9.05,2.26c1.64,1,3.15-1.56,1.51-2.59a16.64,16.64,0,0,0-11.23-2.58,13,13,0,0,0-8.8,5.45c-1.1,1.6,1.5,3.1,2.59,1.52Z"/><path class="cls-29" d="M148.16,80.27c.22-.22.44-.44.68-.64l.18-.15c.3-.24-.15.11,0,0l.39-.27a11.2,11.2,0,0,1,1.68-1l.22-.1c.17-.07,0,0,0,0a1.3,1.3,0,0,1,.44-.17,8.6,8.6,0,0,1,.9-.29c.32-.09.65-.17,1-.23l.46-.08c.22,0-.27,0-.05,0l.3,0a1.55,1.55,0,0,0,1.5-1.5,1.52,1.52,0,0,0-1.5-1.5,13.54,13.54,0,0,0-8.3,3.79,1.5,1.5,0,1,0,2.13,2.12Z"/><path class="cls-3" d="M169.63,83.09a.49.49,0,0,1-.45-.29,15.08,15.08,0,0,0-12.89-7.71.52.52,0,0,1-.48-.52.5.5,0,0,1,.52-.48,16.08,16.08,0,0,1,13.75,8.28.5.5,0,0,1-.24.67A.54.54,0,0,1,169.63,83.09Z"/><path class="cls-3" d="M124.69,103.39a.5.5,0,0,1-.5-.5c0-14.45,14.61-17.66,17-18.09.58-1.8,4-10.71,13.31-10.71a.5.5,0,0,1,.5.5.51.51,0,0,1-.5.5c-9.59,0-12.33,9.86-12.44,10.28a.49.49,0,0,1-.41.37c-.68.09-16.44,2.39-16.44,17.15A.5.5,0,0,1,124.69,103.39Z"/><path class="cls-28" d="M171.41,81.25c1.07.3,2.14.59,3.18,1l.4.16.2.08c-.19-.09-.22-.09-.06,0s.45.2.67.32a10.81,10.81,0,0,1,1.46.87,1.5,1.5,0,0,0,2.05-.54,1.54,1.54,0,0,0-.54-2,20.34,20.34,0,0,0-6.56-2.67,1.5,1.5,0,1,0-.8,2.89Z"/><path class="cls-3" d="M174,79.16l-.16,0a21.5,21.5,0,0,0-8.31-1,.49.49,0,0,1-.53-.46.5.5,0,0,1,.46-.54,22.54,22.54,0,0,1,8.7,1,.5.5,0,0,1-.16,1Z"/><path class="cls-3" d="M187.44,93.79a.49.49,0,0,1-.49-.41A19.51,19.51,0,0,0,176.3,80.17a.5.5,0,0,1-.24-.67.49.49,0,0,1,.66-.24,20.48,20.48,0,0,1,11.21,13.95.48.48,0,0,1-.4.57Z"/><path class="cls-28" d="M172.56,89.72a4.85,4.85,0,0,0-2,2.8c-.16.59-.2,1.21-.37,1.8a4.25,4.25,0,0,1-1.76,2.34,2.53,2.53,0,0,1-2.07.4,3.59,3.59,0,0,1-1.34-.94,3.29,3.29,0,0,1-1.37-2.52,3.36,3.36,0,0,1,.6-1.32l1.64-2.51a7.81,7.81,0,0,1,3-3.07,5.11,5.11,0,0,1,3.73,0c1,.33,2,1.07,1.94,2.09s-.94,1.55-1.77,1.94a13.59,13.59,0,0,1-2.3.87"/><path class="cls-21" d="M127.86,246.84a1.5,1.5,0,0,1-1.49-1.38c-1.77-22-1.77-22.2-1.77-22.29a1.5,1.5,0,0,1,3-.06c0,.7,1.28,16.18,1.76,22.11a1.49,1.49,0,0,1-1.38,1.61Zm-.26-23.67h0Z"/><path class="cls-21" d="M131.06,252.49a1.5,1.5,0,0,1-1.49-1.38c-1.77-22-1.77-22.21-1.77-22.29a1.5,1.5,0,0,1,3-.06c0,.7,1.28,16.17,1.76,22.1a1.5,1.5,0,0,1-1.38,1.62Zm-.26-23.67h0Z"/><path class="cls-3" d="M128,266.43a.5.5,0,0,1-.5-.47l-3.39-45.17a.5.5,0,0,1,.46-.54.51.51,0,0,1,.54.46l3.39,45.18a.5.5,0,0,1-.46.53Z"/><path class="cls-14" d="M149.73,115.91a13.44,13.44,0,0,0,8.17,1.29,11,11,0,0,0,6.39-3.25,1.53,1.53,0,0,0,0-2.12,1.51,1.51,0,0,0-2.12,0c-2.67,3-7.51,3.16-10.93,1.49a1.54,1.54,0,0,0-2.05.54,1.52,1.52,0,0,0,.54,2Z"/><path class="cls-14" d="M161.6,114.07a10.48,10.48,0,0,0,9.7,5.2,1.5,1.5,0,0,0,0-3,10.43,10.43,0,0,1-1.25,0l-.3,0c-.08,0-.38,0,0,0l-.6-.11a9.72,9.72,0,0,1-1.09-.3l-.28-.11s-.35-.14-.16,0-.14-.07-.14-.08l-.27-.13a7.9,7.9,0,0,1-1-.58s-.3-.22-.13-.09-.1-.08-.13-.11-.3-.26-.44-.39-.28-.29-.42-.44l-.16-.18s-.28-.35-.07-.07a10.32,10.32,0,0,1-.68-1,1.51,1.51,0,0,0-2.05-.54,1.53,1.53,0,0,0-.54,2Z"/><path class="cls-3" d="M157.54,115.18a.5.5,0,0,1,0-1,6.9,6.9,0,0,0,6.25-6,.5.5,0,0,1,1,.18,8,8,0,0,1-7.2,6.84Z"/><path class="cls-3" d="M172.1,117c-7.63,0-9.11-6.15-9.13-6.22a.5.5,0,0,1,1-.22c.05.23,1.37,5.65,8.58,5.43a.5.5,0,1,1,0,1Z"/><path class="cls-3" d="M155.23,115.18a8.66,8.66,0,0,1-6.45-2.43,10.94,10.94,0,0,1-2.71-7.21.51.51,0,0,1,.5-.49h0a.5.5,0,0,1,.49.51s0,4,2.43,6.49a7.69,7.69,0,0,0,5.73,2.13.5.5,0,0,1,0,1Z"/><path class="cls-30" d="M325.72,268.09h0L303.9,268a2,2,0,0,1,0-4h0l21.81.07a2,2,0,0,1,0,4Z"/><path class="cls-30" d="M244.43,268a2,2,0,0,1,0-4l13.49-.09h0a2,2,0,0,1,0,4l-13.49.09Z"/><path class="cls-3" d="M327.25,327.6H240a5.14,5.14,0,0,1-5.14-5.13V259.83A5.14,5.14,0,0,1,240,254.7h87.29a5.14,5.14,0,0,1,5.14,5.13v62.64A5.14,5.14,0,0,1,327.25,327.6ZM240,255.7a4.14,4.14,0,0,0-4.14,4.13v62.64A4.14,4.14,0,0,0,240,326.6h87.29a4.14,4.14,0,0,0,4.14-4.13V259.83a4.14,4.14,0,0,0-4.14-4.13Z"/><path class="cls-3" d="M331.89,264.69H235.32a.51.51,0,0,1-.5-.5.5.5,0,0,1,.5-.5h96.57a.5.5,0,0,1,.5.5A.51.51,0,0,1,331.89,264.69Z"/><path class="cls-31" d="M156.6,315.8h-.16a114.37,114.37,0,0,1-32.08-8.18,1.48,1.48,0,0,1-.87-1.1l-2-11.34a1.54,1.54,0,0,1,.49-1.4l6.57-5.7-4.64-4.45a1.49,1.49,0,0,1-.47-1.07l-.09-10.79a1.5,1.5,0,0,1,.44-1.07l9.13-9.13a1.51,1.51,0,0,1,2.12,0,1.49,1.49,0,0,1,0,2.12l-8.69,8.69.09,9.52,5.38,5.15a1.53,1.53,0,0,1,.46,1.12,1.5,1.5,0,0,1-.52,1.1l-7.17,6.22,1.73,9.7a114.94,114.94,0,0,0,30.45,7.62,1.51,1.51,0,0,1,1.34,1.65A1.5,1.5,0,0,1,156.6,315.8Z"/><ellipse class="cls-8" cx="138.88" cy="502.76" rx="4.24" ry="2.12" transform="translate(-88.39 33.29) rotate(-10.39)"/><circle class="cls-8" cx="142.97" cy="499.57" r="0.71"/><circle class="cls-8" cx="147.24" cy="501.58" r="1.09"/><circle class="cls-8" cx="130.41" cy="503.24" r="2.89"/><path class="cls-8" d="M213,492.38a13.54,13.54,0,0,1-3.06-.33,1,1,0,0,1-.71-1.23,1,1,0,0,1,1.22-.71,12.28,12.28,0,0,0,9-1.61,1,1,0,0,1,1.39.29,1,1,0,0,1-.29,1.38A13.66,13.66,0,0,1,213,492.38Z"/><path class="cls-3" d="M212.35,490.71c-6.46,0-11.71-3.85-11.71-8.59a7.88,7.88,0,0,1,4.06-6.51.53.53,0,0,1,.73.17.52.52,0,0,1-.17.72c-2.27,1.44-3.57,3.48-3.57,5.62,0,4.16,4.78,7.54,10.66,7.54S223,486.28,223,482.12c0-2.48-1.75-4.81-4.67-6.22a.53.53,0,0,1-.24-.71.52.52,0,0,1,.7-.24c3.29,1.59,5.26,4.27,5.26,7.17C224.06,486.86,218.81,490.71,212.35,490.71Z"/><path class="cls-3" d="M243.62,516.21a.5.5,0,0,1-.06-1,51.33,51.33,0,0,0,14.73-4.09,7.86,7.86,0,0,0-1.84-8.87,82.7,82.7,0,0,0-33-18.64.5.5,0,0,1,.27-1,83.55,83.55,0,0,1,33.46,18.88,8.86,8.86,0,0,1,2,10.19.51.51,0,0,1-.25.25,52.38,52.38,0,0,1-15.19,4.24Z"/><path class="cls-3" d="M233.14,515.88h-.06c-9.82-1.14-16.14-3.32-24.88-6.33l-1.91-.66a6.39,6.39,0,0,1-4.25-6.84l-.42-15.95a.51.51,0,0,1,.49-.51.47.47,0,0,1,.51.49l.41,16a5.48,5.48,0,0,0,1.53,4.56,5.36,5.36,0,0,0,2.06,1.29l1.9.65c9,3.11,15,5.16,24.68,6.28a.5.5,0,0,1-.06,1Z"/><path class="cls-3" d="M240,516.47h0l-3.39-.19a.5.5,0,0,1-.47-.52.47.47,0,0,1,.53-.47l3.39.18a.51.51,0,0,1,.47.53A.5.5,0,0,1,240,516.47Z"/><rect class="cls-3" x="160.87" y="123.18" width="5.18" height="8.29" rx="2.59"/><circle class="cls-5" cx="165.77" cy="126.82" r="1.04"/><rect class="cls-3" x="176.71" y="120.33" width="5.18" height="8.29" rx="2.59"/><circle class="cls-5" cx="181.61" cy="123.97" r="1.04"/><path class="cls-3" d="M155.18,181.23a8.55,8.55,0,0,0,3.62,3,.39.39,0,0,0,.52-.13.37.37,0,0,0-.14-.51,8,8,0,0,1-3.35-2.69.39.39,0,0,0-.52-.13.37.37,0,0,0-.13.51Z"/><path class="cls-3" d="M174.34,184.1a19.5,19.5,0,0,0,2.8-2.24.37.37,0,0,0-.53-.53,18.44,18.44,0,0,1-2.64,2.12.37.37,0,0,0,.37.65Z"/><path class="cls-3" d="M164.54,186.21a6.45,6.45,0,0,0,3.59,0,.38.38,0,0,0-.2-.73,5.68,5.68,0,0,1-3.19,0,.37.37,0,0,0-.2.72Z"/><path class="cls-31" d="M195.13,287.85H185a1.5,1.5,0,0,1,0-3h10l8.11-1.84a1.5,1.5,0,1,1,.67,2.92l-8.28,1.88A1.27,1.27,0,0,1,195.13,287.85Z"/><path class="cls-3" d="M210.16,293.56a.5.5,0,0,1-.49-.39l-1.34-5.9-4.09-3.76-8.9,2.1-.11,0H184.88a.5.5,0,0,1-.5-.5.5.5,0,0,1,.5-.5h10.29l9.1-2.15a.49.49,0,0,1,.45.11l4.4,4.05a.53.53,0,0,1,.15.26l1.38,6.05a.51.51,0,0,1-.38.6Z"/><path class="cls-31" d="M190.8,302.34a1.5,1.5,0,0,1-.06-3l6.09-.28,5.69-1.95,8.07-4.55a1.5,1.5,0,0,1,1.47,2.62l-8.19,4.61-.25.11-6,2.07a1.56,1.56,0,0,1-.42.08l-6.31.28Z"/><path class="cls-3" d="M166.29,316.64a109,109,0,0,1-40.71-7.93l-2.25-.91a.47.47,0,0,1-.31-.39l-2-13.17a.48.48,0,0,1,.16-.45l6.67-5.85-5-4.61a.47.47,0,0,1-.16-.37V271.2a.52.52,0,0,1,.14-.36l10.92-10.91a.5.5,0,0,1,.71,0,.5.5,0,0,1,0,.7L123.64,271.4v11.34l5.29,4.84a.45.45,0,0,1,.16.37.5.5,0,0,1-.17.38l-6.88,6L124,307l2,.8a107.45,107.45,0,0,0,82.65-.83l5.67-10.61-.83-4.35-10.07,5.81-5.91,2.1-.14,0-7,.38a.5.5,0,0,1-.52-.47.49.49,0,0,1,.47-.53l6.89-.37,5.77-2.05,10.59-6.11a.51.51,0,0,1,.45,0,.52.52,0,0,1,.29.37l1,5.21a.55.55,0,0,1-.05.33l-5.84,10.91a.53.53,0,0,1-.24.23A109,109,0,0,1,166.29,316.64Z"/><path class="cls-5" d="M46,140a.5.5,0,0,1-.4-.21l-7.13-10a.5.5,0,0,1,.11-.69.51.51,0,0,1,.7.11l7.13,10a.49.49,0,0,1-.12.69A.46.46,0,0,1,46,140Z"/><path class="cls-4" d="M17.35,135.1,50.19,113,33.77,88.42.5,111.76S13.58,124.37,17.35,135.1Z"/><rect class="cls-5" x="29.68" y="93.65" width="3" height="29.16" transform="translate(-54.28 34.86) rotate(-33.28)"/><rect class="cls-5" x="33.82" y="90.64" width="3" height="29.16" transform="translate(-51.94 36.64) rotate(-33.28)"/><path class="cls-3" d="M17.35,135.6l-.16,0a.5.5,0,0,1-.31-.31c-3.69-10.49-16.6-23-16.73-23.15a.53.53,0,0,1-.15-.4.51.51,0,0,1,.21-.37L33.48,88a.47.47,0,0,1,.38-.08.52.52,0,0,1,.33.21l16.42,24.57a.5.5,0,0,1-.14.69L17.63,135.52A.57.57,0,0,1,17.35,135.6ZM1.28,111.83C3.57,114.1,14,124.74,17.6,134.33l31.9-21.48L33.64,89.12Z"/><path class="cls-14" d="M172.7,142.7a.51.51,0,0,1-.49-.4.49.49,0,0,1,.39-.59,3.19,3.19,0,0,0,2.18-4.59l-1.26-2.42a.5.5,0,1,1,.88-.46l1.26,2.42a4.19,4.19,0,0,1-2.86,6Z"/><path class="cls-22" d="M165.31,144.89c-1.48.43-2.29,3.13-2.21,4.67a10.46,10.46,0,0,0,1.57,4.3,10,10,0,0,1,1.53,4.31c.08,2.18-1.23,4.21-1.27,6.39-.06,3.56,3.28,6.3,6.66,7.45a14.12,14.12,0,0,0,11-.5,9.75,9.75,0,0,0,5.36-9.2c-.32-3.18-2.46-5.95-2.78-9.13a34.76,34.76,0,0,1,.3-5.19,6.51,6.51,0,0,0-1.33-4.89c-1.55-1.66-4.13-1.73-6.39-1.5a42.15,42.15,0,0,0-9.91,2.26"/><path class="cls-23" d="M182.93,171.23a14.19,14.19,0,0,1-11,.49c-3.37-1.14-6.71-3.88-6.65-7.45a9.13,9.13,0,0,1,.49-2.57c.92,2.58,3.6,4.52,6.31,5.43a14.13,14.13,0,0,0,11-.49,10.35,10.35,0,0,0,5-5.87,8.84,8.84,0,0,1,.22,1.25C188.66,165.77,186.27,169.48,182.93,171.23Z"/><path class="cls-3" d="M172.64,149.28a13.24,13.24,0,0,1-1.52-.08l-.82-.11a.5.5,0,0,1,.15-1c.26,0,.52.08.78.1a9.19,9.19,0,0,0,7.82-2.46.49.49,0,0,1,.7,0,.5.5,0,0,1,0,.71A9.87,9.87,0,0,1,172.64,149.28Z"/><path class="cls-28" d="M179.33,143c2,.13,4,1,4.3,3.21.29,2.4-.86,4.73-.12,7.12.28.92,1.73.53,1.44-.4-.8-2.6.81-5.32-.07-7.94-.8-2.39-3.22-3.34-5.55-3.49-1-.07-1,1.43,0,1.5Z"/><path class="cls-28" d="M184.12,155.77c.33.92.7,1.83,1.09,2.72a.74.74,0,0,0,1,.27.79.79,0,0,0,.35-.45.81.81,0,0,0-.08-.57c0-.11-.09-.21-.13-.32s-.08-.21,0-.09,0-.07,0-.09l-.25-.61c-.16-.42-.32-.84-.47-1.26a.89.89,0,0,0-.34-.45.78.78,0,0,0-.58-.07.76.76,0,0,0-.53.92Z"/><path class="cls-5" d="M182.46,114.13l1.81,8.62a1.13,1.13,0,1,0,2.17-.6l-1.81-8.61a1.13,1.13,0,0,0-1.38-.79,1.15,1.15,0,0,0-.79,1.38Z"/><path class="cls-3" d="M188,131.78a.51.51,0,0,1-.5-.44c-.15-1.25-.36-2.52-.62-3.78l-3.55-17.48a.5.5,0,0,1,.4-.59.51.51,0,0,1,.59.39l3.54,17.48c.26,1.29.48,2.59.63,3.86a.5.5,0,0,1-.43.56Z"/><path class="cls-14" d="M171.16,171.48a10.18,10.18,0,0,1-1.62-.43c-.07,0-.49-.17-.13,0l-.42-.2c-.21-.11-.43-.23-.63-.36l-.26-.18a.66.66,0,0,1-.17-.12c-.13-.09-.12-.08,0,0a4.2,4.2,0,0,0-.55-.48c-.17-.17-.34-.35-.5-.53a1.5,1.5,0,0,1-.2-.24l0,.05-.12-.17a8.65,8.65,0,0,1-.52-1.11l-.52-1.14a1.52,1.52,0,0,0-2.06-.54,1.56,1.56,0,0,0-.53,2.06l.54,1.19a6.81,6.81,0,0,0,.69,1.31,9.8,9.8,0,0,0,6.11,3.78,1.5,1.5,0,1,0,.8-2.9Z"/><path class="cls-3" d="M176.81,173.28a16.78,16.78,0,0,1-5.29-.89c-3.52-1.2-7.06-4.12-7-7.94a11.54,11.54,0,0,1,.66-3.2,9.93,9.93,0,0,0,.61-3.15,9.79,9.79,0,0,0-1.48-4.1,11,11,0,0,1-1.63-4.51c-.08-1.57.71-4.64,2.57-5.17a.5.5,0,1,1,.28,1c-1.16.33-1.92,2.75-1.85,4.16a10.17,10.17,0,0,0,1.51,4.09,10.65,10.65,0,0,1,1.6,4.53,10.54,10.54,0,0,1-.66,3.49,10.36,10.36,0,0,0-.61,2.92c-.06,3.32,3.13,5.89,6.32,7a13.57,13.57,0,0,0,10.59-.47,9.21,9.21,0,0,0,5.08-8.71,15.81,15.81,0,0,0-1.35-4.42,12.78,12.78,0,0,1-1.28-8.24c.06-.58.13-1.16.16-1.74a6,6,0,0,0-1.2-4.52c-1.49-1.59-4.12-1.53-6-1.34a42.21,42.21,0,0,0-9.8,2.23.5.5,0,0,1-.64-.3.51.51,0,0,1,.31-.64,42.55,42.55,0,0,1,10-2.28c2.06-.21,5-.27,6.8,1.65a6.89,6.89,0,0,1,1.47,5.26c0,.6-.1,1.19-.17,1.79a15.55,15.55,0,0,0-.14,3.32,16.11,16.11,0,0,0,1.35,4.43,17,17,0,0,1,1.43,4.7,10.24,10.24,0,0,1-5.62,9.7A13.2,13.2,0,0,1,176.81,173.28Z"/><rect class="cls-32" x="287.56" y="284.91" width="25.98" height="22.59" rx="1"/><path class="cls-33" d="M287.56,302.9h26a0,0,0,0,1,0,0V306a1.46,1.46,0,0,1-1.46,1.46H289a1.46,1.46,0,0,1-1.46-1.46V302.9A0,0,0,0,1,287.56,302.9Z"/><path class="cls-34" d="M304.76,286.86h-14a1,1,0,0,1,0-2h14a1,1,0,0,1,0,2Z"/><path class="cls-5" d="M299.53,286.86h-3.6a1,1,0,1,1,0-2h3.6a1,1,0,0,1,0,2Z"/><path class="cls-3" d="M287.65,298.32a.5.5,0,0,1-.5-.5v-5.67a.5.5,0,0,1,.5-.5.5.5,0,0,1,.5.5v5.67A.5.5,0,0,1,287.65,298.32Z"/><path class="cls-3" d="M312.62,308h-24a1.52,1.52,0,0,1-1.51-1.51v-5.69a.51.51,0,0,1,.5-.5.5.5,0,0,1,.5.5v5.69a.51.51,0,0,0,.51.51h24a.51.51,0,0,0,.51-.51V285.94a.5.5,0,0,0-.51-.5h-24a.5.5,0,0,0-.51.5v3.44a.5.5,0,0,1-.5.5.5.5,0,0,1-.5-.5v-3.44a1.51,1.51,0,0,1,1.51-1.5h24a1.51,1.51,0,0,1,1.51,1.5v20.58A1.52,1.52,0,0,1,312.62,308Z"/><rect class="cls-32" x="85.21" y="159.59" width="25.98" height="22.59" rx="1" transform="translate(-66.14 62.09) rotate(-26.61)"/><path class="cls-33" d="M89.23,176.63h26a0,0,0,0,1,0,0v3.14a1.46,1.46,0,0,1-1.46,1.46H90.69a1.46,1.46,0,0,1-1.46-1.46v-3.14A0,0,0,0,1,89.23,176.63Z" transform="translate(-69.32 64.74) rotate(-26.61)"/><path class="cls-34" d="M84.83,167a1,1,0,0,1-.9-.56,1,1,0,0,1,.45-1.34l12.49-6.26a1,1,0,1,1,.9,1.79l-12.5,6.26A1,1,0,0,1,84.83,167Z"/><path class="cls-5" d="M89.43,164.7a1,1,0,0,1-.89-.55A1,1,0,0,1,89,162.8l3.22-1.61a1,1,0,1,1,.9,1.79l-3.22,1.61A1,1,0,0,1,89.43,164.7Z"/><path class="cls-3" d="M87.39,178.61a.51.51,0,0,1-.45-.28l-2.54-5.07a.5.5,0,1,1,.89-.45l2.54,5.07a.49.49,0,0,1-.22.67A.46.46,0,0,1,87.39,178.61Z"/><path class="cls-3" d="M92.18,186.94a1.5,1.5,0,0,1-.47-.08,1.47,1.47,0,0,1-.87-.75L88.29,181a.5.5,0,0,1,.89-.45l2.55,5.09a.51.51,0,0,0,.29.25.48.48,0,0,0,.39,0l21.43-10.74a.5.5,0,0,0,.22-.68l-9.22-18.4a.48.48,0,0,0-.29-.25.5.5,0,0,0-.38,0L82.74,166.59a.5.5,0,0,0-.23.67l1.55,3.08a.5.5,0,0,1-.9.45l-1.54-3.08a1.51,1.51,0,0,1,.67-2L103.72,155a1.58,1.58,0,0,1,1.15-.08,1.52,1.52,0,0,1,.87.76L115,174a1.5,1.5,0,0,1-.67,2L92.86,186.78A1.48,1.48,0,0,1,92.18,186.94Z"/><rect class="cls-35" x="16.5" y="247.66" width="44.59" height="29.33" rx="2.71"/><path class="cls-36" d="M36.13,248.14,24.74,277l9.49.08,9.49-29h-3S36.41,248,36.13,248.14Z"/><path class="cls-36" d="M46.31,248.14,36.54,277h2.59l9.73-28.94H48A8.49,8.49,0,0,0,46.31,248.14Z"/><path class="cls-37" d="M56.48,248.14,46.71,277h2.58L59,248.1h-.84A8.39,8.39,0,0,0,56.48,248.14Z"/><rect class="cls-5" x="21.87" y="251.75" width="12.14" height="7.49"/><path class="cls-3" d="M46.18,263.87H21.85a.5.5,0,0,1-.5-.5.5.5,0,0,1,.5-.5H46.18a.51.51,0,0,1,.5.5A.5.5,0,0,1,46.18,263.87Z"/><path class="cls-3" d="M37,267.26H21.85a.5.5,0,0,1-.5-.5.5.5,0,0,1,.5-.5H37a.5.5,0,0,1,.5.5A.5.5,0,0,1,37,267.26Z"/><path class="cls-3" d="M37,270.65H21.85a.5.5,0,0,1,0-1H37a.5.5,0,0,1,0,1Z"/><path class="cls-3" d="M58.38,277.49H19.22A3.22,3.22,0,0,1,16,274.27v-23.9a3.22,3.22,0,0,1,3.22-3.21H58.38a3.21,3.21,0,0,1,3.21,3.21v23.9A3.22,3.22,0,0,1,58.38,277.49ZM19.22,248.16A2.22,2.22,0,0,0,17,250.37v23.9a2.22,2.22,0,0,0,2.22,2.22H58.38a2.21,2.21,0,0,0,2.21-2.22v-23.9a2.21,2.21,0,0,0-2.21-2.21Z"/><path class="cls-3" d="M34,259.74H21.87a.5.5,0,0,1-.5-.5v-7.49a.5.5,0,0,1,.5-.5H34a.5.5,0,0,1,.5.5v7.49A.5.5,0,0,1,34,259.74Zm-11.64-1H33.51v-6.49H22.37Z"/><rect class="cls-32" x="44.55" y="268.8" width="25.98" height="22.59" rx="1" transform="translate(53.24 -5.82) rotate(10.75)"/><path class="cls-33" d="M42.88,286.63h26a0,0,0,0,1,0,0v3.14a1.46,1.46,0,0,1-1.46,1.46H44.34a1.46,1.46,0,0,1-1.46-1.46v-3.14a0,0,0,0,1,0,0Z" transform="translate(54.85 -5.35) rotate(10.75)"/><path class="cls-34" d="M63.61,271.71a.65.65,0,0,1-.19,0l-13.73-2.6a1,1,0,0,1,.37-2l13.74,2.61a1,1,0,0,1-.19,2Z"/><path class="cls-5" d="M58.48,270.74l-.19,0-3.54-.67a1,1,0,0,1,.38-2l3.53.68a1,1,0,0,1,.8,1.16A1,1,0,0,1,58.48,270.74Z"/><path class="cls-3" d="M44.57,279.78h-.09a.51.51,0,0,1-.4-.59l1.06-5.57a.5.5,0,0,1,.58-.4.51.51,0,0,1,.4.59l-1.06,5.57A.49.49,0,0,1,44.57,279.78Z"/><path class="cls-3" d="M67.48,294l-.28,0-23.54-4.47a1.49,1.49,0,0,1-1.2-1.76l1.06-5.59a.5.5,0,0,1,.58-.4.51.51,0,0,1,.4.59l-1.06,5.59a.51.51,0,0,0,.08.38.54.54,0,0,0,.32.21L67.39,293a.51.51,0,0,0,.59-.4l3.84-20.22a.55.55,0,0,0-.08-.38.49.49,0,0,0-.32-.21L47.87,267.3a.51.51,0,0,0-.59.4l-.64,3.38a.51.51,0,0,1-.59.4.5.5,0,0,1-.4-.58l.65-3.39a1.5,1.5,0,0,1,.63-1,1.44,1.44,0,0,1,1.12-.23l23.55,4.47a1.46,1.46,0,0,1,1,.63,1.53,1.53,0,0,1,.23,1.12L69,292.76A1.51,1.51,0,0,1,67.48,294Z"/><rect class="cls-32" x="371.7" y="41.82" width="25.98" height="22.59" rx="1" transform="translate(0.76 111.45) rotate(-16.5)"/><path class="cls-33" d="M374.25,59.44h26a0,0,0,0,1,0,0v3.14A1.46,1.46,0,0,1,398.77,64H375.71a1.46,1.46,0,0,1-1.46-1.46V59.44A0,0,0,0,1,374.25,59.44Z" transform="translate(-1.59 112.53) rotate(-16.5)"/><path class="cls-34" d="M372.38,47a1,1,0,0,1-.28-2l13.4-4a1,1,0,0,1,.57,1.91l-13.4,4A1,1,0,0,1,372.38,47Z"/><path class="cls-5" d="M377.32,45.5a1,1,0,0,1-.28-2l3.45-1a1,1,0,0,1,1.24.67,1,1,0,0,1-.67,1.25l-3.45,1A1,1,0,0,1,377.32,45.5Z"/><path class="cls-3" d="M372.78,58.82a.51.51,0,0,1-.48-.35L370.69,53a.5.5,0,1,1,1-.28l1.61,5.43a.49.49,0,0,1-.34.62A.32.32,0,0,1,372.78,58.82Z"/><path class="cls-3" d="M376.22,67.89a1.53,1.53,0,0,1-1.45-1.08l-1.61-5.46a.5.5,0,0,1,.33-.62.51.51,0,0,1,.63.34l1.61,5.46a.51.51,0,0,0,.63.34l23-6.81a.55.55,0,0,0,.3-.24.53.53,0,0,0,0-.39L393.83,39.7a.49.49,0,0,0-.62-.34l-23,6.81a.48.48,0,0,0-.3.24.46.46,0,0,0,0,.38l1,3.3a.51.51,0,0,1-.33.63.5.5,0,0,1-.62-.34l-1-3.3a1.5,1.5,0,0,1,1-1.87l23-6.81a1.5,1.5,0,0,1,1.87,1l5.85,19.73a1.51,1.51,0,0,1-.12,1.14,1.49,1.49,0,0,1-.9.73l-23,6.81A1.52,1.52,0,0,1,376.22,67.89Z"/><rect class="cls-32" x="340.45" y="45.21" width="25.98" height="22.59" rx="1" transform="translate(-1.49 102.72) rotate(-16.5)"/><path class="cls-33" d="M343,62.83h26a0,0,0,0,1,0,0V66a1.46,1.46,0,0,1-1.46,1.46H344.47A1.46,1.46,0,0,1,343,66V62.83A0,0,0,0,1,343,62.83Z" transform="translate(-3.84 103.8) rotate(-16.5)"/><path class="cls-34" d="M341.14,50.35a1,1,0,0,1-.29-2l13.4-4a1,1,0,0,1,1.25.68,1,1,0,0,1-.68,1.24l-13.4,4A.9.9,0,0,1,341.14,50.35Z"/><path class="cls-5" d="M346.08,48.89a1,1,0,0,1-.29-2l3.45-1a1,1,0,0,1,1.25.67,1,1,0,0,1-.68,1.25l-3.45,1A.9.9,0,0,1,346.08,48.89Z"/><path class="cls-3" d="M341.53,62.21a.51.51,0,0,1-.48-.35l-1.61-5.44a.51.51,0,0,1,.34-.62.5.5,0,0,1,.62.33L342,61.57a.5.5,0,0,1-.33.62A.39.39,0,0,1,341.53,62.21Z"/><path class="cls-3" d="M345,71.28a1.51,1.51,0,0,1-1.44-1.08l-1.62-5.46a.5.5,0,0,1,1-.28l1.61,5.45a.51.51,0,0,0,.63.34l23-6.8a.5.5,0,0,0,.34-.63l-5.84-19.73a.5.5,0,0,0-.63-.34l-23,6.81a.45.45,0,0,0-.3.24.5.5,0,0,0,0,.38l1,3.3a.5.5,0,0,1-1,.29l-1-3.3a1.53,1.53,0,0,1,.12-1.15,1.48,1.48,0,0,1,.9-.72l23-6.81a1.51,1.51,0,0,1,1.87,1l5.84,19.74a1.51,1.51,0,0,1-1,1.87l-23,6.8A1.33,1.33,0,0,1,345,71.28Z"/><rect class="cls-38" x="276.69" y="14.59" width="126.42" height="94.14" rx="7.92" transform="translate(-3.52 99.02) rotate(-16.49)"/><path class="cls-30" d="M280.06,47.47a2,2,0,0,1-.55-3.92l25.23-7.25a2,2,0,0,1,1.1,3.84l-25.22,7.25A2.16,2.16,0,0,1,280.06,47.47Z"/><path class="cls-30" d="M349.52,27A2,2,0,0,1,349,23l25.22-7.25a2,2,0,1,1,1.11,3.85l-25.22,7.24A1.85,1.85,0,0,1,349.52,27Z"/><path class="cls-3" d="M298,123.31a8.43,8.43,0,0,1-8.08-6L267.69,42.2a8.43,8.43,0,0,1,5.68-10.46L379.41.35A8.42,8.42,0,0,1,389.87,6L412.1,81.11a8.4,8.4,0,0,1-5.68,10.46h0L300.38,123A8.22,8.22,0,0,1,298,123.31ZM381.8,1a7.27,7.27,0,0,0-2.1.31l-106,31.39a7.42,7.42,0,0,0-5,9.21L290.88,117a7.43,7.43,0,0,0,9.22,5l106-31.4a7.41,7.41,0,0,0,5-9.21L388.91,6.31A7.42,7.42,0,0,0,381.8,1Zm24.48,90.09h0Z"/><path class="cls-3" d="M269.43,47.3a.13.13,0,0,1-.08,0,.48.48,0,0,1-.24-.3.5.5,0,0,1,.34-.62.41.41,0,0,1,.15,0c2.72-.48,80.23-23.69,121-36a.5.5,0,0,1,.28,1C277.62,45.4,270.12,47.3,269.43,47.3Z"/><circle class="cls-3" cx="276.76" cy="38.21" r="1.59"/><circle class="cls-3" cx="281.77" cy="36.76" r="1.59"/><circle class="cls-3" cx="286.78" cy="35.03" r="1.59"/><path class="cls-4" d="M214.1,133a1,1,0,0,1-1-.71,1,1,0,0,1,.68-1.25l44.9-13.44a1,1,0,0,1,.57,1.92l-44.9,13.44A1,1,0,0,1,214.1,133Z"/><path class="cls-4" d="M222.22,138.92a1,1,0,0,1-.28-2l44.9-13.44a1,1,0,1,1,.57,1.92l-44.9,13.44A1.35,1.35,0,0,1,222.22,138.92Z"/><path class="cls-4" d="M234.13,143.75a1,1,0,0,1-.28-1.95l44.9-13.44a1,1,0,1,1,.57,1.91l-44.9,13.44A.92.92,0,0,1,234.13,143.75Z"/></g></g></svg>