<svg xmlns="http://www.w3.org/2000/svg" viewBox="0 0 412.45 520.49"><defs><style>.cls-1,.cls-4,.cls-57{opacity:0.3;}.cls-2,.cls-4{fill:#77b7b6;}.cls-12,.cls-13,.cls-15,.cls-17,.cls-18,.cls-22,.cls-23,.cls-25,.cls-28,.cls-29,.cls-3,.cls-30,.cls-33,.cls-34,.cls-37,.cls-38,.cls-40,.cls-43,.cls-44,.cls-45,.cls-46,.cls-47,.cls-48,.cls-51,.cls-52,.cls-57,.cls-9{fill:none;}.cls-12,.cls-13,.cls-28,.cls-29,.cls-3,.cls-30,.cls-34,.cls-38,.cls-40,.cls-45{stroke:#232144;}.cls-12,.cls-13,.cls-15,.cls-17,.cls-18,.cls-22,.cls-23,.cls-25,.cls-28,.cls-29,.cls-3,.cls-30,.cls-33,.cls-38,.cls-40,.cls-43,.cls-44,.cls-45,.cls-46,.cls-48,.cls-51,.cls-52,.cls-57,.cls-9{stroke-linecap:round;stroke-linejoin:round;}.cls-5{fill:#fff;}.cls-6{fill:#7f1212;}.cls-7{fill:#2e4c64;}.cls-8{fill:#1e3c51;}.cls-9{stroke:#1e3c51;}.cls-51,.cls-52,.cls-57,.cls-9{stroke-width:2px;}.cls-10,.cls-32,.cls-56{fill:#e0f3fc;}.cls-10,.cls-31{opacity:0.58;}.cls-11{fill:#effdfd;}.cls-12{opacity:0.34;}.cls-13{opacity:0.54;}.cls-14{fill:#ffb999;}.cls-15,.cls-48{stroke:#f57a59;}.cls-15,.cls-17,.cls-18,.cls-23,.cls-33,.cls-44,.cls-47{stroke-width:3px;}.cls-16{fill:#fe4a65;}.cls-17{stroke:#ff859c;}.cls-18{stroke:#fce6ed;}.cls-19{fill:#f57a59;}.cls-20{fill:#84ecff;}.cls-21{fill:#29afd3;opacity:0.5;}.cls-22{stroke:#29afd3;}.cls-22,.cls-43{stroke-width:4px;}.cls-23{stroke:#ea1859;}.cls-24{fill:#ea1859;}.cls-25,.cls-33,.cls-37,.cls-46,.cls-47,.cls-52{stroke:#fff;}.cls-25{stroke-width:5px;}.cls-26{fill:#c64f4f;}.cls-27{fill:#a02727;}.cls-28{stroke-width:1.02px;}.cls-29{stroke-width:0.89px;}.cls-30{stroke-width:0.75px;}.cls-34,.cls-37,.cls-47{stroke-miterlimit:10;}.cls-35{fill:#29fc97;}.cls-36{fill:#9cf7c9;}.cls-37{stroke-width:3.77px;}.cls-38{stroke-width:1.26px;}.cls-39{fill:#232144;}.cls-40{stroke-width:0.71px;}.cls-41{fill:#ea6e6e;}.cls-42{fill:#f99;}.cls-43{stroke:#acd9ea;}.cls-44{stroke:#b20040;}.cls-45{stroke-width:1.05px;}.cls-49{fill:#ffa744;}.cls-50{fill:#f97c00;}.cls-51{stroke:#ffdab6;}.cls-53{fill:#9671c3;}.cls-54{fill:#ebdeff;}.cls-55{fill:#c6a2f9;}.cls-56{opacity:0.51;}.cls-57{stroke:#77b7b6;}</style></defs><g id="Layer_2" data-name="Layer 2"><g id="Layer_1-2" data-name="Layer 1"><g class="cls-1"><path class="cls-2" d="M125,494.72c16-4.08,31.12-14,47.42-17.62,19.93-4.45,35.53,15,52.44,22-2.66,5.94-19.42,11.07-25.61,13.41-9.42,3.56-20.26,7.14-30.36,7.92-15.16,1.18-25.11-9.28-36.48-17.34l1.6,1.27"/></g><circle class="cls-3" cx="27.98" cy="117.01" r="5.74"/><path class="cls-4" d="M63.88,86l44.6,22.14,16.63-33.22L78.91,53.06S73.26,75.2,63.88,86Z"/><polygon class="cls-5" points="83.79 61.69 79.94 70.45 90.01 75.25 95.09 66.59 83.79 61.69"/><path class="cls-6" d="M130.31,134.88c-3.06-3.07,2.43,8.51,6,11a16.17,16.17,0,0,0,12.4,2.46v-14S130.49,135.06,130.31,134.88Z"/><path class="cls-3" d="M130.31,134.88a14,14,0,0,0,6,11,16.17,16.17,0,0,0,12.4,2.46"/><path class="cls-7" d="M202.12,486.09l.41,16A5.87,5.87,0,0,0,204.2,507h0a6,6,0,0,0,2.25,1.41c10,3.42,16.24,5.75,26.69,7l3.5.41L240,516l3.59-.26a51.77,51.77,0,0,0,15-4.21h0a8.35,8.35,0,0,0-1.87-9.61,82.49,82.49,0,0,0-33.25-18.76l-5-7.71c3,1.45,5,3.91,5,6.7,0,4.46-5,8.07-11.19,8.07s-11.18-3.61-11.18-8.07a7.35,7.35,0,0,1,3.81-6.06"/><path class="cls-8" d="M259.3,508.13a8.33,8.33,0,0,1-.77,3.51,51.86,51.86,0,0,1-15,4.21l-3.6.27-3.39-.19-3.5-.41c-10.45-1.21-16.73-3.54-26.68-7a5.76,5.76,0,0,1-2.25-1.41,5.85,5.85,0,0,1-1.68-4.89l-.12-4.95c5.67,5.1,16.09,8.85,28.17,9.51,10.45.57,19.92-1.31,26.29-4.71A8.32,8.32,0,0,1,259.3,508.13Z"/><path class="cls-7" d="M133.15,474.39c-3,1.31-5,3.54-5,6.06,0,4,5,7.29,11.18,7.29s11.18-3.26,11.18-7.29c0-2.18-1.47-4.15-3.81-5.48l3.59,7.35,1.44,16.15a12.1,12.1,0,0,1-1.22,6.45l-.22.42a127.38,127.38,0,0,1-27.78,6.44l-9.11.28a45,45,0,0,1-13.07-3.65h0a7.28,7.28,0,0,1,1.63-8.36,71.91,71.91,0,0,1,27.69-15.95Z"/><path class="cls-9" d="M133.94,487.93a18.74,18.74,0,0,0,10.8,0"/><path class="cls-8" d="M151,504.34l-.54,1.09A125.6,125.6,0,0,1,122.88,512l-3.82.5-5.67-.14a44.33,44.33,0,0,1-12.92-3.83,7.35,7.35,0,0,1-.67-3.06,7.2,7.2,0,0,1,2.3-5.3l.24-.22c7.71,4.09,19.14,5.88,31.52,4.3a65,65,0,0,0,18.07-4.91h0A9.39,9.39,0,0,1,151,504.34Z"/><rect class="cls-10" x="235.32" y="255.2" width="96.56" height="71.91" rx="4.63"/><path class="cls-11" d="M271.81,255.49l-28.2,71.61,26,.19,23.53-71.71h0S272.5,255.2,271.81,255.49Z"/><path class="cls-5" d="M297,255.49l-24.2,71.61h6.4l24.11-71.71h-2.07A21.63,21.63,0,0,0,297,255.49Z"/><polygon class="cls-5" points="271.97 285.12 261.99 290.88 252.02 296.64 252.02 285.12 252.02 273.6 261.99 279.36 271.97 285.12"/><circle class="cls-12" cx="299.34" cy="104.18" r="8.12"/><circle class="cls-13" cx="299.34" cy="104.18" r="11.56"/><rect class="cls-5" x="290.66" y="73.91" width="37.27" height="32.56" rx="2.3" transform="translate(-12.88 88.54) rotate(-15.96)"/><path class="cls-14" d="M52.24,170.21c-2.1-5.64-7.5-11.48-7.5-11.48l1.86,2.2,1.89-19.61L31.37,117.6l-1.18-1.32c-1.17-1.32-1.56-.89-1.56-.89l-1.59.33c-1.41,1-.94,3.2-.94,3.2l1,2.44,8.22,16.85-3.1-1c-4.33,1.22-5.18,5.74-5.18,5.74v8.47S39.33,161.13,39.77,172l7.88,3.41Z"/><path class="cls-15" d="M40.9,170.94c-.56-11.67-12.16-19.55-12.16-19.55l-.1-8.47a5.86,5.86,0,0,1,3.48-4.52"/><path class="cls-16" d="M283.73,158.23c-6.36,16.52-36.56,48.27-36.56,48.27l.44.31c-26-17.69-59.72-29.72-68.92-32.82a15,15,0,0,0-4.84-.8H157.47l-16.71,6L119.17,197,97.66,211.36,53,169.19c-6.74,5.64-16.56,1.48-16.93,1.33L81.47,237h6.76a66.48,66.48,0,0,0,33.68-9.16l2.66-1.57v-5.84L128,265.57l6-5.65-10.91,10.92v11.77l5.46,5-7.1,6.22,2,13.17,2.26.91a108.67,108.67,0,0,0,83.2-.91l5.84-10.92-1-5.21-3.51,2-.21-.47-1.31-5.76-4.39-4-.68-1-1.94-31.8a4.63,4.63,0,0,1,.29-1.61l4.65-12.7a4.67,4.67,0,0,0,.29-1.61V219.78l50.32,12.94a6.71,6.71,0,0,0,7.62-3.4l33.26-63.75C290.5,165.29,283.73,158.23,283.73,158.23Z"/><polyline class="cls-17" points="112.55 203.34 119.75 198.82 134.71 186.26"/><path class="cls-14" d="M285.75,160.36V127.68l10.94-24.76,1.29-1.37s2.57-2.12,4.08,0a5.83,5.83,0,0,1,.51,4.87l-.92,1.77-8.38,18.44,1.54-3.2h7.25l2.35,1.89,4.89,7.15-1.13,9.41-6.78,9.6-6.58,13.9"/><line class="cls-18" x1="287.04" y1="131.76" x2="287.04" y2="146.16"/><polyline class="cls-15" points="294.24 162.78 299.89 150.92 306.66 141.5"/><path class="cls-14" d="M165.56,181.15h0c-4.31,0-8.78-3.67-7.81-7.81V152.47h15.62l.21,21.08C173.58,179.49,173.37,181.15,165.56,181.15Z"/><path class="cls-19" d="M157.3,167.55a15.69,15.69,0,0,0,16.23,0V157.32H157.37S157,167.55,157.3,167.55Z"/><path class="cls-7" d="M206.43,493.43l-5.08-10.3,2.4-4.1,3.38-6.77,7.63-.71,6.63,7.34L228,489.62s-6.35,5.23-7.06,5.37"/><path class="cls-7" d="M133.15,474.39c-3,1.31-5,3.54-5,6.06,0,4,5,7.29,11.18,7.29s11.18-3.26,11.18-7.29c0-2.18-2.53-5.3-5.81-6.57l-9-.35Z"/><path class="cls-14" d="M204,470.48l3,10.82a3.19,3.19,0,0,0,2.71,2.33,10.06,10.06,0,0,0,7.7-2.09,3.18,3.18,0,0,0,1-2.82L217,469"/><path class="cls-19" d="M202,461.73l3,10.81a3.16,3.16,0,0,0,2.7,2.34,10.06,10.06,0,0,0,7.7-2.09,3.19,3.19,0,0,0,1-2.83l-1.33-9.67"/><path class="cls-14" d="M135.73,471.09v8.56s4.53,3.2,9.05,0v-9.1"/><path class="cls-19" d="M135.73,465.44V474s4.53,3.2,9.05,0v-9.09"/><line class="cls-17" x1="59.04" y1="177.36" x2="90.66" y2="207.86"/><path class="cls-20" d="M223.28,466c-14.68,9.32-23.44,2.83-23.44,2.83l-4-28.24-11.58-44-15-49.7L150.71,469c-19.48,7.06-25.41-3.8-25.41-3.8l1.41-156.42c25.72,9.51,56.18,9.63,81.54-.94Z"/><path class="cls-21" d="M149.49,316.37c-3.73,34.89-4.44,110-8.28,155-12.24.29-15.91-6.19-15.91-6.19l1.47-156.75C138,312.57,137.73,316.06,149.49,316.37Z"/><line class="cls-22" x1="166.43" y1="352.87" x2="161.92" y2="383.76"/><line class="cls-22" x1="186.38" y1="399.57" x2="195.79" y2="434.47"/><line class="cls-22" x1="156.97" y1="413.41" x2="152.46" y2="444.3"/><path class="cls-22" d="M133.09,312.59c9.62,3.3,41.17,11.9,74.89-2.73"/><path class="cls-22" d="M143.19,318.94a110.74,110.74,0,0,0,13.28,2.14"/><line class="cls-23" x1="42.95" y1="178.21" x2="78.34" y2="229.98"/><polyline class="cls-17" points="254.62 201.18 267.7 185.83 273.06 179.06"/><path class="cls-17" d="M188.08,179.48s30.91,11,49.83,23.3"/><path class="cls-18" d="M201.47,184.68c3.51,1.43,7.48,3.12,11.61,5"/><line class="cls-23" x1="208.12" y1="219.01" x2="256.33" y2="231.22"/><line class="cls-23" x1="287.46" y1="183.29" x2="264.88" y2="225.65"/><path class="cls-24" d="M123.3,224a71.5,71.5,0,0,1-18.1,7.84c-6.17,1.7-13,3-19.43,2.39-1.92-.18-1.91,2.82,0,3a45.78,45.78,0,0,0,10.06-.46,73.75,73.75,0,0,0,29-10.17c1.65-1,.14-3.6-1.52-2.6Z"/><path class="cls-24" d="M123.59,221.45a71.39,71.39,0,0,1-29.24,10c-1.9.21-1.92,3.21,0,3A74.81,74.81,0,0,0,125.1,224c1.65-1,.14-3.59-1.51-2.59Z"/><path class="cls-24" d="M124,217.7a72.42,72.42,0,0,1-21,9.16,1.5,1.5,0,0,0,.79,2.89,74.58,74.58,0,0,0,21.77-9.46c1.63-1,.12-3.64-1.51-2.59Z"/><path class="cls-24" d="M124.4,214.5a72.36,72.36,0,0,1-21.06,9.16c-1.87.48-1.07,3.38.8,2.89a74.81,74.81,0,0,0,21.77-9.46c1.62-1,.12-3.64-1.51-2.59Z"/><line class="cls-25" x1="210.62" y1="357.46" x2="213.09" y2="384.16"/><line class="cls-25" x1="215.7" y1="411.79" x2="218.17" y2="438.49"/><path class="cls-24" d="M202.57,264.52,203.66,282l.68,1,4.39,4,1.31,5.75.21.47,3.51-2,1,5.21-5.84,10.92a108.67,108.67,0,0,1-83.2.91l-2.26-.91-2-13.17,7.1-6.22-5.46-5-.1-11.87,5-4.95s-1.28-18.21-1.7-25.69C143.89,256.85,202.57,264.52,202.57,264.52Z"/><path class="cls-26" d="M137.1,117.5a56.66,56.66,0,0,1,2.44,7.25c.79,3,1.1,6.68-1.29,8.61a2.13,2.13,0,0,1-1.09.52c-.41.05-1.76.93-2.13.75-2.87-1.41-2.62-6.18-4.63-8.66-.82-1-1.87-1.82-2.65-2.87-1-1.34-1.1-2.84-1.51-4.47-1.62-6.42-2.69-13.45-.7-19.77s7.07-12,13.59-13.16a6.37,6.37,0,0,0,1.61-.42c1.36-.68,1.93-2.09,2.51-3.49,1.24-3,5.72-6.33,8.87-7s2.82-.32,6-.29c2.13,0,6.32,1.8,7.71,3.52,1,1.27-1.39-.41.25-.41,10.88,0,17.61,5.91,20.39,12.41a12.28,12.28,0,0,1,1.12,5.15,30.15,30.15,0,0,1-1.18,8.2c.82,2.13,1.41,4.12,2.29,6.47s-.07,4.8-1.78,6.63c-.9,1-.94,1.91-2.18,2.31-15.39,5-32.53,5.53-46.23,14.15"/><path class="cls-27" d="M156.4,125A63.45,63.45,0,0,0,139,132c-.16.2,0,.75-.21.92a10.31,10.31,0,0,1-2.21,1.46c-.42,0-1-.37-1.38-.55-2.87-1.41-2.62-6.17-4.63-8.66-.82-1-4.65,1.27-5.43.22-1-1.34-1.1-4-1.06-5.72.21-7.83-.36-15.29,1.63-21.61A18,18,0,0,1,139.09,86c1.66,1.32,2.81,1.94,3.76,3.85,2.53,5.08,1.15,11.14,1.7,16.79A24.72,24.72,0,0,0,156.4,125Z"/><path class="cls-14" d="M185.14,114.89a6.51,6.51,0,0,1,2.38,12.79"/><ellipse class="cls-14" cx="129.59" cy="130" rx="6.54" ry="7.49"/><ellipse class="cls-19" cx="131.07" cy="129.79" rx="5.08" ry="5.82"/><path class="cls-14" d="M183.81,110l3.55,17.48a43.94,43.94,0,0,1,.52,15.38c-1.78,11.64-7.87,19.47-19.08,21.74h0c-6.4,1.3-12.73-.58-18.09-4a34.14,34.14,0,0,1-14.9-22.14l-.78-3.83a5.33,5.33,0,0,0,5.23-5.36c.19-5.27-3.62-11.86-3.62-11.86l1.63,2.92,5.52-1.5,3.27-2.88,2.24-3.25,4.14,2,5.79-.36,4.23-2.73,3.44,3.62,5.65,1.31,5.07-1.84Z"/><path class="cls-19" d="M179.78,159.75a23.42,23.42,0,0,1-10.72,5,20.9,20.9,0,0,1-4.14.41A26.3,26.3,0,0,1,151,160.78a34.17,34.17,0,0,1-14.9-22.14l-.78-3.83s4.36-.08,5.13-4.32c3.37,15.53,7.7,21.52,13.77,26,6.36,4.66,13.21,4.58,18.16,4.58a21,21,0,0,0,4.15-.42A25,25,0,0,0,179.78,159.75Z"/><path class="cls-3" d="M175,116a20.83,20.83,0,0,0,12.77-19.67"/><path class="cls-3" d="M124.34,106.28c-1.2,8.82-.57,14.9.49,18.42"/><ellipse class="cls-28" cx="129.59" cy="130" rx="6.54" ry="7.49"/><path class="cls-28" d="M128.78,126.05s-3.2,2.65-.7,7.43"/><path class="cls-28" d="M127.15,129.43a4,4,0,0,1,3.43,1.84"/><path class="cls-29" d="M189.05,121.79a3.44,3.44,0,0,0-1.83-2.84"/><path class="cls-3" d="M185.14,114.89a6.51,6.51,0,0,1,2.38,12.79"/><path class="cls-3" d="M186.34,104.29a11.35,11.35,0,0,1,2,10.92"/><line class="cls-3" x1="157.54" y1="175.64" x2="157.54" y2="163.84"/><path class="cls-3" d="M173.16,178.48c-2.83,4.4-10.92,3.87-14.62-1"/><line class="cls-3" x1="173.58" y1="163.84" x2="173.58" y2="175.64"/><path class="cls-3" d="M173.58,173.55h.34a15.29,15.29,0,0,1,4.84.79c9.84,3.32,47.79,16.87,74.26,36.62"/><path class="cls-3" d="M247.23,206.86s30.21-31.76,36.56-48.27c0,0,6.78,7.06,14.4,7.34l-33.25,63.75a6.71,6.71,0,0,1-7.62,3.39L207,220.14"/><path class="cls-3" d="M207,212.94v21.34a4.61,4.61,0,0,1-.28,1.6l-4.65,12.7a4.67,4.67,0,0,0-.29,1.61l2,32.77"/><polyline class="cls-3" points="110.72 203.07 119.24 197.4 140.83 179.53 157.54 173.55"/><path class="cls-3" d="M124.64,226.59,122,228.15a66.45,66.45,0,0,1-33.67,9.17H81.54L36.17,170.87s10.07,4.42,16.94-1.32l44.61,42.17L108,204.89"/><line class="cls-3" x1="211.27" y1="341.56" x2="208.41" y2="310.92"/><line class="cls-3" x1="216.22" y1="394.48" x2="211.76" y2="346.8"/><path class="cls-3" d="M160.81,402.37l8.35-55.6,15,49.7,11.58,44,4,28.24s8.76,6.49,23.44-2.83l-6.38-66.14"/><path class="cls-3" d="M126.49,406.48l-1.38,58.6s5.93,10.86,25.41,3.8l9.42-60.72"/><line class="cls-3" x1="126.78" y1="393.37" x2="126.58" y2="402.54"/><line class="cls-3" x1="126.69" y1="309.37" x2="126.9" y2="388.14"/><polyline class="cls-3" points="159.84 312.8 159.84 332 172.08 341.6"/><line class="cls-3" x1="164.73" y1="321.46" x2="164.73" y2="323.62"/><line class="cls-3" x1="164.73" y1="327.2" x2="164.73" y2="329.36"/><path class="cls-3" d="M197.52,321.46S195.79,335,213.11,335"/><path class="cls-3" d="M139,321.46S140.7,335,123.38,335"/><path class="cls-3" d="M204,470.48l3,10.82a3.19,3.19,0,0,0,2.71,2.33,10.06,10.06,0,0,0,7.7-2.09,3.18,3.18,0,0,0,1-2.82L217,469"/><path class="cls-3" d="M135.73,471.09v8.56s4.53,3.2,9.05,0v-9.1"/><path class="cls-3" d="M155.11,174.86c0,5.16,5,9.35,11.26,9.35s11.26-4.19,11.26-9.35v-.51"/><polyline class="cls-3" points="294.81 165.38 301.39 151.48 308.17 141.88 309.3 132.47 304.4 125.32 302.06 123.43 294.81 123.43"/><polyline class="cls-3" points="285.75 160.36 285.75 127.68 296.69 102.92"/><line class="cls-3" x1="301.65" y1="108.19" x2="293.27" y2="126.63"/><path class="cls-3" d="M298,101.55s2.57-2.12,4.08,0a5.83,5.83,0,0,1,.51,4.87"/><line class="cls-3" x1="252.02" y1="300.38" x2="276.35" y2="300.38"/><line class="cls-3" x1="252.02" y1="303.76" x2="267.12" y2="303.76"/><line class="cls-3" x1="252.02" y1="307.15" x2="267.12" y2="307.15"/><polygon class="cls-3" points="271.97 285.12 261.99 290.88 252.02 296.64 252.02 285.12 252.02 273.6 261.99 279.36 271.97 285.12"/><circle class="cls-30" cx="242.33" cy="259.31" r="1.46"/><circle class="cls-30" cx="248.12" cy="259.31" r="1.46"/><circle class="cls-30" cx="254.05" cy="259.31" r="1.46"/><path class="cls-3" d="M133.15,474.39c-3,1.31-5,3.54-5,6.06,0,4,5,7.29,11.18,7.29s11.18-3.26,11.18-7.29c0-2.18-1.47-4.15-3.81-5.48"/><path class="cls-3" d="M113.44,512.06a45,45,0,0,1-13.07-3.65h0a7.28,7.28,0,0,1,1.63-8.36,71.91,71.91,0,0,1,27.69-15.95"/><path class="cls-3" d="M150.33,482.32l1.4,15.67a13.74,13.74,0,0,1-1.4,7.35h0a127.38,127.38,0,0,1-27.78,6.44"/><g class="cls-31"><circle class="cls-32" cx="69.77" cy="337.45" r="19.2"/><path class="cls-32" d="M68.64,345.6a2.49,2.49,0,0,1-1.27-.34l-9.6-5.65a2.5,2.5,0,0,1,2.54-4.31l7.39,4.35,6.38-11.5a2.5,2.5,0,1,1,4.37,2.42l-7.62,13.75a2.52,2.52,0,0,1-1.53,1.2A3,3,0,0,1,68.64,345.6Z"/></g><path class="cls-20" d="M69.45,346.7a2.51,2.51,0,0,1-1.27-.35l-9.6-5.65a2.5,2.5,0,0,1,2.54-4.31l7.39,4.35,6.38-11.5a2.5,2.5,0,1,1,4.37,2.42l-7.62,13.75a2.52,2.52,0,0,1-2.19,1.29Z"/><path class="cls-33" d="M53,331.39S57.7,319,70.9,319.53"/><circle class="cls-3" cx="69.77" cy="337.45" r="19.2"/><path class="cls-34" d="M69.64,346.6a2.49,2.49,0,0,1-1.27-.34l-9.6-5.65a2.5,2.5,0,0,1,2.54-4.31l7.39,4.35,6.38-11.5a2.5,2.5,0,1,1,4.37,2.42l-7.62,13.75a2.52,2.52,0,0,1-1.53,1.2A3,3,0,0,1,69.64,346.6Z"/><circle class="cls-35" cx="226.48" cy="102.82" r="19.2"/><path class="cls-36" d="M245.68,103.38a19.19,19.19,0,0,1-9.71,16.7,19.2,19.2,0,0,0-25.19-27.74,19.19,19.19,0,0,1,34.9,11Z"/><path class="cls-35" d="M225.35,111a2.48,2.48,0,0,1-1.27-.35l-9.6-5.65a2.5,2.5,0,1,1,2.53-4.31L224.4,105l6.38-11.5a2.5,2.5,0,0,1,4.38,2.42l-7.63,13.75a2.49,2.49,0,0,1-1.53,1.2A2.37,2.37,0,0,1,225.35,111Z"/><path class="cls-5" d="M226.16,112.06a2.49,2.49,0,0,1-1.27-.34l-9.6-5.65a2.5,2.5,0,1,1,2.54-4.31l7.39,4.35L231.6,94.6A2.5,2.5,0,0,1,236,97l-7.62,13.75a2.52,2.52,0,0,1-1.53,1.2A3,3,0,0,1,226.16,112.06Z"/><path class="cls-33" d="M209.68,96.75s4.73-12.35,17.93-11.86"/><circle class="cls-3" cx="226.48" cy="102.82" r="19.2"/><path class="cls-34" d="M226.35,112a2.48,2.48,0,0,1-1.27-.35l-9.6-5.65a2.5,2.5,0,1,1,2.53-4.31L225.4,106l6.38-11.5a2.5,2.5,0,0,1,4.38,2.42l-7.63,13.75a2.49,2.49,0,0,1-1.53,1.2A2.37,2.37,0,0,1,226.35,112Z"/><path class="cls-3" d="M39.77,172C39.33,161.13,27,151.39,27,151.39v-8.47s.85-4.52,5.18-5.74"/><path class="cls-3" d="M44.74,158.73s5.4,5.84,7.5,11.48"/><polyline class="cls-3" points="46.6 160.93 48.48 141.32 31.37 117.6"/><line class="cls-3" x1="27.1" y1="121.36" x2="35.32" y2="138.21"/><path class="cls-3" d="M26.1,118.92s-.47-2.17.94-3.2"/><path class="cls-3" d="M28.63,115.39s.39-.43,1.56.89"/><line class="cls-37" x1="110.19" y1="68.08" x2="93.5" y2="100.72"/><line class="cls-37" x1="116.06" y1="70.73" x2="99.37" y2="103.37"/><path class="cls-38" d="M63.88,86l44.6,22.14,16.63-33.22L78.91,53.06S73.26,75.2,63.88,86Z"/><polygon class="cls-3" points="83.79 61.69 79.94 70.45 90.01 75.25 95.09 66.59 83.79 61.69"/><line class="cls-3" x1="78.99" y1="75.25" x2="100.26" y2="85.73"/><line class="cls-3" x1="77.86" y1="77.98" x2="86.52" y2="82.12"/><line class="cls-3" x1="75.61" y1="81.27" x2="94.15" y2="90.14"/><path class="cls-39" d="M148.45,106.87a4.18,4.18,0,0,0,2.16,3.73c.42.23.8-.42.38-.65a3.43,3.43,0,0,1-1.79-3.08c0-.48-.73-.48-.75,0Z"/><path class="cls-39" d="M181.93,107.54a4.6,4.6,0,0,0,.62-1.28.38.38,0,0,0-.26-.46.39.39,0,0,0-.46.26c0,.13-.09.26-.14.38l0-.09a4,4,0,0,1-.45.81.41.41,0,0,0,0,.29.38.38,0,0,0,.17.22.38.38,0,0,0,.29,0,.44.44,0,0,0,.23-.17Z"/><path class="cls-39" d="M128.93,97.88a7,7,0,0,0-1.26,2.58.39.39,0,0,0,.26.47.38.38,0,0,0,.46-.27,6.09,6.09,0,0,1,.42-1.18,4.4,4.4,0,0,1,.31-.56l.18-.28.1-.14.06-.09a.37.37,0,0,0-.53-.53Z"/><path class="cls-39" d="M128.5,117.52a35.11,35.11,0,0,1-1-14.42c.07-.48-.65-.68-.72-.2a36,36,0,0,0,1,14.82.38.38,0,0,0,.73-.2Z"/><rect class="cls-3" x="290.66" y="73.91" width="37.27" height="32.56" rx="2.3" transform="translate(-12.88 89.81) rotate(-16.19)"/><path class="cls-39" d="M166,110.24c1.6,2.27,4.79,3,7.42,2.84a8.67,8.67,0,0,0,4.12-1.22,17.74,17.74,0,0,0,3.45-3.08c.33-.35-.2-.88-.53-.53-1.95,2-3.89,3.87-6.86,4.07-2.37.17-5.48-.37-7-2.45-.27-.4-.92,0-.65.37Z"/><line class="cls-40" x1="182.49" y1="373.3" x2="180.46" y2="366.64"/><line class="cls-40" x1="181.61" y1="376.14" x2="179.58" y2="369.47"/><line class="cls-40" x1="202.7" y1="221.47" x2="202.33" y2="214.51"/><line class="cls-40" x1="201.29" y1="224.04" x2="200.76" y2="217.09"/><line class="cls-40" x1="238.87" y1="225.11" x2="245.55" y2="227.07"/><line class="cls-40" x1="236.91" y1="222.93" x2="243.64" y2="224.73"/><line class="cls-40" x1="130.63" y1="429.94" x2="130.97" y2="422.98"/><line class="cls-40" x1="128.84" y1="432.31" x2="129.18" y2="425.35"/><ellipse class="cls-41" cx="178.36" cy="92.95" rx="4.92" ry="3.67" transform="translate(-6.18 172.94) rotate(-50.96)"/><ellipse class="cls-41" cx="178.4" cy="100.07" rx="1.99" ry="1.48" transform="translate(-20.88 53.92) rotate(-16.25)"/><path class="cls-19" d="M141.65,133.72A10.25,10.25,0,0,0,143,127.8a18.05,18.05,0,0,0-1.77-7.11l-.89,2.21c4.67-1.11,8.69-3.44,10.72-8a1.55,1.55,0,0,0-.54-2,1.5,1.5,0,0,0-2,.54,10.25,10.25,0,0,1-3.66,4.54,16.38,16.38,0,0,1-5.27,2,1.52,1.52,0,0,0-.9,2.21,11.13,11.13,0,0,1,.84,2.66,17.13,17.13,0,0,1,.52,2.93,7.5,7.5,0,0,1-.9,4.41c-1,1.64,1.57,3.15,2.59,1.51Z"/><path class="cls-3" d="M188.28,134.67a41.38,41.38,0,0,1-.4,8.17c-1.78,11.64-7.87,19.47-19.08,21.74h0c-6.4,1.3-12.73-.58-18.09-4a34.14,34.14,0,0,1-14.9-22.14l-.78-3.83a5.33,5.33,0,0,0,5.23-5.36c.19-5.27-3.62-11.86-3.62-11.86"/><path class="cls-3" d="M138.27,120.33s6.7.66,11-7.63"/><path class="cls-41" d="M147.18,81.44a10,10,0,0,1,6.88-4,13.71,13.71,0,0,1,9.05,2.26c1.64,1,3.15-1.57,1.51-2.6a16.7,16.7,0,0,0-11.23-2.58,13,13,0,0,0-8.8,5.46c-1.1,1.59,1.5,3.09,2.59,1.51Z"/><path class="cls-42" d="M148.16,80.27c.22-.22.44-.44.68-.64l.18-.15c.3-.24-.15.11,0,0l.39-.28a11.2,11.2,0,0,1,1.68-1l.22-.1c.17-.07,0,0,0,0a1.3,1.3,0,0,1,.44-.17,8.6,8.6,0,0,1,.9-.29c.32-.09.65-.17,1-.23l.47-.08c.22,0-.27,0-.05,0l.3,0a1.55,1.55,0,0,0,1.5-1.5,1.52,1.52,0,0,0-1.5-1.5,13.54,13.54,0,0,0-8.3,3.79,1.5,1.5,0,1,0,2.13,2.12Z"/><path class="cls-3" d="M169.63,82.59a15.44,15.44,0,0,0-13.32-8"/><path class="cls-3" d="M154.48,74.59c-10.1,0-12.92,10.66-12.92,10.66s-16.87,2.25-16.87,17.64"/><path class="cls-41" d="M171.41,81.26c1.07.29,2.14.58,3.18,1l.4.15.2.08c-.19-.08-.22-.09-.06,0l.67.32a10.81,10.81,0,0,1,1.46.87,1.5,1.5,0,0,0,2.05-.53,1.55,1.55,0,0,0-.54-2.06,20.34,20.34,0,0,0-6.56-2.67,1.5,1.5,0,0,0-.8,2.9Z"/><path class="cls-3" d="M174,78.67a21.74,21.74,0,0,0-8.5-1"/><path class="cls-3" d="M187.44,93.29a19.86,19.86,0,0,0-10.93-13.58"/><path class="cls-41" d="M172.56,89.72a4.85,4.85,0,0,0-2,2.8c-.16.59-.2,1.21-.37,1.8a4.18,4.18,0,0,1-1.76,2.34,2.53,2.53,0,0,1-2.07.4,3.48,3.48,0,0,1-1.34-.94,3.27,3.27,0,0,1-1.37-2.52,3.36,3.36,0,0,1,.6-1.32l1.64-2.5a7.77,7.77,0,0,1,3-3.08,5.11,5.11,0,0,1,3.73,0c1,.33,2,1.07,1.94,2.09s-.94,1.55-1.77,2a15.54,15.54,0,0,1-2.3.87"/><path class="cls-23" d="M126.1,223.18c0,.21,1.76,22.16,1.76,22.16"/><path class="cls-23" d="M129.3,228.82c0,.21,1.76,22.17,1.76,22.17"/><line class="cls-3" x1="124.64" y1="220.75" x2="128.03" y2="265.93"/><path class="cls-19" d="M149.73,115.91a13.44,13.44,0,0,0,8.17,1.29,10.91,10.91,0,0,0,6.39-3.25,1.5,1.5,0,0,0-2.12-2.12c-2.67,3-7.51,3.16-10.93,1.49a1.55,1.55,0,0,0-2.05.54,1.52,1.52,0,0,0,.54,2Z"/><path class="cls-19" d="M161.6,114.07a10.48,10.48,0,0,0,9.7,5.2,1.5,1.5,0,0,0,0-3,10.43,10.43,0,0,1-1.25,0l-.3,0c-.08,0-.38-.06,0,0l-.6-.11a9.72,9.72,0,0,1-1.09-.3l-.28-.1s-.35-.15-.16-.06l-.14-.07-.27-.14a7.9,7.9,0,0,1-1-.58s-.3-.22-.13-.09-.1-.08-.13-.11-.3-.26-.44-.39-.28-.29-.42-.43-.11-.12-.16-.19-.28-.35-.07-.07a10.32,10.32,0,0,1-.68-1,1.5,1.5,0,1,0-2.59,1.51Z"/><path class="cls-3" d="M157.54,114.68a7.45,7.45,0,0,0,6.72-6.43"/><path class="cls-3" d="M163.46,110.7s1.37,6.07,9.09,5.82"/><path class="cls-3" d="M146.57,105.55s-.19,9.13,8.66,9.13"/><line class="cls-43" x1="303.91" y1="266.02" x2="325.72" y2="266.09"/><line class="cls-43" x1="244.43" y1="266.02" x2="257.91" y2="265.93"/><rect class="cls-3" x="235.32" y="255.2" width="96.56" height="71.91" rx="4.63"/><line class="cls-3" x1="235.32" y1="264.19" x2="331.89" y2="264.19"/><path class="cls-44" d="M134,262.63l-9.13,9.13.09,10.79,5.84,5.59L123,294.92l2,11.34a114.26,114.26,0,0,0,31.62,8"/><ellipse class="cls-8" cx="138.88" cy="502.76" rx="4.24" ry="2.12" transform="translate(-88.39 33.29) rotate(-10.39)"/><circle class="cls-8" cx="142.97" cy="499.57" r="0.71"/><circle class="cls-8" cx="147.24" cy="501.59" r="1.09"/><circle class="cls-8" cx="130.41" cy="503.25" r="2.89"/><path class="cls-9" d="M210.15,491.08a13.14,13.14,0,0,0,9.83-1.74"/><path class="cls-45" d="M218.57,475.42c3,1.45,5,3.91,5,6.7,0,4.46-5,8.07-11.19,8.07s-11.18-3.61-11.18-8.07a7.35,7.35,0,0,1,3.81-6.06"/><path class="cls-3" d="M243.62,515.71a51.77,51.77,0,0,0,15-4.21h0a8.35,8.35,0,0,0-1.87-9.61,82.49,82.49,0,0,0-33.25-18.76"/><path class="cls-3" d="M202.12,486.09l.41,16A5.87,5.87,0,0,0,204.2,507h0a6,6,0,0,0,2.25,1.41c10,3.42,16.24,5.75,26.69,7"/><line class="cls-3" x1="236.64" y1="515.79" x2="240.03" y2="515.97"/><rect class="cls-39" x="160.87" y="123.18" width="5.18" height="8.29" rx="2.59"/><circle class="cls-5" cx="165.77" cy="126.82" r="1.04"/><rect class="cls-39" x="176.71" y="120.33" width="5.18" height="8.29" rx="2.59"/><circle class="cls-5" cx="181.61" cy="123.98" r="1.04"/><path class="cls-39" d="M155.18,181.23a8.55,8.55,0,0,0,3.62,3,.39.39,0,0,0,.52-.13.37.37,0,0,0-.14-.51,8,8,0,0,1-3.35-2.69.4.4,0,0,0-.52-.13.37.37,0,0,0-.13.51Z"/><path class="cls-39" d="M174.34,184.1a19.5,19.5,0,0,0,2.8-2.24.38.38,0,0,0,0-.53.39.39,0,0,0-.53,0,18.44,18.44,0,0,1-2.64,2.12.37.37,0,1,0,.37.65Z"/><path class="cls-39" d="M164.54,186.21a6.45,6.45,0,0,0,3.59,0,.37.37,0,0,0-.2-.72,5.77,5.77,0,0,1-3.19,0,.37.37,0,0,0-.2.72Z"/><polyline class="cls-44" points="184.97 286.35 195.13 286.35 203.42 284.47"/><polyline class="cls-3" points="184.88 285.13 195.23 285.13 204.38 282.96 208.78 287.01 210.16 293.06"/><polyline class="cls-44" points="190.81 300.85 197.11 300.56 203.13 298.49 211.32 293.88"/><path class="cls-3" d="M134.05,260.28,123.14,271.2V283l5.45,5-7.09,6.21,2,13.18,2.26.91a108.65,108.65,0,0,0,83.2-.91h0l5.84-10.92-1-5.21-10.68,6.15-5.83,2.07-7,.38"/><line class="cls-46" x1="38.85" y1="129.5" x2="45.98" y2="139.53"/><path class="cls-4" d="M17.35,135.1,50.19,113,33.77,88.42.5,111.76S13.58,124.38,17.35,135.1Z"/><line class="cls-47" x1="23.18" y1="96.05" x2="39.18" y2="120.42"/><line class="cls-47" x1="27.32" y1="93.03" x2="43.32" y2="117.41"/><path class="cls-3" d="M17.35,135.1,50.19,113,33.77,88.42.5,111.76S13.58,124.38,17.35,135.1Z"/><path class="cls-48" d="M174,134.47l1.26,2.42a3.69,3.69,0,0,1-2.52,5.31h0"/><path class="cls-26" d="M165.31,144.9c-1.48.42-2.29,3.12-2.21,4.66a10.46,10.46,0,0,0,1.57,4.3,10.12,10.12,0,0,1,1.53,4.31c.08,2.18-1.23,4.21-1.27,6.39-.06,3.56,3.28,6.3,6.66,7.45a14.12,14.12,0,0,0,11-.5,9.75,9.75,0,0,0,5.36-9.2c-.32-3.18-2.46-5.95-2.78-9.13a34.76,34.76,0,0,1,.3-5.19,6.51,6.51,0,0,0-1.33-4.89c-1.55-1.66-4.13-1.73-6.39-1.5a42.15,42.15,0,0,0-9.91,2.26"/><path class="cls-27" d="M182.93,171.23a14.19,14.19,0,0,1-11,.49c-3.37-1.14-6.71-3.88-6.65-7.45a9.13,9.13,0,0,1,.49-2.57c.92,2.58,3.6,4.52,6.31,5.43a14.13,14.13,0,0,0,11-.49,10.35,10.35,0,0,0,5-5.87,8.84,8.84,0,0,1,.22,1.25C188.66,165.77,186.27,169.48,182.93,171.23Z"/><path class="cls-3" d="M179.39,146.1a9.7,9.7,0,0,1-8.22,2.6l-.79-.1"/><path class="cls-41" d="M179.33,143c2,.13,4,1,4.3,3.21.29,2.4-.86,4.74-.12,7.12.28.92,1.73.53,1.44-.4-.8-2.6.81-5.32-.07-7.94-.8-2.39-3.22-3.34-5.55-3.49-1-.06-1,1.44,0,1.5Z"/><path class="cls-41" d="M184.12,155.77c.33.92.7,1.83,1.09,2.72a.72.72,0,0,0,.45.35.72.72,0,0,0,.57-.08.77.77,0,0,0,.35-.44.83.83,0,0,0-.08-.58c0-.11-.09-.21-.13-.32s-.08-.21,0-.09,0-.06,0-.09c-.08-.2-.17-.4-.25-.61-.16-.42-.32-.83-.47-1.26a.83.83,0,0,0-.34-.44.74.74,0,0,0-.58-.08.76.76,0,0,0-.53.92Z"/><path class="cls-5" d="M182.46,114.14l1.81,8.61a1.13,1.13,0,1,0,2.17-.6l-1.81-8.61a1.13,1.13,0,0,0-1.38-.79,1.16,1.16,0,0,0-.79,1.39Z"/><path class="cls-3" d="M183.81,110l3.55,17.48c.26,1.26.47,2.54.63,3.82"/><path class="cls-19" d="M171.16,171.49a11.41,11.41,0,0,1-1.62-.44c-.07,0-.49-.17-.13,0a4,4,0,0,1-.42-.2,6.44,6.44,0,0,1-.63-.36l-.26-.17-.17-.12,0,0a5.11,5.11,0,0,0-.55-.48c-.17-.17-.34-.35-.5-.53a1.16,1.16,0,0,1-.2-.24l0,.05-.12-.17a8.06,8.06,0,0,1-.52-1.11l-.52-1.14a1.53,1.53,0,0,0-2.06-.54,1.56,1.56,0,0,0-.53,2.06l.54,1.19a6.81,6.81,0,0,0,.69,1.31,9.75,9.75,0,0,0,6.11,3.78,1.54,1.54,0,0,0,1.85-1,1.52,1.52,0,0,0-1.05-1.84Z"/><path class="cls-3" d="M165.4,144.8c-1.48.43-2.29,3.13-2.21,4.67a10.71,10.71,0,0,0,1.57,4.3,10,10,0,0,1,1.54,4.31c.08,2.18-1.24,4.21-1.27,6.38-.06,3.57,3.28,6.31,6.65,7.46a14.2,14.2,0,0,0,11-.5c3.34-1.75,5.73-5.46,5.35-9.2-.32-3.18-2.46-6-2.78-9.13a33.69,33.69,0,0,1,.31-5.2,6.54,6.54,0,0,0-1.33-4.88c-1.55-1.67-4.13-1.73-6.39-1.5a42.23,42.23,0,0,0-9.92,2.26"/><rect class="cls-49" x="287.56" y="284.92" width="25.98" height="22.59" rx="1"/><path class="cls-50" d="M287.56,302.9h26a0,0,0,0,1,0,0V306a1.46,1.46,0,0,1-1.46,1.46H289a1.46,1.46,0,0,1-1.46-1.46V302.9A0,0,0,0,1,287.56,302.9Z"/><line class="cls-51" x1="290.78" y1="285.86" x2="304.76" y2="285.86"/><line class="cls-52" x1="295.93" y1="285.86" x2="299.53" y2="285.86"/><line class="cls-3" x1="287.65" y1="297.82" x2="287.65" y2="292.15"/><path class="cls-3" d="M287.65,289.39v-3.45a1,1,0,0,1,1-1h24a1,1,0,0,1,1,1v20.58a1,1,0,0,1-1,1h-24a1,1,0,0,1-1-1v-5.69"/><rect class="cls-49" x="85.21" y="159.6" width="25.98" height="22.59" rx="1" transform="translate(-66.14 62.09) rotate(-26.61)"/><path class="cls-50" d="M89.23,176.63h26a0,0,0,0,1,0,0v3.14a1.46,1.46,0,0,1-1.46,1.46H90.69a1.46,1.46,0,0,1-1.46-1.46v-3.14a0,0,0,0,1,0,0Z" transform="translate(-69.32 64.74) rotate(-26.61)"/><line class="cls-51" x1="84.83" y1="166.01" x2="97.32" y2="159.75"/><line class="cls-52" x1="89.43" y1="163.7" x2="92.65" y2="162.09"/><line class="cls-3" x1="87.39" y1="178.11" x2="84.85" y2="173.04"/><path class="cls-3" d="M83.61,170.57l-1.54-3.08a1,1,0,0,1,.44-1.35l21.43-10.74a1,1,0,0,1,1.35.45l9.22,18.4a1,1,0,0,1-.45,1.35L92.63,186.33a1,1,0,0,1-1.35-.44l-2.54-5.09"/><rect class="cls-53" x="16.5" y="247.66" width="44.59" height="29.33" rx="2.71"/><path class="cls-54" d="M36.13,248.14,24.74,277l9.49.08,9.49-29h-3S36.41,248,36.13,248.14Z"/><path class="cls-54" d="M46.31,248.14,36.54,277h2.59l9.73-28.94H48A8.49,8.49,0,0,0,46.31,248.14Z"/><path class="cls-55" d="M56.48,248.14,46.71,277h2.58L59,248.1h-.84A8.38,8.38,0,0,0,56.48,248.14Z"/><rect class="cls-5" x="21.87" y="251.75" width="12.14" height="7.49"/><line class="cls-3" x1="21.85" y1="263.37" x2="46.18" y2="263.37"/><line class="cls-3" x1="21.85" y1="266.76" x2="36.95" y2="266.76"/><line class="cls-3" x1="21.85" y1="270.15" x2="36.95" y2="270.15"/><rect class="cls-3" x="16.5" y="247.66" width="44.59" height="29.33" rx="2.71"/><rect class="cls-3" x="21.87" y="251.75" width="12.14" height="7.49"/><rect class="cls-49" x="44.55" y="268.8" width="25.98" height="22.59" rx="1" transform="translate(53.24 -5.82) rotate(10.75)"/><path class="cls-50" d="M42.88,286.63h26a0,0,0,0,1,0,0v3.14a1.46,1.46,0,0,1-1.46,1.46H44.34a1.46,1.46,0,0,1-1.46-1.46v-3.14A0,0,0,0,1,42.88,286.63Z" transform="translate(54.85 -5.35) rotate(10.75)"/><line class="cls-51" x1="49.88" y1="268.11" x2="63.61" y2="270.71"/><line class="cls-52" x1="54.94" y1="269.07" x2="58.48" y2="269.74"/><line class="cls-3" x1="44.57" y1="279.28" x2="45.63" y2="273.71"/><path class="cls-3" d="M46.15,271l.64-3.38a1,1,0,0,1,1.17-.8l23.55,4.47a1,1,0,0,1,.8,1.17l-3.84,20.22a1,1,0,0,1-1.17.8L43.75,289a1,1,0,0,1-.8-1.17L44,282.24"/><rect class="cls-49" x="371.7" y="41.82" width="25.98" height="22.59" rx="1" transform="translate(0.76 111.45) rotate(-16.5)"/><path class="cls-50" d="M374.25,59.44h26a0,0,0,0,1,0,0v3.14A1.46,1.46,0,0,1,398.77,64H375.71a1.46,1.46,0,0,1-1.46-1.46V59.44A0,0,0,0,1,374.25,59.44Z" transform="translate(-1.59 112.53) rotate(-16.5)"/><line class="cls-51" x1="372.38" y1="45.97" x2="385.78" y2="42"/><line class="cls-52" x1="377.32" y1="44.5" x2="380.78" y2="43.48"/><line class="cls-3" x1="372.78" y1="58.33" x2="371.17" y2="52.89"/><path class="cls-3" d="M370.38,50.24l-1-3.3a1,1,0,0,1,.67-1.25l23-6.81a1,1,0,0,1,1.24.68l5.85,19.73a1,1,0,0,1-.68,1.25l-23,6.81a1,1,0,0,1-1.25-.68l-1.61-5.46"/><rect class="cls-49" x="340.45" y="45.21" width="25.98" height="22.59" rx="1" transform="translate(-1.49 102.72) rotate(-16.5)"/><path class="cls-50" d="M343,62.83h26a0,0,0,0,1,0,0V66a1.46,1.46,0,0,1-1.46,1.46H344.47A1.46,1.46,0,0,1,343,66V62.83A0,0,0,0,1,343,62.83Z" transform="translate(-3.84 103.8) rotate(-16.5)"/><line class="cls-51" x1="341.14" y1="49.35" x2="354.54" y2="45.38"/><line class="cls-52" x1="346.08" y1="47.89" x2="349.53" y2="46.87"/><line class="cls-3" x1="341.53" y1="61.71" x2="339.92" y2="56.28"/><path class="cls-3" d="M339.14,53.63l-1-3.3a1,1,0,0,1,.68-1.25l23-6.81a1,1,0,0,1,1.25.68l5.84,19.73a1,1,0,0,1-.68,1.25l-23,6.81a1,1,0,0,1-1.24-.68l-1.62-5.46"/><rect class="cls-56" x="276.69" y="14.59" width="126.42" height="94.14" rx="7.92" transform="translate(-3.52 99.02) rotate(-16.49)"/><line class="cls-43" x1="280.06" y1="45.47" x2="305.29" y2="38.22"/><line class="cls-43" x1="349.52" y1="24.95" x2="374.75" y2="17.7"/><rect class="cls-3" x="276.69" y="14.59" width="126.42" height="94.14" rx="7.92" transform="translate(-3.52 99.02) rotate(-16.49)"/><path class="cls-3" d="M269.59,46.84c.12.42,121.19-36,121.19-36"/><circle class="cls-39" cx="276.76" cy="38.21" r="1.59"/><circle class="cls-39" cx="281.77" cy="36.76" r="1.59"/><circle class="cls-39" cx="286.78" cy="35.03" r="1.59"/><line class="cls-57" x1="214.1" y1="131.95" x2="259.01" y2="118.51"/><line class="cls-57" x1="222.23" y1="137.92" x2="267.13" y2="124.48"/><line class="cls-57" x1="234.13" y1="142.76" x2="279.04" y2="129.32"/></g></g></svg>