<svg xmlns="http://www.w3.org/2000/svg" viewBox="0 0 459.63 221.88"><defs><style>.cls-1{fill:#3ec4ff;}.cls-10,.cls-13,.cls-15,.cls-16,.cls-18,.cls-19,.cls-2,.cls-21,.cls-22,.cls-23,.cls-24,.cls-25,.cls-26,.cls-29,.cls-3,.cls-30,.cls-31,.cls-36,.cls-38,.cls-39,.cls-40,.cls-41,.cls-42,.cls-43,.cls-46,.cls-47,.cls-48,.cls-49,.cls-51,.cls-52,.cls-53,.cls-54,.cls-55,.cls-56,.cls-57,.cls-58,.cls-59,.cls-6,.cls-60,.cls-7{fill:none;}.cls-2,.cls-41{stroke:#a4e7ff;}.cls-10,.cls-13,.cls-15,.cls-16,.cls-18,.cls-19,.cls-2,.cls-21,.cls-22,.cls-23,.cls-24,.cls-25,.cls-26,.cls-29,.cls-3,.cls-30,.cls-31,.cls-38,.cls-39,.cls-40,.cls-41,.cls-42,.cls-43,.cls-46,.cls-47,.cls-48,.cls-49,.cls-51,.cls-52,.cls-53,.cls-55,.cls-56,.cls-57,.cls-58,.cls-59,.cls-6,.cls-60,.cls-7{stroke-linecap:round;}.cls-10,.cls-13,.cls-15,.cls-16,.cls-18,.cls-19,.cls-2,.cls-21,.cls-22,.cls-23,.cls-25,.cls-26,.cls-29,.cls-3,.cls-30,.cls-31,.cls-38,.cls-39,.cls-40,.cls-41,.cls-42,.cls-43,.cls-47,.cls-48,.cls-49,.cls-52,.cls-56,.cls-57,.cls-59,.cls-6,.cls-60,.cls-7{stroke-linejoin:round;}.cls-2,.cls-6{stroke-width:2.63px;}.cls-3{stroke:#187bb7;stroke-width:2px;opacity:0.7;}.cls-4{fill:#ffd5c7;}.cls-5,.cls-50{fill:#ffab94;}.cls-30,.cls-39,.cls-42,.cls-47,.cls-6{stroke:#fff;}.cls-13,.cls-15,.cls-16,.cls-21,.cls-22,.cls-23,.cls-25,.cls-29,.cls-31,.cls-36,.cls-38,.cls-40,.cls-43,.cls-48,.cls-49,.cls-52,.cls-56,.cls-57,.cls-59,.cls-60,.cls-7{stroke:#232144;}.cls-7{stroke-width:1.67px;}.cls-8{fill:#232144;}.cls-9{fill:#ffd297;}.cls-10,.cls-18,.cls-19,.cls-26{stroke:#f9a948;}.cls-10,.cls-16,.cls-24{stroke-width:1.51px;}.cls-11,.cls-27{fill:#fff;}.cls-12{fill:#e1fbff;}.cls-13{stroke-width:0.75px;}.cls-14{fill:#f9968f;}.cls-15,.cls-18{stroke-width:1.13px;}.cls-17{fill:#f9a948;}.cls-19{stroke-width:1.52px;}.cls-20{fill:#f7af9c;}.cls-21{stroke-width:1.33px;}.cls-22{stroke-width:0.69px;}.cls-23{stroke-width:3px;}.cls-24,.cls-46,.cls-51,.cls-53,.cls-54,.cls-55,.cls-58{stroke:#ffab94;}.cls-24,.cls-36,.cls-46,.cls-51,.cls-53,.cls-54,.cls-55,.cls-58{stroke-miterlimit:10;}.cls-25{stroke-width:1.43px;}.cls-26{stroke-width:2.26px;}.cls-27,.cls-37{opacity:0.5;}.cls-28{fill:#187bb7;}.cls-29,.cls-36,.cls-39{stroke-width:1.49px;}.cls-30{stroke-width:1.94px;}.cls-31{stroke-width:1.4px;}.cls-32{fill:#f6bc58;}.cls-33{fill:#e59015;}.cls-34{fill:#3c5768;}.cls-35,.cls-37{fill:#28424f;}.cls-38{stroke-width:0.75px;}.cls-40{stroke-width:1.12px;}.cls-41,.cls-42{stroke-width:2.53px;}.cls-41{opacity:0.41;}.cls-43{stroke-width:1.82px;}.cls-44{fill:#4080ff;}.cls-45{fill:#0a5ee5;}.cls-46{stroke-width:1.88px;}.cls-47,.cls-48{stroke-width:1.51px;}.cls-49{stroke-width:1.07px;}.cls-50{opacity:0.35;}.cls-51{stroke-width:1.44px;}.cls-52{stroke-width:1.45px;}.cls-53{stroke-width:1.52px;}.cls-54{stroke-width:0.87px;}.cls-55{stroke-width:1.73px;}.cls-56{stroke-width:1.54px;}.cls-57{stroke-width:1.22px;}.cls-58{stroke-width:1.57px;}.cls-59{stroke-width:1.79px;}.cls-60{stroke-width:1.18px;}</style></defs><g id="Layer_2" data-name="Layer 2"><g id="Layer_1-2" data-name="Layer 1"><path class="cls-1" d="M346.37,109c-4.45,1.1-7.89,1.7-12.18,3.3-.84.32-2.44,0-3.28.34-3.06,1.19-6.25,3.93-9.29,5.19l-18,7.43a2.34,2.34,0,0,0-1.25.89,1.59,1.59,0,0,0,.6,1.93,4.35,4.35,0,0,0,2.09.65,83.31,83.31,0,0,0,10.94.74l-1.39.06,84.23-.07c2.56,0,5.23,0,7.52-1.19-4.32-3.45-7-3.78-11.91-5.6-2.21-.83-8.47-2.73-10.72-3.52a12.1,12.1,0,0,1-4.12-2.25c-1.11-1.09-1.45-2.46-2.75-3-1.61-.71-1.94.14-3.52-.75-1.05-.6-4-1.87-5.21-1.73-.12.78-3.34-2-3.47-1.16"/><polyline class="cls-2" points="328.6 117.1 330.87 113.97 337.9 112.57"/><polyline class="cls-3" points="381.29 122.5 376.66 114.89 367.9 112.06"/><path class="cls-4" d="M365.46,102.7v8.14a11.7,11.7,0,0,1-11.7,11.7h0a11.7,11.7,0,0,1-11.7-11.7V104"/><path class="cls-5" d="M365.46,94.74v8.14a11.7,11.7,0,0,1-11.7,11.7h0a11.7,11.7,0,0,1-11.7-11.7V96"/><line class="cls-2" x1="324.7" y1="117.44" x2="328.6" y2="117.1"/><line class="cls-6" x1="324.75" y1="117.59" x2="328.79" y2="117.2"/><polyline class="cls-7" points="318.49 119.26 323.83 116.14 327.51 115.69 329.9 112.57 341.76 110.07"/><line class="cls-7" x1="304.5" y1="125.03" x2="312.33" y2="121.82"/><polyline class="cls-7" points="403.48 125.03 379.78 117.56 377.22 113.63 365.86 110.16"/><path class="cls-7" d="M365.46,102.7v8.14a11.7,11.7,0,0,1-11.7,11.7h0a11.7,11.7,0,0,1-11.7-11.7V104"/><circle class="cls-8" cx="315.8" cy="120.39" r="0.91"/><line class="cls-7" x1="381.17" y1="120.44" x2="382.47" y2="122.36"/><path class="cls-4" d="M384.56,51.7v26a30.8,30.8,0,0,1-30.81,30.81h0a30.81,30.81,0,0,1-30.81-30.81V45.09h32.64l5-5,5.14,5.13,3.89-3.89,6.3,6.29S384.56,51.69,384.56,51.7Z"/><path class="cls-9" d="M324.64,42.08a8.62,8.62,0,0,1-7.5-4.81,49.87,49.87,0,0,0-.43,12.5,21.36,21.36,0,0,0,4.67,11.45c.27.32.5,1.55.92,1.51,1.05-.11.65-2.76,1.26-3.62.28-.39,2.41-.63,2.86-.78,3-1,4-3.07,5.69-5.79a24.4,24.4,0,0,1,1.81,7.33,38,38,0,0,0,13.54-9.69,16.85,16.85,0,0,1,3.6-2.86,8,8,0,0,1,2.41-1.15,12,12,0,0,0,5.16-2.94c.41-.39,1-.85,1.46-.58a1.21,1.21,0,0,1,.47.61c.55,1.31.65,2.77,1.18,4.09s1.12,3.46,2.52,3.28c.69-.1,1.92-1.42,2.46-1.85a16.5,16.5,0,0,0,4.18-5.07c1.26,4.93,3.48,10.1,7.19,13.59a3.07,3.07,0,0,0,1.34.6c.35,0,.57-1.06.81-1.32l4.44-4.88.17,6.54c0,1.42-.74,4,.25,5,1.36,1.39,6.53.8,8.33.06,5.64-2.33,7.08-8.95,6.61-14.72a2.32,2.32,0,0,0-.1-.88,1.48,1.48,0,0,0-.88-.59c-1.79-.58-4,.39-5.38-.65-.38-.28,1-1.6.77-2.07-.43-1,.78-3.48,1-4.51,1.16-6.44,1.29-11.46,2.46-17.9L392.48,24c-.45.17-1.61,1-2,.68s.29-1.21.25-1.52c-.43-3.63.75-7.23,1.92-10.69l1.95-5.74c-3.46,1-7,2.83-10.58,2.92-3.33.08-6.68-1.44-10-2-4.33-.69-8.57-.44-12.9-1.14a3.43,3.43,0,0,1-1.68-.74c-.77-.91.54-3.37-.36-4.15a1.84,1.84,0,0,0-1.24-.32c-5,0-9.89,2.16-13.94,5.15s-7.42,6.8-10.76,10.58c-.73-1.56-2-1.63-2.77-3.19-.19-.38-.7-2.19-1.12-2.24s0,.29-.25.69c-2.76,4.39-5.53,7.71-7.21,12.61s-2.19,11.47-.66,16.42"/><path class="cls-10" d="M394.17,48.33l5.65-.16s.77,10-5.77,14.46"/><path class="cls-5" d="M384.54,72.29v5.3a30.81,30.81,0,0,1-61.62,0v-5.3a30.81,30.81,0,1,0,61.62,0Z"/><path class="cls-8" d="M365.76,88.13A12.35,12.35,0,0,1,354,100a11.82,11.82,0,0,1-11.58-9.75c.28.24.17-2.3.52-2.09.1,0,7.83-.29,7.95-.23C356.17,91.12,361.86,88.54,365.76,88.13Z"/><path class="cls-11" d="M364.53,87.93l-.08.26a9.3,9.3,0,0,1-.34,2.1c-3.15,3.91-16.49,3.55-20,0a8,8,0,0,1-.3-2.29v-.07Z"/><path class="cls-12" d="M363.56,88v.1a.69.69,0,0,1-.32.37c-2.9,1.44-15,1.3-18.18,0a.49.49,0,0,1-.28-.44h0Z"/><path class="cls-13" d="M364.35,88a10.38,10.38,0,0,1-.33,2.07c-3.1,3.83-16.23,3.49-19.72,0A6.54,6.54,0,0,1,344,88"/><path class="cls-14" d="M363.09,95.91a12,12,0,0,1-11.78,3.65,2.44,2.44,0,0,1,0-.54,7,7,0,0,1,5.05-4.34,8.16,8.16,0,0,1,6.57.95Z"/><path class="cls-15" d="M365.26,88a.68.68,0,0,1,.66.68h0a11.83,11.83,0,0,1-23.63,0,.65.65,0,0,1,.62-.68h22.35Z"/><path class="cls-13" d="M351.27,99A8,8,0,0,1,362,95.13a7.84,7.84,0,0,1,.9.49"/><path class="cls-5" d="M324,61.64c3.51,0,6.6-2.13,8.81-4.7l-1.89-.49c.49,2.13-1.15,4.71,1.29,6.19a3.62,3.62,0,0,0,3.52-.1c1.26-.53,2.51-1.1,3.72-1.73a38.21,38.21,0,0,0,12.22-10.17c.9-1.13-.69-2.74-1.6-1.6a36.34,36.34,0,0,1-9.76,8.69,28.85,28.85,0,0,1-5.89,2.92c-1.51.49-1.46-.76-1.34-1.85a8.65,8.65,0,0,0,0-3,1.14,1.14,0,0,0-1.89-.5c-1.82,2.11-4.29,4.07-7.21,4a1.13,1.13,0,0,0,0,2.26Z"/><path class="cls-16" d="M323.61,59.31a10.17,10.17,0,0,0,8.68-6.15"/><path class="cls-5" d="M358.5,45A14.2,14.2,0,0,0,359.86,50a7.87,7.87,0,0,0,3.08,3.7c1.64.8,3.46-.94,4.59-2a15.81,15.81,0,0,0,3.38-4.41l-2.07-.27a33.1,33.1,0,0,0,3.82,7.84c1.52,2.26,3.27,4.67,5.92,5.63,1.37.5,2-1.68.6-2.18-2.19-.8-3.73-3.28-4.93-5.15A30.72,30.72,0,0,1,371,46.48a1.15,1.15,0,0,0-2.07-.27,13.79,13.79,0,0,1-2.26,3.21,15.24,15.24,0,0,1-1.45,1.33,10.45,10.45,0,0,1-.87.61c-.3.18-.38.29-.7.13-.91-.44-1.61-2-2-2.88a11.55,11.55,0,0,1-.93-3.65c-.1-1.44-2.37-1.45-2.26,0Z"/><path class="cls-5" d="M372.42,57.34a9.21,9.21,0,0,0,3.67,3.6,1.24,1.24,0,0,0,.87.12,1.2,1.2,0,0,0,.67-.52,1.18,1.18,0,0,0,.12-.88,1.13,1.13,0,0,0-.52-.67,5.1,5.1,0,0,1-1.07-.65l.23.18A8,8,0,0,1,374.93,57l.17.23c-.26-.34-.5-.69-.73-1a1.18,1.18,0,0,0-.68-.52,1.12,1.12,0,0,0-1.27,1.66Z"/><path class="cls-5" d="M343.74,60c.72-.47,1.42-.94,2.09-1.47A19.28,19.28,0,0,0,347.54,57a1.13,1.13,0,0,0-1.6-1.6A20,20,0,0,1,344.13,57l.23-.18c-.56.44-1.16.83-1.76,1.22a1.13,1.13,0,1,0,1.14,2Z"/><path class="cls-16" d="M370.69,40.71c.15,5.65,1.89,13.27,9.3,18.22,0,0,.46-6.61,6.3-8.45"/><path class="cls-16" d="M371.23,33.73a26.28,26.28,0,0,0-.44,3.66"/><path class="cls-11" d="M334.85,18.7c6.49-7.06,13.88-15.12,24-16.12L357.75.64a17.44,17.44,0,0,0-.42,12.06c.49,1.58,3,.9,2.49-.69a16.07,16.07,0,0,1-.58-7.32,14.13,14.13,0,0,1,.52-2.11c.06-.21.14-.42.22-.63s-.1.21,0,0c.36-.8-.05-2-1.11-1.94-10.95,1.07-18.8,9.2-25.85,16.87-1.12,1.22.7,3,1.83,1.82Z"/><path class="cls-11" d="M359.51,9.23a63.37,63.37,0,0,1,8.93.07,54.46,54.46,0,0,1,8.78,1.79,21.66,21.66,0,0,0,16.36-2.51,1.13,1.13,0,0,0-1.14-1.95C387.34,9.71,381.67,10,376,8.4A49.72,49.72,0,0,0,359.51,7c-1.45.08-1.46,2.35,0,2.26Z"/><path class="cls-16" d="M371.59,7.59c1.78.34,3.72.8,5.79,1.41A19.91,19.91,0,0,0,396,4.85s-1.79,4.43-3.46,9.57"/><path class="cls-16" d="M359.25,6.85a36.45,36.45,0,0,1,8.88.2"/><path class="cls-16" d="M345.22,6.45c4.5-3.15,9.63-5.71,14.34-5.59,0,0-1.69,8.76,0,12"/><path class="cls-16" d="M332.83,17.6a54.8,54.8,0,0,1,7.33-7.32"/><path class="cls-17" d="M389.17,17.38a28.7,28.7,0,0,0-1.76,7.74,1.16,1.16,0,0,0,1.13,1.14,1.21,1.21,0,0,0,1.39-1,1.11,1.11,0,0,0-.25-.89.83.83,0,0,0-.15-.17c-.2-.2.13.08.18.38a1.14,1.14,0,0,0-1.39-.8,1.18,1.18,0,0,0-.79,1.4,1.24,1.24,0,0,0,.32.54c.23.23,0,0-.12-.31l.11-.87h0l.4-.4h0l.57-.15-.24,0,1.13,1.13A27.26,27.26,0,0,1,391.35,18a1.13,1.13,0,0,0-.79-1.39,1.17,1.17,0,0,0-1.39.79Z"/><path class="cls-16" d="M391.54,17.54a52.08,52.08,0,0,0-1.72,7.59"/><path class="cls-11" d="M339.2,16.63a62,62,0,0,1,6.74-6.43,1.13,1.13,0,0,0,0-1.6,1.16,1.16,0,0,0-1.6,0A62,62,0,0,0,337.6,15a1.13,1.13,0,1,0,1.6,1.6Z"/><path class="cls-11" d="M341.85,16.26a13.56,13.56,0,0,1,1.72-1.91,8.44,8.44,0,0,0,1.77-1.81,1.14,1.14,0,0,0-.41-1.54,1.16,1.16,0,0,0-1.55.4,2.75,2.75,0,0,1-.19.28l.18-.23a11.68,11.68,0,0,1-1.55,1.43,12.66,12.66,0,0,0-1.57,1.78,1.2,1.2,0,0,0-.33.8,1.13,1.13,0,0,0,1.13,1.13,1.09,1.09,0,0,0,.8-.33Z"/><path class="cls-11" d="M327.72,12.66c-5.48,8.38-9,18.34-6.84,28.41.35,1.62,2.83.93,2.48-.69-2-9.38,1.5-18.64,6.58-26.42.91-1.39-1.32-2.68-2.22-1.3Z"/><path class="cls-16" d="M321.35,26.82a36,36,0,0,1,1.48-4.57"/><path class="cls-16" d="M321.08,41a25.51,25.51,0,0,1-.48-10.21"/><path class="cls-16" d="M324.43,18.74a46.17,46.17,0,0,1,4.71-7.28s2.31,6.76,7.38,10.14"/><path class="cls-11" d="M316,39.83a41.9,41.9,0,0,0,2.19,16.25c.47,1.37,2.65.78,2.18-.6a40.37,40.37,0,0,1-2.11-15.65c.09-1.45-2.17-1.44-2.26,0Z"/><path class="cls-16" d="M322.44,63.94S312.25,54.62,317,35.42c0,0,.77,7.07,8.14,7.22"/><path class="cls-18" d="M392.35,39.69c.38-.9.8-2,1.18-2.92a15.2,15.2,0,0,0,.6-2,16.36,16.36,0,0,0,.39-2.29c.08-1.59.15-3.22.23-4.81"/><path class="cls-19" d="M392.87,42c.5-1.21,1.07-2.7,1.58-3.92a18.67,18.67,0,0,0,.8-2.67,20.22,20.22,0,0,0,.52-3.08c.11-2.12.21-4.31.32-6.44"/><path class="cls-19" d="M393.32,42c.51-1.21,1.08-2.7,1.58-3.92a17.5,17.5,0,0,0,.81-2.67,21.53,21.53,0,0,0,.52-3.08c.11-2.12.21-4.31.32-6.44"/><path class="cls-18" d="M392.07,37.36c.23-.55.48-1.21.71-1.76a9.76,9.76,0,0,0,.36-1.2,9.11,9.11,0,0,0,.23-1.37c.05-1,.09-1.94.14-2.89"/><path class="cls-16" d="M396.36,36.54a44.65,44.65,0,0,1-2.52,7.61l-.95,2.18"/><path class="cls-16" d="M383.83,27s11.83-1.69,13.67-7.37v7A43.89,43.89,0,0,1,397,33"/><line class="cls-13" x1="344.33" y1="48.09" x2="340.82" y2="50.87"/><line class="cls-13" x1="343.25" y1="51.05" x2="340.58" y2="53.06"/><line class="cls-13" x1="377.65" y1="11.82" x2="373.35" y2="10.57"/><line class="cls-13" x1="374.6" y1="12.65" x2="371.42" y2="11.64"/><circle class="cls-11" cx="326.83" cy="73.35" r="0.77"/><path class="cls-11" d="M326.27,65.15v5.63a.57.57,0,0,0,1.13,0V65.15a.57.57,0,0,0-1.13,0Z"/><circle class="cls-8" cx="326.55" cy="92.42" r="0.78"/><circle class="cls-8" cx="327.75" cy="42.62" r="0.78"/><circle class="cls-8" cx="389.18" cy="49.66" r="0.78"/><circle class="cls-8" cx="371.91" cy="30.92" r="0.78"/><circle class="cls-8" cx="342.55" cy="8.41" r="0.78"/><path class="cls-20" d="M322.68,74.9a7.68,7.68,0,1,1-.17-15.34Z"/><path class="cls-21" d="M322.24,74.9a7.67,7.67,0,1,1-.16-15.34"/><path class="cls-22" d="M321.7,62a6.54,6.54,0,0,0-2.86,1.26,4.82,4.82,0,0,0-1.55,2.1"/><path class="cls-22" d="M320.37,72.22A4.94,4.94,0,0,1,317,68.69"/><path class="cls-20" d="M384.84,74.9A7.68,7.68,0,1,0,385,59.56Z"/><path class="cls-21" d="M385.28,74.9a7.67,7.67,0,0,0,.17-15.34"/><path class="cls-22" d="M385.82,62a6.6,6.6,0,0,1,2.87,1.26,4.81,4.81,0,0,1,1.54,2.1"/><path class="cls-22" d="M387.15,72.22a5,5,0,0,0,3.42-3.53"/><line class="cls-15" x1="354.17" y1="75.49" x2="355.8" y2="81.8"/><rect class="cls-8" x="345.14" y="69.15" width="5.3" height="8.08" rx="2.65"/><circle class="cls-11" cx="345.17" cy="73.13" r="1.82"/><path class="cls-23" d="M340.74,66.48s4.84-3.85,9.81-1.61"/><rect class="cls-8" x="358.39" y="69.15" width="5.3" height="8.08" rx="2.65"/><circle class="cls-11" cx="358.72" cy="73.13" r="1.82"/><path class="cls-23" d="M367.08,66.48s-4.85-3.85-9.82-1.61"/><line class="cls-10" x1="395.1" y1="49.07" x2="398.09" y2="49.07"/><path class="cls-10" d="M398.4,54.07a13.2,13.2,0,0,1-2,4.88"/><path class="cls-16" d="M397.69,59.89a7,7,0,0,1-4.25,3.57"/><path class="cls-16" d="M388.59,42.8l5.18,4.3,6.89-.16a25.77,25.77,0,0,1-.68,7.75"/><line class="cls-24" x1="383.24" y1="64.06" x2="383.24" y2="74"/><path class="cls-25" d="M384.56,51.7v26a30.8,30.8,0,0,1-30.81,30.81h0c-10.7,0-19.52-5.21-25.43-13.34"/><path class="cls-26" d="M353.59,33.46s.91,10-6.59,16.52"/><path class="cls-26" d="M356,34.22s.43,7.65-2.67,10.81"/><path class="cls-16" d="M351.11,47.25s7.1-.87,9.48-5.1c0,0,.62,8,3.69,9.05,0,0,4.76-3.15,6.45-7.14"/><path class="cls-25" d="M325.16,89.19a28.35,28.35,0,0,1-2.22-11.5V58.46"/><path class="cls-17" d="M329.4,48.56A10.62,10.62,0,0,1,332.19,53a17.42,17.42,0,0,1,1.07,5.66,1.29,1.29,0,0,0,2.58,0,19.86,19.86,0,0,0-1.22-6.51,13.07,13.07,0,0,0-3.4-5.38,1.31,1.31,0,0,0-1.82,0,1.29,1.29,0,0,0,0,1.82Z"/><path class="cls-16" d="M328.53,47.4a15.94,15.94,0,0,1,4.76,12.91s23.5-8.14,21.2-28.42"/><path class="cls-27" d="M352.26,20.05c-2.06-1.74-4.82-1.94-6.15-.45a2.78,2.78,0,0,0-.69,1.65,6.8,6.8,0,0,0-1.29-.13,6.31,6.31,0,1,0,6.51,6.3,5.63,5.63,0,0,0,0-.58,3.41,3.41,0,0,0,2.95-1C354.9,24.39,354.31,21.78,352.26,20.05Z"/><path class="cls-1" d="M290.37,160.42c-6.22,9.29-8.61,22.2-9.09,35.16l10.49,10.49L309.86,189"/><path class="cls-28" d="M295,160.42c-6.22,9.29-8.61,22.2-9.21,37l10.48,10.49L314.53,189"/><path class="cls-29" d="M290.37,160.42c-6.22,9.29-8.61,22.2-9.09,35.16"/><path class="cls-4" d="M274,211.46a13.76,13.76,0,1,1,27.52,0"/><path class="cls-30" d="M275.66,208.09s1.28-8.4,9.15-9.47"/><path class="cls-31" d="M274.15,210.91c0-8.56,5.86-13.84,13.09-13.84"/><path class="cls-1" d="M415.13,153c4.89,9.93,7.95,20.65,11,31.29,1.05,3.67,2.11,7.39,2.14,11.2a36.06,36.06,0,0,1-2.17,11.31,11.78,11.78,0,0,1-2.42,4.75c-1.8,1.85-4.51,2.39-7.05,2.84-3,.53-6.29,1-8.89-.57a10.45,10.45,0,0,1-3.11-3.27c-4.17-6.2-5.91-13.82-5.84-21.3s1.86-14.84,4.28-21.91c1.75-5.12,4.53-10.77,9.78-12.07"/><ellipse class="cls-28" cx="407.32" cy="191.33" rx="16.71" ry="22.93"/><rect class="cls-32" x="236.23" y="211.8" width="222.66" height="9.34"/><rect class="cls-33" x="236.23" y="217.19" width="222.66" height="3.15"/><path class="cls-34" d="M410.77,201.33v8.3a2.14,2.14,0,0,1-2.15,2.14H300.67a2.15,2.15,0,0,1-2.15-2.14v-8.3"/><path class="cls-35" d="M410.77,195.27v8.3a2.14,2.14,0,0,1-2.15,2.14H300.67a2.15,2.15,0,0,1-2.15-2.14v-8.3"/><path class="cls-36" d="M410.77,201.33v8.3a2.14,2.14,0,0,1-2.15,2.14H300.67a2.15,2.15,0,0,1-2.15-2.14v-8.3"/><rect class="cls-34" x="291.62" y="123.92" width="127.04" height="77.44" rx="8.4"/><path class="cls-37" d="M418.17,147.14v45.58a8.4,8.4,0,0,1-8.4,8.39H299.53a8.4,8.4,0,0,1-8.4-8.39v-4.54C360.58,185.38,400,162,418.17,147.14Z"/><path class="cls-37" d="M418.17,135v57.76a8.4,8.4,0,0,1-8.4,8.39H299.53a8.4,8.4,0,0,1-8.4-8.39V174.26C360.58,171.46,400,149.79,418.17,135Z"/><path class="cls-36" d="M410.77,201.33v8.3a2.14,2.14,0,0,1-2.15,2.14H300.67a2.15,2.15,0,0,1-2.15-2.14v-8.3"/><path class="cls-29" d="M441.87,211.8h16.07a1,1,0,0,1,.95.95v7.44a1,1,0,0,1-.95.95H237.17a1,1,0,0,1-.94-.95v-7.44a.94.94,0,0,1,.94-.95h12.51"/><line class="cls-29" x1="267.67" y1="211.8" x2="435.32" y2="211.8"/><line class="cls-29" x1="257.6" y1="211.8" x2="262.82" y2="211.8"/><path class="cls-29" d="M426.45,184.06A68.64,68.64,0,0,1,428,194.23"/><path class="cls-29" d="M418.52,158c1.61,5.09,4.69,13.3,6.91,21.88"/><path class="cls-29" d="M428.05,199c0,10.15-5.18,12.28-5.18,12.28"/><line class="cls-38" x1="300.15" y1="130.83" x2="296.5" y2="133.33"/><line class="cls-38" x1="298.88" y1="133.68" x2="296.11" y2="135.48"/><line class="cls-38" x1="411.69" y1="192.25" x2="408.04" y2="194.75"/><line class="cls-38" x1="410.42" y1="195.1" x2="407.65" y2="196.9"/><circle class="cls-8" cx="253.84" cy="211.85" r="1.03"/><line class="cls-39" x1="244.52" y1="214.81" x2="253.18" y2="214.81"/><circle class="cls-11" cx="241.57" cy="214.81" r="1.11"/><line class="cls-40" x1="304.21" y1="204.31" x2="304.21" y2="208.48"/><line class="cls-40" x1="307.96" y1="204.31" x2="307.96" y2="208.48"/><line class="cls-40" x1="311.7" y1="204.31" x2="311.7" y2="208.48"/><line class="cls-40" x1="397.02" y1="204.31" x2="397.02" y2="208.48"/><line class="cls-40" x1="400.76" y1="204.31" x2="400.76" y2="208.48"/><line class="cls-40" x1="404.51" y1="204.31" x2="404.51" y2="208.48"/><line class="cls-41" x1="301.75" y1="125.64" x2="324.7" y2="125.64"/><line class="cls-42" x1="309.52" y1="125.64" x2="316.28" y2="125.64"/><path class="cls-29" d="M374.6,123.92h35.17a8.4,8.4,0,0,1,8.4,8.39V193a8.4,8.4,0,0,1-8.4,8.4H299.52a8.4,8.4,0,0,1-8.39-8.4V132.31a8.39,8.39,0,0,1,8.39-8.39h34.3"/><line class="cls-43" x1="337.46" y1="124.01" x2="370.84" y2="124.01"/><path class="cls-44" d="M110.89,108.47c-4.45,1.1-7.89,1.69-12.18,3.3-.84.31-2.44,0-3.28.33-3.07,1.2-6.25,3.93-9.29,5.19l-18,7.44a2.34,2.34,0,0,0-1.25.89,1.6,1.6,0,0,0,.6,1.93,4.54,4.54,0,0,0,2.09.65,83.3,83.3,0,0,0,10.94.73l-1.4.07,84.23-.08c2.57,0,5.24,0,7.53-1.18-4.32-3.46-7-3.79-11.91-5.61-2.21-.83-8.47-2.72-10.72-3.52a11.91,11.91,0,0,1-4.12-2.25c-1.11-1.09-1.45-2.45-2.75-3-1.61-.71-1.94.15-3.52-.74-1.06-.6-4-1.88-5.21-1.74-.12.79-3.34-1.94-3.47-1.16"/><polyline class="cls-2" points="93.12 116.54 95.39 113.41 102.42 112.01"/><path class="cls-45" d="M145.8,122.94a1,1,0,0,1-.85-.48l-4.43-7.3-8.41-2.72a1,1,0,1,1,.61-1.9l8.76,2.83a1,1,0,0,1,.55.43l4.63,7.62a1,1,0,0,1-.34,1.37A1,1,0,0,1,145.8,122.94Z"/><path class="cls-4" d="M130,102.13v8.15A11.69,11.69,0,0,1,118.28,122h0a11.69,11.69,0,0,1-11.7-11.69v-6.87"/><line class="cls-2" x1="89.22" y1="116.88" x2="93.12" y2="116.54"/><line class="cls-6" x1="89.26" y1="117.02" x2="93.31" y2="116.64"/><polyline class="cls-7" points="83 118.69 88.35 115.58 92.03 115.13 94.42 112.01 106.28 109.5"/><line class="cls-7" x1="69.02" y1="124.47" x2="76.85" y2="121.25"/><polyline class="cls-7" points="168 124.47 144.3 117 141.73 113.06 130.38 109.6"/><path class="cls-7" d="M130,106.13v4.15A11.69,11.69,0,0,1,118.28,122h0a11.69,11.69,0,0,1-11.7-11.69v-3.87"/><circle class="cls-8" cx="80.32" cy="119.82" r="0.91"/><line class="cls-7" x1="145.68" y1="119.88" x2="146.98" y2="121.79"/><path class="cls-44" d="M54.89,159.86c-6.22,9.28-8.61,22.2-9.09,35.16L56.28,205.5l18.1-17.11"/><path class="cls-45" d="M59.56,159.86c-6.23,9.28-8.61,22.2-9.21,37L60.83,207.3l18.22-18.91"/><path class="cls-29" d="M54.89,159.86c-6.22,9.28-8.61,22.2-9.09,35.16"/><path class="cls-4" d="M38.48,210.9a13.76,13.76,0,1,1,27.52,0"/><path class="cls-30" d="M40.18,207.53s1.27-8.41,9.15-9.47"/><path class="cls-31" d="M38.67,210.35c0-8.57,5.86-13.84,13.09-13.84"/><path class="cls-44" d="M179.65,152.39c4.89,9.93,7.95,20.64,11,31.29,1.05,3.66,2.11,7.38,2.14,11.2a36.11,36.11,0,0,1-2.17,11.31,11.87,11.87,0,0,1-2.42,4.74c-1.8,1.85-4.51,2.39-7.05,2.84-3,.53-6.3,1-8.89-.57a10.31,10.31,0,0,1-3.11-3.26c-4.17-6.2-5.91-13.83-5.84-21.3s1.86-14.84,4.28-21.92c1.75-5.12,4.53-10.76,9.78-12.07"/><ellipse class="cls-45" cx="171.83" cy="190.76" rx="16.71" ry="22.93"/><rect class="cls-32" x="0.75" y="211.24" width="222.66" height="9.34"/><rect class="cls-33" x="0.75" y="216.62" width="222.66" height="3.15"/><path class="cls-34" d="M175.29,200.77v8.29a2.15,2.15,0,0,1-2.15,2.15H65.19A2.15,2.15,0,0,1,63,209.06v-8.29"/><path class="cls-35" d="M175.29,194.71V203a2.15,2.15,0,0,1-2.15,2.15H65.19A2.15,2.15,0,0,1,63,203v-8.29"/><path class="cls-36" d="M175.29,200.77v8.29a2.15,2.15,0,0,1-2.15,2.15H65.19A2.15,2.15,0,0,1,63,209.06v-8.29"/><rect class="cls-34" x="56.14" y="123.35" width="127.04" height="77.44" rx="8.4"/><path class="cls-37" d="M182.68,146.58v45.57a8.4,8.4,0,0,1-8.39,8.4H64a8.4,8.4,0,0,1-8.39-8.4v-4.53C125.1,184.82,164.48,161.41,182.68,146.58Z"/><path class="cls-37" d="M182.68,134.39v57.76a8.4,8.4,0,0,1-8.39,8.4H64a8.4,8.4,0,0,1-8.39-8.4V173.7C125.1,170.9,164.48,149.23,182.68,134.39Z"/><path class="cls-36" d="M175.29,200.77v8.29a2.15,2.15,0,0,1-2.15,2.15H65.19A2.15,2.15,0,0,1,63,209.06v-8.29"/><path class="cls-29" d="M206.39,211.24h16.07a.94.94,0,0,1,.94.94v7.45a.94.94,0,0,1-.94.94H1.69a.94.94,0,0,1-.94-.94v-7.45a.94.94,0,0,1,.94-.94H14.2"/><line class="cls-29" x1="32.19" y1="211.24" x2="199.84" y2="211.24"/><line class="cls-29" x1="22.12" y1="211.24" x2="27.34" y2="211.24"/><path class="cls-29" d="M191,183.5a71.38,71.38,0,0,1,1.53,10.17"/><path class="cls-29" d="M183,157.39c1.61,5.1,4.68,13.3,6.91,21.88"/><path class="cls-29" d="M192.57,198.46c0,10.16-5.18,12.29-5.18,12.29"/><line class="cls-38" x1="64.67" y1="130.27" x2="61.02" y2="132.77"/><line class="cls-38" x1="63.4" y1="133.11" x2="60.63" y2="134.92"/><line class="cls-38" x1="176.21" y1="191.69" x2="172.56" y2="194.19"/><line class="cls-38" x1="174.94" y1="194.53" x2="172.17" y2="196.34"/><circle class="cls-8" cx="18.36" cy="211.28" r="1.03"/><line class="cls-39" x1="9.04" y1="214.25" x2="17.7" y2="214.25"/><circle class="cls-11" cx="6.09" cy="214.25" r="1.11"/><line class="cls-40" x1="68.73" y1="203.74" x2="68.73" y2="207.92"/><line class="cls-40" x1="72.48" y1="203.74" x2="72.48" y2="207.92"/><line class="cls-40" x1="76.22" y1="203.74" x2="76.22" y2="207.92"/><line class="cls-40" x1="161.54" y1="203.74" x2="161.54" y2="207.92"/><line class="cls-40" x1="165.28" y1="203.74" x2="165.28" y2="207.92"/><line class="cls-40" x1="169.03" y1="203.74" x2="169.03" y2="207.92"/><line class="cls-41" x1="66.27" y1="125.07" x2="89.22" y2="125.07"/><line class="cls-42" x1="74.04" y1="125.07" x2="80.8" y2="125.07"/><path class="cls-29" d="M139.12,123.35h35.17a8.4,8.4,0,0,1,8.39,8.4V192.4a8.39,8.39,0,0,1-8.39,8.39H64a8.39,8.39,0,0,1-8.39-8.39V131.75a8.4,8.4,0,0,1,8.39-8.4H98.33"/><line class="cls-43" x1="101.98" y1="123.45" x2="135.36" y2="123.45"/><path class="cls-5" d="M129.86,94.33v8.15a11.69,11.69,0,0,1-11.7,11.69h0a11.69,11.69,0,0,1-11.7-11.69V95.61Z"/><polygon class="cls-4" points="82.18 55.54 78.22 62.03 78.22 66.42 83.16 74.86 92.21 75.06 92.66 59.57 82.18 55.54"/><path class="cls-46" d="M84.82,61.52a5.29,5.29,0,0,1,4.52,3.92"/><polyline class="cls-47" points="82.7 56.87 79.9 61.91 79.9 65.48"/><path class="cls-48" d="M87.16,57.47l-4.68-2-4,6.49v4.39L82.94,74a1.73,1.73,0,0,0,1.41.73h4.14"/><path class="cls-49" d="M84.31,60.45s4,.26,5.13,4"/><path class="cls-49" d="M82.83,63S80.9,65.44,83,68.9"/><polygon class="cls-4" points="153.79 56.89 157.75 63.38 157.75 67.77 152.81 76.21 143.76 76.41 143.31 60.92 153.79 56.89"/><path class="cls-46" d="M151.15,62.87a5.29,5.29,0,0,0-4.52,3.92"/><polyline class="cls-47" points="153.27 58.22 156.07 63.26 156.07 66.83"/><path class="cls-48" d="M148.81,58.82l4.68-2,4,6.49v4.39L153,75.38a1.72,1.72,0,0,1-1.41.73h-4.14"/><path class="cls-49" d="M151.66,61.8s-4,.26-5.13,4"/><path class="cls-49" d="M153.14,64.34s1.93,2.45-.21,5.91"/><path class="cls-4" d="M148.14,52.71,149,76.35c0,3.2.5,4.65-.78,7.33a27.6,27.6,0,0,1-7,13.59c-4,4.5-9.8,7.1-13.64,9.35-2.67.74-6.26,2.12-9.2,2.12l.06.06c-3.33,0-6.53-1.73-10-2.22C103.61,103.77,96.75,99.42,93,95c-5.64-6.72-6.7-13.48-6.21-18.6L87.66,58V52.78c0-10.82,4.76-20.86,14-26.5l.1-.06a31.07,31.07,0,0,1,32.48,0h0C143.41,31.92,148.14,41.93,148.14,52.71Z"/><path class="cls-50" d="M139.1,29.77l6.35,8,2.64,11.86c0,13.73,2.68,20.83.56,34.26-.54,3.43-4.14,8.85-6.78,12.23-1.71,2.21-7.15,6-9.54,7.16-1.82,1-3.55,1.94-5,2.79a60.46,60.46,0,0,1-7.5,2,250.27,250.27,0,0,0,8.28-64V22.89a32,32,0,0,1,5.84,2.81A28.31,28.31,0,0,1,139.1,29.77Z"/><path class="cls-51" d="M120.1,98.89s-2.24-1.29-4.08,0"/><circle class="cls-5" cx="117.91" cy="101.3" r="0.82"/><path class="cls-52" d="M102.94,25.35a31,31,0,0,1,31.41.67h0c9.18,5.65,13.91,15.66,13.91,26.45"/><path class="cls-52" d="M87.78,52.53c0-10.28,4.22-19.86,12.65-25.63"/><line class="cls-53" x1="147.43" y1="63.06" x2="147.79" y2="72.99"/><line class="cls-52" x1="148.26" y1="57.46" x2="149.13" y2="78.45"/><line class="cls-54" x1="108.46" y1="49.04" x2="129.46" y2="49.04"/><line class="cls-54" x1="112.96" y1="46.79" x2="123.89" y2="46.79"/><line class="cls-54" x1="114.67" y1="44.54" x2="122.17" y2="44.54"/><path class="cls-55" d="M127,106.21l-8.86,2-8.73-2s-20.5-8.16-21.23-25.88"/><path class="cls-55" d="M127,104.58l-8.86,2-8.73-2s-21.31-7.94-22-25.66"/><path class="cls-55" d="M127,103.44l-8.86,2-8.73-2s-20.5-8.17-21.23-25.88"/><path class="cls-55" d="M126.47,106.21S147,98.05,147.7,80.33"/><path class="cls-56" d="M120.05,108.52l7.56-1.74s20.49-8.16,21.23-25.88"/><path class="cls-56" d="M115.91,108.52l-7.57-1.74S87.85,98.62,87.12,80.9"/><line class="cls-52" x1="86.91" y1="78.45" x2="87.78" y2="55.72"/><polyline class="cls-11" points="122.12 68.03 133.67 71.15 137.8 67.82 136.92 65.88 132.58 63.86 122.12 65.62"/><polyline class="cls-57" points="122.55 65.54 132.47 63.75 136.71 65.83"/><polyline class="cls-57" points="122 67.95 133.68 71.17 137.73 67.86"/><polygon class="cls-8" points="132.06 70.89 127.5 70 127.5 64.06 132.06 64.06 132.06 70.89"/><circle class="cls-11" cx="131.95" cy="66.88" r="1.19"/><polyline class="cls-11" points="113.69 68.03 102.14 71.15 98.01 67.82 98.89 65.88 103.23 63.86 113.69 65.62"/><polyline class="cls-57" points="113.26 65.54 103.34 63.75 99.11 65.83"/><polyline class="cls-57" points="113.81 67.95 102.13 71.17 98.08 67.86"/><polygon class="cls-8" points="103.75 70.89 108.31 70 108.31 64.06 103.75 64.06 103.75 70.89"/><circle class="cls-11" cx="103.86" cy="66.88" r="1.19"/><polyline class="cls-58" points="101 59.85 111.8 61.03 113.08 62.74"/><polyline class="cls-59" points="101.34 58.41 112.13 59.59 113.93 61.89"/><polyline class="cls-58" points="134.84 59.85 124.05 61.03 122.76 62.74"/><polyline class="cls-59" points="134.5 58.41 123.71 59.59 121.92 61.89"/><path class="cls-60" d="M117.94,74s1.81,5.59,1.81,7.52"/><path class="cls-60" d="M115.36,85s2.78,1.6,5.06,0"/><polyline class="cls-60" points="108.62 90.52 110.64 91.53 126.45 91.53 128.35 90.52"/><path class="cls-60" d="M120.42,97.18s-2.78-1.61-5.06,0"/><path class="cls-11" d="M95.54,43a20.9,20.9,0,0,1,4.32-7.5,1.27,1.27,0,0,0,0-1.74,1.24,1.24,0,0,0-1.74,0,23.34,23.34,0,0,0-5,8.59A1.24,1.24,0,0,0,94,43.87,1.26,1.26,0,0,0,95.54,43Z"/><circle class="cls-11" cx="102.17" cy="31.98" r="1.47"/><line class="cls-15" x1="353.29" y1="84.57" x2="356.53" y2="84.57"/></g></g></svg>