<svg xmlns="http://www.w3.org/2000/svg" viewBox="0 0 249.09 222.57"><defs><style>.cls-1{fill:#ffd5c7;}.cls-2{opacity:0.35;}.cls-3{fill:#a0e2f9;}.cls-4{fill:#d7e9e9;}.cls-5{fill:#37a9d1;}.cls-10,.cls-53,.cls-6{fill:#fff;}.cls-6{opacity:0.45;}.cls-13,.cls-16,.cls-17,.cls-18,.cls-21,.cls-22,.cls-23,.cls-26,.cls-27,.cls-28,.cls-29,.cls-31,.cls-36,.cls-38,.cls-40,.cls-41,.cls-42,.cls-43,.cls-44,.cls-49,.cls-51,.cls-52,.cls-57,.cls-58,.cls-59,.cls-60,.cls-61,.cls-62,.cls-7,.cls-8,.cls-9{fill:none;}.cls-17,.cls-31,.cls-40,.cls-43,.cls-60,.cls-7{stroke:#fff;}.cls-16,.cls-21,.cls-36,.cls-60,.cls-7{stroke-miterlimit:10;}.cls-62,.cls-7{stroke-width:2px;}.cls-18,.cls-23,.cls-27,.cls-49,.cls-51,.cls-52,.cls-57,.cls-59,.cls-61,.cls-8,.cls-9{stroke:#1f033c;}.cls-13,.cls-16,.cls-17,.cls-18,.cls-22,.cls-23,.cls-26,.cls-27,.cls-28,.cls-29,.cls-31,.cls-38,.cls-40,.cls-41,.cls-42,.cls-43,.cls-44,.cls-49,.cls-51,.cls-52,.cls-57,.cls-58,.cls-59,.cls-61,.cls-62,.cls-8,.cls-9{stroke-linecap:round;}.cls-13,.cls-17,.cls-18,.cls-22,.cls-23,.cls-26,.cls-27,.cls-28,.cls-29,.cls-31,.cls-38,.cls-40,.cls-41,.cls-42,.cls-43,.cls-44,.cls-49,.cls-51,.cls-52,.cls-57,.cls-58,.cls-59,.cls-61,.cls-62,.cls-8,.cls-9{stroke-linejoin:round;}.cls-8{stroke-width:1.43px;}.cls-9{stroke-width:1.42px;}.cls-11,.cls-12{fill:#9fd3d3;}.cls-11{opacity:0.4;}.cls-13,.cls-36,.cls-38,.cls-41,.cls-44{stroke:#232144;}.cls-13{stroke-width:0.75px;}.cls-14{fill:#fea142;}.cls-15{fill:#2695d3;}.cls-16,.cls-28{stroke:#ffab94;}.cls-16{stroke-width:1.88px;}.cls-17{stroke-width:1.51px;}.cls-19{fill:#79c8ff;}.cls-20{fill:#5cdc41;}.cls-21{stroke:#b3ffa1;stroke-width:1.91px;}.cls-22{stroke:#2f9916;}.cls-23{stroke-width:1.27px;}.cls-24{fill:#97cecc;}.cls-25{fill:#578b9b;}.cls-26{stroke:#abe9ff;}.cls-26,.cls-29{stroke-width:3px;}.cls-27{stroke-width:1.55px;}.cls-28{stroke-width:4px;}.cls-29{stroke:#fff3f0;}.cls-30{fill:#366b77;}.cls-31{stroke-width:1.94px;}.cls-32{fill:#f6bc58;}.cls-33{fill:#e59015;}.cls-34{fill:#3c5768;}.cls-35,.cls-37{fill:#28424f;}.cls-36,.cls-38,.cls-40{stroke-width:1.49px;}.cls-37{opacity:0.5;}.cls-39{fill:#232144;}.cls-41{stroke-width:1.12px;}.cls-42{stroke:#a4e7ff;opacity:0.41;}.cls-42,.cls-43{stroke-width:2.53px;}.cls-44{stroke-width:1.18px;}.cls-45{fill:#fff3f0;}.cls-46{fill:#61dafb;}.cls-47{fill:#f784dc;}.cls-48{fill:#1f033c;}.cls-49{stroke-width:1.08px;}.cls-50{fill:#4f7bfc;}.cls-51,.cls-58{stroke-width:1.5px;}.cls-52{stroke-width:1.55px;}.cls-53{opacity:0.25;}.cls-54{fill:#ffcea1;}.cls-55{fill:#ffac73;}.cls-56{fill:#f97906;}.cls-57{stroke-width:1.47px;}.cls-58{stroke:#cff6ff;}.cls-59{stroke-width:1.27px;}.cls-61{stroke-width:0.75px;}.cls-62{stroke:#ffac73;}</style></defs><g id="Layer_2" data-name="Layer 2"><g id="Layer_1-2" data-name="Layer 1"><path class="cls-1" d="M149.71,109.77a11.5,11.5,0,0,1-4.93-4"/><path class="cls-1" d="M119.74,100.3l-4.9,7.53L111.73,109l8.48,7.7,7.25,3.93h7.62s11.79-6.26,11.79-6.64a35.34,35.34,0,0,1,3-3.88l-12.77-8.28"/><g class="cls-2"><rect class="cls-3" x="33.86" y="14.33" width="87.6" height="86.44"/><path class="cls-4" d="M33.86,13.54v87.61h87.6V13.54ZM116,96.21H40.5V18.84H116Z"/><rect class="cls-4" x="75.61" y="18.93" width="5.08" height="77.08"/><rect class="cls-4" x="75.9" y="21.19" width="5.08" height="75.4" transform="translate(137.33 -19.55) rotate(90)"/><rect class="cls-5" x="40.11" y="91.76" width="75.94" height="4.05"/><rect class="cls-5" x="111.31" y="18.79" width="3.98" height="73.37"/><path class="cls-6" d="M44.58,39.17a1.27,1.27,0,0,1-1.27-1.27V23.05a1.27,1.27,0,0,1,2.54,0V37.9A1.27,1.27,0,0,1,44.58,39.17Z"/><path class="cls-6" d="M44.58,35.17a1.27,1.27,0,0,1-1.27-1.27V28.05a1.27,1.27,0,0,1,2.54,0V33.9A1.27,1.27,0,0,1,44.58,35.17Z"/><line class="cls-7" x1="65.35" y1="18.84" x2="40.69" y2="67.78"/><line class="cls-7" x1="71.37" y1="18.84" x2="40.69" y2="78.7"/><line class="cls-8" x1="80.69" y1="61.91" x2="80.69" y2="95.02"/><polyline class="cls-8" points="75.61 34.75 75.61 18.93 80.69 18.93 80.69 55.58"/><line class="cls-8" x1="75.61" y1="41.9" x2="75.61" y2="39.65"/><line class="cls-8" x1="75.61" y1="55.51" x2="75.61" y2="44.73"/><line class="cls-8" x1="75.61" y1="95.02" x2="75.61" y2="62.33"/><line class="cls-9" x1="61.67" y1="56.35" x2="115.14" y2="56.35"/><polyline class="cls-9" points="64.3 61.43 40.74 61.43 40.74 56.35 58.19 56.35"/><line class="cls-9" x1="115.14" y1="61.43" x2="68.73" y2="61.43"/><rect class="cls-10" x="34.1" y="13.57" width="3.01" height="23.91" rx="1.51"/><rect class="cls-10" x="34.1" y="57.62" width="3.01" height="23.91" rx="1.51"/><rect class="cls-11" x="70.55" y="81.59" width="4.24" height="33.66" rx="2.12" transform="translate(171.09 25.75) rotate(90)"/><rect class="cls-12" x="86.74" y="81.59" width="4.24" height="33.66" rx="2.12" transform="translate(187.28 9.56) rotate(90)"/><line class="cls-8" x1="33.86" y1="85.72" x2="33.86" y2="42.37"/><polyline class="cls-8" points="44.35 100.77 33.86 100.77 33.86 90.52"/><polyline class="cls-8" points="74.37 13.17 121.46 13.17 121.46 30.7"/><line class="cls-8" x1="56.68" y1="13.17" x2="70.8" y2="13.17"/><polyline class="cls-8" points="33.86 38.7 33.86 13.17 51.41 13.17"/><line class="cls-13" x1="50.15" y1="21.65" x2="47.97" y2="25.51"/><line class="cls-13" x1="50.26" y1="24.77" x2="48.57" y2="27.61"/><polyline class="cls-8" points="40.5 38.8 40.5 18.46 115.98 18.46 115.98 95.83 40.5 95.83 40.5 42.47"/><polyline class="cls-8" points="121.46 36.73 121.46 100.77 50.75 100.77"/></g><path class="cls-14" d="M95.83,62.43S97,77.12,95.55,79.94s-.85,8.47-.85,8.47,7.84-4,7.13-22.38"/><path class="cls-8" d="M95.83,62.43S97,77.12,95.55,79.94s-.85,8.47-.85,8.47,6.5-1.69,7.06-16.38"/><path class="cls-14" d="M166.65,62.43s-1.13,14.69.28,17.51.85,8.47.85,8.47-7.84-4-7.13-22.38"/><path class="cls-8" d="M166.65,62.43s-1.13,14.69.28,17.51.85,8.47.85,8.47-6.5-1.69-7.06-16.38"/><polygon class="cls-15" points="102.05 34.67 92.82 52.74 107.94 56.01 102.05 34.67"/><polygon class="cls-15" points="162.66 34.67 153.43 52.74 168.55 56.01 162.66 34.67"/><polygon class="cls-1" points="92.4 47.17 88.43 53.66 88.43 58.04 93.37 66.48 102.43 66.69 102.88 51.19 92.4 47.17"/><path class="cls-16" d="M95,53.14a5.31,5.31,0,0,1,4.53,3.92"/><polyline class="cls-17" points="92.92 48.5 90.11 53.53 90.11 57.1"/><path class="cls-8" d="M97.37,49.09l-4.67-2-4,6.49v4.38l4.42,7.72a1.73,1.73,0,0,0,1.41.72h4.14"/><path class="cls-18" d="M94.53,52.07s4,.26,5.13,4"/><path class="cls-18" d="M93.05,54.61s-1.93,2.46.21,5.92"/><polygon class="cls-1" points="170.58 47.17 174.54 53.66 174.54 58.04 169.6 66.48 160.55 66.69 160.09 51.19 170.58 47.17"/><path class="cls-16" d="M167.94,53.14a5.31,5.31,0,0,0-4.53,3.92"/><polyline class="cls-17" points="170.05 48.5 172.86 53.53 172.86 57.1"/><path class="cls-8" d="M165.6,49.09l4.67-2,4,6.49v4.38l-4.42,7.72a1.75,1.75,0,0,1-1.41.72h-4.14"/><path class="cls-18" d="M168.44,52.07s-4,.26-5.13,4"/><path class="cls-18" d="M169.93,54.61s1.92,2.46-.21,5.92"/><path class="cls-19" d="M100,29.81s2.94-5.49,6.75-7.89S116.87.72,132.4.72s23.43,18.94,23.43,18.94,5.06,5.49,6,9.44"/><ellipse class="cls-20" cx="53.74" cy="173.86" rx="11.65" ry="22.57"/><ellipse class="cls-21" cx="53.74" cy="173.86" rx="11.15" ry="21.6"/><path class="cls-22" d="M56.68,151.88a58.56,58.56,0,0,1,5.27,23"/><path class="cls-22" d="M51.86,151.88a58.56,58.56,0,0,0-5.27,23v3.3"/><line class="cls-22" x1="53.76" y1="177.95" x2="53.76" y2="151.6"/><path class="cls-23" d="M50,152.38A6.87,6.87,0,0,1,54,151c6.43,0,11.65,10.1,11.65,22.57S60.46,196.15,54,196.15c-5.44,0-10.18-7.16-11.47-16.93a45.21,45.21,0,0,1-.19-5.64c0-8.33,2.33-15.6,5.8-19.52"/><rect class="cls-4" x="36.54" y="177.86" width="41.79" height="10.45"/><rect class="cls-4" x="39.93" y="188.47" width="38.4" height="25.89"/><rect class="cls-24" x="39.93" y="188.47" width="38.4" height="3.49"/><rect class="cls-8" x="39.93" y="188.47" width="38.4" height="25.89"/><circle class="cls-24" cx="46.63" cy="192.19" r="1.48"/><circle class="cls-24" cx="50.41" cy="193.56" r="0.74"/><circle class="cls-24" cx="48.75" cy="196.7" r="0.99"/><rect class="cls-10" x="41.62" y="178.14" width="2.26" height="10.31"/><rect class="cls-10" x="45.29" y="178.14" width="1.61" height="10.31"/><rect class="cls-23" x="36.54" y="177.86" width="41.79" height="10.45"/><path class="cls-25" d="M181.39,130.14l-1.51-8.8c-3.51-4.44-16.24-7.77-21.61-9.55l-1.73-1-6.88-1.31-.18.36c-20.47,24.35-36.71-.38-36.71-.38l-.48,0-6,1-1.6.31c-5.37,1.78-19.1,6.11-22.61,10.55l-1.11,6"/><path class="cls-26" d="M112.35,110.52C86,116.54,84,121.92,84,121.92L82.35,125"/><path class="cls-27" d="M150.19,110c26.35,6,28.18,11.15,28.18,11.15l1.7,3.11"/><path class="cls-1" d="M119.69,90.19v4.08l-1.83,6-2.83,3v1.35s8.19,7,16.8,6.09c0,0,12.71-1.35,15.67-7.3l-3.67-3.52-.28-9Z"/><path class="cls-28" d="M125.76,97.49c4.66,1.55,6.92,1.55,11.3-.14"/><path class="cls-29" d="M120.23,96c0,3.85-1.21,6.24-3.83,8.38"/><path class="cls-29" d="M141.75,96c-.06,3.85,1.07,6.26,3.65,8.46"/><path class="cls-8" d="M99.23,112.37c-6,1.91-13.11,4.82-16.54,8.5l-2,3.62"/><path class="cls-8" d="M116.59,106.44a11.72,11.72,0,0,1-4.86,2.54l-9,2.34h0"/><path class="cls-1" d="M162.05,32.58V68.75c-2.41,15.71-13.13,24.88-27.46,27.47h-6.7c-14.55-2-24.57-12.89-27.46-27.47V32.58"/><path class="cls-8" d="M100.44,39.42v26a30.82,30.82,0,0,0,30.82,30.81h0"/><path class="cls-25" d="M69.92,160c-6.23,9.29-8.61,22.2-9.09,35.16l10.48,10.48,18.1-17.11"/><path class="cls-30" d="M74.53,161.14c-6.23,9.29-8.61,22.2-9.21,37L75.8,208.58,94,189.67"/><path class="cls-8" d="M68.7,161.88c-5.6,9.67-7.14,22.72-6.77,35.68"/><path class="cls-1" d="M51.45,212.18a13.76,13.76,0,0,1,27.52,0"/><path class="cls-31" d="M53.15,208.81s1.27-8.4,9.15-9.47"/><path class="cls-8" d="M51.64,211.63c0-8.56,5.86-13.84,13.09-13.84"/><path class="cls-25" d="M192.62,153.67c4.89,9.93,7.95,20.64,11,31.29,1,3.66,2.11,7.39,2.14,11.2a36.11,36.11,0,0,1-2.17,11.31,11.87,11.87,0,0,1-2.42,4.74c-1.8,1.85-4.51,2.4-7,2.84-3,.53-6.3,1-8.89-.56a10.45,10.45,0,0,1-3.11-3.27c-4.17-6.2-5.91-13.83-5.84-21.3s1.86-14.84,4.28-21.91c1.75-5.13,4.53-10.77,9.78-12.08"/><ellipse class="cls-30" cx="184.8" cy="192.05" rx="16.71" ry="22.93"/><rect class="cls-32" x="0.72" y="212.52" width="247.66" height="9.34"/><rect class="cls-33" x="0.72" y="217.91" width="247.66" height="3.15"/><path class="cls-34" d="M188.26,202.05v8.29a2.15,2.15,0,0,1-2.15,2.15h-108A2.15,2.15,0,0,1,76,210.34v-8.29"/><path class="cls-35" d="M188.26,196v8.29a2.15,2.15,0,0,1-2.15,2.15h-108A2.15,2.15,0,0,1,76,204.28V196"/><path class="cls-36" d="M188.26,202.05v8.29a2.15,2.15,0,0,1-2.15,2.15h-108A2.15,2.15,0,0,1,76,210.34v-8.29"/><rect class="cls-34" x="69.11" y="124.64" width="127.04" height="77.44" rx="8.4"/><path class="cls-37" d="M195.65,147.86v45.57a8.4,8.4,0,0,1-8.39,8.4H77a8.4,8.4,0,0,1-8.39-8.4V188.9C138.07,186.1,177.45,162.69,195.65,147.86Z"/><path class="cls-37" d="M195.65,135.68v57.75a8.4,8.4,0,0,1-8.39,8.4H77a8.4,8.4,0,0,1-8.39-8.4V175C138.07,172.18,177.45,150.51,195.65,135.68Z"/><path class="cls-8" d="M188.26,202.05v8.29a2.15,2.15,0,0,1-2.15,2.15h-108A2.15,2.15,0,0,1,76,210.34v-8.29"/><path class="cls-8" d="M219.36,212.52h28.07a.94.94,0,0,1,.94.94v7.45a.94.94,0,0,1-.94.94H1.66a.94.94,0,0,1-.94-.94v-7.45a.94.94,0,0,1,.94-.94H14.17"/><line class="cls-8" x1="47.16" y1="212.52" x2="212.81" y2="212.52"/><line class="cls-38" x1="22.09" y1="212.52" x2="42.31" y2="212.52"/><path class="cls-8" d="M203.94,184.78A71.38,71.38,0,0,1,205.47,195"/><path class="cls-8" d="M196,158.67c1.61,5.1,4.68,13.3,6.91,21.88"/><path class="cls-8" d="M205.54,199.74c0,10.16-5.18,12.29-5.18,12.29"/><line class="cls-13" x1="77.64" y1="131.55" x2="73.99" y2="134.05"/><line class="cls-13" x1="76.37" y1="134.4" x2="73.6" y2="136.2"/><line class="cls-13" x1="189.18" y1="192.97" x2="185.53" y2="195.47"/><line class="cls-13" x1="187.91" y1="195.82" x2="185.14" y2="197.62"/><circle class="cls-39" cx="18.33" cy="212.56" r="1.03"/><line class="cls-40" x1="9.01" y1="215.53" x2="17.67" y2="215.53"/><circle class="cls-10" cx="6.06" cy="215.53" r="1.11"/><line class="cls-41" x1="81.7" y1="205.03" x2="81.7" y2="209.2"/><line class="cls-41" x1="85.45" y1="205.03" x2="85.45" y2="209.2"/><line class="cls-41" x1="89.19" y1="205.03" x2="89.19" y2="209.2"/><line class="cls-41" x1="174.51" y1="205.03" x2="174.51" y2="209.2"/><line class="cls-41" x1="178.25" y1="205.03" x2="178.25" y2="209.2"/><line class="cls-41" x1="182" y1="205.03" x2="182" y2="209.2"/><line class="cls-42" x1="79.24" y1="126.35" x2="102.19" y2="126.35"/><line class="cls-43" x1="87.01" y1="126.35" x2="93.77" y2="126.35"/><path class="cls-8" d="M152.09,124.64h35.17a8.39,8.39,0,0,1,8.39,8.39v60.65a8.4,8.4,0,0,1-8.39,8.4H77a8.4,8.4,0,0,1-8.39-8.4V133A8.39,8.39,0,0,1,77,124.64H111.3"/><line class="cls-8" x1="117.95" y1="124.73" x2="145.33" y2="124.73"/><path class="cls-44" d="M131.28,62.66s1.8,5.59,1.8,7.52"/><path class="cls-44" d="M128.7,73.64s2.78,1.6,5.06,0"/><ellipse class="cls-45" cx="106.14" cy="58.27" rx="1.13" ry="1.84"/><circle class="cls-45" cx="107.94" cy="55.34" r="0.67"/><ellipse class="cls-45" cx="104.2" cy="53.19" rx="1.52" ry="1.91"/><line class="cls-18" x1="72.96" y1="148.77" x2="72.96" y2="171.64"/><line class="cls-18" x1="170.23" y1="197.76" x2="147.36" y2="197.76"/><line class="cls-18" x1="47.36" y1="206.42" x2="39.69" y2="206.42"/><line class="cls-23" x1="41.27" y1="170.94" x2="42.26" y2="170.94"/><line class="cls-23" x1="41.27" y1="174.47" x2="42.26" y2="174.47"/><line class="cls-23" x1="45.76" y1="155.02" x2="46.52" y2="155.66"/><line class="cls-23" x1="61.68" y1="154.54" x2="60.81" y2="155.01"/><line class="cls-23" x1="44.29" y1="160.04" x2="43.45" y2="159.51"/><line class="cls-23" x1="64.25" y1="159.3" x2="63.39" y2="159.78"/><circle class="cls-10" cx="96.01" cy="146.57" r="10.54"/><path class="cls-46" d="M103.94,146.57c0-1.1-1.21-2-3.33-2.65.54-2.13.32-3.66-.63-4.21s-2.41,0-4,1.56c-1.56-1.51-3-2.09-4-1.56s-1.17,2.08-.63,4.21c-2.12.6-3.33,1.55-3.33,2.65s1.21,2.05,3.33,2.64c-.54,2.14-.32,3.66.63,4.21a1.49,1.49,0,0,0,.8.2A5.13,5.13,0,0,0,96,151.86a5.15,5.15,0,0,0,3.17,1.76,1.51,1.51,0,0,0,.8-.2c1-.55,1.17-2.07.63-4.21C102.73,148.62,103.94,147.66,103.94,146.57ZM96,150.91c-.33-.37-.65-.75-1-1.14l1,0,1,0Q96.52,150.35,96,150.91Zm0-8.68a13.15,13.15,0,0,1,1,1.14c-.64,0-1.28,0-1.91,0C95.36,143,95.68,142.59,96,142.23Zm-1.45,6.85a20.19,20.19,0,0,1-1.45-2.51,19,19,0,0,1,1.45-2.51,20,20,0,0,1,2.9,0,19.07,19.07,0,0,1,1.46,2.51,20.19,20.19,0,0,1-1.45,2.51A20.19,20.19,0,0,1,94.56,149.08ZM93.22,145c-.16.27-.31.55-.46.83-.19-.45-.36-.92-.51-1.39a14.1,14.1,0,0,1,1.47-.26C93.54,144.41,93.37,144.68,93.22,145Zm-.46,2.38c.15.28.3.56.46.84s.32.55.49.81c-.51-.06-1-.15-1.46-.25C92.4,148.27,92.57,147.8,92.76,147.34Zm6.51,0c.19.46.36.93.51,1.4a14.55,14.55,0,0,1-1.47.25A16.89,16.89,0,0,0,99.27,147.34Zm0-1.55q-.43-.84-1-1.65c.49.06,1,.15,1.47.26C99.63,144.87,99.46,145.34,99.27,145.79Zm.38-5.5c.65.37.77,1.69.32,3.47a15.23,15.23,0,0,0-2.14-.33h0a15.75,15.75,0,0,0-1.35-1.68C97.77,140.49,99,139.91,99.65,140.29Zm-7.27,0a.89.89,0,0,1,.47-.12,4.6,4.6,0,0,1,2.7,1.58,14.6,14.6,0,0,0-1.35,1.68,15.36,15.36,0,0,0-2.14.33C91.61,142,91.72,140.66,92.38,140.29Zm-3.63,6.28c0-.76,1.08-1.52,2.85-2a15.44,15.44,0,0,0,.78,2h0a15.77,15.77,0,0,0-.78,2C89.83,148.08,88.75,147.32,88.75,146.57Zm3.63,6.28c-.66-.38-.77-1.7-.32-3.47a17,17,0,0,0,2.14.33h0a15.51,15.51,0,0,0,1.35,1.68C94.26,152.65,93,153.22,92.38,152.85Zm7.27,0a.91.91,0,0,1-.47.11h0a4.63,4.63,0,0,1-2.7-1.57,16.82,16.82,0,0,0,1.35-1.68h0a17.29,17.29,0,0,0,2.14-.33C100.42,151.15,100.3,152.47,99.65,152.85Zm.78-4.27a15.91,15.91,0,0,0-.78-2h0a19,19,0,0,0,.78-2c1.77.49,2.85,1.25,2.85,2S102.2,148.08,100.43,148.58Z"/><circle class="cls-46" cx="96.01" cy="146.57" r="1.41"/><path class="cls-18" d="M85.63,148.41a11.14,11.14,0,0,1-.16-1.84A10.53,10.53,0,1,1,93,156.68"/><path class="cls-18" d="M86.41,150.92c-.1-.21-.19-.43-.27-.65"/><path class="cls-18" d="M90.91,155.8a10.79,10.79,0,0,1-3.59-3.26"/><path class="cls-47" d="M183.49,193.39h0a2.73,2.73,0,0,0-.1-2.11,0,0,0,0,0,0,0h0l0,0v0l-.18-.36h0l0-.05h0l0,0c-.64-1-2-2.22-4.74-2.62a3.43,3.43,0,0,1,1.24-3,.33.33,0,0,0,0-.52,2.49,2.49,0,0,0-1.35-.68.44.44,0,0,0-.48.14,10.83,10.83,0,0,1-3.35,2.36l-.07,0a3.37,3.37,0,0,1,1.26-2.51.32.32,0,0,0,.05-.46,2.46,2.46,0,0,0-1.43-.73c-.4-.08-1.26.66-2.27,1.57-.25.23-.47.42-.58.51-.27.19-.55.43-.84.68A8,8,0,0,1,168.4,187c0-.47.62-.93,1.18-1.38s1.31-1,1.19-1.61a.73.73,0,0,0-.32-.46.89.89,0,0,0-.35-.11,2,2,0,0,0,.37-.84,1,1,0,0,0-.56-1.09,4,4,0,0,0-3.14.16,6.05,6.05,0,0,1-2.39.05c-.34,0-.66-.06-.93-.07a13.49,13.49,0,0,0-.79-1.56c-.85-1.57-1.81-3.35-1.16-4.73,1-2,4-2.27,6.51-2.24a19.91,19.91,0,0,1,4.82.54,6.94,6.94,0,0,1,4.07,2.42,1.51,1.51,0,0,1-.13,2c-1.37,1.49-4,1.65-5.9,1.31a8.42,8.42,0,0,1-2.85-1,5.15,5.15,0,0,1-1.67-1.81.57.57,0,0,0-.12-.18v0a.21.21,0,0,0-.2,0,.34.34,0,0,0-.16.26,2.83,2.83,0,0,0,1.15,2.62,5.22,5.22,0,0,0,.94.61,12.12,12.12,0,0,0,7.65.89,5.49,5.49,0,0,0,3-2.07,3,3,0,0,0-.21-3.68,11.13,11.13,0,0,0-6.76-3.67,20.61,20.61,0,0,0-7.71,0c-3,.61-4.6,1.81-4.74,3.56s.88,3.5,1.88,5.15c.33.53.63,1,.89,1.53h-.46a9.64,9.64,0,0,0-4.64.59,2.61,2.61,0,0,0-1.55,2.23,1.7,1.7,0,0,0,.55,1.35,3.14,3.14,0,0,0,.7.49,5.78,5.78,0,0,0,2.82.57,4.52,4.52,0,0,0,3.11-1.44,4.27,4.27,0,0,0,1.17-2.64l1.49,0c-1.56,1.59-1.71,3-1.56,3.82a1.28,1.28,0,0,0,.66.82,1.2,1.2,0,0,0,1,.09,7.8,7.8,0,0,0,1.6-1,2.84,2.84,0,0,0-.38,1,.87.87,0,0,0,.23.74,1,1,0,0,0,.84.23c1.58-.19,3.38-1.68,4.82-2.89l.59-.48a9.34,9.34,0,0,0-.2,2c0,.15,0,.19-.16.24s-.46.15-.74.23a4.71,4.71,0,0,0-2.3,1.08.51.51,0,0,0,.11.7,3.8,3.8,0,0,0,2.76.69,2,2,0,0,0,1.81-1.54c.24-.88,1.15-1.66,2.71-2.3a6.23,6.23,0,0,0-.2,2h0c-1,.24-2.41.58-2.8,1.67a.84.84,0,0,0,0,.64.87.87,0,0,0,.54.42,4,4,0,0,0,2.73-.09,2,2,0,0,0,1.08-1.71,6.77,6.77,0,0,1,3.57,1.89,2.55,2.55,0,0,1,.77,1.72,1.24,1.24,0,0,1-1.3,1.3c-.26,0-.4.05-.45.14a.16.16,0,0,0,0,.15c0,.1.21.32.89.26a1.82,1.82,0,0,0,1.45-.77A1.94,1.94,0,0,0,183.49,193.39Zm-21.68-9.64,0,.06a3.29,3.29,0,0,1-2.2,1.39,3,3,0,0,1-1.65-.09,1,1,0,0,1-.57-.45.56.56,0,0,1,0-.45c.61-1.38,3.4-1.62,4.81-1.44A2.88,2.88,0,0,1,161.81,183.75Zm7.35-1h0c-.77,1-2.43,2.8-3.75,3.15h-.12a.17.17,0,0,1,0-.08,4.15,4.15,0,0,1,1.71-2.63,2.58,2.58,0,0,1,2.07-.58l.08,0,.05,0A.11.11,0,0,1,169.16,182.78Zm2.28,6.33c-.26.08-.48-.06-.39-.09l1.32-.46a2.12,2.12,0,0,1-.93.55Zm3.94,1.06a.72.72,0,0,1-.29-.06,2.21,2.21,0,0,1,1.6-.9,1.31,1.31,0,0,1-1.31,1Z"/><rect class="cls-10" x="115.64" y="139.94" width="28.52" height="16.09" rx="0.87" transform="translate(36.15 -25.18) rotate(12.84)"/><path class="cls-18" d="M116.66,141.94l.94-4.12a.87.87,0,0,1,1-.66l6.37,1.46"/><path class="cls-18" d="M118.33,153.6l-3.27-.74a.89.89,0,0,1-.66-1.05l1.75-7.67"/><path class="cls-18" d="M135.88,141.1l8.86,2a.86.86,0,0,1,.66,1l-3.19,14a.87.87,0,0,1-1,.66L121,154.21"/><line class="cls-18" x1="127" y1="139.07" x2="133.82" y2="140.63"/><path class="cls-48" d="M125.76,144a3.93,3.93,0,0,0-1.66-.77l-.66-.15-.54-.13-1-.22-1.39,6.11,1,.22.54.13.66.15a3.87,3.87,0,0,0,1.82,0,2.82,2.82,0,0,0,1.38-.8,3.27,3.27,0,0,0,.77-1.53,3.32,3.32,0,0,0,0-1.72A2.78,2.78,0,0,0,125.76,144Zm-1,3.48a1.47,1.47,0,0,1-.52.45,1.51,1.51,0,0,1-.64.15A2.69,2.69,0,0,1,123,148l-.62-.14.8-3.49.61.14a2.48,2.48,0,0,1,.66.24,1.48,1.48,0,0,1,.51.42,1.3,1.3,0,0,1,.27.62,2.46,2.46,0,0,1-.38,1.67Z"/><polygon class="cls-48" points="129.3 144.43 128.32 144.21 126.93 150.32 127.91 150.54 128.34 150.64 130.99 151.25 131.26 150.03 128.62 149.43 128.94 148.02 131.41 148.59 131.68 147.4 129.21 146.84 129.46 145.75 132.1 146.35 132.38 145.13 129.74 144.53 129.3 144.43"/><polygon class="cls-48" points="137.64 146.33 135.31 149.64 134.65 145.65 132.93 145.26 134.66 152.49 139.37 146.73 137.64 146.33"/><path class="cls-19" d="M131.41,36.55c-23.91,0-35,11.11-35,11.11-3.2,0-.07-4.09-.07-7.29a16,16,0,0,0-.82-4.57,3.3,3.3,0,0,1,1.59-3.86c8-4.38,34.7-16.19,68.15-.85a3.32,3.32,0,0,1,1.79,4,15.88,15.88,0,0,0-.74,4.31c0,3.2,3.13,8.29-.07,8.29,0,0-11.1-11.11-35-11.11"/><path class="cls-49" d="M148.35,8.42a18.31,18.31,0,0,1,.25,6.34"/><path class="cls-50" d="M103.39,32.06a63.35,63.35,0,0,1,21.26-5.7c1.91-.17,1.92-3.17,0-3a67.51,67.51,0,0,0-22.77,6.11c-1.75.82-.23,3.41,1.51,2.59Z"/><path class="cls-51" d="M104.87,28.08A22,22,0,0,0,106,35.8"/><path class="cls-51" d="M114.56,30.15a22,22,0,0,0,1.13,7.72"/><path class="cls-50" d="M131,26.25c6.61-.11,13,2.35,19.68,1.51a1.54,1.54,0,0,0,1.5-1.5,1.51,1.51,0,0,0-1.5-1.5c-6.62.84-13.07-1.62-19.68-1.51-1.93,0-1.94,3,0,3Z"/><path class="cls-50" d="M158,30.58c2.8.09,5.86,1.8,6.08,4.87a20.28,20.28,0,0,1-.14,2.58,16.72,16.72,0,0,0,.06,2.74,47.24,47.24,0,0,0,1,5.66c.42,1.88,3.31,1.09,2.89-.8a32.14,32.14,0,0,1-1-6.31c0-2,.45-3.88-.17-5.79-1.25-3.77-4.92-5.83-8.74-6-1.93-.06-1.93,3,0,3Z"/><path class="cls-51" d="M161.43,34.86a21.92,21.92,0,0,1-1.13,7.71"/><path class="cls-10" d="M114.7,14.1c1.23-1.28,2.19-2.77,3.45-4a42.62,42.62,0,0,1,4.23-3.83c2.89-2.2,6.54-3.78,10.21-2.85a1.13,1.13,0,0,0,.6-2.17c-4-1-8.1.34-11.39,2.67a37.6,37.6,0,0,0-4.65,4,25.66,25.66,0,0,0-2,2.14c-.67.83-1.27,1.71-2,2.48-1,1,.58,2.63,1.59,1.59Z"/><path class="cls-50" d="M108.83,26.94a43.68,43.68,0,0,1,14-3.44,1.54,1.54,0,0,0,1.5-1.5,1.51,1.51,0,0,0-1.5-1.5,48,48,0,0,0-15.55,3.85,1.5,1.5,0,0,0-.54,2,1.54,1.54,0,0,0,2,.54Z"/><path class="cls-8" d="M117.33,7.91C121.09,4,126,.72,132.4.72c15.53,0,23.43,18.94,23.43,18.94s4.69,4.6,5.67,8.55"/><path class="cls-8" d="M100,29.81s2.94-5.49,6.75-7.89c2-1.25,4.67-7,9-12.13"/><path class="cls-51" d="M112.9,13.49s-2.12,6.17-.61,9.77"/><path class="cls-51" d="M125.41,2.13s-7.48,9.76-2.47,21.2"/><path class="cls-50" d="M133.93,23.48a129.85,129.85,0,0,0,15.07,2,1.5,1.5,0,0,0,0-3,122.56,122.56,0,0,1-14.27-1.92,1.52,1.52,0,0,0-1.84,1.05,1.5,1.5,0,0,0,1,1.84Z"/><path class="cls-51" d="M138.9,2.13s7.49,9.76,2.48,21.2"/><path class="cls-49" d="M149.66,19.88a18.28,18.28,0,0,1-1.4,5.09"/><path class="cls-8" d="M130.09,23.1c6.87-.14,14,2.56,22.5,2"/><path class="cls-51" d="M138.09,24.22s1.23,2.26.28,6.4"/><path class="cls-51" d="M149.57,25.73a20.11,20.11,0,0,1-.09,6.87"/><rect class="cls-48" x="118.27" y="55.3" width="5.08" height="9.04" rx="2.54"/><circle class="cls-10" cx="118.2" cy="58.9" r="1.55"/><line class="cls-52" x1="101.01" y1="59.61" x2="112.49" y2="59.61"/><line class="cls-52" x1="151.27" y1="59.61" x2="164.07" y2="59.61"/><rect class="cls-48" x="140.01" y="55.3" width="5.08" height="9.04" rx="2.54"/><circle class="cls-10" cx="139.94" cy="58.9" r="1.55"/><circle class="cls-53" cx="142.55" cy="60.19" r="8.46"/><circle class="cls-52" cx="142.56" cy="60.19" r="8.46"/><circle class="cls-53" cx="121.56" cy="60.19" r="8.46"/><path class="cls-14" d="M162.84,70.81C165.92,89.69,154,98.26,154,98.26c-6.82,11.51-22.68,17.13-22.68,17.13h-.43S115,109.77,108.17,98.26c0,0-13.89-9-7.68-34.91l2.47.21-.14,5.86L104.21,76l1.48,8.83s2.94-4.55,5.49-5.22c0,0-1.32,6,.82,10.1,0,0,2.47-3.67,6-4.47,0,0,3.67,10.71,12.91,10.71h.43c9.23,0,12.83-10.33,12.83-10.33a13.41,13.41,0,0,1,6.11,3.76c2.15-4.15.74-9.77.74-9.77,2.54.67,5.49,5.22,5.49,5.22L157.93,76l1.24-6.76v-5.6h2.5"/><path class="cls-54" d="M163.14,77.42c-.49,13.81-9.35,20.17-9.35,20.17-6.83,11.52-22.69,17.14-22.69,17.14h-.43S114.81,109.11,108,97.59c0,0-8.4-5.44-9.21-20,2,5.56,5.72,15.48,11.93,18.12,4.52,9.31,12.52,13.46,20.33,15.71,7.44-1.78,17.13-7.62,20.61-16.75C158.8,92.93,161.22,82.93,163.14,77.42Z"/><path class="cls-55" d="M104.12,45.19a52.12,52.12,0,0,1,18.7-6,84.23,84.23,0,0,1,17.39.09c1.92.21,1.9-2.8,0-3a81.54,81.54,0,0,0-18,0,56.27,56.27,0,0,0-19.59,6.3c-1.71.9-.2,3.49,1.51,2.59Z"/><path class="cls-8" d="M131.41,36.17c-23.91,0-35,11.11-35,11.11-3.2,0-.07-4.08-.07-7.28a16,16,0,0,0-.82-4.58,3.29,3.29,0,0,1,1.59-3.85,72.5,72.5,0,0,1,28.84-8.28"/><path class="cls-56" d="M114.26,90.65a25.27,25.27,0,0,1,1.87-1.71l.14-.12c.15-.12-.25.19-.09.08l.28-.21a4,4,0,0,1,.56-.35l.26-.14c.15-.08-.31.11-.16.07l.13,0,.24-.06a2.68,2.68,0,0,0,.42-.19l.18-.14c.3-.22.19-.17-.33.17H117a1.19,1.19,0,0,1-.57-.44l0,.08c0,.07.07.14.11.22l.19.43c.15.34.3.68.46,1a5.94,5.94,0,0,0,1.74,2.14,1.51,1.51,0,0,0,2.06-.54,1.55,1.55,0,0,0-.54-2c.38.28.07,0,0,0a1.79,1.79,0,0,0-.23-.25c.15.19.17.22.08.09a1.3,1.3,0,0,1-.1-.15c-.07-.1-.13-.21-.19-.31-.22-.4-.41-.81-.59-1.22a4.7,4.7,0,0,0-.72-1.32A1.78,1.78,0,0,0,117,85.1a1.74,1.74,0,0,0-.78.44.87.87,0,1,0,.33-.23,7.64,7.64,0,0,0-2.61,1.59c-.61.51-1.19,1.07-1.76,1.63a1.51,1.51,0,0,0,0,2.12,1.54,1.54,0,0,0,2.12,0Z"/><path class="cls-44" d="M119.41,102.21c.32,2.76,1.18,6.21,3.31,8.69"/><path class="cls-44" d="M142.35,102.21c-.33,2.76-1.18,6.21-3.32,8.69"/><path class="cls-55" d="M107.91,81.7c.29-.31.59-.62.9-.92l.51-.46.23-.2.12-.09c-.09.06-.09.06,0,0a7.38,7.38,0,0,1,1.07-.67l0,0,.28-.1a4.21,4.21,0,0,1,.72-.18l-1.85-1a12.34,12.34,0,0,1,.48,4.59,11.57,11.57,0,0,0,.94,5.17,1.5,1.5,0,0,0,2,.54l3.79-2.6a1.5,1.5,0,1,0-1.51-2.59l-3.79,2.6,2.05.54c-.08-.17-.09-.19,0-.07l-.11-.29c-.06-.19-.12-.39-.17-.59s-.07-.35-.1-.53,0-.1,0,0l0-.31a23.45,23.45,0,0,1-.07-2.37,14.24,14.24,0,0,0-.58-4.91,1.56,1.56,0,0,0-1.85-1c-2.12.36-3.75,1.92-5.18,3.41a1.5,1.5,0,1,0,2.12,2.12Z"/><path class="cls-55" d="M144.42,85.68c.8.46,1.61.89,2.39,1.37.33.2.65.4,1,.63l.23.16c-.12-.08-.1-.07,0,0l.45.39a1.52,1.52,0,0,0,2.51-.66,31.22,31.22,0,0,0,.6-7.72c0-.11,0-.23,0-.34,0,.21,0,.1,0,0s.11-.13,0,0a.46.46,0,0,1-.29.24.45.45,0,0,1-.38.13q-.35,0,0,.06l.16.06c.45.18-.17-.1.26.12.25.13.5.25.75.4a8.17,8.17,0,0,1,2.31,2,1.54,1.54,0,0,0,2.05.53,1.5,1.5,0,0,0,.54-2,11.64,11.64,0,0,0-3.39-3.13c-1.42-.83-3.56-1.75-4.6.13a4.57,4.57,0,0,0-.42,2.19c0,.77,0,1.53,0,2.3a15.49,15.49,0,0,1-.5,4.32l2.51-.66a25.47,25.47,0,0,0-4.68-3.06,1.5,1.5,0,0,0-1.51,2.59Z"/><path class="cls-55" d="M148,41.16a54,54,0,0,1,9.44,4.14c.51.28,1.3.56,1.54,1.11a7.21,7.21,0,0,1,.27,2.27,38.35,38.35,0,0,1,0,5.57,1.51,1.51,0,0,0,1.5,1.5,1.53,1.53,0,0,0,1.5-1.5,39.08,39.08,0,0,0,0-6.12,9,9,0,0,0-.55-3.05,4.56,4.56,0,0,0-2-2,57.38,57.38,0,0,0-10.86-4.84c-1.84-.6-2.62,2.29-.8,2.9Z"/><line class="cls-8" x1="162.05" y1="44.42" x2="162.05" y2="64.69"/><path class="cls-8" d="M157.35,27.54c4.18.63,5.59,1.29,7.9,3.18,1.28,1,2.26,2.38,1.79,4A15.88,15.88,0,0,0,166.3,39c0,3.2,3.13,8.28-.07,8.28,0,0-11.1-11.11-35-11.11"/><polyline class="cls-8" points="129.03 51.61 111.72 51.61 110.21 47.66 115.86 47.66"/><polyline class="cls-8" points="135.74 51.61 153.06 51.61 154.56 47.66 148.91 47.66"/><path class="cls-56" d="M124.49,96.6a16.83,16.83,0,0,0,13-.19,1.52,1.52,0,0,0,.54-2.06,1.53,1.53,0,0,0-2.05-.53,13.94,13.94,0,0,1-10.74-.11,1.51,1.51,0,0,0-1.85,1.05,1.53,1.53,0,0,0,1,1.84Z"/><path class="cls-57" d="M99.2,73.16a70.21,70.21,0,0,1,1.34-9.79"/><polyline class="cls-57" points="103.83 73.41 102.99 69.02 102.99 63.37 100.63 63.37"/><path class="cls-57" d="M121,90.46a18.82,18.82,0,0,1-3-5,12.2,12.2,0,0,0-6,4.05c-2.14-4.15-.89-10.49-.89-10.49-2.55.67-5.49,5.22-5.49,5.22l-1.2-7.19"/><path class="cls-57" d="M130.86,95.38a11.82,11.82,0,0,1-6.74-2.06"/><path class="cls-57" d="M141.14,90.46a18.49,18.49,0,0,0,3-5,12.2,12.2,0,0,1,6,4.05c2.14-4.15.9-10.49.9-10.49,2.54.67,5.48,5.22,5.48,5.22l1.48-8.84L159.17,69V63.37h2.35"/><path class="cls-57" d="M131.29,95.38A11.82,11.82,0,0,0,138,93.32"/><polygon class="cls-10" points="144.69 78.32 137.21 82.57 126.7 82.48 118.05 78.32 126.61 77.16 144.69 78.32"/><polyline class="cls-58" points="120.54 78.9 126.56 78.25 133.43 78.62"/><polygon class="cls-59" points="145.69 78.46 137.23 82.6 126.68 82.6 118.05 78.46 126.61 77.46 145.69 78.46"/><path class="cls-10" d="M104.1,88.55A9.92,9.92,0,0,0,109,94.62a1.12,1.12,0,1,0,1.13-1.94c-.25-.14-.5-.28-.74-.44s-.25-.17-.37-.26l-.08-.06c.13.11-.06,0-.08-.06a9.37,9.37,0,0,1-1.22-1.22s-.17-.21-.06-.08,0-.06-.06-.09l-.24-.33c-.16-.24-.3-.49-.44-.74l-.2-.41c0-.06,0-.12-.08-.19s.08.21,0,0a8.63,8.63,0,0,1-.28-.86,1.15,1.15,0,0,0-1.39-.78,1.13,1.13,0,0,0-.78,1.38Z"/><path class="cls-10" d="M112.25,96.69l1.94,1.21a1.14,1.14,0,0,0,1.54-.4,1.11,1.11,0,0,0,.11-.87,1.19,1.19,0,0,0-.51-.67l-2-1.21a1.15,1.15,0,0,0-.87-.12,1.16,1.16,0,0,0-.67.52,1.15,1.15,0,0,0-.11.87,1.19,1.19,0,0,0,.52.67Z"/><path class="cls-10" d="M100.14,41.79a7.82,7.82,0,0,0-.3-7.9A1.13,1.13,0,0,0,97.9,35a5.41,5.41,0,0,1,.42.74l.09.19c0-.11,0-.1,0,0s.1.27.14.4a5.9,5.9,0,0,1,.2.83,1.55,1.55,0,0,1,0,.21c0-.13,0-.12,0,0s0,.25,0,.37a7.09,7.09,0,0,1,0,.8s-.06.47,0,.23c0,.14-.05.28-.08.42a8.19,8.19,0,0,1-.23.81l-.08.2c0-.11,0-.1,0,0s-.13.25-.19.38a1.12,1.12,0,1,0,1.94,1.13Z"/><line class="cls-60" x1="124.49" y1="67.66" x2="124.56" y2="52.41"/><line class="cls-7" x1="126.75" y1="66.66" x2="126.82" y2="53.76"/><circle class="cls-52" cx="121.57" cy="60.19" r="8.46"/><line class="cls-13" x1="108.33" y1="113.22" x2="104.03" y2="114.28"/><line class="cls-13" x1="106.14" y1="115.44" x2="102.91" y2="116.15"/><ellipse class="cls-45" cx="119.97" cy="48.02" rx="1.55" ry="1.22"/><ellipse class="cls-45" cx="123.97" cy="48.4" rx="0.96" ry="0.75"/><ellipse class="cls-45" cx="145.06" cy="48.02" rx="1.55" ry="1.22"/><ellipse class="cls-45" cx="141.06" cy="48.4" rx="0.96" ry="0.75"/><line class="cls-61" x1="128.4" y1="85.35" x2="137.24" y2="85.35"/><path class="cls-25" d="M93.86,120.16l.42-4.53a.49.49,0,0,1,.79-.37l3.68,3"/><path class="cls-48" d="M116.78,75.65a3.69,3.69,0,0,0-1.72,1.57,3.45,3.45,0,0,0-.11,2.43.38.38,0,0,0,.73-.2,3.5,3.5,0,0,1-.15-1.07,2,2,0,0,1,.2-.82,3.07,3.07,0,0,1,1.43-1.27.37.37,0,1,0-.38-.64Z"/><path class="cls-27" d="M112.49,109.34c20,25.88,37.27.58,37.27.58"/><line class="cls-57" x1="145.95" y1="106.92" x2="149.55" y2="109.81"/><path class="cls-62" d="M121.17,111.5l9.09,4.47a1.75,1.75,0,0,0,1.45,0l9.3-4.33"/><path class="cls-57" d="M130.86,114.86S115,109.23,108.17,97.72c0,0-9.12-4.23-9.06-21.55"/><path class="cls-57" d="M131.29,114.86s15.87-5.63,22.69-17.14c0,0,13.37-6.2,7.63-34.35"/></g></g></svg>