<svg xmlns="http://www.w3.org/2000/svg" viewBox="0 0 209.09 218.05"><defs><style>.cls-1,.cls-24,.cls-41,.cls-6{fill:#fff;}.cls-2{opacity:0.35;}.cls-3{fill:#a0e2f9;}.cls-4{fill:#d7e9e9;}.cls-5{fill:#37a9d1;}.cls-6{opacity:0.45;}.cls-12,.cls-14,.cls-15,.cls-17,.cls-19,.cls-20,.cls-21,.cls-30,.cls-31,.cls-37,.cls-40,.cls-42,.cls-43,.cls-45,.cls-46,.cls-47,.cls-52,.cls-54,.cls-55,.cls-56,.cls-57,.cls-58,.cls-7,.cls-8,.cls-9{fill:none;}.cls-31,.cls-40,.cls-46,.cls-55,.cls-58,.cls-7{stroke:#fff;}.cls-19,.cls-52,.cls-7{stroke-miterlimit:10;}.cls-14,.cls-15,.cls-7{stroke-width:2px;}.cls-17,.cls-21,.cls-30,.cls-47,.cls-8,.cls-9{stroke:#1f033c;}.cls-12,.cls-14,.cls-15,.cls-17,.cls-20,.cls-21,.cls-30,.cls-31,.cls-37,.cls-40,.cls-42,.cls-43,.cls-45,.cls-46,.cls-47,.cls-54,.cls-55,.cls-56,.cls-57,.cls-58,.cls-8,.cls-9{stroke-linecap:round;stroke-linejoin:round;}.cls-8{stroke-width:1.43px;}.cls-9{stroke-width:1.42px;}.cls-10,.cls-11{fill:#9fd3d3;}.cls-10{opacity:0.4;}.cls-12,.cls-52,.cls-54,.cls-56{stroke:#232144;}.cls-12{stroke-width:0.75px;}.cls-13{fill:#f2ab83;}.cls-14{stroke:#ffe4d7;}.cls-15{stroke:#c6603c;}.cls-16{fill:#383838;}.cls-17{stroke-width:1.4px;}.cls-18{fill:#5cdc41;}.cls-19{stroke:#b3ffa1;stroke-width:1.91px;}.cls-20{stroke:#2f9916;}.cls-21{stroke-width:1.27px;}.cls-22{fill:#97cecc;}.cls-23,.cls-39{fill:#232323;}.cls-24{opacity:0.55;}.cls-24,.cls-28,.cls-35,.cls-39,.cls-41,.cls-44{isolation:isolate;}.cls-25,.cls-44{fill:#d87d55;}.cls-26{fill:#232144;}.cls-27{fill:#1e1e30;}.cls-28{fill:#e28b60;}.cls-28,.cls-41,.cls-53{opacity:0.5;}.cls-29{fill:#5e5e5e;}.cls-31{stroke-width:1.83px;}.cls-32{fill:#fc5454;}.cls-33{fill:#dd2c2c;}.cls-34{fill:#e8e2dd;}.cls-35{fill:#c6bdb6;opacity:0.3;}.cls-36{fill:#000201;}.cls-37,.cls-42,.cls-43,.cls-45{stroke:#000201;}.cls-37,.cls-40{stroke-width:1.76px;}.cls-38{fill:#1f033c;}.cls-39,.cls-44{opacity:0.45;}.cls-42{stroke-width:1.17px;}.cls-43{stroke-width:0.84px;}.cls-45{stroke-width:0.95px;}.cls-46{stroke-width:1.73px;}.cls-47{stroke-width:1.28px;}.cls-48{fill:#f6bc58;}.cls-49{fill:#e59015;}.cls-50{fill:#3c5768;}.cls-51,.cls-53{fill:#28424f;}.cls-52,.cls-54,.cls-55{stroke-width:1.49px;}.cls-56{stroke-width:1.12px;}.cls-57{stroke:#a4e7ff;opacity:0.41;}.cls-57,.cls-58{stroke-width:2.53px;}.cls-59{fill:#61dafb;}.cls-60{fill:#f784dc;}</style></defs><g id="Layer_2" data-name="Layer 2"><g id="Layer_1-2" data-name="Layer 1"><path class="cls-1" d="M157.5,120.26H87.22l-.9-1.6c4.09-2.75,14.13-8.8,23.19-8.8l.15.14,0,0,.23.11a12.46,12.46,0,0,0,1,.8l1.22,1.39,1.12,0A17.78,17.78,0,0,0,119,114l.17,0a14.54,14.54,0,0,0,6.12-.31h0a25.65,25.65,0,0,0,5.37-1.74l1.09,0,.89-.94,1.06-1.11c9.84.36,20.58,7.46,23.52,9.54Q157.37,119.85,157.5,120.26Z"/><g class="cls-2"><rect class="cls-3" x="30.03" y="14.94" width="87.6" height="86.44"/><path class="cls-4" d="M30,14.15v87.61h87.6V14.15Zm82.12,82.67H36.68V19.45h75.48Z"/><rect class="cls-4" x="71.78" y="19.55" width="5.08" height="77.08"/><rect class="cls-4" x="72.07" y="21.8" width="5.08" height="75.4" transform="translate(134.11 -15.11) rotate(90)"/><rect class="cls-5" x="36.28" y="92.37" width="75.94" height="4.05"/><rect class="cls-5" x="107.48" y="19.41" width="3.98" height="73.37"/><path class="cls-6" d="M40.76,39.78a1.27,1.27,0,0,1-1.27-1.27V23.67a1.27,1.27,0,1,1,2.54,0V38.51A1.27,1.27,0,0,1,40.76,39.78Z"/><path class="cls-6" d="M40.76,35.78a1.27,1.27,0,0,1-1.27-1.27V28.67a1.27,1.27,0,1,1,2.54,0v5.84A1.27,1.27,0,0,1,40.76,35.78Z"/><line class="cls-7" x1="61.53" y1="19.45" x2="36.87" y2="68.39"/><line class="cls-7" x1="67.55" y1="19.45" x2="36.87" y2="79.31"/><line class="cls-8" x1="76.87" y1="62.52" x2="76.87" y2="95.63"/><polyline class="cls-8" points="71.78 35.36 71.78 19.55 76.87 19.55 76.87 56.19"/><line class="cls-8" x1="71.78" y1="42.52" x2="71.78" y2="40.26"/><line class="cls-8" x1="71.78" y1="56.12" x2="71.78" y2="45.34"/><line class="cls-8" x1="71.78" y1="95.63" x2="71.78" y2="62.95"/><line class="cls-9" x1="57.85" y1="56.96" x2="111.32" y2="56.96"/><polyline class="cls-9" points="60.48 62.04 36.91 62.04 36.91 56.96 54.36 56.96"/><line class="cls-9" x1="111.32" y1="62.04" x2="64.9" y2="62.04"/><rect class="cls-1" x="30.28" y="14.18" width="3.01" height="23.91" rx="1.51"/><rect class="cls-1" x="30.28" y="58.23" width="3.01" height="23.91" rx="1.51"/><rect class="cls-10" x="66.73" y="82.2" width="4.24" height="33.66" rx="2.12" transform="translate(167.88 30.18) rotate(90)"/><rect class="cls-11" x="82.92" y="82.2" width="4.24" height="33.66" rx="2.12" transform="translate(184.07 14) rotate(90)"/><line class="cls-8" x1="30.03" y1="86.33" x2="30.03" y2="42.99"/><polyline class="cls-8" points="40.53 101.38 30.03 101.38 30.03 91.13"/><polyline class="cls-8" points="70.55 13.78 117.64 13.78 117.64 31.32"/><line class="cls-8" x1="52.86" y1="13.78" x2="66.97" y2="13.78"/><polyline class="cls-8" points="30.03 39.32 30.03 13.78 47.59 13.78"/><line class="cls-12" x1="46.33" y1="22.27" x2="44.15" y2="26.12"/><line class="cls-12" x1="46.44" y1="25.38" x2="44.75" y2="28.22"/><polyline class="cls-8" points="36.68 39.41 36.68 19.08 112.16 19.08 112.16 96.44 36.68 96.44 36.68 43.08"/><polyline class="cls-8" points="117.64 37.34 117.64 101.38 46.93 101.38"/></g><path class="cls-13" d="M133.05,110.38c-5.08-5.46-4.52-18.26-4.52-18.26H113.84s.85,12.33-4.23,17.79l5.37,2.63a14.73,14.73,0,0,0,12.32.31Z"/><path class="cls-14" d="M114.32,100.92s-.43,4.7-2.36,7.34"/><path class="cls-14" d="M128.06,101.06s.42,4.7,2.35,7.34"/><path class="cls-15" d="M117,99.18a18.43,18.43,0,0,0,8.57,0"/><path class="cls-16" d="M85.91,56.59a30.73,30.73,0,0,1-3.29-16.32l2.79-10L90.67,23,92,54.27Z"/><path class="cls-17" d="M85.83,57.29A30.6,30.6,0,0,1,82.54,41a29.14,29.14,0,0,1,5.63-15.35"/><path class="cls-8" d="M113.84,92.12s.85,12.33-4.23,17.79"/><path class="cls-8" d="M128.53,92.12s-.56,12.8,4.52,18.26"/><ellipse class="cls-18" cx="44.74" cy="169.34" rx="11.65" ry="22.57"/><ellipse class="cls-19" cx="44.74" cy="169.34" rx="11.15" ry="21.6"/><path class="cls-20" d="M47.68,147.36a58.57,58.57,0,0,1,5.27,23"/><path class="cls-20" d="M42.86,147.36a58.57,58.57,0,0,0-5.27,23v3.29"/><line class="cls-20" x1="44.76" y1="173.43" x2="44.76" y2="147.08"/><path class="cls-21" d="M41,147.87a6.88,6.88,0,0,1,4-1.38c6.43,0,11.65,10.11,11.65,22.57S51.46,191.64,45,191.64c-5.44,0-10.18-7.17-11.47-16.94a45.21,45.21,0,0,1-.19-5.64c0-8.33,2.33-15.6,5.8-19.51"/><rect class="cls-4" x="27.54" y="173.34" width="41.79" height="10.45"/><rect class="cls-4" x="30.93" y="183.96" width="38.4" height="25.89"/><rect class="cls-22" x="30.93" y="183.96" width="38.4" height="3.49"/><polyline class="cls-8" points="30.93 190 30.93 183.96 69.33 183.96 69.33 209.84 30.93 209.84 30.93 193.53"/><circle class="cls-22" cx="37.63" cy="187.67" r="1.48"/><circle class="cls-22" cx="41.41" cy="189.05" r="0.74"/><circle class="cls-22" cx="39.75" cy="192.19" r="0.99"/><rect class="cls-1" x="32.62" y="173.62" width="2.26" height="10.31"/><rect class="cls-1" x="36.29" y="173.62" width="1.61" height="10.31"/><polyline class="cls-21" points="27.54 177.01 27.54 173.34 69.33 173.34 69.33 183.79 27.54 183.79 27.54 180.26"/><polyline class="cls-16" points="153.04 41.72 142.61 93.58 148.44 112.49 150.8 112.11 152.39 108.57 155.25 112.44 157.81 122.55 160.88 121.32 162.71 113.59 168.07 114.14 162.34 83.82 162.14 55.39 163.35 36.68"/><path class="cls-23" d="M158.5,49l-.19,20.74a33.28,33.28,0,0,1-15.24,27.74L142,94l.52-2.56a33.3,33.3,0,0,0,12.13-25.52l.19-20.62a23.13,23.13,0,0,0-.13-3.33h0a3.31,3.31,0,0,1,3.6,2.94A31,31,0,0,1,158.5,49Z"/><path class="cls-8" d="M161.56,69.5a172,172,0,0,0,6.51,44.64h0"/><circle class="cls-24" cx="121.56" cy="96.7" r="0.4"/><circle class="cls-13" cx="86.12" cy="60.42" r="7.32"/><circle class="cls-8" cx="86.12" cy="60.42" r="7.32"/><circle class="cls-25" cx="86.78" cy="60.02" r="3.09"/><path class="cls-26" d="M89.81,59a.4.4,0,0,1-.34-.18c-1.32-2.05-4.84-1.88-4.89-1.88a.49.49,0,0,1-.44-.42.41.41,0,0,1,.37-.44h0c.16,0,4-.11,5.63,2.34a.42.42,0,0,1-.12.58h0A.33.33,0,0,1,89.81,59Z"/><path class="cls-26" d="M85.45,61.51a.42.42,0,0,1-.42-.42v0a7.32,7.32,0,0,1,2.17-4.28.42.42,0,0,1,.6,0,.44.44,0,0,1,0,.61A6.53,6.53,0,0,0,85.93,61a.44.44,0,0,1-.4.47Z"/><circle class="cls-13" cx="157.66" cy="61.08" r="7.32"/><circle class="cls-8" cx="157.66" cy="61.08" r="7.32"/><circle class="cls-25" cx="157.01" cy="60.67" r="3.09"/><path class="cls-26" d="M154,59.54a.42.42,0,0,1-.42-.42.48.48,0,0,1,.07-.24c1.64-2.42,5.52-2.24,5.66-2.24a.42.42,0,0,1,.42.43h0a.44.44,0,0,1-.44.42h-.13a6.1,6.1,0,0,0-4.8,1.88A.41.41,0,0,1,154,59.54Z"/><path class="cls-26" d="M158.38,62.18a.41.41,0,0,1-.41-.42v0a6.64,6.64,0,0,0-1.8-3.68.4.4,0,0,1,0-.57l0,0a.46.46,0,0,1,.61,0,7.34,7.34,0,0,1,2.08,4.32.44.44,0,0,1-.47.4Z"/><path class="cls-27" d="M132.1,89.71a.76.76,0,0,1-.78-.76h0L132,17.43a.79.79,0,0,1,1.58,0L132.89,89A.79.79,0,0,1,132.1,89.71Z"/><path class="cls-27" d="M108.32,93.65a.78.78,0,0,1-.78-.78l.67-73.22a.79.79,0,1,1,1.57,0l-.67,73.23a.77.77,0,0,1-.78.76Z"/><path class="cls-13" d="M122.33,11.1h0a33.41,33.41,0,0,1,33.1,33.72h0l-.19,20.75c-.17,18.46-12.57,30.19-32.87,33l-.85.15a32.41,32.41,0,0,1-10.31-2.27C98,91.88,88.27,79.73,88.4,65l.26-28.1C88.83,18.41,103.86,10.93,122.33,11.1Z"/><path class="cls-28" d="M122.33,11.1h0a33.41,33.41,0,0,1,33.1,33.72h0l-.19,20.75c-.17,18.46-15.47,30.9-33.72,33.13h0Z"/><path class="cls-25" d="M155.6,35.86l-.27,29.57a33.41,33.41,0,0,1-33.7,33.12h0l-2.38,0a33.41,33.41,0,0,0,29-21.14,24.19,24.19,0,0,0,2.31-10.1l0-1.83c-3.67.39-.05-5,0-10.82,0-5-5.82-12.72-1.29-14.81l.62-.21c.05-5.86-12.49-15.18-18.26-18.81-8-5,.08-8.78-11.61-9.71l2.38,0c18.45.17,33.32,9.46,33.15,27.76l0-2.94Z"/><path class="cls-1" d="M123.37,98.48c-.76,0-1.25-.52-2-.53C97.84,95.72,88.11,83.31,88,65v-.21l.25-26.61C88.4,19.71,103.46,10.84,121.91,11h0l2.26,0c-17.55,1-32.77,9-32.93,26.63L91,64.28C91,85.34,105.8,97.13,123.37,98.48Z"/><circle class="cls-1" cx="97.59" cy="31.73" r="2.22"/><circle class="cls-1" cx="102.72" cy="29.3" r="0.99"/><circle class="cls-1" cx="101.12" cy="31.47" r="0.33"/><circle class="cls-1" cx="100.78" cy="29.03" r="0.53"/><path class="cls-8" d="M155.5,44.47l-.26,21.1"/><path class="cls-8" d="M88.4,65,88.66,39"/><path class="cls-1" d="M81.82,57.78A3.34,3.34,0,0,1,83.45,56c.64-.23.4-1.27-.26-1a4.17,4.17,0,0,0-2.29,2.23c-.29.64.62,1.19.92.57Z"/><ellipse class="cls-1" cx="80.61" cy="59.78" rx="0.86" ry="0.7" transform="translate(9.04 130.14) rotate(-81.08)"/><path class="cls-29" d="M128.46,46.73l14.16-2.36A4,4,0,0,0,146,40h0c-.18-2.09-1.72-1.59-3.81-1.57l-14.35.14a4,4,0,0,0-4,4.1,2.53,2.53,0,0,0,0,.28v.2a4,4,0,0,0,4.4,3.57Z"/><path class="cls-16" d="M128.46,46.73l14.16-2.36A4,4,0,0,0,146,40h0c-.18-2.09.74,1.27-1.36,1.29l-19,3.23c-2.34,0-1.94-3.9-1.81-1.57v.2a4,4,0,0,0,4.39,3.59Z"/><path class="cls-30" d="M133.46,38.55l-5.67.06a4,4,0,0,0-4,4.1,2.53,2.53,0,0,0,0,.28v.2a4,4,0,0,0,4.33,3.66l.34-.05,14.16-2.36A4,4,0,0,0,146,40.12h0c-.18-2.09-1.72-1.59-3.81-1.58l-2.45,0"/><circle class="cls-16" cx="131.2" cy="43.37" r="1.06"/><circle class="cls-16" cx="133.87" cy="41.85" r="0.57"/><circle class="cls-16" cx="127.41" cy="43.88" r="1.37"/><path class="cls-29" d="M115.32,46.61,101.21,44a4,4,0,0,1-3.27-4.39h0c.22-2.08,1.75-1.56,3.85-1.5l14.35.41a4,4,0,0,1,3.9,4.15,2.64,2.64,0,0,1,0,.29v.13a4,4,0,0,1-4.41,3.57Z"/><path class="cls-16" d="M115.32,46.61,101.21,44a4,4,0,0,1-3.27-4.39h0c.22-2.08-.75,1.26,1.34,1.31l19,3.58c2.34,0,2-3.86,1.75-1.54v.13a4,4,0,0,1-4.41,3.57Z"/><path class="cls-30" d="M110.47,38.34l5.67.17a4,4,0,0,1,3.9,4.15,2.64,2.64,0,0,1,0,.29v.13a4,4,0,0,1-4.4,3.58l-.34,0L101.17,44A4,4,0,0,1,97.9,39.6h0c.22-2.08,1.75-1.56,3.86-1.5l2.45,0"/><circle class="cls-16" cx="112.62" cy="43.2" r="1.06"/><circle class="cls-16" cx="110" cy="41.63" r="0.57"/><circle class="cls-16" cx="116.41" cy="43.78" r="1.37"/><path class="cls-16" d="M133.46,16.66s20.21,10.88,21.84,24l7.63-2.85.18-7.75,0-4.42-1.92-8.4-6.42-8.42L149,4.35"/><path class="cls-16" d="M150.53,17.58a12.29,12.29,0,0,0-3.8-.76,10.08,10.08,0,0,0-5.34,1.28c-.42.26-.82.55-1.25.82a10.83,10.83,0,0,1-1.12.59c-3.06-2.06-5.3-3.25-5.3-3.25l12.85-3,3.93,4.26Z"/><circle class="cls-16" cx="120.46" cy="10.68" r="0.6"/><path class="cls-31" d="M92.4,16A21.36,21.36,0,0,1,99.53,9"/><circle class="cls-1" cx="94.2" cy="15.75" r="0.97"/><circle class="cls-1" cx="97.66" cy="11.5" r="0.77"/><circle class="cls-1" cx="96.88" cy="14.62" r="0.44" transform="translate(81.38 111.37) rotate(-89.48)"/><circle class="cls-1" cx="92.31" cy="20.27" r="0.88"/><circle class="cls-1" cx="91.35" cy="22.57" r="0.42"/><rect class="cls-1" x="84.6" y="51.11" width="13.75" height="2.65" rx="1.32" transform="matrix(0.01, -1, 1, 0.01, 38.2, 143.43)"/><path class="cls-8" d="M142.23,92.4l6,19.16a1.61,1.61,0,0,0,3.15.12l1.12-4.17"/><path class="cls-8" d="M154.26,110.33l3.56,11a1.61,1.61,0,0,0,2,1.07,1.63,1.63,0,0,0,1.11-1.19l1.9-7.73"/><path class="cls-8" d="M154.59,68.86a27.85,27.85,0,0,1-6.35,17.83,26.38,26.38,0,0,1-11.78,8c-3.78,1.28-6.62,2.17-8.74,2.78a22,22,0,0,1-6.3.85h0a21.94,21.94,0,0,1-6.28-1c-2.12-.65-4.94-1.59-8.72-2.94A26.49,26.49,0,0,1,94.8,86.2a27.82,27.82,0,0,1-6-17.94"/><path class="cls-32" d="M120.46,89.33c-4.19-.53-6.62-3.45-11.28-6.14a21.58,21.58,0,0,0,3.21,1.07,12.65,12.65,0,0,0,5.35-1.87,2.18,2.18,0,0,1,1.15-.23l-.93.15c.53.34,1,.18,1.49.46a4.69,4.69,0,0,0,5-.49l.36.21c.2-.09.33.29.55.41a8.74,8.74,0,0,0,8.27.51,30.17,30.17,0,0,0-4,3.06,15.1,15.1,0,0,1-7.46,2.88Z"/><path class="cls-33" d="M125,89a12.61,12.61,0,0,1-3.12.3l-1.83,0a21.81,21.81,0,0,1-8.64-4.12,21.25,21.25,0,0,0-2.62-2,24.9,24.9,0,0,0,3.65,1.24,11.15,11.15,0,0,0,5-1.78h0c-.25,1.31,2.17,3.07,3.64,3-1,.74-4-.22-5.14-.56,1.71,1.23,3.78,3.24,7.11,2.92C123.66,87.82,124.42,88.73,125,89Z"/><circle class="cls-34" cx="158.55" cy="67.84" r="4.39"/><path class="cls-35" d="M160.62,64a4.4,4.4,0,0,1-6,5.86A4.39,4.39,0,1,0,162.54,66l-.07-.15A4.21,4.21,0,0,0,160.62,64Z"/><ellipse class="cls-1" cx="156.16" cy="66.54" rx="1.32" ry="0.81" transform="translate(29.47 179.52) rotate(-64.81)"/><circle class="cls-34" cx="86.54" cy="66.79" r="4.39"/><path class="cls-35" d="M88.6,63a4.39,4.39,0,0,1-6,5.85,4.41,4.41,0,0,0,8.07-3.55,3.61,3.61,0,0,0-.22-.44A4.26,4.26,0,0,0,88.6,63Z"/><ellipse class="cls-1" cx="84.13" cy="65.49" rx="1.32" ry="0.81" transform="translate(-10.95 113.74) rotate(-64.81)"/><path class="cls-8" d="M163.06,29.64a30.57,30.57,0,0,1,.35,5.89l-.79,19.73"/><rect class="cls-36" x="107.18" y="50.68" width="8.77" height="6.79" rx="3.39" transform="matrix(0.01, -1, 1, 0.01, 56.47, 165.13)"/><path class="cls-36" d="M107.71,51.79a12.12,12.12,0,0,1-1.62-2.87,18.61,18.61,0,0,0,1.81,1.85,12.7,12.7,0,0,1-.79-3.27,15,15,0,0,0,2.25,3.56c.59.59.27.7-.18.64.62.35.49.53.15.62a7.35,7.35,0,0,0-1.25.76,13,13,0,0,1-3.27-2.49A17,17,0,0,0,107.71,51.79Z"/><circle class="cls-1" cx="108.21" cy="53.37" r="1.63"/><path class="cls-36" d="M135.63,52.07a12.81,12.81,0,0,0,1.56-2.92,17.74,17.74,0,0,1-1.85,1.93,12.43,12.43,0,0,0,.73-3.29,15,15,0,0,1-2.18,3.64c-.57.6-.26.67.2.62-.61.36-.48.53-.13.62a8.39,8.39,0,0,1,1.27.73,12.76,12.76,0,0,0,3.21-2.55A18.94,18.94,0,0,1,135.63,52.07Z"/><rect class="cls-36" x="128.19" y="50.87" width="8.77" height="6.79" rx="3.39" transform="translate(77.1 186.34) rotate(-89.48)"/><circle class="cls-1" cx="129.96" cy="53.57" r="1.63"/><line class="cls-37" x1="122.02" y1="60.91" x2="121.87" y2="76.42"/><path class="cls-16" d="M105.89,4.8a27.06,27.06,0,0,1,5.88-.68c2,0,3.94.16,5.92,0A57.53,57.53,0,0,0,129.75,2,34.91,34.91,0,0,1,141.9.64a13.55,13.55,0,0,1,10.25,6C139.71,36,88.83,34.48,88.83,34.48l0-.06s-.84.13-1.13-2.66a5,5,0,0,0-.11-1.37,28.19,28.19,0,0,1,.36-8.2l2.49-5.93A22,22,0,0,1,98.12,8l1.14-.69"/><path class="cls-8" d="M154.61,8.89c2.61,2.64,7.9,8.93,8.34,16.83"/><path class="cls-8" d="M88.67,35.62a43.31,43.31,0,0,1-.44-13.24"/><circle class="cls-38" cx="89.26" cy="19.37" r="0.95"/><circle class="cls-36" cx="110.37" cy="63.17" r="0.95"/><circle class="cls-38" cx="102.62" cy="6.16" r="0.95" transform="translate(95.52 108.72) rotate(-89.47)"/><path class="cls-8" d="M127.79,2.73A45.91,45.91,0,0,1,118,4.36l-5.92-.05a27.68,27.68,0,0,0-5.88.67"/><path class="cls-8" d="M142.77,23.35c6.09,4.78,12.71,11.73,12.64,19.18"/><circle class="cls-23" cx="124.77" cy="24.05" r="2.18"/><circle class="cls-23" cx="99.72" cy="30.7" r="1.1"/><circle class="cls-23" cx="114.92" cy="22.57" r="1.89"/><circle class="cls-39" cx="108.54" cy="25.13" r="0.84"/><circle class="cls-39" cx="108.81" cy="21.41" r="0.6"/><circle class="cls-39" cx="121.7" cy="21.53" r="0.6"/><circle class="cls-39" cx="102.62" cy="25.49" r="1.45"/><path class="cls-40" d="M100.38,8.19l-1.12.67a22,22,0,0,0-7.71,8.33"/><path class="cls-8" d="M99.55,7.47c-.39.21-.77.43-1.14.67a22,22,0,0,0-7.7,8.33"/><circle class="cls-1" cx="95.95" cy="14.45" r="0.97"/><circle class="cls-1" cx="99.41" cy="10.19" r="0.77"/><circle class="cls-1" cx="98.65" cy="13.32" r="0.44" transform="translate(84.43 111.85) rotate(-89.47)"/><circle class="cls-1" cx="94.06" cy="18.97" r="0.88"/><circle class="cls-1" cx="93.11" cy="21.27" r="0.42"/><polygon class="cls-1" points="145.19 64.82 142.91 64.38 145.14 42.69 147.52 42.55 145.19 64.82"/><polygon class="cls-41" points="141.5 64.37 140.04 64.36 142.34 43.12 143.73 42.93 141.5 64.37"/><polygon class="cls-41" points="129.49 62.72 128.28 62.71 130.18 45.68 131.31 45.51 129.49 62.72"/><polygon class="cls-1" points="98.88 64.4 96.58 63.96 98.83 42.27 101.19 42.12 98.88 64.4"/><polygon class="cls-41" points="101.85 64.01 100.37 63.99 102.67 42.76 103.98 43.37 101.85 64.01"/><path class="cls-8" d="M113.25,62.79a5,5,0,0,0,5.19-4.87v-.13l.06-7a5,5,0,0,0-5-5.08h0l-15.33-3.8a5.07,5.07,0,0,0-5.1,5l1.72,12.5a5,5,0,0,0,5,5.08l7.64-1.05"/><line class="cls-42" x1="118.36" y1="56.94" x2="125.62" y2="57.01"/><circle class="cls-33" cx="121.62" cy="87.97" r="0.4"/><circle class="cls-33" cx="119.69" cy="86.82" r="0.24"/><circle class="cls-33" cx="120.44" cy="87.24" r="0.13"/><path class="cls-25" d="M119.5,77.42c1.68.64,2.8.14,4.72.32a3.45,3.45,0,0,1-2.42,1.11,2.81,2.81,0,0,1-1.39-.34A1.86,1.86,0,0,1,119.5,77.42Z"/><path class="cls-25" d="M118.56,90.21c2.16.72,3.66.22,6.11.48a4.84,4.84,0,0,1-5,.7A2.11,2.11,0,0,1,118.56,90.21Z"/><path class="cls-43" d="M121.11,85.53l-3.65-.47-4.07-.21-1.83-.12a26.16,26.16,0,0,0-2.33-1.32c3.64,2.17,6.34.29,8.93-.84a.89.89,0,0,1,.64-.1h0a4.88,4.88,0,0,0,5.33,0h0a1.1,1.1,0,0,1,.76,0c2.58,1.18,5.47,3.06,8.82,1.15a33.48,33.48,0,0,0-3,1.53M131,85l-5.5.17-2.07.34"/><circle class="cls-44" cx="142.02" cy="77.34" r="0.35"/><path class="cls-25" d="M130.77,63A6.45,6.45,0,0,0,134,65.62c2.5.86,5.25,0,7.87.46A6.56,6.56,0,0,0,146,64.92c-.45-.83-2.69-.35-3.66-.51-4.4-.77-9-.39-13.33-1.29"/><path class="cls-8" d="M144.19,64.91l-13.53-2a5,5,0,0,1-4.9-5.1l.07-7a5,5,0,0,1,5.08-5h0l15.41-3.52a5.05,5.05,0,0,1,5,5.08L149.38,59.9a5.06,5.06,0,0,1-5.1,5Z"/><path class="cls-45" d="M128.81,87.05a11,11,0,0,1-7,2.57A10.73,10.73,0,0,1,114.16,87"/><circle class="cls-26" cx="126.29" cy="51.13" r="0.78"/><path class="cls-1" d="M62.86,157.77c-6.22,9.28-8.61,25.2-9.09,38.15l18.95,4.67Z"/><path class="cls-13" d="M45.45,207.66a12.26,12.26,0,0,1,24.52,0"/><path class="cls-46" d="M47,205s1.14-7.49,8.15-8.44"/><path class="cls-47" d="M45.62,207.55c0-7.63,5.22-12.33,11.66-12.33"/><rect class="cls-48" x="0.72" y="208" width="207.66" height="9.34"/><rect class="cls-49" x="0.72" y="213.39" width="207.66" height="3.15"/><path class="cls-50" d="M179.26,197.53v8.3a2.15,2.15,0,0,1-2.15,2.15h-108A2.15,2.15,0,0,1,67,205.83v-8.3"/><path class="cls-51" d="M179.26,191.47v8.3a2.15,2.15,0,0,1-2.15,2.15h-108A2.15,2.15,0,0,1,67,199.77v-8.3"/><path class="cls-52" d="M179.26,197.53v8.3a2.15,2.15,0,0,1-2.15,2.15h-108A2.15,2.15,0,0,1,67,205.83v-8.3"/><rect class="cls-50" x="59.66" y="120.12" width="127.04" height="77.44" rx="8.4"/><path class="cls-53" d="M186.65,143.34v45.58a8.39,8.39,0,0,1-8.39,8.39H68a8.39,8.39,0,0,1-8.39-8.39v-4.54C129.07,181.58,168.45,158.18,186.65,143.34Z"/><path class="cls-53" d="M186.65,131.16v57.76a8.39,8.39,0,0,1-8.39,8.39H68a8.39,8.39,0,0,1-8.39-8.39V170.46C129.07,167.66,168.45,146,186.65,131.16Z"/><path class="cls-8" d="M179.26,197.53v8.3a2.15,2.15,0,0,1-2.15,2.15h-108A2.15,2.15,0,0,1,67,205.83v-8.3"/><path class="cls-8" d="M193.36,208h14.07a1,1,0,0,1,.94.95v7.44a1,1,0,0,1-.94,1H1.66a1,1,0,0,1-.94-1V209a1,1,0,0,1,.94-.95H14.17"/><line class="cls-8" x1="38.16" y1="208" x2="186.81" y2="208"/><line class="cls-54" x1="22.09" y1="208" x2="33.31" y2="208"/><line class="cls-12" x1="68.64" y1="127.03" x2="64.99" y2="129.53"/><line class="cls-12" x1="67.37" y1="129.88" x2="64.6" y2="131.68"/><line class="cls-12" x1="180.18" y1="188.45" x2="176.53" y2="190.95"/><line class="cls-12" x1="178.91" y1="191.3" x2="176.14" y2="193.1"/><circle class="cls-26" cx="18.33" cy="208.05" r="1.03"/><line class="cls-55" x1="9.01" y1="211.01" x2="17.67" y2="211.01"/><circle class="cls-1" cx="6.06" cy="211.01" r="1.11"/><line class="cls-56" x1="72.7" y1="200.51" x2="72.7" y2="204.69"/><line class="cls-56" x1="76.45" y1="200.51" x2="76.45" y2="204.69"/><line class="cls-56" x1="80.19" y1="200.51" x2="80.19" y2="204.69"/><line class="cls-56" x1="165.51" y1="200.51" x2="165.51" y2="204.69"/><line class="cls-56" x1="169.25" y1="200.51" x2="169.25" y2="204.69"/><line class="cls-56" x1="173" y1="200.51" x2="173" y2="204.69"/><line class="cls-57" x1="70.24" y1="121.84" x2="93.19" y2="121.84"/><line class="cls-58" x1="78.01" y1="121.84" x2="84.77" y2="121.84"/><path class="cls-8" d="M186.65,167v22.15a8.4,8.4,0,0,1-8.39,8.4H68a8.4,8.4,0,0,1-8.39-8.4V128.52a8.4,8.4,0,0,1,8.39-8.4H102.3"/><path class="cls-8" d="M143.09,120.12h35.17a8.4,8.4,0,0,1,8.39,8.4v32"/><line class="cls-8" x1="108.95" y1="120.21" x2="136.33" y2="120.21"/><path class="cls-30" d="M124.39,116.49a26.25,26.25,0,0,0,10.35-3.29"/><path class="cls-30" d="M105.3,110.19a20.64,20.64,0,0,0,2.18,2.47"/><line class="cls-30" x1="63.96" y1="144.26" x2="63.96" y2="167.13"/><line class="cls-30" x1="161.23" y1="193.25" x2="138.36" y2="193.25"/><line class="cls-30" x1="38.36" y1="201.9" x2="30.69" y2="201.9"/><line class="cls-21" x1="32.27" y1="166.42" x2="33.26" y2="166.42"/><line class="cls-21" x1="32.27" y1="169.95" x2="33.26" y2="169.95"/><line class="cls-21" x1="36.76" y1="150.5" x2="37.52" y2="151.14"/><line class="cls-21" x1="52.68" y1="150.02" x2="51.81" y2="150.5"/><line class="cls-21" x1="35.29" y1="155.53" x2="34.45" y2="155"/><line class="cls-21" x1="55.25" y1="154.78" x2="54.39" y2="155.26"/><path class="cls-8" d="M84.43,119.83s13.37-10.11,25.09-10.11c0,0,8.94,9,23.81.75"/><path class="cls-8" d="M158,119.83s-13.37-10.11-25.09-10.11"/><path class="cls-8" d="M59.34,164.12c-3.65,8.38-5.19,20.51-5.57,30.66"/><circle class="cls-30" cx="86.54" cy="66.79" r="4.39"/><circle class="cls-30" cx="158.55" cy="67.84" r="4.39"/><path class="cls-23" d="M130.65,27.12a76.42,76.42,0,0,0,9.43-5.19,45.3,45.3,0,0,0,8.16-7.49c1.28-1.43-.83-3.56-2.12-2.12a42.54,42.54,0,0,1-7.8,7.19,80.15,80.15,0,0,1-9.19,5c-1.73.86-.21,3.44,1.52,2.59Z"/><path class="cls-15" d="M111.94,33.79S127.2,31.24,136.83,25"/><path class="cls-8" d="M89.12,34.67S140,36.14,152.45,6.78A13.6,13.6,0,0,0,142.19.83a27.91,27.91,0,0,0-8.5.53"/><circle class="cls-1" cx="84.65" cy="141.15" r="10.54"/><path class="cls-59" d="M92.57,141.15c0-1.1-1.21-2.05-3.33-2.65.55-2.13.32-3.66-.63-4.2s-2.4,0-4,1.55c-1.56-1.51-3-2.09-4-1.55s-1.17,2.07-.63,4.2c-2.12.6-3.33,1.55-3.33,2.65s1.21,2,3.33,2.65c-.54,2.13-.32,3.65.63,4.2a1.62,1.62,0,0,0,.8.21,5.17,5.17,0,0,0,3.17-1.77,5.15,5.15,0,0,0,3.16,1.77,1.59,1.59,0,0,0,.8-.21c1-.55,1.17-2.07.63-4.2C91.36,143.2,92.57,142.25,92.57,141.15Zm-7.92,4.34q-.51-.56-1-1.14l1,0,.95,0C85.3,144.74,85,145.12,84.65,145.49Zm0-8.68c.33.36.65.74.95,1.14-.63,0-1.27,0-1.91,0A13.15,13.15,0,0,1,84.65,136.81Zm-1.45,6.85a19.07,19.07,0,0,1-1.46-2.51,19.07,19.07,0,0,1,1.46-2.51,20,20,0,0,1,2.9,0,19,19,0,0,1,1.45,2.51,19,19,0,0,1-1.45,2.51A20,20,0,0,1,83.2,143.66Zm-1.35-4.12c-.16.27-.31.55-.46.84-.19-.46-.36-.93-.51-1.4.49-.11,1-.2,1.47-.26C82.17,139,82,139.26,81.85,139.54Zm-.46,2.38c.15.29.3.57.46.84s.33.55.5.81a12.86,12.86,0,0,1-1.47-.25C81,142.85,81.2,142.38,81.39,141.92Zm6.51,0c.19.46.36.93.51,1.4a14.36,14.36,0,0,1-1.46.25C87.29,143,87.61,142.49,87.9,141.92Zm0-1.54a18.32,18.32,0,0,0-1-1.66,14.1,14.1,0,0,1,1.47.26C88.26,139.45,88.09,139.92,87.9,140.38Zm.38-5.51c.66.38.77,1.69.32,3.47a16.85,16.85,0,0,0-2.14-.33h0a15.51,15.51,0,0,0-1.35-1.68C86.4,135.07,87.63,134.49,88.28,134.87Zm-7.27,0a.91.91,0,0,1,.47-.12,4.6,4.6,0,0,1,2.7,1.58A16.82,16.82,0,0,0,82.83,138a15.59,15.59,0,0,0-2.14.33C80.24,136.56,80.36,135.25,81,134.87Zm-3.63,6.28c0-.76,1.09-1.52,2.85-2a18.15,18.15,0,0,0,.78,2h0a17.42,17.42,0,0,0-.78,2C78.47,142.66,77.38,141.91,77.38,141.15ZM81,147.43c-.65-.38-.77-1.69-.32-3.47a15.59,15.59,0,0,0,2.14.33h0A16.82,16.82,0,0,0,84.18,146C82.89,147.23,81.67,147.8,81,147.43Zm7.27,0a.88.88,0,0,1-.47.11h0a4.57,4.57,0,0,1-2.7-1.57,15.51,15.51,0,0,0,1.35-1.68h0A15.36,15.36,0,0,0,88.6,144C89.05,145.74,88.94,147.05,88.28,147.43Zm.78-4.27a15.91,15.91,0,0,0-.78-2h0a14.91,14.91,0,0,0,.78-2c1.77.49,2.85,1.25,2.85,2S90.83,142.66,89.06,143.16Z"/><circle class="cls-59" cx="84.65" cy="141.15" r="1.41"/><path class="cls-30" d="M74.26,143a11.14,11.14,0,0,1-.15-1.84,10.52,10.52,0,1,1,7.54,10.11"/><path class="cls-30" d="M75,145.51l-.27-.66"/><path class="cls-30" d="M79.54,150.38A10.56,10.56,0,0,1,76,147.12"/><path class="cls-60" d="M172.13,188h0a2.77,2.77,0,0,0-.1-2.11.08.08,0,0,1,0,0h0l0,0h0l-.18-.37h0l0,0h0l0,0c-.64-1-2-2.22-4.75-2.61a3.42,3.42,0,0,1,1.24-3,.35.35,0,0,0,0-.53,2.56,2.56,0,0,0-1.35-.68.46.46,0,0,0-.49.14,10.74,10.74,0,0,1-3.34,2.36l-.08,0a3.38,3.38,0,0,1,1.26-2.51.31.31,0,0,0,0-.46,2.46,2.46,0,0,0-1.43-.73c-.4-.08-1.26.66-2.27,1.57-.25.23-.47.42-.58.51s-.54.43-.84.68a7.92,7.92,0,0,1-2.16,1.46c0-.47.61-.93,1.18-1.37s1.3-1,1.18-1.62a.75.75,0,0,0-.32-.46.89.89,0,0,0-.35-.11,2.2,2.2,0,0,0,.38-.84,1,1,0,0,0-.57-1.08,4,4,0,0,0-3.14.15,5.87,5.87,0,0,1-2.39.05c-.33,0-.65-.06-.93-.07a17.4,17.4,0,0,0-.78-1.56c-.86-1.57-1.82-3.35-1.17-4.73,1-2,4-2.27,6.52-2.24a20,20,0,0,1,4.82.54,7.06,7.06,0,0,1,4.07,2.42,1.52,1.52,0,0,1-.13,2c-1.38,1.49-4,1.65-5.91,1.31a8.28,8.28,0,0,1-2.84-1,5.12,5.12,0,0,1-1.68-1.81.71.71,0,0,0-.12-.18h0a.17.17,0,0,0-.19,0,.33.33,0,0,0-.17.27,2.83,2.83,0,0,0,1.16,2.62,5.68,5.68,0,0,0,.93.6,12.07,12.07,0,0,0,7.65.89,5.45,5.45,0,0,0,3-2.07,3,3,0,0,0-.21-3.68c-1.77-2.3-4.66-3.27-6.76-3.67a20.61,20.61,0,0,0-7.71.05c-3,.62-4.6,1.81-4.74,3.56s.89,3.5,1.89,5.15c.32.53.63,1,.89,1.53h-.47a9.48,9.48,0,0,0-4.63.6,2.58,2.58,0,0,0-1.56,2.22,1.68,1.68,0,0,0,.56,1.35,2.79,2.79,0,0,0,.69.49,5.78,5.78,0,0,0,2.82.57,4.56,4.56,0,0,0,3.12-1.44,4.26,4.26,0,0,0,1.16-2.64l1.49,0c-1.55,1.59-1.71,2.95-1.55,3.82a1.21,1.21,0,0,0,.65.82,1.24,1.24,0,0,0,1,.1,8.7,8.7,0,0,0,1.61-1,2.5,2.5,0,0,0-.38,1,.84.84,0,0,0,.22.74,1,1,0,0,0,.85.23c1.58-.18,3.37-1.68,4.81-2.88l.59-.49a9.33,9.33,0,0,0-.19,2c0,.15,0,.19-.16.24l-.75.23a4.75,4.75,0,0,0-2.3,1.08.5.5,0,0,0,.12.7,3.78,3.78,0,0,0,2.76.69,1.93,1.93,0,0,0,1.8-1.54c.24-.88,1.15-1.66,2.72-2.3a6,6,0,0,0-.21,2h0c-1,.25-2.42.58-2.8,1.68a.77.77,0,0,0,0,.63.83.83,0,0,0,.53.42,4,4,0,0,0,2.73-.08,2,2,0,0,0,1.09-1.72,6.74,6.74,0,0,1,3.56,1.89,2.55,2.55,0,0,1,.77,1.72c0,.77-.45,1.23-1.3,1.3-.26,0-.39,0-.45.14a.16.16,0,0,0,0,.15c0,.1.21.32.9.27a1.89,1.89,0,0,0,1.45-.78A2.82,2.82,0,0,0,172.13,188Zm-21.68-9.65,0,.06a3.29,3.29,0,0,1-2.2,1.39,3,3,0,0,1-1.64-.09.94.94,0,0,1-.58-.45.56.56,0,0,1,0-.45c.61-1.38,3.4-1.62,4.81-1.44A3.08,3.08,0,0,1,150.45,178.33Zm7.34-1h0c-.77,1-2.43,2.8-3.74,3.15q-.11,0-.12,0s0,0,0-.08a4.15,4.15,0,0,1,1.71-2.63,2.59,2.59,0,0,1,2.08-.58l.07,0,0,0A.11.11,0,0,1,157.79,177.36Zm2.28,6.33c-.26.09-.48-.06-.39-.09l1.33-.46a2.15,2.15,0,0,1-.94.55Zm4,1.06a.73.73,0,0,1-.3-.06,2.22,2.22,0,0,1,1.61-.9,1.32,1.32,0,0,1-1.31,1Z"/><rect class="cls-1" x="104.28" y="134.52" width="28.52" height="16.09" rx="0.87" transform="translate(34.66 -22.78) rotate(12.84)"/><path class="cls-30" d="M105.29,136.52l.94-4.12a.86.86,0,0,1,1-.65l6.37,1.45"/><path class="cls-30" d="M107,148.18l-3.27-.74a.87.87,0,0,1-.65-1.05l1.75-7.67"/><path class="cls-30" d="M124.51,135.68l8.87,2a.86.86,0,0,1,.65,1l-3.19,14a.87.87,0,0,1-1,.66l-20.15-4.59"/><line class="cls-30" x1="115.64" y1="133.65" x2="122.45" y2="135.21"/><path class="cls-38" d="M114.39,138.6a3.83,3.83,0,0,0-1.65-.77l-.67-.15-.54-.13-1-.22-1.39,6.11,1,.23.54.12.66.15a3.91,3.91,0,0,0,1.83,0,2.76,2.76,0,0,0,1.37-.8,3.27,3.27,0,0,0,.77-1.53,3.08,3.08,0,0,0,0-1.71A2.75,2.75,0,0,0,114.39,138.6Zm-.94,3.48a1.45,1.45,0,0,1-1.16.61,3.26,3.26,0,0,1-.7-.07l-.61-.14.79-3.49.62.14a2.41,2.41,0,0,1,.65.24,1.51,1.51,0,0,1,.51.42,1.4,1.4,0,0,1,.28.63,2.14,2.14,0,0,1,0,.86A2.19,2.19,0,0,1,113.45,142.08Z"/><polygon class="cls-38" points="117.93 139.01 116.95 138.79 115.56 144.9 116.54 145.13 116.97 145.22 119.62 145.83 119.9 144.61 117.25 144.01 117.57 142.6 120.04 143.17 120.31 141.98 117.84 141.42 118.09 140.33 120.74 140.93 121.01 139.72 118.37 139.11 117.93 139.01"/><polygon class="cls-38" points="126.27 140.91 123.94 144.22 123.28 140.23 121.56 139.84 123.3 147.07 128 141.31 126.27 140.91"/><circle class="cls-38" cx="186.68" cy="163.56" r="0.88"/></g></g></svg>