<svg xmlns="http://www.w3.org/2000/svg" viewBox="0 0 224.15 238.63"><defs><style>.cls-1{fill:#3ec4ff;}.cls-13,.cls-15,.cls-16,.cls-18,.cls-19,.cls-2,.cls-21,.cls-22,.cls-23,.cls-24,.cls-27,.cls-28,.cls-29,.cls-3,.cls-34,.cls-36,.cls-37,.cls-38,.cls-39,.cls-40,.cls-41,.cls-7,.cls-8,.cls-9{fill:none;}.cls-2,.cls-39{stroke:#a4e7ff;}.cls-13,.cls-15,.cls-16,.cls-18,.cls-19,.cls-2,.cls-21,.cls-22,.cls-23,.cls-24,.cls-27,.cls-28,.cls-29,.cls-3,.cls-36,.cls-37,.cls-38,.cls-39,.cls-40,.cls-41,.cls-7,.cls-8,.cls-9{stroke-linecap:round;}.cls-13,.cls-15,.cls-16,.cls-18,.cls-19,.cls-2,.cls-21,.cls-22,.cls-24,.cls-27,.cls-28,.cls-29,.cls-3,.cls-36,.cls-37,.cls-38,.cls-39,.cls-40,.cls-41,.cls-7,.cls-8,.cls-9{stroke-linejoin:round;}.cls-2,.cls-24,.cls-8{stroke-width:2.63px;}.cls-3{stroke:#187bb7;stroke-width:2px;opacity:0.7;}.cls-4{fill:#ffd5c7;}.cls-5{fill:#ffab94;}.cls-6{fill:#ffd297;}.cls-18,.cls-19,.cls-24,.cls-7{stroke:#f9a948;}.cls-16,.cls-23,.cls-7{stroke-width:1.76px;}.cls-28,.cls-37,.cls-40,.cls-8{stroke:#fff;}.cls-13,.cls-15,.cls-16,.cls-21,.cls-22,.cls-27,.cls-29,.cls-34,.cls-36,.cls-38,.cls-41,.cls-9{stroke:#232144;}.cls-9{stroke-width:1.67px;}.cls-10{fill:#232144;}.cls-11,.cls-25{fill:#fff;}.cls-12{fill:#e1fbff;}.cls-13{stroke-width:0.88px;}.cls-14{fill:#f9968f;}.cls-15,.cls-18{stroke-width:1.32px;}.cls-17{fill:#f9a948;}.cls-19{stroke-width:1.77px;}.cls-20{fill:#f7af9c;}.cls-21{stroke-width:1.55px;}.cls-22{stroke-width:0.81px;}.cls-23{stroke:#ffab94;}.cls-23,.cls-34{stroke-miterlimit:10;}.cls-25,.cls-35{opacity:0.5;}.cls-26{fill:#187bb7;}.cls-27,.cls-34,.cls-37{stroke-width:1.49px;}.cls-28{stroke-width:1.94px;}.cls-29{stroke-width:1.4px;}.cls-30{fill:#f6bc58;}.cls-31{fill:#e59015;}.cls-32{fill:#3c5768;}.cls-33,.cls-35{fill:#28424f;}.cls-36{stroke-width:0.75px;}.cls-38{stroke-width:1.12px;}.cls-39,.cls-40{stroke-width:2.53px;}.cls-39{opacity:0.41;}.cls-41{stroke-width:1.82px;}</style></defs><g id="Layer_2" data-name="Layer 2"><g id="Layer_1-2" data-name="Layer 1"><path class="cls-1" d="M110.89,125.78c-4.45,1.1-7.89,1.69-12.18,3.3-.84.31-2.44,0-3.28.34-3.07,1.19-6.25,3.92-9.29,5.18l-18,7.44a2.34,2.34,0,0,0-1.25.89,1.59,1.59,0,0,0,.6,1.93,4.54,4.54,0,0,0,2.09.65,83.31,83.31,0,0,0,10.94.74l-1.4.06,84.23-.07c2.57,0,5.24,0,7.53-1.19-4.32-3.45-7-3.79-11.91-5.61-2.21-.83-8.47-2.72-10.72-3.52a12.05,12.05,0,0,1-4.12-2.24c-1.11-1.1-1.45-2.46-2.75-3-1.61-.72-1.94.14-3.52-.75-1.06-.6-4-1.87-5.21-1.74-.12.79-3.34-1.94-3.47-1.15"/><polyline class="cls-2" points="93.12 133.85 95.39 130.72 102.42 129.32"/><polyline class="cls-3" points="145.8 139.25 141.18 131.63 132.42 128.81"/><path class="cls-4" d="M130,119.44v8.15a11.7,11.7,0,0,1-11.7,11.7h0a11.7,11.7,0,0,1-11.7-11.7v-6.87"/><path class="cls-5" d="M130,111.49v8.14a11.7,11.7,0,0,1-11.7,11.7h0a11.7,11.7,0,0,1-11.7-11.7v-6.87"/><path class="cls-4" d="M152.94,60.18V90.42a35.86,35.86,0,0,1-35.86,35.86h0A35.86,35.86,0,0,1,81.21,90.42V52.48h38L125,46.69l6,6,4.53-4.53,7.33,7.32S152.94,60.16,152.94,60.18Z"/><path class="cls-6" d="M83.19,49a10,10,0,0,1-8.72-5.6A57.79,57.79,0,0,0,74,57.93,24.88,24.88,0,0,0,79.4,71.26c.31.37.58,1.8,1.07,1.75,1.22-.13.75-3.21,1.46-4.21.33-.45,2.81-.73,3.33-.91,3.52-1.2,4.69-3.57,6.63-6.74.9,2.39,2.09,6,2.1,8.53,6-2.29,11.42-6.61,15.76-11.28a20,20,0,0,1,4.19-3.32,9.31,9.31,0,0,1,2.81-1.34,14,14,0,0,0,6-3.42c.47-.46,1.11-1,1.69-.68a1.35,1.35,0,0,1,.55.71c.64,1.52.75,3.22,1.37,4.76s1.3,4,2.94,3.81c.79-.1,2.23-1.64,2.85-2.15a19,19,0,0,0,4.87-5.9c1.47,5.74,4.06,11.76,8.37,15.82a3.56,3.56,0,0,0,1.56.7c.41,0,.67-1.23.94-1.53l5.17-5.69.2,7.61c0,1.66-.86,4.62.29,5.81,1.58,1.62,7.6.93,9.69.07,6.58-2.7,8.25-10.41,7.7-17.13a2.63,2.63,0,0,0-.12-1,1.68,1.68,0,0,0-1-.69c-2.09-.68-4.66.45-6.27-.75-.44-.33,1.15-1.87.9-2.41-.5-1.12.91-4,1.13-5.26,1.35-7.49,1.51-13.34,2.86-20.83L162.15,28c-.53.21-1.87,1.17-2.3.8-.27-.24.34-1.41.3-1.77-.51-4.22.88-8.42,2.24-12.44l2.26-6.68c-4,1.21-8.12,3.29-12.31,3.39-3.88.1-7.77-1.67-11.6-2.28-5-.81-10-.52-15-1.33a4,4,0,0,1-2-.87c-.91-1.06.62-3.91-.43-4.83a2.15,2.15,0,0,0-1.44-.36c-5.86,0-11.51,2.5-16.22,6s-8.64,7.91-12.52,12.31c-.86-1.81-2.37-1.9-3.23-3.71-.21-.45-.81-2.55-1.3-2.6s0,.33-.3.8c-3.2,5.1-6.43,9-8.38,14.67s-2.55,13.35-.77,19.11"/><path class="cls-7" d="M164.12,56.25l6.57-.18s.9,11.7-6.71,16.83"/><line class="cls-2" x1="89.22" y1="134.19" x2="93.12" y2="133.85"/><line class="cls-8" x1="89.26" y1="134.33" x2="93.31" y2="133.95"/><polyline class="cls-9" points="83 136 88.35 132.89 92.03 132.44 94.42 129.32 106.28 126.81"/><line class="cls-9" x1="69.02" y1="141.78" x2="76.85" y2="138.56"/><polyline class="cls-9" points="168 141.78 144.3 134.31 141.73 130.37 130.38 126.91"/><path class="cls-9" d="M130,119.44v8.15a11.7,11.7,0,0,1-11.7,11.7h0a11.7,11.7,0,0,1-11.7-11.7v-6.87"/><path class="cls-5" d="M152.91,84.14v6.17a35.86,35.86,0,0,1-71.72,0V84.14a35.86,35.86,0,1,0,71.72,0Z"/><path class="cls-10" d="M131.05,98.46a14.37,14.37,0,0,1-13.68,13.81,13.75,13.75,0,0,1-13.48-11.35c.32.28.2-2.68.6-2.43.12,0,9.12-.34,9.25-.27C119.89,101.93,126.51,98.93,131.05,98.46Z"/><path class="cls-11" d="M129.61,98.22l-.08.3a11.29,11.29,0,0,1-.4,2.45c-3.66,4.55-19.19,4.13-23.32,0a9.23,9.23,0,0,1-.36-2.66v-.09Z"/><path class="cls-12" d="M128.49,98.34v.12a.78.78,0,0,1-.38.42c-3.36,1.68-17.4,1.52-21.16,0a.57.57,0,0,1-.32-.51h0Z"/><path class="cls-13" d="M129.41,98.32a10.92,10.92,0,0,1-.39,2.41c-3.6,4.47-18.88,4.06-22.94,0a7.17,7.17,0,0,1-.34-2.39"/><path class="cls-14" d="M128,107.51a13.87,13.87,0,0,1-10.35,4.65,13.7,13.7,0,0,1-3.37-.41,3.21,3.21,0,0,1,0-.62,8.19,8.19,0,0,1,5.88-5.06,9.5,9.5,0,0,1,7.65,1.12Z"/><path class="cls-15" d="M130.47,98.34a.77.77,0,0,1,.76.79h0a13.76,13.76,0,0,1-27.49,0,.75.75,0,0,1,.72-.79h26Z"/><path class="cls-13" d="M114.18,111.09a9.35,9.35,0,0,1,12.44-4.49,8.78,8.78,0,0,1,1,.57"/><path class="cls-5" d="M82.44,71.75c4.07.06,7.69-2.5,10.25-5.47l-2.2-.58c.58,2.45-1.34,5.41,1.42,7.16a4,4,0,0,0,4,0c1.52-.63,3-1.31,4.48-2.07a44.64,44.64,0,0,0,14.29-11.87c1-1.32-.81-3.19-1.86-1.87a42.18,42.18,0,0,1-11.73,10.34c-1.12.66-2.27,1.27-3.44,1.83s-2.52,1.49-3.68,1.54-1-1.46-.93-2.29A10.23,10.23,0,0,0,93,65a1.32,1.32,0,0,0-2.2-.58c-2.11,2.44-5,4.74-8.39,4.69a1.32,1.32,0,0,0,0,2.64Z"/><path class="cls-16" d="M82,69a11.86,11.86,0,0,0,10.1-7.15"/><path class="cls-5" d="M122.6,52.33a16.47,16.47,0,0,0,1.58,5.88c.76,1.58,1.95,3.51,3.59,4.31,1.91.93,4-1.09,5.34-2.28A18.22,18.22,0,0,0,137,55.11l-2.4-.31a38.16,38.16,0,0,0,4.45,9.12c1.76,2.63,3.79,5.43,6.88,6.56,1.6.58,2.28-2,.7-2.54-2.55-.93-4.34-3.82-5.73-6a35.57,35.57,0,0,1-3.76-7.84,1.33,1.33,0,0,0-2.41-.31,16.18,16.18,0,0,1-2.64,3.73,15.44,15.44,0,0,1-1.69,1.54,8.72,8.72,0,0,1-1,.72c-.36.21-.45.33-.82.15-1.06-.51-1.87-2.36-2.31-3.36a13.23,13.23,0,0,1-1.07-4.24c-.13-1.68-2.76-1.69-2.64,0Z"/><path class="cls-5" d="M138.8,66.74a10.82,10.82,0,0,0,4.27,4.19,1.42,1.42,0,0,0,1,.13,1.33,1.33,0,0,0,.79-.6,1.35,1.35,0,0,0,.13-1,1.28,1.28,0,0,0-.6-.78,6.58,6.58,0,0,1-1.25-.75l.27.2a9.45,9.45,0,0,1-1.7-1.76l.2.27c-.3-.39-.58-.8-.85-1.21a1.42,1.42,0,0,0-.79-.61,1.37,1.37,0,0,0-1,.14,1.33,1.33,0,0,0-.47,1.8Z"/><path class="cls-5" d="M105.42,69.86c.83-.55,1.65-1.1,2.44-1.71a26.19,26.19,0,0,0,2-1.81A1.32,1.32,0,0,0,108,64.48a25.3,25.3,0,0,1-2.11,1.9l.27-.21c-.66.51-1.36,1-2.05,1.42a1.31,1.31,0,1,0,1.32,2.27Z"/><path class="cls-16" d="M136.79,47.38C137,54,139,62.83,147.61,68.58c0,0,.54-7.68,7.33-9.83"/><path class="cls-16" d="M137.42,39.26a31.21,31.21,0,0,0-.52,4.25"/><path class="cls-11" d="M95.07,21.76C102.62,13.55,111.23,4.15,123,3L121.73.75c-2,4.3-1.85,9.58-.49,14,.57,1.84,3.46,1.05,2.9-.8a18.42,18.42,0,0,1-.68-8.5,18.45,18.45,0,0,1,.62-2.54l.24-.67c.15-.42-.1.22,0,0,.43-.92,0-2.37-1.29-2.25C110.29,1.24,101.14,10.72,93,19.64c-1.31,1.42.81,3.55,2.12,2.12Z"/><path class="cls-11" d="M123.78,10.75a74.17,74.17,0,0,1,10.22.06,59.38,59.38,0,0,1,10.21,2A25.23,25.23,0,0,0,163.44,10c1.44-.88.12-3.16-1.33-2.27-5.88,3.56-12.48,4-19,2.09a57.84,57.84,0,0,0-19.35-1.7c-1.69.1-1.7,2.74,0,2.64Z"/><path class="cls-16" d="M137.84,8.84a66.52,66.52,0,0,1,6.73,1.64c12.7,3.75,21.64-4.83,21.64-4.83s-2.09,5.15-4,11.14"/><path class="cls-16" d="M123.48,8a42.38,42.38,0,0,1,10.32.23"/><path class="cls-16" d="M107.14,7.51C112.38,3.84,118.36.86,123.83,1c0,0-2,10.19,0,14"/><path class="cls-16" d="M92.73,20.49A64.52,64.52,0,0,1,101.25,12"/><path class="cls-17" d="M158.3,20.23a33.29,33.29,0,0,0-2.05,9,1.35,1.35,0,0,0,1.32,1.32,1.39,1.39,0,0,0,1.61-1.16,1.34,1.34,0,0,0-.28-1l-.18-.2c-.24-.23.15.1.21.44a1.33,1.33,0,0,0-1.62-.92,1.34,1.34,0,0,0-.54,2.26c.26.27,0,0-.15-.37l.13-1v0l.48-.47h0l.67-.18a1.29,1.29,0,0,1-.28,0l1.31,1.31a31.3,31.3,0,0,1,2-8.31,1.32,1.32,0,0,0-.92-1.62,1.35,1.35,0,0,0-1.62.92Z"/><path class="cls-16" d="M161.06,20.42a59.39,59.39,0,0,0-2,8.83"/><path class="cls-11" d="M100.14,19.35A71,71,0,0,1,108,11.87,1.31,1.31,0,0,0,108,10a1.35,1.35,0,0,0-1.86,0,71,71,0,0,0-7.84,7.48,1.32,1.32,0,0,0,1.86,1.86Z"/><path class="cls-11" d="M103.22,18.92a14.54,14.54,0,0,1,2-2.21,10.25,10.25,0,0,0,2-2.11,1.33,1.33,0,0,0-.47-1.8,1.35,1.35,0,0,0-1.81.47,3.62,3.62,0,0,1-.22.32l.21-.27a13.55,13.55,0,0,1-1.8,1.67,15,15,0,0,0-1.83,2.07A1.42,1.42,0,0,0,101,18a1.29,1.29,0,0,0,.39.93,1.35,1.35,0,0,0,.93.39,1.29,1.29,0,0,0,.93-.39Z"/><path class="cls-11" d="M86.77,14.74c-6.37,9.74-10.5,21.36-8,33.06.41,1.88,3.3,1.09,2.89-.8-2.36-10.9,1.75-21.71,7.66-30.75,1.06-1.62-1.53-3.13-2.59-1.51Z"/><path class="cls-16" d="M79.36,31.21a42.4,42.4,0,0,1,1.72-5.32"/><path class="cls-16" d="M79.05,47.66a29.73,29.73,0,0,1-.56-11.88"/><path class="cls-16" d="M82.94,21.82a53.33,53.33,0,0,1,5.49-8.48S91.12,21.2,97,25.14"/><path class="cls-11" d="M73.11,46.36a48.76,48.76,0,0,0,2.55,18.91c.54,1.6,3.09.91,2.54-.7a46.53,46.53,0,0,1-2.45-18.21c.1-1.69-2.53-1.68-2.64,0Z"/><path class="cls-16" d="M80.63,74.42S68.77,63.58,74.31,41.23c0,0,.89,8.22,9.48,8.4"/><path class="cls-18" d="M162,46.2c.44-1.06.93-2.35,1.37-3.4a16.77,16.77,0,0,0,.7-2.32,18.84,18.84,0,0,0,.45-2.67c.09-1.85.18-3.74.27-5.59"/><path class="cls-19" d="M162.6,48.85c.59-1.41,1.25-3.15,1.84-4.56a22.29,22.29,0,0,0,.94-3.11,24.32,24.32,0,0,0,.6-3.58c.13-2.48.25-5,.37-7.5"/><path class="cls-19" d="M163.13,48.85c.59-1.41,1.25-3.15,1.84-4.56a21,21,0,0,0,.94-3.11,24.32,24.32,0,0,0,.6-3.58c.13-2.48.25-5,.37-7.5"/><path class="cls-18" d="M161.67,43.48c.27-.63.56-1.41.83-2a11.28,11.28,0,0,0,.42-1.4,12.43,12.43,0,0,0,.27-1.6c.05-1.11.11-2.25.16-3.36"/><path class="cls-16" d="M166.66,42.53a51.53,51.53,0,0,1-2.92,8.85l-1.11,2.54"/><path class="cls-16" d="M152.08,31.39s13.77-2,15.92-8.58v8.1a51.3,51.3,0,0,1-.56,7.54"/><line class="cls-13" x1="106.11" y1="55.97" x2="102.02" y2="59.21"/><line class="cls-13" x1="104.85" y1="59.42" x2="101.74" y2="61.76"/><line class="cls-13" x1="144.88" y1="13.76" x2="139.88" y2="12.3"/><line class="cls-13" x1="141.34" y1="14.73" x2="137.63" y2="13.55"/><rect class="cls-10" x="105.89" y="75.83" width="6.17" height="11.18" rx="3.08"/><rect class="cls-10" x="123.63" y="75.83" width="6.17" height="11.18" rx="3.08"/><circle class="cls-11" cx="105.92" cy="80.46" r="2.12"/><circle class="cls-11" cx="124.02" cy="80.46" r="2.12"/><circle class="cls-11" cx="85.74" cy="85.37" r="0.9"/><path class="cls-11" d="M85.09,75.83v6.55a.66.66,0,0,0,1.31,0V75.83a.66.66,0,0,0-1.31,0Z"/><circle class="cls-10" cx="85.42" cy="107.57" r="0.91"/><circle class="cls-10" cx="80.32" cy="137.13" r="0.91"/><circle class="cls-10" cx="86.82" cy="49.61" r="0.91"/><circle class="cls-10" cx="81.45" cy="58.3" r="0.91"/><circle class="cls-10" cx="158.31" cy="57.79" r="0.91"/><circle class="cls-10" cx="138.2" cy="35.99" r="0.91"/><circle class="cls-10" cx="104.04" cy="9.79" r="0.91"/><path class="cls-20" d="M80.91,87.18a8.94,8.94,0,1,1-.19-17.86Z"/><path class="cls-21" d="M80.4,87.18a8.93,8.93,0,0,1-.19-17.86"/><path class="cls-22" d="M79.77,72.2a7.6,7.6,0,0,0-3.33,1.46,5.64,5.64,0,0,0-1.8,2.44"/><path class="cls-22" d="M78.22,84.05a5.74,5.74,0,0,1-4-4.1"/><path class="cls-20" d="M153.26,87.18a8.94,8.94,0,1,0,.2-17.86Z"/><path class="cls-21" d="M153.77,87.18a8.93,8.93,0,0,0,.2-17.86"/><path class="cls-22" d="M154.4,72.2a7.6,7.6,0,0,1,3.33,1.46,5.58,5.58,0,0,1,1.81,2.44"/><path class="cls-22" d="M156,84.05a5.74,5.74,0,0,0,4-4.1"/><line class="cls-15" x1="117.56" y1="87.11" x2="117.56" y2="94.34"/><path class="cls-15" d="M101.93,73.89s5.64-4.48,11.42-1.88"/><path class="cls-15" d="M132.58,73.89s-5.64-4.48-11.42-1.88"/><line class="cls-7" x1="165.2" y1="57.11" x2="168.68" y2="57.11"/><path class="cls-7" d="M169,62.93a15.24,15.24,0,0,1-2.32,5.68"/><path class="cls-16" d="M168.22,69.71a8.1,8.1,0,0,1-4.95,4.15"/><path class="cls-16" d="M157.63,49.81l6,5,8-.18a30.26,30.26,0,0,1-.79,9"/><line class="cls-23" x1="151.4" y1="74.56" x2="151.4" y2="86.13"/><path class="cls-9" d="M152.94,60.18V90.42a35.86,35.86,0,0,1-35.86,35.86h0c-12.46,0-22.73-6.06-29.6-15.53"/><line class="cls-9" x1="145.68" y1="137.19" x2="146.98" y2="139.11"/><path class="cls-24" d="M116.88,38.94s1.06,11.62-7.66,19.23"/><path class="cls-24" d="M119.65,39.83s.51,8.9-3.1,12.58"/><path class="cls-16" d="M114,55s8.27-1,11-5.94c0,0,.71,9.28,4.29,10.54,0,0,5.54-3.67,7.51-8.32"/><path class="cls-9" d="M83.79,103.81a33.1,33.1,0,0,1-2.58-13.39V62.22"/><path class="cls-17" d="M88.73,56.52A12.23,12.23,0,0,1,92,61.65a20.09,20.09,0,0,1,1.24,6.59,1.5,1.5,0,0,0,3,0,23.12,23.12,0,0,0-1.41-7.58,15.28,15.28,0,0,0-4-6.26,1.5,1.5,0,1,0-2.12,2.12Z"/><path class="cls-16" d="M87.72,55.17s6.61,5.9,5.54,15c0,0,27.36-9.47,24.67-33.07"/><path class="cls-25" d="M115.33,23.33c-2.4-2-5.6-2.25-7.16-.52a3.32,3.32,0,0,0-.79,1.92,8.2,8.2,0,0,0-1.5-.14,7.33,7.33,0,1,0,7.57,7.33c0-.23,0-.46,0-.68a4,4,0,0,0,3.44-1.12C118.41,28.39,117.73,25.35,115.33,23.33Z"/><path class="cls-1" d="M54.89,177.17c-6.22,9.29-8.61,22.2-9.09,35.16l10.48,10.48,18.1-17.11"/><path class="cls-26" d="M59.56,177.17c-6.23,9.29-8.61,22.2-9.21,37l10.48,10.48L79.05,205.7"/><path class="cls-27" d="M54.89,177.17c-6.22,9.29-8.61,22.2-9.09,35.16"/><path class="cls-4" d="M38.48,228.21a13.76,13.76,0,1,1,27.52,0"/><path class="cls-28" d="M40.18,224.84s1.27-8.4,9.15-9.47"/><path class="cls-29" d="M38.67,227.66c0-8.56,5.86-13.84,13.09-13.84"/><path class="cls-1" d="M179.65,169.7c4.89,9.93,7.95,20.64,11,31.29,1.05,3.67,2.11,7.39,2.14,11.2a36.11,36.11,0,0,1-2.17,11.31,11.81,11.81,0,0,1-2.42,4.74c-1.8,1.86-4.51,2.4-7.05,2.85-3,.52-6.3,1-8.89-.57a10.45,10.45,0,0,1-3.11-3.27c-4.17-6.2-5.91-13.82-5.84-21.3s1.86-14.84,4.28-21.91c1.75-5.13,4.53-10.77,9.78-12.08"/><ellipse class="cls-26" cx="171.83" cy="208.08" rx="16.71" ry="22.93"/><rect class="cls-30" x="0.75" y="228.55" width="222.66" height="9.34"/><rect class="cls-31" x="0.75" y="233.94" width="222.66" height="3.15"/><path class="cls-32" d="M175.29,218.08v8.29a2.15,2.15,0,0,1-2.15,2.15H65.19A2.15,2.15,0,0,1,63,226.37v-8.29"/><path class="cls-33" d="M175.29,212v8.29a2.15,2.15,0,0,1-2.15,2.15H65.19A2.15,2.15,0,0,1,63,220.31V212"/><path class="cls-34" d="M175.29,218.08v8.29a2.15,2.15,0,0,1-2.15,2.15H65.19A2.15,2.15,0,0,1,63,226.37v-8.29"/><rect class="cls-32" x="56.14" y="140.67" width="127.04" height="77.44" rx="8.4"/><path class="cls-35" d="M182.68,163.89v45.57a8.4,8.4,0,0,1-8.39,8.4H64a8.4,8.4,0,0,1-8.39-8.4v-4.53C125.1,202.13,164.48,178.72,182.68,163.89Z"/><path class="cls-35" d="M182.68,151.71v57.75a8.4,8.4,0,0,1-8.39,8.4H64a8.4,8.4,0,0,1-8.39-8.4V191C125.1,188.21,164.48,166.54,182.68,151.71Z"/><path class="cls-34" d="M175.29,218.08v8.29a2.15,2.15,0,0,1-2.15,2.15H65.19A2.15,2.15,0,0,1,63,226.37v-8.29"/><path class="cls-27" d="M206.39,228.55h16.07a.94.94,0,0,1,.94.94v7.45a.94.94,0,0,1-.94.94H1.69a.94.94,0,0,1-.94-.94v-7.45a.94.94,0,0,1,.94-.94H14.2"/><line class="cls-27" x1="32.19" y1="228.55" x2="199.84" y2="228.55"/><line class="cls-27" x1="22.12" y1="228.55" x2="27.34" y2="228.55"/><path class="cls-27" d="M191,200.81A71.38,71.38,0,0,1,192.5,211"/><path class="cls-27" d="M183,174.71c1.61,5.09,4.68,13.29,6.91,21.87"/><path class="cls-27" d="M192.57,215.77c0,10.16-5.18,12.29-5.18,12.29"/><line class="cls-36" x1="64.67" y1="147.58" x2="61.02" y2="150.08"/><line class="cls-36" x1="63.4" y1="150.43" x2="60.63" y2="152.23"/><line class="cls-36" x1="176.21" y1="209" x2="172.56" y2="211.5"/><line class="cls-36" x1="174.94" y1="211.85" x2="172.17" y2="213.65"/><circle class="cls-10" cx="18.36" cy="228.59" r="1.03"/><line class="cls-37" x1="9.04" y1="231.56" x2="17.7" y2="231.56"/><circle class="cls-11" cx="6.09" cy="231.56" r="1.11"/><line class="cls-38" x1="68.73" y1="221.06" x2="68.73" y2="225.23"/><line class="cls-38" x1="72.48" y1="221.06" x2="72.48" y2="225.23"/><line class="cls-38" x1="76.22" y1="221.06" x2="76.22" y2="225.23"/><line class="cls-38" x1="161.54" y1="221.06" x2="161.54" y2="225.23"/><line class="cls-38" x1="165.28" y1="221.06" x2="165.28" y2="225.23"/><line class="cls-38" x1="169.03" y1="221.06" x2="169.03" y2="225.23"/><line class="cls-39" x1="66.27" y1="142.38" x2="89.22" y2="142.38"/><line class="cls-40" x1="74.04" y1="142.38" x2="80.8" y2="142.38"/><path class="cls-27" d="M139.12,140.67h35.17a8.39,8.39,0,0,1,8.39,8.39v60.65a8.4,8.4,0,0,1-8.39,8.4H64a8.4,8.4,0,0,1-8.39-8.4V149.06A8.39,8.39,0,0,1,64,140.67H98.33"/><line class="cls-41" x1="101.98" y1="140.76" x2="135.36" y2="140.76"/></g></g></svg>