<svg xmlns="http://www.w3.org/2000/svg" viewBox="0 0 224.15 200.63"><defs><style>.cls-1{fill:#4080ff;}.cls-10,.cls-15,.cls-17,.cls-18,.cls-2,.cls-20,.cls-21,.cls-22,.cls-23,.cls-25,.cls-26,.cls-27,.cls-28,.cls-30,.cls-31,.cls-32,.cls-33,.cls-34,.cls-35,.cls-36,.cls-37,.cls-38,.cls-39,.cls-5,.cls-6,.cls-8,.cls-9{fill:none;}.cls-2,.cls-21{stroke:#a4e7ff;}.cls-10,.cls-17,.cls-18,.cls-2,.cls-20,.cls-21,.cls-22,.cls-23,.cls-25,.cls-26,.cls-27,.cls-28,.cls-30,.cls-31,.cls-32,.cls-34,.cls-35,.cls-36,.cls-37,.cls-38,.cls-39,.cls-5,.cls-6,.cls-8,.cls-9{stroke-linecap:round;}.cls-10,.cls-17,.cls-18,.cls-2,.cls-20,.cls-21,.cls-22,.cls-23,.cls-26,.cls-27,.cls-28,.cls-31,.cls-35,.cls-36,.cls-38,.cls-39,.cls-5,.cls-6,.cls-8,.cls-9{stroke-linejoin:round;}.cls-2,.cls-5{stroke-width:2.63px;}.cls-3{fill:#0a5ee5;}.cls-4{fill:#ffd5c7;}.cls-18,.cls-22,.cls-26,.cls-5,.cls-9{stroke:#fff;}.cls-10,.cls-15,.cls-17,.cls-20,.cls-23,.cls-27,.cls-28,.cls-31,.cls-35,.cls-36,.cls-38,.cls-39,.cls-6,.cls-8{stroke:#232144;}.cls-6{stroke-width:1.67px;}.cls-7{fill:#232144;}.cls-15,.cls-18,.cls-8{stroke-width:1.49px;}.cls-9{stroke-width:1.94px;}.cls-10{stroke-width:1.4px;}.cls-11{fill:#f6bc58;}.cls-12{fill:#e59015;}.cls-13{fill:#3c5768;}.cls-14,.cls-16{fill:#28424f;}.cls-15,.cls-25,.cls-30,.cls-32,.cls-33,.cls-34,.cls-37{stroke-miterlimit:10;}.cls-16{opacity:0.5;}.cls-17{stroke-width:0.75px;}.cls-19{fill:#fff;}.cls-20{stroke-width:1.12px;}.cls-21,.cls-22{stroke-width:2.53px;}.cls-21{opacity:0.41;}.cls-23{stroke-width:1.82px;}.cls-24,.cls-29{fill:#ffab94;}.cls-25,.cls-30,.cls-32,.cls-33,.cls-34,.cls-37{stroke:#ffab94;}.cls-25{stroke-width:1.88px;}.cls-26,.cls-27{stroke-width:1.51px;}.cls-28{stroke-width:1.07px;}.cls-29{opacity:0.35;}.cls-30{stroke-width:1.44px;}.cls-31{stroke-width:1.45px;}.cls-32{stroke-width:1.52px;}.cls-33{stroke-width:0.87px;}.cls-34{stroke-width:1.73px;}.cls-35{stroke-width:1.54px;}.cls-36{stroke-width:1.22px;}.cls-37{stroke-width:1.57px;}.cls-38{stroke-width:1.79px;}.cls-39{stroke-width:1.18px;}</style></defs><g id="Layer_2" data-name="Layer 2"><g id="Layer_1-2" data-name="Layer 1"><path class="cls-1" d="M110.89,87.78c-4.45,1.1-7.89,1.69-12.18,3.3-.84.31-2.44,0-3.28.34-3.07,1.19-6.25,3.92-9.29,5.18l-18,7.44a2.34,2.34,0,0,0-1.25.89,1.59,1.59,0,0,0,.6,1.93,4.54,4.54,0,0,0,2.09.65,83.31,83.31,0,0,0,10.94.74l-1.4.06,84.23-.07c2.57,0,5.24,0,7.53-1.19-4.32-3.45-7-3.79-11.91-5.61-2.21-.83-8.47-2.72-10.72-3.52a12.05,12.05,0,0,1-4.12-2.24c-1.11-1.1-1.45-2.46-2.75-3-1.61-.72-1.94.14-3.52-.75-1.06-.6-4-1.87-5.21-1.74-.12.79-3.34-1.94-3.47-1.15"/><polyline class="cls-2" points="93.12 95.85 95.39 92.72 102.42 91.32"/><path class="cls-3" d="M145.8,102.25a1,1,0,0,1-.85-.48l-4.43-7.3-8.41-2.71a1,1,0,0,1,.61-1.91l8.76,2.83a1,1,0,0,1,.55.43l4.63,7.62a1,1,0,0,1-.34,1.37A1,1,0,0,1,145.8,102.25Z"/><path class="cls-4" d="M130,81.44v8.15a11.7,11.7,0,0,1-11.7,11.7h0a11.7,11.7,0,0,1-11.7-11.7V82.72"/><line class="cls-2" x1="89.22" y1="96.19" x2="93.12" y2="95.85"/><line class="cls-5" x1="89.26" y1="96.33" x2="93.31" y2="95.95"/><polyline class="cls-6" points="83 98 88.35 94.89 92.03 94.44 94.42 91.32 106.28 88.81"/><line class="cls-6" x1="69.02" y1="103.78" x2="76.85" y2="100.56"/><polyline class="cls-6" points="168 103.78 144.3 96.31 141.73 92.37 130.38 88.91"/><path class="cls-6" d="M130,85.44v4.15a11.7,11.7,0,0,1-11.7,11.7h0a11.7,11.7,0,0,1-11.7-11.7V85.72"/><circle class="cls-7" cx="80.32" cy="99.13" r="0.91"/><line class="cls-6" x1="145.68" y1="99.19" x2="146.98" y2="101.11"/><path class="cls-1" d="M54.89,139.17c-6.22,9.29-8.61,22.2-9.09,35.16l10.48,10.48,18.1-17.11"/><path class="cls-3" d="M59.56,139.17c-6.23,9.29-8.61,22.2-9.21,37l10.48,10.48L79.05,167.7"/><path class="cls-8" d="M54.89,139.17c-6.22,9.29-8.61,22.2-9.09,35.16"/><path class="cls-4" d="M38.48,190.21a13.76,13.76,0,1,1,27.52,0"/><path class="cls-9" d="M40.18,186.84s1.27-8.4,9.15-9.47"/><path class="cls-10" d="M38.67,189.66c0-8.56,5.86-13.84,13.09-13.84"/><path class="cls-1" d="M179.65,131.7c4.89,9.93,7.95,20.64,11,31.29,1.05,3.66,2.11,7.39,2.14,11.2a36.11,36.11,0,0,1-2.17,11.31,11.81,11.81,0,0,1-2.42,4.74c-1.8,1.86-4.51,2.4-7.05,2.84-3,.53-6.3,1-8.89-.56a10.45,10.45,0,0,1-3.11-3.27c-4.17-6.2-5.91-13.83-5.84-21.3s1.86-14.84,4.28-21.91c1.75-5.13,4.53-10.77,9.78-12.08"/><ellipse class="cls-3" cx="171.83" cy="170.08" rx="16.71" ry="22.93"/><rect class="cls-11" x="0.75" y="190.55" width="222.66" height="9.34"/><rect class="cls-12" x="0.75" y="195.94" width="222.66" height="3.15"/><path class="cls-13" d="M175.29,180.08v8.29a2.15,2.15,0,0,1-2.15,2.15H65.19A2.15,2.15,0,0,1,63,188.37v-8.29"/><path class="cls-14" d="M175.29,174v8.29a2.15,2.15,0,0,1-2.15,2.15H65.19A2.15,2.15,0,0,1,63,182.31V174"/><path class="cls-15" d="M175.29,180.08v8.29a2.15,2.15,0,0,1-2.15,2.15H65.19A2.15,2.15,0,0,1,63,188.37v-8.29"/><rect class="cls-13" x="56.14" y="102.67" width="127.04" height="77.44" rx="8.4"/><path class="cls-16" d="M182.68,125.89v45.57a8.4,8.4,0,0,1-8.39,8.4H64a8.4,8.4,0,0,1-8.39-8.4v-4.53C125.1,164.13,164.48,140.72,182.68,125.89Z"/><path class="cls-16" d="M182.68,113.71v57.75a8.4,8.4,0,0,1-8.39,8.4H64a8.4,8.4,0,0,1-8.39-8.4V153C125.1,150.21,164.48,128.54,182.68,113.71Z"/><path class="cls-15" d="M175.29,180.08v8.29a2.15,2.15,0,0,1-2.15,2.15H65.19A2.15,2.15,0,0,1,63,188.37v-8.29"/><path class="cls-8" d="M206.39,190.55h16.07a.94.94,0,0,1,.94.94v7.45a.94.94,0,0,1-.94.94H1.69a.94.94,0,0,1-.94-.94v-7.45a.94.94,0,0,1,.94-.94H14.2"/><line class="cls-8" x1="32.19" y1="190.55" x2="199.84" y2="190.55"/><line class="cls-8" x1="22.12" y1="190.55" x2="27.34" y2="190.55"/><path class="cls-8" d="M191,162.81A71.38,71.38,0,0,1,192.5,173"/><path class="cls-8" d="M183,136.7c1.61,5.1,4.68,13.3,6.91,21.88"/><path class="cls-8" d="M192.57,177.77c0,10.16-5.18,12.29-5.18,12.29"/><line class="cls-17" x1="64.67" y1="109.58" x2="61.02" y2="112.08"/><line class="cls-17" x1="63.4" y1="112.43" x2="60.63" y2="114.23"/><line class="cls-17" x1="176.21" y1="171" x2="172.56" y2="173.5"/><line class="cls-17" x1="174.94" y1="173.85" x2="172.17" y2="175.65"/><circle class="cls-7" cx="18.36" cy="190.59" r="1.03"/><line class="cls-18" x1="9.04" y1="193.56" x2="17.7" y2="193.56"/><circle class="cls-19" cx="6.09" cy="193.56" r="1.11"/><line class="cls-20" x1="68.73" y1="183.06" x2="68.73" y2="187.23"/><line class="cls-20" x1="72.48" y1="183.06" x2="72.48" y2="187.23"/><line class="cls-20" x1="76.22" y1="183.06" x2="76.22" y2="187.23"/><line class="cls-20" x1="161.54" y1="183.06" x2="161.54" y2="187.23"/><line class="cls-20" x1="165.28" y1="183.06" x2="165.28" y2="187.23"/><line class="cls-20" x1="169.03" y1="183.06" x2="169.03" y2="187.23"/><line class="cls-21" x1="66.27" y1="104.38" x2="89.22" y2="104.38"/><line class="cls-22" x1="74.04" y1="104.38" x2="80.8" y2="104.38"/><path class="cls-8" d="M139.12,102.67h35.17a8.39,8.39,0,0,1,8.39,8.39v60.65a8.4,8.4,0,0,1-8.39,8.4H64a8.4,8.4,0,0,1-8.39-8.4V111.06A8.39,8.39,0,0,1,64,102.67H98.33"/><line class="cls-23" x1="101.98" y1="102.76" x2="135.36" y2="102.76"/><path class="cls-24" d="M129.86,73.64v8.15a11.7,11.7,0,0,1-11.7,11.7h0a11.7,11.7,0,0,1-11.7-11.7V74.92Z"/><polygon class="cls-4" points="82.18 34.85 78.22 41.35 78.22 45.73 83.16 54.17 92.21 54.37 92.66 38.88 82.18 34.85"/><path class="cls-25" d="M84.82,40.83a5.29,5.29,0,0,1,4.52,3.92"/><polyline class="cls-26" points="82.7 36.19 79.9 41.22 79.9 44.79"/><path class="cls-27" d="M87.16,36.78l-4.68-2-4,6.5v4.38l4.42,7.71a1.73,1.73,0,0,0,1.41.73h4.14"/><path class="cls-28" d="M84.31,39.76s4,.26,5.13,4"/><path class="cls-28" d="M82.83,42.3s-1.93,2.46.21,5.91"/><polygon class="cls-4" points="153.79 36.2 157.75 42.7 157.75 47.08 152.81 55.52 143.76 55.72 143.31 40.23 153.79 36.2"/><path class="cls-25" d="M151.15,42.18a5.29,5.29,0,0,0-4.52,3.92"/><polyline class="cls-26" points="153.27 37.54 156.07 42.57 156.07 46.14"/><path class="cls-27" d="M148.81,38.13l4.68-2,4,6.5V47L153,54.7a1.73,1.73,0,0,1-1.41.72h-4.14"/><path class="cls-28" d="M151.66,41.11s-4,.26-5.13,4"/><path class="cls-28" d="M153.14,43.65s1.93,2.46-.21,5.92"/><path class="cls-4" d="M148.14,32,149,55.66c0,3.2.5,4.65-.78,7.33a27.56,27.56,0,0,1-7,13.59c-4,4.51-9.8,7.11-13.64,9.35-2.67.74-6.26,2.13-9.2,2.13l.06.06c-3.33,0-6.53-1.74-10-2.23C103.61,83.08,96.75,78.74,93,74.26c-5.64-6.72-6.7-13.47-6.21-18.6l.87-18.39V32.09c0-10.82,4.76-20.86,14-26.5l.1-.06a31,31,0,0,1,32.48,0h0C143.41,11.23,148.14,21.24,148.14,32Z"/><path class="cls-29" d="M139.1,9.09l6.35,8,2.64,11.86c0,13.73,2.68,20.83.56,34.26-.54,3.43-4.14,8.85-6.78,12.24-1.71,2.2-7.15,6-9.54,7.16-1.82,1-3.55,1.94-5,2.79a60.46,60.46,0,0,1-7.5,2,250.27,250.27,0,0,0,8.28-64V2.21A32,32,0,0,1,133.94,5,28.31,28.31,0,0,1,139.1,9.09Z"/><path class="cls-30" d="M120.1,78.21s-2.24-1.29-4.08,0"/><circle class="cls-24" cx="117.91" cy="80.61" r="0.82"/><path class="cls-31" d="M102.94,4.66a31,31,0,0,1,31.41.67h0C143.53,11,148.26,21,148.26,31.78"/><path class="cls-31" d="M87.78,31.84C87.78,21.56,92,12,100.43,6.21"/><line class="cls-32" x1="147.43" y1="42.38" x2="147.79" y2="52.3"/><line class="cls-31" x1="148.26" y1="36.77" x2="149.13" y2="57.76"/><line class="cls-33" x1="108.46" y1="28.35" x2="129.46" y2="28.35"/><line class="cls-33" x1="112.96" y1="26.1" x2="123.89" y2="26.1"/><line class="cls-33" x1="114.67" y1="23.85" x2="122.17" y2="23.85"/><path class="cls-34" d="M127,85.52l-8.86,2-8.73-2s-20.5-8.16-21.23-25.88"/><path class="cls-34" d="M127,83.89l-8.86,2-8.73-2S88.1,76,87.36,58.24"/><path class="cls-34" d="M127,82.75l-8.86,2-8.73-2s-20.5-8.17-21.23-25.88"/><path class="cls-34" d="M126.47,85.52S147,77.36,147.7,59.64"/><path class="cls-35" d="M120.05,87.83l7.56-1.73s20.49-8.17,21.23-25.89"/><path class="cls-35" d="M115.91,87.83l-7.57-1.73S87.85,77.93,87.12,60.21"/><line class="cls-31" x1="86.91" y1="57.76" x2="87.78" y2="35.03"/><polyline class="cls-19" points="122.12 47.34 133.67 50.46 137.8 47.13 136.92 45.19 132.58 43.17 122.12 44.94"/><polyline class="cls-36" points="122.55 44.85 132.47 43.06 136.71 45.15"/><polyline class="cls-36" points="122 47.26 133.68 50.48 137.73 47.17"/><polygon class="cls-7" points="132.06 50.21 127.5 49.31 127.5 43.38 132.06 43.38 132.06 50.21"/><circle class="cls-19" cx="131.95" cy="46.19" r="1.19"/><polyline class="cls-19" points="113.69 47.34 102.14 50.46 98.01 47.13 98.89 45.19 103.23 43.17 113.69 44.94"/><polyline class="cls-36" points="113.26 44.85 103.34 43.06 99.11 45.15"/><polyline class="cls-36" points="113.81 47.26 102.13 50.48 98.08 47.17"/><polygon class="cls-7" points="103.75 50.21 108.31 49.31 108.31 43.38 103.75 43.38 103.75 50.21"/><circle class="cls-19" cx="103.86" cy="46.19" r="1.19"/><polyline class="cls-37" points="101 39.16 111.8 40.34 113.08 42.05"/><polyline class="cls-38" points="101.34 37.73 112.13 38.91 113.93 41.2"/><polyline class="cls-37" points="134.84 39.16 124.05 40.34 122.76 42.05"/><polyline class="cls-38" points="134.5 37.73 123.71 38.91 121.92 41.2"/><path class="cls-39" d="M117.94,53.33s1.81,5.59,1.81,7.52"/><path class="cls-39" d="M115.36,64.31s2.78,1.6,5.06,0"/><polyline class="cls-39" points="108.62 69.83 110.64 70.84 126.45 70.84 128.35 69.83"/><path class="cls-39" d="M120.42,76.49s-2.78-1.6-5.06,0"/><path class="cls-19" d="M95.54,22.32a20.9,20.9,0,0,1,4.32-7.5,1.27,1.27,0,0,0,0-1.74,1.24,1.24,0,0,0-1.74,0,23.34,23.34,0,0,0-5,8.59,1.23,1.23,0,0,0,2.37.65Z"/><circle class="cls-19" cx="102.17" cy="11.29" r="1.47"/></g></g></svg>