<svg xmlns="http://www.w3.org/2000/svg" viewBox="0 0 121.03 103.97"><defs><style>.cls-1{opacity:0.21;}.cls-2{fill:#a0e2f9;}.cls-3{opacity:0.35;}.cls-4{fill:#d7e9e9;}.cls-5{fill:#37a9d1;}.cls-10,.cls-30,.cls-6{fill:#fff;}.cls-6{opacity:0.45;}.cls-13,.cls-16,.cls-18,.cls-19,.cls-20,.cls-22,.cls-23,.cls-25,.cls-26,.cls-27,.cls-29,.cls-31,.cls-35,.cls-37,.cls-7,.cls-8,.cls-9{fill:none;}.cls-31,.cls-7{stroke:#fff;}.cls-18,.cls-25,.cls-7{stroke-miterlimit:10;}.cls-7{stroke-width:0.9px;}.cls-16,.cls-20,.cls-22,.cls-23,.cls-29,.cls-35,.cls-37,.cls-8,.cls-9{stroke:#1f033c;}.cls-13,.cls-16,.cls-19,.cls-20,.cls-22,.cls-23,.cls-26,.cls-27,.cls-29,.cls-31,.cls-35,.cls-37,.cls-8,.cls-9{stroke-linecap:round;stroke-linejoin:round;}.cls-8{stroke-width:0.65px;}.cls-9{stroke-width:0.64px;}.cls-11,.cls-12{fill:#9fd3d3;}.cls-11{opacity:0.4;}.cls-13{stroke:#232144;stroke-width:0.34px;}.cls-14{fill:#e2c19a;}.cls-15{fill:#fff9de;}.cls-17{fill:#5cdc41;}.cls-18{stroke:#b3ffa1;stroke-width:1px;}.cls-19{stroke:#2f9916;stroke-width:0.52px;}.cls-20{stroke-width:0.66px;}.cls-21{fill:#97cecc;}.cls-22{stroke-width:0.75px;}.cls-23{stroke-width:0.75px;}.cls-24{opacity:0.23;}.cls-25{stroke:#4abad8;}.cls-25,.cls-26{stroke-width:2px;}.cls-26,.cls-27{stroke:#e2c19a;}.cls-28{fill:#1f033c;}.cls-29{stroke-width:0.47px;}.cls-30{opacity:0.51;}.cls-32{fill:#61dafb;}.cls-33{fill:#4abad8;}.cls-34{fill:#b3ffa1;}.cls-35{stroke-width:0.74px;}.cls-36{fill:#ba946a;}.cls-37{stroke-width:0.55px;}</style></defs><g id="Layer_2" data-name="Layer 2"><g id="Layer_1-2" data-name="Layer 1"><g class="cls-1"><path class="cls-2" d="M86.47,5.08A9.89,9.89,0,0,1,99.92,1.25a9.59,9.59,0,0,1,3.2,2.85,11.56,11.56,0,0,1,8,1.24,11.75,11.75,0,0,1-2.5,21.58A11.72,11.72,0,0,1,94.4,19.75a9.69,9.69,0,0,1-4.1-1.21A9.9,9.9,0,0,1,86.47,5.08Z"/></g><g class="cls-3"><rect class="cls-2" x="0.32" y="21.18" width="53.8" height="53.09"/><path class="cls-4" d="M.33,20.7V74.5h53.8V20.7ZM50.76,71.47H4.4V24H50.76Z"/><rect class="cls-4" x="25.97" y="24.01" width="3.12" height="47.34"/><rect class="cls-4" x="26.14" y="25.39" width="3.12" height="46.31" transform="translate(76.25 20.84) rotate(90)"/><rect class="cls-5" x="4.16" y="68.74" width="46.64" height="2.49"/><rect class="cls-5" x="47.89" y="23.92" width="2.45" height="45.06"/><path class="cls-6" d="M6.91,36.44a.78.78,0,0,1-.78-.78V26.54a.78.78,0,0,1,1.56,0v9.12A.78.78,0,0,1,6.91,36.44Z"/><path class="cls-6" d="M6.91,34a.78.78,0,0,1-.78-.78V29.61a.78.78,0,0,1,1.56,0V33.2A.78.78,0,0,1,6.91,34Z"/><line class="cls-7" x1="19.66" y1="23.95" x2="4.52" y2="54.01"/><line class="cls-7" x1="23.36" y1="23.95" x2="4.52" y2="60.72"/><line class="cls-8" x1="29.09" y1="50.4" x2="29.09" y2="70.74"/><polyline class="cls-8" points="25.96 33.72 25.96 24.01 29.09 24.01 29.09 46.52"/><line class="cls-8" x1="25.97" y1="38.12" x2="25.97" y2="36.73"/><line class="cls-8" x1="25.97" y1="46.47" x2="25.97" y2="39.85"/><line class="cls-8" x1="25.97" y1="70.74" x2="25.97" y2="50.66"/><line class="cls-9" x1="17.4" y1="46.99" x2="50.24" y2="46.99"/><polyline class="cls-9" points="19.02 50.11 4.55 50.11 4.55 46.99 15.27 46.99"/><line class="cls-9" x1="50.24" y1="50.11" x2="21.74" y2="50.11"/><rect class="cls-10" x="0.47" y="20.71" width="1.85" height="14.68" rx="0.92"/><rect class="cls-10" x="0.47" y="47.77" width="1.85" height="14.68" rx="0.92"/><rect class="cls-11" x="22.86" y="62.49" width="2.6" height="20.67" rx="1.3" transform="translate(96.99 48.67) rotate(90)"/><rect class="cls-12" x="32.8" y="62.49" width="2.6" height="20.67" rx="1.3" transform="translate(106.93 38.72) rotate(90)"/><line class="cls-8" x1="0.32" y1="65.03" x2="0.32" y2="38.41"/><polyline class="cls-8" points="6.77 74.27 0.32 74.27 0.32 67.97"/><polyline class="cls-8" points="25.21 20.47 54.13 20.47 54.13 31.24"/><line class="cls-8" x1="14.34" y1="20.47" x2="23.01" y2="20.47"/><polyline class="cls-8" points="0.32 36.15 0.32 20.47 11.1 20.47"/><line class="cls-13" x1="10.33" y1="25.68" x2="8.99" y2="28.05"/><line class="cls-13" x1="10.4" y1="27.59" x2="9.36" y2="29.34"/><polyline class="cls-8" points="4.4 36.21 4.4 23.72 50.76 23.72 50.76 71.24 4.4 71.24 4.4 38.46"/><polyline class="cls-8" points="54.13 34.94 54.13 74.27 10.7 74.27"/></g><rect class="cls-14" x="53.38" y="76.78" width="34.19" height="14.6"/><rect class="cls-15" x="47.73" y="73.84" width="34.19" height="14.6"/><rect class="cls-14" x="47.73" y="69.68" width="34.19" height="14.6"/><rect class="cls-16" x="47.73" y="76.78" width="34.19" height="14.6"/><polyline class="cls-16" points="53.38 76.78 87.57 76.78 87.57 91.38 53.38 91.38"/><ellipse class="cls-17" cx="31.49" cy="76.81" rx="8.3" ry="16.09"/><path class="cls-18" d="M39.43,76.81c0,8.5-3.55,15.39-7.94,15.39s-7.95-6.89-7.95-15.39,3.56-15.54,8-15.54S39.43,68.31,39.43,76.81Z"/><path class="cls-19" d="M33.58,61.14a41.72,41.72,0,0,1,3.76,16.37"/><path class="cls-19" d="M30.14,61.14a41.81,41.81,0,0,0-3.75,16.37v2.35"/><line class="cls-19" x1="31.5" y1="79.72" x2="31.5" y2="60.94"/><path class="cls-20" d="M28.83,61.5a4.92,4.92,0,0,1,2.86-1c4.58,0,8.3,7.2,8.3,16.09s-3.72,16.08-8.3,16.08c-3.88,0-7.26-5.1-8.17-12.06a31.23,31.23,0,0,1-.13-4c0-5.94,1.65-11.12,4.12-13.91"/><rect class="cls-4" x="19.23" y="79.65" width="24.79" height="7.44"/><rect class="cls-4" x="21.64" y="87.22" width="20.24" height="15.6"/><rect class="cls-21" x="21.64" y="87.22" width="20.24" height="2.49"/><rect class="cls-22" x="21.64" y="87.22" width="20.24" height="15.6"/><circle class="cls-21" cx="26.42" cy="89.87" r="1.06"/><circle class="cls-21" cx="29.11" cy="90.85" r="0.53"/><circle class="cls-21" cx="27.93" cy="93.08" r="0.7"/><rect class="cls-10" x="22.85" y="79.86" width="1.61" height="7.34"/><rect class="cls-10" x="25.46" y="79.86" width="1.15" height="7.34"/><rect class="cls-20" x="19.23" y="79.65" width="24.79" height="7.44" rx="0.8"/><line class="cls-20" x1="22.6" y1="74.72" x2="23.3" y2="74.72"/><line class="cls-20" x1="22.6" y1="77.24" x2="23.3" y2="77.24"/><line class="cls-20" x1="24.75" y1="66.96" x2="24.16" y2="66.58"/><path class="cls-14" d="M69.57,11.67H97.3a5.57,5.57,0,0,1,5.57,5.57v59.1A5.56,5.56,0,0,1,97.3,81.9H51.14a5.57,5.57,0,0,1-5.57-5.56V36.54"/><path class="cls-16" d="M102.87,66.53v9.81A5.56,5.56,0,0,1,97.3,81.9H51.14a5.57,5.57,0,0,1-5.57-5.56V36.54"/><line class="cls-16" x1="102.87" y1="30.32" x2="102.87" y2="64.02"/><path class="cls-16" d="M69.57,11.67H97.3a5.57,5.57,0,0,1,5.57,5.57v9"/><rect class="cls-15" x="36.66" y="11.53" width="51.86" height="70.23" rx="5.59"/><rect class="cls-2" x="40.81" y="17.57" width="40.52" height="35.07" rx="3.03"/><line class="cls-16" x1="78.1" y1="72.72" x2="88.47" y2="72.72"/><line class="cls-23" x1="93.69" y1="18.99" x2="93.69" y2="24.68"/><line class="cls-23" x1="95.31" y1="17.99" x2="95.31" y2="24.68"/><line class="cls-23" x1="96.93" y1="17.99" x2="96.93" y2="24.68"/><g class="cls-24"><line class="cls-23" x1="94.29" y1="18.99" x2="94.29" y2="24.68"/><line class="cls-23" x1="95.91" y1="17.99" x2="95.91" y2="24.68"/><line class="cls-23" x1="97.53" y1="17.99" x2="97.53" y2="24.68"/></g><line class="cls-23" x1="93.69" y1="66.5" x2="93.69" y2="72.19"/><line class="cls-23" x1="95.31" y1="65.5" x2="95.31" y2="72.19"/><line class="cls-23" x1="96.93" y1="65.5" x2="96.93" y2="72.19"/><g class="cls-24"><line class="cls-23" x1="94.29" y1="66.5" x2="94.29" y2="72.19"/><line class="cls-23" x1="95.91" y1="65.5" x2="95.91" y2="72.19"/><line class="cls-23" x1="97.53" y1="65.5" x2="97.53" y2="72.19"/></g><rect class="cls-25" x="41.84" y="18.53" width="38.85" height="33.99" rx="2.31"/><line class="cls-26" x1="37.38" y1="73.28" x2="66" y2="73.28"/><line class="cls-27" x1="44.7" y1="54.01" x2="77.86" y2="54.01"/><line class="cls-16" x1="50.81" y1="11.67" x2="54.63" y2="11.67"/><rect class="cls-14" x="57.45" y="60.28" width="26.25" height="5.76" rx="2.88"/><line class="cls-23" x1="60.81" y1="63.45" x2="80.14" y2="63.45"/><path class="cls-23" d="M63.12,60.57h17.6a2.88,2.88,0,0,1,2.88,2.88h0a2.88,2.88,0,0,1-2.88,2.88H60.23a2.88,2.88,0,0,1-2.88-2.88h0a2.88,2.88,0,0,1,2.88-2.88"/><rect class="cls-10" x="44.49" y="60.52" width="6.53" height="5.76"/><rect class="cls-23" x="44.49" y="60.58" width="6.53" height="5.76" rx="1.05"/><circle class="cls-28" cx="76.14" cy="77.01" r="1.63"/><circle class="cls-28" cx="81.15" cy="77.01" r="1.63"/><line class="cls-29" x1="45.35" y1="45.48" x2="47.63" y2="42.23"/><line class="cls-29" x1="47.03" y1="45.48" x2="48.23" y2="43.79"/><rect class="cls-30" x="65.21" y="17.95" width="2.3" height="34.84"/><rect class="cls-30" x="62.59" y="17.95" width="1.1" height="34.84"/><rect class="cls-10" x="69.57" y="17.95" width="3.55" height="34.84"/><path class="cls-16" d="M41,39.22V20.41a2.84,2.84,0,0,1,2.85-2.84H56.15"/><line class="cls-31" x1="36.26" y1="38.58" x2="36.26" y2="43.91"/><line class="cls-31" x1="37.14" y1="45.4" x2="37.14" y2="54.81"/><line class="cls-31" x1="38.86" y1="57.74" x2="38.86" y2="67.16"/><line class="cls-31" x1="38.86" y1="41.73" x2="38.86" y2="51.14"/><line class="cls-31" x1="37.14" y1="21.56" x2="37.14" y2="30.97"/><line class="cls-16" x1="36.61" y1="52.58" x2="36.61" y2="36.54"/><path class="cls-16" d="M88.47,57.57V76.34A5.57,5.57,0,0,1,82.9,81.9H42.18a5.56,5.56,0,0,1-5.57-5.56V57.77"/><line class="cls-16" x1="88.47" y1="33.24" x2="88.47" y2="54.01"/><path class="cls-16" d="M60.6,11.67H82.9a5.57,5.57,0,0,1,5.57,5.57v12"/><circle class="cls-10" cx="106.31" cy="46.44" r="14.34"/><path class="cls-32" d="M117.1,46.43c0-1.49-1.65-2.79-4.54-3.6.74-2.9.44-5-.86-5.72s-3.27.06-5.39,2.12c-2.12-2.06-4.12-2.85-5.39-2.12s-1.6,2.82-.86,5.72c-2.89.81-4.53,2.11-4.53,3.6s1.64,2.79,4.53,3.6c-.74,2.9-.44,5,.86,5.72A2.05,2.05,0,0,0,102,56c1.2,0,2.72-.85,4.31-2.39,1.59,1.54,3.11,2.39,4.31,2.39a2.05,2.05,0,0,0,1.08-.28c1.3-.74,1.6-2.82.86-5.72C115.45,49.22,117.1,47.92,117.1,46.43Zm-10.79,5.91c-.46-.5-.89-1-1.3-1.56.44,0,.87,0,1.3,0s.86,0,1.3,0C107.2,51.32,106.77,51.84,106.31,52.34Zm0-11.81a19.38,19.38,0,0,1,1.3,1.55c-.86,0-1.73,0-2.6,0A19.38,19.38,0,0,1,106.31,40.53Zm-2,9.32a25.32,25.32,0,0,1-2-3.42,24.61,24.61,0,0,1,2-3.41,26,26,0,0,1,4,0,26.25,26.25,0,0,1,2,3.41,26.36,26.36,0,0,1-2,3.42A26,26,0,0,1,104.34,49.85Zm-1.84-5.61c-.21.37-.42.75-.62,1.14-.26-.62-.49-1.26-.69-1.9a19,19,0,0,1,2-.35Q102.83,43.69,102.5,44.24Zm-.62,3.24c.2.39.41.77.62,1.15s.45.74.68,1.1a19.63,19.63,0,0,1-2-.34C101.39,48.74,101.62,48.11,101.88,47.48Zm8.86,0c.26.62.49,1.25.7,1.89a19.46,19.46,0,0,1-2,.35C109.91,49,110.34,48.25,110.74,47.49Zm0-2.11c-.4-.77-.83-1.52-1.3-2.25a19.46,19.46,0,0,1,2,.35C111.23,44.12,111,44.76,110.74,45.38Zm.51-7.49c.9.51,1.06,2.3.44,4.72a20.88,20.88,0,0,0-2.91-.45h0a22.49,22.49,0,0,0-1.84-2.29C108.7,38.16,110.37,37.37,111.25,37.89Zm-9.88,0a1.18,1.18,0,0,1,.63-.16c1,0,2.28.78,3.68,2.14a22.49,22.49,0,0,0-1.84,2.29,20.46,20.46,0,0,0-2.91.45C100.32,40.19,100.48,38.4,101.37,37.89Zm-4.94,8.54c0-1,1.47-2.06,3.88-2.74a20.68,20.68,0,0,0,1.06,2.74h0a21.23,21.23,0,0,0-1.06,2.74C97.9,48.49,96.43,47.46,96.43,46.43ZM101.37,55c-.89-.52-1.05-2.31-.44-4.72a23.78,23.78,0,0,0,2.91.45h0A22.37,22.37,0,0,0,105.68,53C103.92,54.7,102.26,55.48,101.37,55Zm9.88,0a1.28,1.28,0,0,1-.63.15h0c-1,0-2.28-.77-3.68-2.14a22.37,22.37,0,0,0,1.84-2.28h0a23.78,23.78,0,0,0,2.91-.45C112.31,52.67,112.15,54.46,111.25,55Zm1.07-5.81a23.62,23.62,0,0,0-1.06-2.74h0a23.87,23.87,0,0,0,1.06-2.74c2.4.68,3.88,1.71,3.88,2.74S114.72,48.49,112.32,49.17Z"/><circle class="cls-32" cx="106.31" cy="46.44" r="1.92"/><path class="cls-23" d="M92.19,48.93A14.59,14.59,0,0,1,92,46.44a14.33,14.33,0,1,1,10.26,13.75"/><path class="cls-23" d="M93.25,52.36c-.14-.29-.26-.59-.37-.89"/><path class="cls-23" d="M99.37,59a14.4,14.4,0,0,1-4.88-4.43"/><polygon class="cls-15" points="96.32 87.28 85.57 98.04 85.57 103.47 19.76 103.47 19.76 98.04 35.96 87.28 96.32 87.28"/><line class="cls-15" x1="20.24" y1="98.29" x2="85.35" y2="98.29"/><polygon class="cls-14" points="85.57 103.47 96.58 103.47 104.49 103.33 104.63 95.89 104.63 94.21 104.63 87.3 96.58 87.28 85.67 97.91 85.57 103.47"/><line class="cls-23" x1="20.19" y1="100.85" x2="29.66" y2="100.85"/><line class="cls-23" x1="94.63" y1="100.85" x2="104.11" y2="100.85"/><polyline class="cls-31" points="58.81 88.37 36.53 88.37 28.46 93.88"/><line class="cls-16" x1="20.24" y1="98.29" x2="85.35" y2="98.29"/><polygon class="cls-16" points="96.32 87.28 85.57 98.04 85.57 103.47 19.76 103.47 19.76 98.04 35.96 87.28 96.32 87.28"/><polyline class="cls-16" points="85.57 103.47 104.75 103.47 104.75 87.25 98.63 87.25"/><path class="cls-16" d="M61,17.57H78.69a2.85,2.85,0,0,1,2.85,2.84V50.35a2.85,2.85,0,0,1-2.85,2.84H43.87A2.84,2.84,0,0,1,41,50.35V42.67"/><path class="cls-16" d="M36.61,31V17.24a5.57,5.57,0,0,1,5.57-5.57h3.71"/><rect class="cls-33" x="47.33" y="50.78" width="3.95" height="1.45" rx="0.72"/><rect class="cls-33" x="55.8" y="50.78" width="3.95" height="1.45" rx="0.72"/><rect class="cls-33" x="46.61" y="18.97" width="3.95" height="1.45" rx="0.72"/><rect class="cls-14" x="58.04" y="83.55" width="3.95" height="1.45" rx="0.72"/><rect class="cls-14" x="47.33" y="73.55" width="3.95" height="1.45" rx="0.72"/><rect class="cls-14" x="52.79" y="73.55" width="3.95" height="1.45" rx="0.72"/><circle class="cls-14" cx="84.76" cy="33.86" r="0.82"/><circle class="cls-14" cx="84.76" cy="36.28" r="0.82"/><circle class="cls-14" cx="84.76" cy="38.7" r="0.82"/><circle class="cls-33" cx="44.49" cy="33.73" r="0.82"/><circle class="cls-33" cx="44.49" cy="36.15" r="0.82"/><circle class="cls-33" cx="44.49" cy="38.57" r="0.82"/><line class="cls-31" x1="42.97" y1="14.75" x2="49.98" y2="14.75"/><line class="cls-31" x1="52.17" y1="14.75" x2="54.21" y2="14.75"/><line class="cls-16" x1="37.14" y1="72.72" x2="70.56" y2="72.72"/><ellipse class="cls-34" cx="25.77" cy="68.74" rx="1.55" ry="0.84" transform="translate(-47.58 71.83) rotate(-71.86)"/><ellipse class="cls-34" cx="24.6" cy="76.81" rx="0.73" ry="1.34"/><ellipse class="cls-34" cx="24.75" cy="72.53" rx="1.1" ry="0.6" transform="translate(-48.6 94.7) rotate(-87.98)"/><rect class="cls-28" x="46.08" y="93.58" width="2.26" height="2.45"/><rect class="cls-35" x="46.08" y="93.58" width="2.26" height="2.45"/><rect class="cls-14" x="44.94" y="93.58" width="2.63" height="2.45"/><rect class="cls-35" x="44.94" y="93.58" width="2.63" height="2.45"/><rect class="cls-28" x="52.27" y="93.58" width="2.26" height="2.45"/><rect class="cls-35" x="52.27" y="93.58" width="2.26" height="2.45"/><rect class="cls-14" x="51.14" y="93.58" width="2.63" height="2.45"/><rect class="cls-35" x="51.14" y="93.58" width="2.63" height="2.45"/><rect class="cls-28" x="58.47" y="93.58" width="2.26" height="2.45"/><rect class="cls-35" x="58.47" y="93.58" width="2.26" height="2.45"/><rect class="cls-14" x="57.34" y="93.58" width="2.63" height="2.45"/><rect class="cls-23" x="57.34" y="93.58" width="2.63" height="2.45"/><rect class="cls-28" x="64.67" y="93.58" width="2.26" height="2.45"/><rect class="cls-35" x="64.67" y="93.58" width="2.26" height="2.45"/><rect class="cls-14" x="63.53" y="93.58" width="2.63" height="2.45"/><rect class="cls-35" x="63.53" y="93.58" width="2.63" height="2.45"/><rect class="cls-28" x="83.26" y="93.58" width="2.26" height="2.45"/><rect class="cls-35" x="83.26" y="93.58" width="2.26" height="2.45"/><rect class="cls-14" x="82.12" y="93.58" width="2.63" height="2.45"/><rect class="cls-35" x="82.12" y="93.58" width="2.63" height="2.45"/><rect class="cls-28" x="70.86" y="93.58" width="2.26" height="2.45"/><rect class="cls-35" x="70.86" y="93.58" width="2.26" height="2.45"/><rect class="cls-14" x="69.73" y="93.58" width="2.63" height="2.45"/><rect class="cls-35" x="69.73" y="93.58" width="2.63" height="2.45"/><rect class="cls-28" x="77.06" y="93.58" width="2.26" height="2.45"/><rect class="cls-35" x="77.06" y="93.58" width="2.26" height="2.45"/><rect class="cls-14" x="75.93" y="93.58" width="2.63" height="2.45"/><rect class="cls-35" x="75.93" y="93.58" width="2.63" height="2.45"/><rect class="cls-28" x="49.9" y="89.76" width="2.26" height="2.45"/><rect class="cls-35" x="49.9" y="89.76" width="2.26" height="2.45"/><rect class="cls-14" x="48.76" y="89.76" width="2.63" height="2.45"/><rect class="cls-35" x="48.76" y="89.76" width="2.63" height="2.45"/><rect class="cls-28" x="56.09" y="89.76" width="2.26" height="2.45"/><rect class="cls-35" x="56.09" y="89.76" width="2.26" height="2.45"/><rect class="cls-14" x="54.96" y="89.76" width="2.63" height="2.45"/><rect class="cls-35" x="54.96" y="89.76" width="2.63" height="2.45"/><rect class="cls-28" x="62.29" y="89.76" width="2.26" height="2.45"/><rect class="cls-35" x="62.29" y="89.76" width="2.26" height="2.45"/><rect class="cls-14" x="61.16" y="89.76" width="2.63" height="2.45"/><rect class="cls-35" x="61.16" y="89.76" width="2.63" height="2.45"/><rect class="cls-28" x="68.49" y="89.76" width="2.26" height="2.45"/><rect class="cls-35" x="68.49" y="89.76" width="2.26" height="2.45"/><rect class="cls-14" x="67.35" y="89.76" width="2.63" height="2.45"/><rect class="cls-35" x="67.35" y="89.76" width="2.63" height="2.45"/><rect class="cls-28" x="87.08" y="89.76" width="2.26" height="2.45"/><rect class="cls-35" x="87.08" y="89.76" width="2.26" height="2.45"/><rect class="cls-14" x="85.94" y="89.76" width="2.63" height="2.45"/><rect class="cls-35" x="85.94" y="89.76" width="2.63" height="2.45"/><rect class="cls-28" x="74.68" y="89.76" width="2.26" height="2.45"/><rect class="cls-35" x="74.68" y="89.76" width="2.26" height="2.45"/><rect class="cls-14" x="73.55" y="89.76" width="2.63" height="2.45"/><rect class="cls-35" x="73.55" y="89.76" width="2.63" height="2.45"/><rect class="cls-28" x="80.88" y="89.76" width="2.26" height="2.45"/><rect class="cls-35" x="80.88" y="89.76" width="2.26" height="2.45"/><rect class="cls-14" x="79.75" y="89.76" width="2.63" height="2.45"/><rect class="cls-35" x="79.75" y="89.76" width="2.63" height="2.45"/><rect class="cls-28" x="39.74" y="93.58" width="2.26" height="2.45"/><rect class="cls-35" x="39.74" y="93.58" width="2.26" height="2.45"/><rect class="cls-14" x="38.61" y="93.58" width="2.63" height="2.45"/><rect class="cls-35" x="38.61" y="93.58" width="2.63" height="2.45"/><rect class="cls-28" x="27.35" y="93.58" width="2.26" height="2.45"/><rect class="cls-35" x="27.35" y="93.58" width="2.26" height="2.45"/><rect class="cls-14" x="26.21" y="93.58" width="2.63" height="2.45"/><rect class="cls-35" x="26.21" y="93.58" width="2.63" height="2.45"/><rect class="cls-28" x="33.54" y="93.58" width="2.26" height="2.45"/><rect class="cls-35" x="33.54" y="93.58" width="2.26" height="2.45"/><rect class="cls-14" x="32.41" y="93.58" width="2.63" height="2.45"/><rect class="cls-35" x="32.41" y="93.58" width="2.63" height="2.45"/><rect class="cls-28" x="43.56" y="89.76" width="2.26" height="2.45"/><rect class="cls-35" x="43.56" y="89.76" width="2.26" height="2.45"/><rect class="cls-14" x="42.43" y="89.76" width="2.63" height="2.45"/><rect class="cls-35" x="42.43" y="89.76" width="2.63" height="2.45"/><rect class="cls-28" x="31.17" y="89.76" width="2.26" height="2.45"/><rect class="cls-35" x="31.17" y="89.76" width="2.26" height="2.45"/><rect class="cls-14" x="30.03" y="89.76" width="2.63" height="2.45"/><rect class="cls-35" x="30.03" y="89.76" width="2.63" height="2.45"/><rect class="cls-28" x="37.37" y="89.76" width="2.26" height="2.45"/><rect class="cls-35" x="37.37" y="89.76" width="2.26" height="2.45"/><rect class="cls-14" x="36.23" y="89.76" width="2.63" height="2.45"/><rect class="cls-35" x="36.23" y="89.76" width="2.63" height="2.45"/><ellipse class="cls-36" cx="101.21" cy="91.76" rx="1.14" ry="1.45"/><ellipse class="cls-37" cx="101.21" cy="91.76" rx="1.14" ry="1.45"/><ellipse class="cls-36" cx="99.37" cy="77.51" rx="1.14" ry="1.45"/><ellipse class="cls-37" cx="99.37" cy="77.51" rx="1.14" ry="1.45"/><path class="cls-23" d="M101.21,91.76h6.86a7.13,7.13,0,0,0,7.13-7.12h0a7.13,7.13,0,0,0-7.13-7.13h-8.7"/></g></g></svg>