<svg xmlns="http://www.w3.org/2000/svg" viewBox="0 0 366.86 460.57"><defs><style>.cls-1,.cls-4,.cls-57{opacity:0.3;}.cls-2,.cls-4{fill:#77b7b6;}.cls-12,.cls-13,.cls-15,.cls-17,.cls-18,.cls-22,.cls-23,.cls-25,.cls-28,.cls-29,.cls-3,.cls-30,.cls-33,.cls-34,.cls-37,.cls-38,.cls-40,.cls-43,.cls-44,.cls-45,.cls-46,.cls-47,.cls-48,.cls-51,.cls-52,.cls-57,.cls-9{fill:none;}.cls-12,.cls-13,.cls-28,.cls-29,.cls-3,.cls-30,.cls-34,.cls-38,.cls-40,.cls-45{stroke:#232144;}.cls-12,.cls-13,.cls-15,.cls-17,.cls-18,.cls-22,.cls-23,.cls-25,.cls-28,.cls-29,.cls-3,.cls-30,.cls-33,.cls-38,.cls-40,.cls-43,.cls-44,.cls-45,.cls-46,.cls-48,.cls-51,.cls-52,.cls-57,.cls-9{stroke-linecap:round;stroke-linejoin:round;}.cls-5{fill:#fff;}.cls-6{fill:#7f1212;}.cls-7{fill:#2e4c64;}.cls-8{fill:#1e3c51;}.cls-9{stroke:#1e3c51;}.cls-51,.cls-52,.cls-57,.cls-9{stroke-width:2px;}.cls-10,.cls-32,.cls-56{fill:#e0f3fc;}.cls-10,.cls-31{opacity:0.58;}.cls-11{fill:#effdfd;}.cls-12{opacity:0.34;}.cls-13{opacity:0.54;}.cls-14{fill:#ffb999;}.cls-15,.cls-48{stroke:#f57a59;}.cls-15,.cls-17,.cls-18,.cls-23,.cls-33,.cls-44,.cls-47{stroke-width:3px;}.cls-16{fill:#fe4a65;}.cls-17{stroke:#ff859c;}.cls-18{stroke:#fce6ed;}.cls-19{fill:#f57a59;}.cls-20{fill:#84ecff;}.cls-21{fill:#29afd3;opacity:0.5;}.cls-22{stroke:#29afd3;}.cls-22,.cls-43{stroke-width:4px;}.cls-23{stroke:#ea1859;}.cls-24{fill:#ea1859;}.cls-25,.cls-33,.cls-37,.cls-46,.cls-47,.cls-52{stroke:#fff;}.cls-25{stroke-width:5px;}.cls-26{fill:#c64f4f;}.cls-27{fill:#a02727;}.cls-28{stroke-width:1.02px;}.cls-29{stroke-width:0.89px;}.cls-30{stroke-width:0.75px;}.cls-34,.cls-37,.cls-47{stroke-miterlimit:10;}.cls-35{fill:#29fc97;}.cls-36{fill:#9cf7c9;}.cls-37{stroke-width:3.77px;}.cls-38{stroke-width:1.26px;}.cls-39{fill:#232144;}.cls-40{stroke-width:0.71px;}.cls-41{fill:#ea6e6e;}.cls-42{fill:#f99;}.cls-43{stroke:#acd9ea;}.cls-44{stroke:#b20040;}.cls-45{stroke-width:1.05px;}.cls-49{fill:#ffa744;}.cls-50{fill:#f97c00;}.cls-51{stroke:#ffdab6;}.cls-53{fill:#9671c3;}.cls-54{fill:#ebdeff;}.cls-55{fill:#c6a2f9;}.cls-56{opacity:0.51;}.cls-57{stroke:#77b7b6;}</style></defs><g id="Layer_2" data-name="Layer 2"><g id="Layer_1-2" data-name="Layer 1"><g class="cls-1"><path class="cls-2" d="M97.93,441.7c18.35-2.32,35.38-8.65,54-10.67,22.78-2.46,41.29,11.32,60.94,16.57-2.88,4-22,7-29.06,8.43-10.73,2.15-23.09,4.29-34.68,4.53-17.39.36-29.14-7.09-42.45-12.93l1.88.91"/></g><circle class="cls-3" cx="24.94" cy="104.1" r="5.11"/><path class="cls-4" d="M56.86,76.52,96.51,96.21,111.3,66.66,70.22,47.24S65.2,66.93,56.86,76.52Z"/><polygon class="cls-5" points="74.56 54.91 71.13 62.7 80.09 66.96 84.61 59.27 74.56 54.91"/><path class="cls-6" d="M115.93,120c-2.73-2.73,2.16,7.57,5.31,9.79a14.38,14.38,0,0,0,11,2.19V119.55S116.09,120.15,115.93,120Z"/><path class="cls-3" d="M115.93,120a12.49,12.49,0,0,0,5.31,9.79,14.38,14.38,0,0,0,11,2.19"/><path class="cls-7" d="M179.78,432.29l.37,14.25a5.2,5.2,0,0,0,1.48,4.35h0a5.39,5.39,0,0,0,2,1.26c8.85,3,14.44,5.11,23.73,6.18l3.12.36,3,.17,3.2-.24a45.76,45.76,0,0,0,13.37-3.74h0a7.43,7.43,0,0,0-1.67-8.55,73.55,73.55,0,0,0-29.57-16.68l-4.41-6.85c2.66,1.29,4.41,3.48,4.41,6,0,4-4.45,7.17-9.94,7.17s-9.95-3.21-9.95-7.17a6.53,6.53,0,0,1,3.4-5.39"/><path class="cls-8" d="M230.62,451.89a7.47,7.47,0,0,1-.68,3.12,46.23,46.23,0,0,1-13.38,3.74l-3.2.24-3-.17-3.11-.36c-9.3-1.08-14.88-3.15-23.73-6.19a5.26,5.26,0,0,1-3.49-5.6l-.11-4.41c5,4.54,14.31,7.87,25.05,8.46,9.29.51,17.71-1.16,23.38-4.19A7.41,7.41,0,0,1,230.62,451.89Z"/><path class="cls-7" d="M118.45,421.88c-2.66,1.17-4.41,3.15-4.41,5.39,0,3.58,4.45,6.49,9.94,6.49s10-2.91,10-6.49c0-1.94-1.31-3.69-3.39-4.87l3.19,6.54L135,443.29a10.75,10.75,0,0,1-1.09,5.74l-.19.37a113.19,113.19,0,0,1-24.7,5.73l-8.1.25a39.9,39.9,0,0,1-11.63-3.25h0a6.47,6.47,0,0,1,1.46-7.43,63.88,63.88,0,0,1,24.62-14.18Z"/><path class="cls-9" d="M119.15,433.92a16.63,16.63,0,0,0,9.6,0"/><path class="cls-8" d="M134.3,448.52l-.49,1a111.54,111.54,0,0,1-24.49,5.81l-3.39.44-5-.12a39.57,39.57,0,0,1-11.5-3.4,6.55,6.55,0,0,1-.6-2.72,6.43,6.43,0,0,1,2-4.72l.21-.19c6.86,3.63,17,5.23,28,3.82A57.34,57.34,0,0,0,135.15,444h0A8.36,8.36,0,0,1,134.3,448.52Z"/><rect class="cls-10" x="209.3" y="226.98" width="85.87" height="63.94" rx="4.12"/><path class="cls-11" d="M241.75,227.24l-25.08,63.68,23.1.16,20.92-63.77,0,0S242.36,227,241.75,227.24Z"/><path class="cls-5" d="M264.19,227.24l-21.52,63.68h5.69l21.43-63.77H268A19,19,0,0,0,264.19,227.24Z"/><polygon class="cls-5" points="241.89 253.59 233.02 258.71 224.15 263.83 224.15 253.59 224.15 243.34 233.02 248.47 241.89 253.59"/><circle class="cls-12" cx="266.23" cy="92.69" r="7.22"/><circle class="cls-13" cx="266.23" cy="92.69" r="10.28"/><rect class="cls-5" x="258.51" y="65.78" width="33.14" height="28.96" rx="2.05" transform="translate(-11.47 78.75) rotate(-15.96)"/><path class="cls-14" d="M46.5,151.41c-1.86-5-6.67-10.21-6.67-10.21l1.66,2,1.68-17.44L28,104.62l-1.05-1.17c-1-1.17-1.39-.79-1.39-.79L24.1,103c-1.25.92-.84,2.85-.84,2.85l.89,2.17,7.32,15L28.7,122a6.9,6.9,0,0,0-4.6,5.11v7.53S35,143.33,35.42,153l7,3Z"/><path class="cls-15" d="M36.42,152.06c-.5-10.38-10.81-17.39-10.81-17.39l-.09-7.53a5.22,5.22,0,0,1,3.1-4"/><path class="cls-16" d="M252.35,140.76c-5.66,14.69-32.51,42.92-32.51,42.92l.39.27c-23.1-15.73-53.11-26.42-61.29-29.18a13.32,13.32,0,0,0-4.3-.71H140.08l-14.86,5.33L106,175.27,86.89,188,47.22,150.5c-6,5-14.73,1.32-15.06,1.19L72.5,210.76h6a59.16,59.16,0,0,0,29.95-8.14l2.36-1.4V196l3,40.17,5.35-5-9.7,9.71v10.47l4.85,4.42L108,261.32,109.82,273l2,.81a96.65,96.65,0,0,0,74-.81l5.19-9.71-.89-4.64-3.12,1.8-.18-.41L185.64,255l-3.9-3.58-.61-.88-1.73-28.27a4.07,4.07,0,0,1,.26-1.43l4.14-11.3a4.11,4.11,0,0,0,.26-1.43V195.49L228.8,207a6,6,0,0,0,6.78-3l29.57-56.69C258.37,147,252.35,140.76,252.35,140.76Z"/><polyline class="cls-17" points="100.13 180.87 106.53 176.85 119.84 165.68"/><path class="cls-14" d="M254.14,142.64v-29l9.73-22L265,90.36s2.29-1.89,3.62,0a5.17,5.17,0,0,1,.46,4.33l-.81,1.57-7.46,16.4,1.37-2.85h6.44l2.09,1.68,4.35,6.36-1,8.37-6,8.53-5.85,12.36"/><line class="cls-18" x1="255.29" y1="117.22" x2="255.29" y2="130.02"/><polyline class="cls-15" points="261.69 144.79 266.72 134.25 272.74 125.88"/><path class="cls-14" d="M147.27,161.13h0c-3.83,0-7.8-3.26-6.94-6.94V135.63h13.89l.18,18.75C154.4,159.66,154.22,161.13,147.27,161.13Z"/><path class="cls-19" d="M139.93,149a14,14,0,0,0,14.43,0v-9.1H140S139.61,149,139.93,149Z"/><path class="cls-7" d="M183.61,438.82l-4.52-9.17,2.14-3.64,3-6,6.78-.63,5.9,6.53,5.9,9.54s-5.65,4.64-6.28,4.77"/><path class="cls-7" d="M118.45,421.88c-2.66,1.17-4.41,3.15-4.41,5.39,0,3.58,4.45,6.49,9.94,6.49s10-2.91,10-6.49c0-1.94-2.26-4.71-5.18-5.84l-8-.31Z"/><path class="cls-14" d="M181.41,418.41l2.65,9.62a2.83,2.83,0,0,0,2.41,2.07,8.92,8.92,0,0,0,6.84-1.86,2.85,2.85,0,0,0,.92-2.51l-1.18-8.6"/><path class="cls-19" d="M179.66,410.63l2.64,9.61a2.83,2.83,0,0,0,2.41,2.08,8.92,8.92,0,0,0,6.84-1.86,2.8,2.8,0,0,0,.92-2.51l-1.18-8.61"/><path class="cls-14" d="M120.75,419v7.61s4,2.84,8.05,0v-8.09"/><path class="cls-19" d="M120.75,413.93v7.6s4,2.85,8.05,0v-8.08"/><line class="cls-17" x1="52.55" y1="157.77" x2="80.67" y2="184.88"/><path class="cls-20" d="M198.59,414.42c-13.05,8.29-20.84,2.51-20.84,2.51l-3.51-25.11-10.3-39.14-13.3-44.19L134.06,417.07c-17.32,6.28-22.59-3.38-22.59-3.38l1.26-139.09c22.87,8.45,50,8.56,72.5-.84Z"/><path class="cls-21" d="M133,281.38c-3.32,31-3.95,97.78-7.36,137.81-10.88.25-14.15-5.5-14.15-5.5l1.31-139.39C122.76,278,122.52,281.09,133,281.38Z"/><line class="cls-22" x1="148.05" y1="313.82" x2="144.03" y2="341.3"/><line class="cls-22" x1="165.79" y1="355.36" x2="174.16" y2="386.39"/><line class="cls-22" x1="139.63" y1="367.66" x2="135.62" y2="395.13"/><path class="cls-22" d="M118.4,278c8.56,2.93,36.6,10.58,66.59-2.43"/><path class="cls-22" d="M127.38,283.66a100.6,100.6,0,0,0,11.81,1.9"/><line class="cls-23" x1="38.24" y1="158.52" x2="69.71" y2="204.55"/><polyline class="cls-17" points="226.46 178.94 238.09 165.3 242.86 159.27"/><path class="cls-17" d="M167.29,159.65s27.49,9.79,44.32,20.71"/><path class="cls-18" d="M179.21,164.27c3.12,1.28,6.64,2.78,10.32,4.44"/><line class="cls-23" x1="185.12" y1="194.8" x2="227.99" y2="205.66"/><line class="cls-23" x1="255.67" y1="163.04" x2="235.58" y2="200.7"/><path class="cls-24" d="M109.61,199.09A63.58,63.58,0,0,1,93.53,206c-5.47,1.51-11.51,2.63-17.21,2.11-1.92-.17-1.91,2.83,0,3,5.93.54,12.31-.64,18-2.21a67.32,67.32,0,0,0,16.8-7.26,1.5,1.5,0,0,0-1.52-2.59Z"/><path class="cls-24" d="M109.86,196.83A63.39,63.39,0,0,1,84,205.67c-1.9.21-1.92,3.21,0,3a67,67,0,0,0,27.43-9.25,1.5,1.5,0,0,0-1.52-2.59Z"/><path class="cls-24" d="M110.25,193.49a64.22,64.22,0,0,1-18.68,8.13c-1.87.48-1.08,3.37.8,2.89a66.88,66.88,0,0,0,19.4-8.43c1.62-1,.11-3.63-1.52-2.59Z"/><path class="cls-24" d="M110.59,190.64a64.19,64.19,0,0,1-18.69,8.14c-1.86.47-1.07,3.37.8,2.89a66.91,66.91,0,0,0,19.4-8.44c1.62-1,.12-3.63-1.51-2.59Z"/><line class="cls-25" x1="187.34" y1="317.91" x2="189.53" y2="341.65"/><line class="cls-25" x1="191.86" y1="366.22" x2="194.05" y2="389.96"/><path class="cls-24" d="M180.18,235.26l1,15.55.61.88,3.9,3.58,1.17,5.12.18.41,3.12-1.79.89,4.63-5.19,9.71a96.65,96.65,0,0,1-74,.81l-2-.81-1.79-11.71,6.31-5.53-4.85-4.43-.09-10.55,4.4-4.4s-1.13-16.2-1.51-22.85C128,228.44,180.18,235.26,180.18,235.26Z"/><path class="cls-26" d="M122,104.54a50.43,50.43,0,0,1,2.18,6.45c.69,2.64,1,5.93-1.15,7.65a1.9,1.9,0,0,1-1,.46c-.37,0-1.56.83-1.9.67-2.55-1.26-2.32-5.49-4.11-7.7-.73-.9-1.67-1.62-2.36-2.55-.89-1.2-1-2.53-1.34-4-1.44-5.71-2.39-12-.63-17.58s6.29-10.63,12.09-11.7a5.5,5.5,0,0,0,1.43-.38c1.21-.6,1.72-1.85,2.24-3.1,1.09-2.63,5.08-5.63,7.88-6.17s2.51-.29,5.36-.26c1.9,0,5.62,1.59,6.86,3.12.92,1.14-1.23-.36.22-.36,9.68,0,15.66,5.26,18.13,11a10.75,10.75,0,0,1,1,4.59,26.75,26.75,0,0,1-1,7.29c.72,1.89,1.25,3.66,2,5.75a5.73,5.73,0,0,1-1.58,5.9c-.8.85-.83,1.69-1.94,2-13.68,4.49-28.92,4.92-41.11,12.58"/><path class="cls-27" d="M139.13,111.17a56.28,56.28,0,0,0-15.5,6.28c-.15.18,0,.66-.19.82a9,9,0,0,1-2,1.29c-.37,0-.88-.32-1.22-.48-2.55-1.26-2.33-5.49-4.12-7.7-.73-.9-4.13,1.12-4.83.19-.88-1.19-1-3.59-.94-5.08.19-7-.32-13.6,1.45-19.22a16,16,0,0,1,11.92-10.79c1.48,1.18,2.5,1.73,3.35,3.43,2.25,4.51,1,9.9,1.51,14.93A22,22,0,0,0,139.13,111.17Z"/><path class="cls-14" d="M164.69,102.22a5.79,5.79,0,0,1,2.11,11.37"/><ellipse class="cls-14" cx="115.28" cy="115.65" rx="5.82" ry="6.66"/><ellipse class="cls-19" cx="116.6" cy="115.46" rx="4.52" ry="5.17"/><path class="cls-14" d="M163.5,97.85l3.16,15.54a39.32,39.32,0,0,1,.46,13.68c-1.59,10.35-7,17.31-17,19.33h0c-5.69,1.16-11.32-.51-16.09-3.54a30.38,30.38,0,0,1-13.25-19.69l-.69-3.4a4.75,4.75,0,0,0,4.66-4.77c.17-4.68-3.22-10.54-3.22-10.54l1.45,2.59,4.9-1.33,2.92-2.56,2-2.89L136.5,102l5.15-.32,3.75-2.43,3.06,3.22,5,1.17L158,102Z"/><path class="cls-19" d="M159.92,142.11a20.78,20.78,0,0,1-9.53,4.45,18.6,18.6,0,0,1-3.68.37A23.38,23.38,0,0,1,134.3,143a30.42,30.42,0,0,1-13.25-19.68l-.69-3.41s3.88-.07,4.56-3.84c3,13.81,6.84,19.14,12.24,23.1,5.65,4.14,11.75,4.07,16.15,4.07a18.55,18.55,0,0,0,3.69-.37A21.12,21.12,0,0,0,159.92,142.11Z"/><path class="cls-3" d="M155.66,103.2A18.53,18.53,0,0,0,167,85.71"/><path class="cls-3" d="M110.61,94.56c-1.06,7.85-.5,13.24.44,16.38"/><ellipse class="cls-28" cx="115.28" cy="115.65" rx="5.82" ry="6.66"/><path class="cls-28" d="M114.57,112.14s-2.85,2.35-.63,6.61"/><path class="cls-28" d="M113.12,115.15a3.5,3.5,0,0,1,3,1.63"/><path class="cls-29" d="M168.16,108.35a3.07,3.07,0,0,0-1.63-2.53"/><path class="cls-3" d="M164.69,102.22a5.79,5.79,0,0,1,2.11,11.37"/><path class="cls-3" d="M165.75,92.79a10.08,10.08,0,0,1,1.77,9.71"/><line class="cls-3" x1="140.14" y1="156.24" x2="140.14" y2="145.74"/><path class="cls-3" d="M154,158.76c-2.51,3.91-9.71,3.44-13-.89"/><line class="cls-3" x1="154.4" y1="145.74" x2="154.4" y2="156.24"/><path class="cls-3" d="M154.4,154.38h.3a13.42,13.42,0,0,1,4.31.7c8.75,2.95,42.5,15,66,32.56"/><path class="cls-3" d="M219.9,184s26.86-28.24,32.5-42.93c0,0,6,6.28,12.81,6.53l-29.57,56.68a6,6,0,0,1-6.78,3l-44.75-11.5"/><path class="cls-3" d="M184.11,189.4v19a4.1,4.1,0,0,1-.25,1.43l-4.14,11.3a4.35,4.35,0,0,0-.25,1.43l1.78,29.14"/><polyline class="cls-3" points="98.51 180.62 106.08 175.58 125.28 159.7 140.14 154.38"/><path class="cls-3" d="M110.89,201.54l-2.38,1.39a59.11,59.11,0,0,1-29.94,8.15h-6L32.22,152s9,3.94,15.06-1.17L87,188.31l9.12-6.07"/><line class="cls-3" x1="187.92" y1="303.77" x2="185.37" y2="276.52"/><line class="cls-3" x1="192.32" y1="350.83" x2="188.35" y2="308.43"/><path class="cls-3" d="M143.05,357.85l7.42-49.44,13.31,44.19,10.29,39.14,3.52,25.11s7.78,5.77,20.84-2.51l-5.67-58.82"/><path class="cls-3" d="M112.53,361.5l-1.23,52.11s5.28,9.65,22.6,3.37l8.38-54"/><line class="cls-3" x1="112.79" y1="349.84" x2="112.61" y2="357.99"/><line class="cls-3" x1="112.71" y1="275.15" x2="112.9" y2="345.19"/><polyline class="cls-3" points="142.19 278.2 142.19 295.27 153.07 303.81"/><line class="cls-3" x1="146.54" y1="285.9" x2="146.54" y2="287.81"/><line class="cls-3" x1="146.54" y1="291" x2="146.54" y2="292.92"/><path class="cls-3" d="M175.69,285.9S174.16,298,189.55,298"/><path class="cls-3" d="M123.63,285.9S125.17,298,109.77,298"/><path class="cls-3" d="M181.41,418.41l2.65,9.62a2.83,2.83,0,0,0,2.41,2.07,8.92,8.92,0,0,0,6.84-1.86,2.85,2.85,0,0,0,.92-2.51l-1.18-8.6"/><path class="cls-3" d="M120.75,419v7.61s4,2.84,8.05,0v-8.09"/><path class="cls-3" d="M138,155.54c0,4.59,4.48,8.32,10,8.32s10-3.73,10-8.32v-.45"/><polyline class="cls-3" points="262.2 147.11 268.06 134.75 274.08 126.22 275.08 117.85 270.73 111.49 268.64 109.81 262.2 109.81"/><polyline class="cls-3" points="254.14 142.64 254.14 113.59 263.87 91.57"/><line class="cls-3" x1="268.29" y1="96.26" x2="260.83" y2="112.66"/><path class="cls-3" d="M265,90.36s2.29-1.89,3.62,0a5.17,5.17,0,0,1,.46,4.33"/><line class="cls-3" x1="224.15" y1="267.15" x2="245.78" y2="267.15"/><line class="cls-3" x1="224.15" y1="270.16" x2="237.58" y2="270.16"/><line class="cls-3" x1="224.15" y1="273.17" x2="237.58" y2="273.17"/><polygon class="cls-3" points="241.89 253.59 233.02 258.71 224.15 263.83 224.15 253.59 224.15 243.34 233.02 248.47 241.89 253.59"/><circle class="cls-30" cx="215.54" cy="230.64" r="1.3"/><circle class="cls-30" cx="220.69" cy="230.64" r="1.3"/><circle class="cls-30" cx="225.96" cy="230.64" r="1.3"/><path class="cls-3" d="M118.45,421.88c-2.66,1.17-4.41,3.15-4.41,5.39,0,3.58,4.45,6.49,9.94,6.49s10-2.91,10-6.49c0-1.94-1.31-3.69-3.39-4.87"/><path class="cls-3" d="M100.93,455.38a39.9,39.9,0,0,1-11.63-3.25h0a6.47,6.47,0,0,1,1.45-7.43,64,64,0,0,1,24.63-14.18"/><path class="cls-3" d="M133.73,428.94,135,442.87a12.19,12.19,0,0,1-1.24,6.53h0a113.19,113.19,0,0,1-24.7,5.73"/><g class="cls-31"><circle class="cls-32" cx="62.1" cy="300.12" r="17.08"/><path class="cls-32" d="M61.09,307.37a2.29,2.29,0,0,1-1.13-.31l-8.53-5a2.22,2.22,0,1,1,2.25-3.83l6.57,3.87,5.68-10.23A2.22,2.22,0,1,1,69.81,294L63,306.22a2.27,2.27,0,0,1-1.36,1.07A2.39,2.39,0,0,1,61.09,307.37Z"/></g><path class="cls-20" d="M61.81,308.34a2.13,2.13,0,0,1-1.12-.31l-8.54-5a2.22,2.22,0,1,1,2.25-3.83L61,303l5.67-10.23A2.22,2.22,0,0,1,70.54,295l-6.78,12.22a2.21,2.21,0,0,1-1.36,1.07A2.33,2.33,0,0,1,61.81,308.34Z"/><path class="cls-33" d="M47.16,294.72s4.2-11,15.94-10.54"/><circle class="cls-3" cx="62.1" cy="300.12" r="17.08"/><path class="cls-34" d="M62,308.26a2.29,2.29,0,0,1-1.13-.31l-8.53-5a2.22,2.22,0,0,1,2.25-3.83L61.14,303l5.67-10.23a2.22,2.22,0,1,1,3.89,2.16l-6.78,12.22a2.25,2.25,0,0,1-1.35,1.07A2.39,2.39,0,0,1,62,308.26Z"/><circle class="cls-35" cx="201.44" cy="91.48" r="17.08"/><path class="cls-36" d="M218.51,92a17,17,0,0,1-8.63,14.85,17.07,17.07,0,0,0-22.4-24.67,17.07,17.07,0,0,1,31,9.82Z"/><path class="cls-35" d="M200.43,98.73a2.13,2.13,0,0,1-1.12-.31l-8.54-5A2.22,2.22,0,1,1,193,89.57l6.57,3.86,5.67-10.23a2.22,2.22,0,0,1,3.89,2.16l-6.78,12.22A2.21,2.21,0,0,1,201,98.65,2.33,2.33,0,0,1,200.43,98.73Z"/><path class="cls-5" d="M201.16,99.7a2.14,2.14,0,0,1-1.13-.31l-8.54-5a2.22,2.22,0,1,1,2.26-3.83l6.57,3.87L206,84.18a2.22,2.22,0,1,1,3.89,2.15L203.1,98.56a2.2,2.2,0,0,1-1.36,1.06A1.93,1.93,0,0,1,201.16,99.7Z"/><path class="cls-33" d="M186.5,86.09s4.2-11,15.94-10.55"/><circle class="cls-3" cx="201.44" cy="91.48" r="17.08"/><path class="cls-34" d="M201.32,99.62a2.22,2.22,0,0,1-1.12-.31l-8.54-5a2.22,2.22,0,1,1,2.25-3.83l6.58,3.86,5.67-10.23a2.22,2.22,0,0,1,3.89,2.16l-6.78,12.22a2.21,2.21,0,0,1-1.36,1.07A2.33,2.33,0,0,1,201.32,99.62Z"/><path class="cls-3" d="M35.42,153c-.4-9.65-11.32-18.31-11.32-18.31v-7.53A6.9,6.9,0,0,1,28.7,122"/><path class="cls-3" d="M39.83,141.2s4.81,5.19,6.67,10.21"/><polyline class="cls-3" points="41.49 143.15 43.17 125.71 27.95 104.62"/><line class="cls-3" x1="24.15" y1="107.97" x2="31.47" y2="122.95"/><path class="cls-3" d="M23.26,105.8s-.41-1.93.84-2.85"/><path class="cls-3" d="M25.51,102.66s.35-.38,1.39.79"/><line class="cls-37" x1="98.04" y1="60.59" x2="83.2" y2="89.62"/><line class="cls-37" x1="103.25" y1="62.95" x2="88.41" y2="91.98"/><path class="cls-38" d="M56.86,76.52,96.51,96.21,111.3,66.66,70.22,47.24S65.2,66.93,56.86,76.52Z"/><polygon class="cls-3" points="74.56 54.91 71.13 62.7 80.09 66.96 84.61 59.27 74.56 54.91"/><line class="cls-3" x1="70.3" y1="66.96" x2="89.21" y2="76.29"/><line class="cls-3" x1="69.29" y1="69.39" x2="76.99" y2="73.07"/><line class="cls-3" x1="67.28" y1="72.32" x2="83.77" y2="80.21"/><path class="cls-39" d="M132,95.08A3.76,3.76,0,0,0,134,98.44c.43.23.81-.42.38-.65a3,3,0,0,1-1.56-2.71.38.38,0,0,0-.75,0Z"/><path class="cls-39" d="M161.86,95.7a4.17,4.17,0,0,0,.56-1.14.39.39,0,0,0-.26-.47.39.39,0,0,0-.46.27l-.12.33,0-.09a3.39,3.39,0,0,1-.4.72.37.37,0,0,0,0,.29.34.34,0,0,0,.17.22.36.36,0,0,0,.29,0,.46.46,0,0,0,.22-.17Z"/><path class="cls-39" d="M114.67,87.06a6.27,6.27,0,0,0-1.13,2.32.38.38,0,0,0,.26.46.39.39,0,0,0,.46-.26,5.36,5.36,0,0,1,.17-.57c0-.09.07-.19.11-.28s0-.07,0-.08l.06-.11a5,5,0,0,1,.27-.51c0-.08.11-.16.16-.25l.09-.12,0-.07a.37.37,0,0,0-.53-.53Z"/><path class="cls-39" d="M114.36,104.55a31,31,0,0,1-.85-12.81c.06-.47-.66-.68-.73-.2a32.14,32.14,0,0,0,.85,13.2.38.38,0,0,0,.73-.19Z"/><rect class="cls-3" x="258.51" y="65.78" width="33.14" height="28.96" rx="2.05" transform="translate(-11.47 79.88) rotate(-16.19)"/><path class="cls-39" d="M147.64,98.11c1.43,2,4.27,2.66,6.63,2.54A7.91,7.91,0,0,0,158,99.56,15.43,15.43,0,0,0,161,96.81c.33-.35-.2-.88-.53-.53-1.72,1.82-3.44,3.43-6.07,3.61-2.1.15-4.85-.32-6.14-2.16-.28-.39-.93,0-.65.38Z"/><line class="cls-40" x1="162.33" y1="331.99" x2="160.52" y2="326.07"/><line class="cls-40" x1="161.54" y1="334.52" x2="159.74" y2="328.59"/><line class="cls-40" x1="180.29" y1="196.98" x2="179.96" y2="190.8"/><line class="cls-40" x1="179.05" y1="199.27" x2="178.57" y2="193.09"/><line class="cls-40" x1="212.46" y1="200.22" x2="218.4" y2="201.96"/><line class="cls-40" x1="210.71" y1="198.29" x2="216.7" y2="199.89"/><line class="cls-40" x1="116.21" y1="382.36" x2="116.52" y2="376.17"/><line class="cls-40" x1="114.62" y1="384.47" x2="114.92" y2="378.28"/><ellipse class="cls-41" cx="158.65" cy="82.71" rx="4.38" ry="3.26" transform="translate(-5.52 153.84) rotate(-50.96)"/><ellipse class="cls-41" cx="158.69" cy="89.04" rx="1.77" ry="1.32" transform="translate(-18.58 47.96) rotate(-16.25)"/><path class="cls-19" d="M126.16,119a9.37,9.37,0,0,0,1.19-5.34,16.69,16.69,0,0,0-1.6-6.41l-.9,2.2a17.43,17.43,0,0,0,5.41-2,10.49,10.49,0,0,0,4-4.7,1.54,1.54,0,0,0-.54-2,1.5,1.5,0,0,0-2.05.54,7.84,7.84,0,0,1-3,3.72,15.45,15.45,0,0,1-4.53,1.58,1.51,1.51,0,0,0-.89,2.2,10,10,0,0,1,.72,2.33,15.08,15.08,0,0,1,.47,2.57,6.59,6.59,0,0,1-.78,3.83c-1,1.64,1.57,3.15,2.59,1.51Z"/><path class="cls-3" d="M167.47,119.8a36.85,36.85,0,0,1-.35,7.27c-1.59,10.35-7,17.31-17,19.33h0c-5.69,1.16-11.32-.51-16.09-3.54a30.38,30.38,0,0,1-13.25-19.69l-.69-3.4a4.75,4.75,0,0,0,4.66-4.77c.17-4.68-3.22-10.54-3.22-10.54"/><path class="cls-41" d="M131.07,72.56A8.79,8.79,0,0,1,137,69a12,12,0,0,1,8,2c1.64,1,3.15-1.57,1.51-2.59a15,15,0,0,0-10.12-2.31A11.72,11.72,0,0,0,128.48,71a1.51,1.51,0,0,0,.54,2,1.53,1.53,0,0,0,2-.53Z"/><path class="cls-42" d="M131.91,71.55c.2-.2.4-.39.61-.57l.17-.13c.26-.22-.18.13,0,0a4.15,4.15,0,0,1,.34-.24,9.7,9.7,0,0,1,1.5-.86l.19-.08c.18-.09,0,0-.07,0a1.85,1.85,0,0,0,.39-.15c.27-.09.53-.18.8-.25l.87-.21.42-.07c.2,0-.3,0-.09,0l.26,0a1.61,1.61,0,0,0,1.06-.44A1.5,1.5,0,0,0,137.28,66a12.21,12.21,0,0,0-7.49,3.42,1.5,1.5,0,1,0,2.12,2.12Z"/><path class="cls-3" d="M150.89,73.49a13.72,13.72,0,0,0-11.84-7.11"/><path class="cls-3" d="M137.42,66.38c-9,0-11.49,9.48-11.49,9.48s-15,2-15,15.69"/><path class="cls-41" d="M152.43,72.47c.95.26,1.9.52,2.83.86l.35.14.18.07c-.21-.09-.24-.11-.1,0s.41.18.6.28a9.52,9.52,0,0,1,1.3.78,1.54,1.54,0,0,0,1.15.15,1.56,1.56,0,0,0,.9-.69,1.53,1.53,0,0,0-.54-2,18,18,0,0,0-5.87-2.39,1.52,1.52,0,0,0-1.85,1,1.53,1.53,0,0,0,1.05,1.85Z"/><path class="cls-3" d="M154.77,70a19.45,19.45,0,0,0-7.56-.86"/><path class="cls-3" d="M166.73,83A17.67,17.67,0,0,0,157,70.94"/><path class="cls-41" d="M153.5,79.83a4.29,4.29,0,0,0-1.79,2.5c-.14.52-.18,1.07-.33,1.59A3.73,3.73,0,0,1,149.82,86a2.28,2.28,0,0,1-1.85.35,3.19,3.19,0,0,1-1.19-.84,2.88,2.88,0,0,1-1.21-2.23,2.8,2.8,0,0,1,.53-1.18l1.46-2.23a6.85,6.85,0,0,1,2.63-2.73,4.55,4.55,0,0,1,3.31,0c.87.29,1.78,1,1.73,1.87s-.83,1.37-1.57,1.72a12.71,12.71,0,0,1-2,.78"/><path class="cls-23" d="M112.18,198.5c0,.19,1.57,19.71,1.57,19.71"/><path class="cls-23" d="M115,203.52c0,.19,1.57,19.71,1.57,19.71"/><line class="cls-3" x1="110.89" y1="196.35" x2="113.9" y2="236.52"/><path class="cls-19" d="M133.18,103.55a12.14,12.14,0,0,0,7.4,1.16,9.85,9.85,0,0,0,5.75-2.93,1.53,1.53,0,0,0,0-2.12,1.51,1.51,0,0,0-2.12,0,7.13,7.13,0,0,1-4.26,2.13,9.08,9.08,0,0,1-5.25-.83,1.55,1.55,0,0,0-2.06.54,1.52,1.52,0,0,0,.54,2Z"/><path class="cls-19" d="M143.68,101.86a9.49,9.49,0,0,0,8.76,4.7,1.5,1.5,0,0,0,0-3,8.09,8.09,0,0,1-1.1,0l-.28,0c-.13,0-.28-.1,0,0a5.12,5.12,0,0,0-.54-.1,8.21,8.21,0,0,1-1-.27l-.25-.09c-.05,0-.32-.15-.12,0s-.09-.05-.1-.06-.16-.07-.24-.12a6.59,6.59,0,0,1-.85-.51s-.3-.21-.11-.07,0,0-.09-.08-.27-.23-.4-.36-.25-.25-.37-.38l-.14-.16-.1-.12q-.1-.14.06.09c0-.08-.24-.34-.28-.41s-.22-.34-.32-.52a1.52,1.52,0,0,0-2.05-.54,1.54,1.54,0,0,0-.54,2.06Z"/><path class="cls-3" d="M140.14,102a6.62,6.62,0,0,0,6-5.72"/><path class="cls-3" d="M145.4,98.49s1.22,5.39,8.08,5.18"/><path class="cls-3" d="M130.39,93.91s-.17,8.12,7.7,8.12"/><line class="cls-43" x1="270.29" y1="236.6" x2="289.69" y2="236.67"/><line class="cls-43" x1="217.4" y1="236.6" x2="229.39" y2="236.52"/><rect class="cls-3" x="209.3" y="226.98" width="85.87" height="63.94" rx="4.12"/><line class="cls-3" x1="209.3" y1="234.97" x2="295.17" y2="234.97"/><path class="cls-44" d="M119.17,233.59l-8.12,8.12.09,9.59,5.19,5-7,6,1.8,10.09a101.61,101.61,0,0,0,28.12,7.15"/><ellipse class="cls-8" cx="123.55" cy="447.11" rx="3.77" ry="1.88" transform="translate(-78.61 29.61) rotate(-10.39)"/><circle class="cls-8" cx="127.18" cy="444.28" r="0.63"/><circle class="cls-8" cx="130.98" cy="446.07" r="0.97"/><circle class="cls-8" cx="116.01" cy="447.54" r="2.57"/><path class="cls-9" d="M186.92,436.72a11.69,11.69,0,0,0,8.74-1.54"/><path class="cls-45" d="M194.41,422.8c2.66,1.29,4.41,3.48,4.41,6,0,4-4.45,7.17-9.94,7.17s-9.95-3.21-9.95-7.17a6.53,6.53,0,0,1,3.4-5.39"/><path class="cls-3" d="M216.69,458.62a45.76,45.76,0,0,0,13.37-3.74h0a7.43,7.43,0,0,0-1.67-8.55,73.55,73.55,0,0,0-29.57-16.68"/><path class="cls-3" d="M179.78,432.29l.37,14.25a5.2,5.2,0,0,0,1.48,4.35h0a5.39,5.39,0,0,0,2,1.26c8.85,3,14.44,5.11,23.73,6.18"/><line class="cls-3" x1="210.48" y1="458.69" x2="213.49" y2="458.86"/><rect class="cls-39" x="143.1" y="109.59" width="4.61" height="7.37" rx="2.3"/><circle class="cls-5" cx="147.46" cy="112.83" r="0.92"/><rect class="cls-39" x="157.18" y="107.06" width="4.61" height="7.37" rx="2.3"/><circle class="cls-5" cx="161.54" cy="110.29" r="0.92"/><path class="cls-39" d="M138,161.23a7.8,7.8,0,0,0,3.24,2.64.4.4,0,0,0,.52-.14.38.38,0,0,0-.14-.51,7.1,7.1,0,0,1-3-2.37.38.38,0,0,0-.51-.14.4.4,0,0,0-.14.52Z"/><path class="cls-39" d="M155.1,163.79a17.06,17.06,0,0,0,2.5-2,.39.39,0,0,0,0-.53.38.38,0,0,0-.53,0,16.28,16.28,0,0,1-2.35,1.88.38.38,0,0,0-.13.51.37.37,0,0,0,.51.13Z"/><path class="cls-39" d="M146.35,165.68a5.78,5.78,0,0,0,3.22,0,.37.37,0,0,0-.2-.72,5,5,0,0,1-2.82,0,.38.38,0,0,0-.2.73Z"/><polyline class="cls-44" points="164.53 254.68 173.57 254.68 180.93 253"/><polyline class="cls-3" points="164.45 253.59 173.65 253.59 181.79 251.67 185.7 255.26 186.93 260.64"/><polyline class="cls-44" points="169.72 267.57 175.33 267.32 180.68 265.48 187.96 261.37"/><path class="cls-3" d="M119.26,231.5l-9.71,9.71v10.46l4.85,4.43-6.31,5.53,1.79,11.71,2,.81a96.58,96.58,0,0,0,74-.81h0l5.19-9.71-.89-4.63-9.49,5.47-5.19,1.84-6.19.34"/><line class="cls-46" x1="34.6" y1="115.21" x2="40.94" y2="124.12"/><path class="cls-4" d="M15.48,120.19l29.21-19.67L30.08,78.68.5,99.44S12.13,110.65,15.48,120.19Z"/><line class="cls-47" x1="20.67" y1="85.46" x2="34.9" y2="107.14"/><line class="cls-47" x1="24.35" y1="82.78" x2="38.58" y2="104.46"/><path class="cls-3" d="M15.48,120.19l29.21-19.67L30.08,78.68.5,99.44S12.13,110.65,15.48,120.19Z"/><path class="cls-48" d="M154.74,119.63l1.12,2.15a3.27,3.27,0,0,1-2.24,4.72h0"/><path class="cls-26" d="M147.05,128.9c-1.32.37-2,2.78-2,4.14a9.45,9.45,0,0,0,1.4,3.83,9,9,0,0,1,1.36,3.83c.07,1.94-1.09,3.74-1.13,5.68-.05,3.17,2.92,5.61,5.92,6.63a12.59,12.59,0,0,0,9.77-.45,8.65,8.65,0,0,0,4.76-8.18c-.29-2.82-2.19-5.29-2.47-8.12a29.79,29.79,0,0,1,.27-4.61,5.82,5.82,0,0,0-1.18-4.35c-1.38-1.48-3.68-1.54-5.68-1.33a37,37,0,0,0-8.82,2"/><path class="cls-27" d="M162.72,152.32a12.65,12.65,0,0,1-9.78.43c-3-1-6-3.45-5.91-6.62a8.29,8.29,0,0,1,.44-2.29c.81,2.3,3.2,4,5.61,4.83a12.56,12.56,0,0,0,9.76-.43,9.24,9.24,0,0,0,4.44-5.22,6.77,6.77,0,0,1,.19,1.11A8.67,8.67,0,0,1,162.72,152.32Z"/><path class="cls-3" d="M159.57,130a8.62,8.62,0,0,1-7.31,2.31l-.71-.09"/><path class="cls-41" d="M159.51,127.3c1.73.12,3.5.86,3.74,2.78.27,2.14-.76,4.22-.1,6.35.28.92,1.73.53,1.45-.4-.72-2.32.71-4.73-.07-7.07-.72-2.16-2.91-3-5-3.16-1-.06-1,1.44,0,1.5Z"/><path class="cls-41" d="M163.7,138.59c.29.83.62,1.64,1,2.44a.79.79,0,0,0,.45.35.83.83,0,0,0,.58-.08.74.74,0,0,0,.34-.45.9.9,0,0,0-.07-.58c-.07-.14-.13-.29-.19-.44l.07.18c-.25-.6-.49-1.2-.7-1.82a.86.86,0,0,0-.35-.45.78.78,0,0,0-.58-.07.76.76,0,0,0-.52.92Z"/><path class="cls-5" d="M162.18,101.58l1.61,7.66a1.13,1.13,0,0,0,1.38.79,1.16,1.16,0,0,0,.79-1.39L164.35,101a1.13,1.13,0,0,0-1.38-.79,1.16,1.16,0,0,0-.79,1.39Z"/><path class="cls-3" d="M163.5,97.85l3.16,15.54c.23,1.13.41,2.26.55,3.4"/><path class="cls-19" d="M152.29,152.38a9,9,0,0,1-1.44-.39l-.14-.05.07,0a1.76,1.76,0,0,1-.37-.17c-.2-.1-.38-.21-.57-.32l-.23-.16c-.09-.06-.39-.34-.07,0l-.49-.43c-.15-.15-.3-.3-.44-.47s-.12-.19-.18-.21c.14.18.16.21.07.08l-.11-.15a6.91,6.91,0,0,1-.47-1l-.46-1a1.51,1.51,0,0,0-2.06-.54,1.55,1.55,0,0,0-.53,2.05l.48,1.07a6.42,6.42,0,0,0,.61,1.16,8.87,8.87,0,0,0,5.54,3.43,1.5,1.5,0,1,0,.79-2.89Z"/><path class="cls-3" d="M147.13,128.81c-1.32.38-2,2.78-2,4.15a9.34,9.34,0,0,0,1.39,3.83,9,9,0,0,1,1.37,3.83c.07,1.94-1.1,3.74-1.13,5.68-.05,3.17,2.91,5.6,5.92,6.62a12.56,12.56,0,0,0,9.76-.44,8.65,8.65,0,0,0,4.76-8.18c-.28-2.83-2.18-5.3-2.47-8.12a31.14,31.14,0,0,1,.27-4.62,5.8,5.8,0,0,0-1.18-4.34c-1.38-1.48-3.67-1.54-5.68-1.33a37.1,37.1,0,0,0-8.82,2"/><rect class="cls-49" x="255.75" y="253.4" width="23.1" height="20.09" rx="0.89"/><path class="cls-50" d="M255.75,269.4h23.1a0,0,0,0,1,0,0v2.79a1.3,1.3,0,0,1-1.3,1.3h-20.5a1.3,1.3,0,0,1-1.3-1.3V269.4A0,0,0,0,1,255.75,269.4Z"/><line class="cls-51" x1="258.62" y1="254.24" x2="271.05" y2="254.24"/><line class="cls-52" x1="263.2" y1="254.24" x2="266.4" y2="254.24"/><line class="cls-3" x1="255.84" y1="264.88" x2="255.84" y2="259.84"/><path class="cls-3" d="M255.84,257.38v-3.06a.89.89,0,0,1,.89-.9H278a.89.89,0,0,1,.89.9v18.3a.89.89,0,0,1-.89.89H256.73a.89.89,0,0,1-.89-.89v-5.06"/><rect class="cls-49" x="75.82" y="141.97" width="23.1" height="20.09" rx="0.89" transform="translate(-58.83 55.24) rotate(-26.61)"/><path class="cls-50" d="M79.4,157.11h23.1a0,0,0,0,1,0,0v2.79a1.3,1.3,0,0,1-1.3,1.3H80.7a1.3,1.3,0,0,1-1.3-1.3v-2.79A0,0,0,0,1,79.4,157.11Z" transform="translate(-61.66 57.6) rotate(-26.61)"/><line class="cls-51" x1="75.48" y1="147.67" x2="86.59" y2="142.1"/><line class="cls-52" x1="79.58" y1="145.62" x2="82.44" y2="144.18"/><line class="cls-3" x1="77.76" y1="158.43" x2="75.5" y2="153.92"/><path class="cls-3" d="M74.4,151.72,73,149a.89.89,0,0,1,.4-1.2l19-9.55a.9.9,0,0,1,1.2.4l8.2,16.36a.9.9,0,0,1-.4,1.2l-19.06,9.54a.87.87,0,0,1-1.19-.39L79,160.82"/><rect class="cls-53" x="14.73" y="220.28" width="39.65" height="26.08" rx="2.41"/><path class="cls-54" d="M32.18,220.7,22.06,246.4l8.43.07,8.45-25.74H36.26S32.43,220.6,32.18,220.7Z"/><path class="cls-54" d="M41.24,220.7l-8.69,25.7h2.3l8.65-25.74h-.75A8,8,0,0,0,41.24,220.7Z"/><path class="cls-55" d="M50.27,220.7l-8.68,25.7h2.3l8.65-25.74h-.75A8.14,8.14,0,0,0,50.27,220.7Z"/><rect class="cls-5" x="19.5" y="223.91" width="10.8" height="6.66"/><line class="cls-3" x1="19.48" y1="234.25" x2="41.12" y2="234.25"/><line class="cls-3" x1="19.48" y1="237.26" x2="32.91" y2="237.26"/><line class="cls-3" x1="19.48" y1="240.27" x2="32.91" y2="240.27"/><rect class="cls-3" x="14.73" y="220.28" width="39.65" height="26.08" rx="2.41"/><rect class="cls-3" x="19.5" y="223.91" width="10.8" height="6.66"/><rect class="cls-49" x="39.67" y="239.08" width="23.1" height="20.09" rx="0.89" transform="translate(47.35 -5.18) rotate(10.75)"/><path class="cls-50" d="M38.18,254.93h23.1a0,0,0,0,1,0,0v2.79A1.3,1.3,0,0,1,60,259H39.48a1.3,1.3,0,0,1-1.3-1.3v-2.79A0,0,0,0,1,38.18,254.93Z" transform="translate(48.79 -4.77) rotate(10.75)"/><line class="cls-51" x1="44.41" y1="238.46" x2="56.62" y2="240.77"/><line class="cls-52" x1="48.91" y1="239.31" x2="52.05" y2="239.91"/><line class="cls-3" x1="39.69" y1="248.39" x2="40.63" y2="243.44"/><path class="cls-3" d="M41.09,241l.57-3a.89.89,0,0,1,1-.71l20.94,4a.89.89,0,0,1,.71,1l-3.41,18a.89.89,0,0,1-1,.71L39,257a.89.89,0,0,1-.71-1.05l.94-5"/><rect class="cls-49" x="330.57" y="37.25" width="23.1" height="20.09" rx="0.89" transform="translate(0.66 99.12) rotate(-16.5)"/><path class="cls-50" d="M332.84,52.91h23.1a0,0,0,0,1,0,0V55.7a1.3,1.3,0,0,1-1.3,1.3h-20.5a1.3,1.3,0,0,1-1.3-1.3V52.91A0,0,0,0,1,332.84,52.91Z" transform="translate(-1.42 100.08) rotate(-16.5)"/><line class="cls-51" x1="331.18" y1="40.93" x2="343.09" y2="37.4"/><line class="cls-52" x1="335.57" y1="39.63" x2="338.64" y2="38.72"/><line class="cls-3" x1="331.53" y1="51.92" x2="330.1" y2="47.08"/><path class="cls-3" d="M329.4,44.73l-.87-2.94a.9.9,0,0,1,.6-1.11l20.44-6a.9.9,0,0,1,1.11.6l5.2,17.55a.89.89,0,0,1-.61,1.11l-20.43,6a.9.9,0,0,1-1.11-.6l-1.44-4.85"/><rect class="cls-49" x="302.78" y="40.26" width="23.1" height="20.09" rx="0.89" transform="translate(-1.34 91.35) rotate(-16.5)"/><path class="cls-50" d="M305.06,55.92h23.1a0,0,0,0,1,0,0v2.79a1.3,1.3,0,0,1-1.3,1.3h-20.5a1.3,1.3,0,0,1-1.3-1.3V55.92A0,0,0,0,1,305.06,55.92Z" transform="translate(-3.43 92.32) rotate(-16.5)"/><line class="cls-51" x1="303.39" y1="43.94" x2="315.31" y2="40.41"/><line class="cls-52" x1="307.79" y1="42.64" x2="310.86" y2="41.73"/><line class="cls-3" x1="303.75" y1="54.93" x2="302.32" y2="50.1"/><path class="cls-3" d="M301.62,47.74l-.87-2.93a.89.89,0,0,1,.6-1.11l20.43-6.06a.89.89,0,0,1,1.11.6l5.2,17.55a.9.9,0,0,1-.6,1.11L307.06,63a.89.89,0,0,1-1.11-.6l-1.44-4.85"/><rect class="cls-56" x="246.08" y="13.03" width="112.41" height="83.71" rx="7.04" transform="translate(-3.14 88.07) rotate(-16.49)"/><line class="cls-43" x1="249.09" y1="40.49" x2="271.52" y2="34.04"/><line class="cls-43" x1="310.85" y1="22.24" x2="333.28" y2="15.8"/><rect class="cls-3" x="246.08" y="13.03" width="112.41" height="83.71" rx="7.04" transform="translate(-3.14 88.07) rotate(-16.49)"/><path class="cls-3" d="M239.77,41.71c.11.37,107.77-32,107.77-32"/><circle class="cls-39" cx="246.15" cy="34.03" r="1.41"/><circle class="cls-39" cx="250.61" cy="32.75" r="1.41"/><circle class="cls-39" cx="255.06" cy="31.21" r="1.41"/><line class="cls-57" x1="190.44" y1="117.39" x2="230.36" y2="105.44"/><line class="cls-57" x1="197.66" y1="122.69" x2="237.59" y2="110.74"/><line class="cls-57" x1="208.25" y1="126.99" x2="248.18" y2="115.04"/><path class="cls-3" d="M123,107.05s6,.59,9.8-6.78"/></g></g></svg>