<svg xmlns="http://www.w3.org/2000/svg" viewBox="0 0 244.08 306.43"><defs><style>.cls-1,.cls-4,.cls-57{opacity:0.3;}.cls-2,.cls-4{fill:#77b7b6;}.cls-10,.cls-13,.cls-14,.cls-16,.cls-18,.cls-19,.cls-23,.cls-24,.cls-26,.cls-29,.cls-3,.cls-30,.cls-31,.cls-34,.cls-35,.cls-38,.cls-39,.cls-41,.cls-44,.cls-45,.cls-46,.cls-47,.cls-48,.cls-51,.cls-52,.cls-57,.cls-7{fill:none;}.cls-13,.cls-14,.cls-29,.cls-3,.cls-30,.cls-31,.cls-35,.cls-39,.cls-41,.cls-7{stroke:#232144;}.cls-10,.cls-13,.cls-14,.cls-16,.cls-18,.cls-19,.cls-23,.cls-24,.cls-26,.cls-29,.cls-3,.cls-30,.cls-31,.cls-34,.cls-39,.cls-41,.cls-44,.cls-45,.cls-46,.cls-48,.cls-51,.cls-52,.cls-57,.cls-7{stroke-linecap:round;stroke-linejoin:round;}.cls-13,.cls-14,.cls-3,.cls-35,.cls-46,.cls-48{stroke-width:0.67px;}.cls-5{fill:#fff;}.cls-6{fill:#7f1212;}.cls-7{stroke-width:0.75px;}.cls-8{fill:#2e4c64;}.cls-9{fill:#1e3c51;}.cls-10{stroke:#1e3c51;}.cls-10,.cls-51,.cls-52,.cls-57{stroke-width:1.33px;}.cls-11,.cls-33,.cls-56{fill:#e0f3fc;}.cls-11,.cls-32{opacity:0.58;}.cls-12{fill:#effdfd;}.cls-13{opacity:0.34;}.cls-14{opacity:0.54;}.cls-15{fill:#ffb999;}.cls-16,.cls-48{stroke:#f57a59;}.cls-16,.cls-18,.cls-19,.cls-24,.cls-34,.cls-45,.cls-47{stroke-width:2px;}.cls-17{fill:#fe4a65;}.cls-18{stroke:#ff859c;}.cls-19{stroke:#fce6ed;}.cls-20{fill:#f57a59;}.cls-21{fill:#84ecff;}.cls-22{fill:#29afd3;opacity:0.5;}.cls-23{stroke:#29afd3;}.cls-23,.cls-44{stroke-width:2.66px;}.cls-24{stroke:#ea1859;}.cls-25{fill:#ea1859;}.cls-26,.cls-34,.cls-38,.cls-46,.cls-47,.cls-52{stroke:#fff;}.cls-26{stroke-width:3.33px;}.cls-27{fill:#c64f4f;}.cls-28{fill:#a02727;}.cls-29{stroke-width:0.68px;}.cls-30{stroke-width:0.59px;}.cls-31{stroke-width:0.5px;}.cls-35,.cls-38,.cls-47{stroke-miterlimit:10;}.cls-36{fill:#29fc97;}.cls-37{fill:#9cf7c9;}.cls-38{stroke-width:2.51px;}.cls-39{stroke-width:0.84px;}.cls-40{fill:#232144;}.cls-41{stroke-width:0.47px;}.cls-42{fill:#ea6e6e;}.cls-43{fill:#f99;}.cls-44{stroke:#acd9ea;}.cls-45{stroke:#b20040;}.cls-49{fill:#ffa744;}.cls-50{fill:#f97c00;}.cls-51{stroke:#ffdab6;}.cls-53{fill:#9671c3;}.cls-54{fill:#ebdeff;}.cls-55{fill:#c6a2f9;}.cls-56{opacity:0.51;}.cls-57{stroke:#77b7b6;}</style></defs><g id="Layer_2" data-name="Layer 2"><g id="Layer_1-2" data-name="Layer 1"><g class="cls-1"><path class="cls-2" d="M65.16,293.87c12.2-1.54,23.53-5.76,35.93-7.1,15.16-1.63,27.48,7.53,40.55,11-1.92,2.66-14.64,4.67-19.33,5.61a134.69,134.69,0,0,1-23.08,3c-11.57.24-19.39-4.72-28.24-8.6l1.25.6"/></g><circle class="cls-3" cx="16.59" cy="69.26" r="3.4"/><path class="cls-4" d="M37.83,50.91,64.21,64l9.84-19.66L46.72,31.43S43.38,44.53,37.83,50.91Z"/><polygon class="cls-5" points="49.61 36.53 47.33 41.71 53.28 44.55 56.29 39.43 49.61 36.53"/><path class="cls-6" d="M77.13,79.83c-1.81-1.81,1.44,5,3.53,6.52A9.61,9.61,0,0,0,88,87.8V79.54S77.24,79.94,77.13,79.83Z"/><path class="cls-7" d="M77.13,79.83a8.34,8.34,0,0,0,3.53,6.52A9.61,9.61,0,0,0,88,87.8"/><path class="cls-8" d="M119.61,287.61l.24,9.48a3.48,3.48,0,0,0,1,2.89h0a3.42,3.42,0,0,0,1.34.84c5.88,2,9.6,3.4,15.78,4.12l2.07.24,2,.11,2.12-.16a30.57,30.57,0,0,0,8.9-2.49h0A5,5,0,0,0,152,297a48.87,48.87,0,0,0-19.67-11.09l-2.94-4.56a4.61,4.61,0,0,1,2.94,4c0,2.64-3,4.77-6.62,4.77s-6.61-2.13-6.61-4.77a4.36,4.36,0,0,1,2.25-3.59"/><path class="cls-9" d="M153.44,300.65a4.87,4.87,0,0,1-.46,2.07,30.35,30.35,0,0,1-8.9,2.49l-2.13.16-2-.11-2.07-.24c-6.19-.72-9.9-2.1-15.79-4.12a3.36,3.36,0,0,1-1.33-.83,3.47,3.47,0,0,1-1-2.9l-.07-2.92c3.35,3,9.52,5.23,16.66,5.62,6.18.34,11.79-.77,15.56-2.78A4.91,4.91,0,0,1,153.44,300.65Z"/><path class="cls-8" d="M78.81,280.69c-1.77.77-2.94,2.09-2.94,3.58,0,2.38,3,4.32,6.62,4.32s6.61-1.94,6.61-4.32A3.91,3.91,0,0,0,86.85,281L89,285.38l.85,9.55a7.11,7.11,0,0,1-.72,3.82L89,299a74.68,74.68,0,0,1-16.43,3.8l-5.39.17a26.34,26.34,0,0,1-7.73-2.16h0a4.28,4.28,0,0,1,1-4.94,42.51,42.51,0,0,1,16.38-9.44Z"/><path class="cls-10" d="M79.27,288.7a11.12,11.12,0,0,0,6.39,0"/><path class="cls-9" d="M89.35,298.41l-.32.64a74.4,74.4,0,0,1-16.3,3.87l-2.25.29-3.36-.08a26.64,26.64,0,0,1-7.65-2.26,4.44,4.44,0,0,1-.39-1.81,4.24,4.24,0,0,1,1.36-3.14l.14-.13c4.56,2.42,11.32,3.48,18.65,2.55a38.58,38.58,0,0,0,10.69-2.91h0A5.58,5.58,0,0,1,89.35,298.41Z"/><rect class="cls-11" x="139.25" y="151.01" width="57.13" height="42.54" rx="2.74"/><path class="cls-12" d="M160.84,151.19l-16.69,42.36,15.37.11,13.92-42.42h0S161.25,151,160.84,151.19Z"/><path class="cls-5" d="M175.77,151.19l-14.32,42.36h3.79l14.26-42.43h-1.23A13,13,0,0,0,175.77,151.19Z"/><polygon class="cls-5" points="160.94 168.72 155.03 172.12 149.13 175.53 149.13 168.72 149.13 161.9 155.03 165.31 160.94 168.72"/><circle class="cls-13" cx="177.13" cy="61.67" r="4.8"/><circle class="cls-14" cx="177.13" cy="61.67" r="6.84"/><rect class="cls-5" x="171.99" y="43.76" width="22.05" height="19.27" rx="1.36" transform="translate(-7.63 52.39) rotate(-15.96)"/><path class="cls-15" d="M30.94,100.73a25.09,25.09,0,0,0-4.44-6.79l1.1,1.3,1.12-11.6-10.12-14-.7-.78c-.7-.78-.93-.53-.93-.53l-.94.19a2,2,0,0,0-.55,1.9l.59,1.45,4.86,10-1.83-.61A4.61,4.61,0,0,0,16,84.59v5s7.27,5.76,7.54,12.18l4.66,2Z"/><path class="cls-16" d="M24.23,101.17C23.9,94.26,17,89.6,17,89.6l-.06-5A3.47,3.47,0,0,1,19,81.91"/><path class="cls-17" d="M167.89,93.65c-3.76,9.77-21.63,28.55-21.63,28.55l.26.19c-15.37-10.47-35.33-17.58-40.77-19.42a9,9,0,0,0-2.86-.47h-9.7L83.31,106,70.54,116.61l-12.73,8.47-26.4-25c-4,3.34-9.79.88-10,.79l26.83,39.31h4a39.33,39.33,0,0,0,19.93-5.42l1.57-.93v-3.46l2,26.73,3.56-3.34-6.46,6.46v7l3.23,3-4.2,3.68,1.19,7.79,1.34.54a64.3,64.3,0,0,0,49.22-.54l3.46-6.46-.6-3.08-2.07,1.2-.12-.28-.78-3.41-2.6-2.38-.4-.58-1.15-18.82a2.8,2.8,0,0,1,.17-1l2.75-7.51a2.62,2.62,0,0,0,.18-.95v-8.37l29.76,7.66a4,4,0,0,0,4.51-2L176.41,98C171.9,97.83,167.89,93.65,167.89,93.65Z"/><polyline class="cls-18" points="66.62 120.33 70.88 117.66 79.73 110.23"/><path class="cls-15" d="M169.09,94.9V75.57l6.47-14.65.76-.8s1.52-1.26,2.41,0A3.45,3.45,0,0,1,179,63l-.54,1-5,10.91.91-1.89h4.28l1.39,1.11,2.9,4.24L182.35,84l-4,5.68-3.89,8.23"/><line class="cls-19" x1="169.85" y1="77.99" x2="169.85" y2="86.51"/><polyline class="cls-16" points="174.11 96.33 177.45 89.32 181.46 83.75"/><path class="cls-15" d="M98,107.21h0c-2.55,0-5.19-2.18-4.62-4.62V90.24h9.24l.13,12.47C102.73,106.22,102.6,107.21,98,107.21Z"/><path class="cls-20" d="M93.1,99.16a9.27,9.27,0,0,0,9.6,0v-6H93.14S92.89,99.16,93.1,99.16Z"/><path class="cls-8" d="M122.16,292l-3-6.09,1.42-2.43,2-4,4.51-.41,3.92,4.34,3.93,6.35a48.16,48.16,0,0,1-4.18,3.17"/><path class="cls-8" d="M78.81,280.69c-1.77.77-2.94,2.09-2.94,3.58,0,2.38,3,4.32,6.62,4.32s6.61-1.94,6.61-4.32c0-1.29-1.5-3.13-3.44-3.89l-5.32-.2Z"/><path class="cls-15" d="M120.7,278.37l1.76,6.4a1.86,1.86,0,0,0,1.6,1.38,5.94,5.94,0,0,0,4.55-1.23,1.86,1.86,0,0,0,.61-1.67l-.78-5.73"/><path class="cls-20" d="M119.53,273.2l1.76,6.39a1.88,1.88,0,0,0,1.6,1.39,6,6,0,0,0,4.55-1.24,1.85,1.85,0,0,0,.61-1.67l-.78-5.73"/><path class="cls-15" d="M80.34,278.73v5.07a4.8,4.8,0,0,0,5.35,0v-5.38"/><path class="cls-20" d="M80.34,275.39v5.06a4.78,4.78,0,0,0,5.35,0v-5.37"/><line class="cls-18" x1="34.97" y1="104.97" x2="53.67" y2="123.01"/><path class="cls-21" d="M132.13,275.72c-8.69,5.51-13.87,1.67-13.87,1.67l-2.34-16.7-6.85-26.05-8.85-29.4-11,72.24c-11.53,4.18-15-2.25-15-2.25L75,182.69c15.22,5.63,33.23,5.7,48.24-.55Z"/><path class="cls-22" d="M88.47,187.2c-2.2,20.65-2.62,65.06-4.9,91.7-7.23.16-9.41-3.67-9.41-3.67L75,182.5C81.67,185,81.52,187,88.47,187.2Z"/><line class="cls-23" x1="98.5" y1="208.79" x2="95.83" y2="227.07"/><line class="cls-23" x1="110.3" y1="236.43" x2="115.87" y2="257.07"/><line class="cls-23" x1="92.9" y1="244.61" x2="90.23" y2="262.89"/><path class="cls-23" d="M78.77,185c5.7,1.95,24.36,7,44.31-1.62"/><path class="cls-23" d="M84.75,188.72A66.55,66.55,0,0,0,92.6,190"/><line class="cls-24" x1="25.44" y1="105.47" x2="46.38" y2="136.09"/><polyline class="cls-18" points="150.67 119.05 158.41 109.98 161.58 105.97"/><path class="cls-18" d="M111.3,106.22s18.29,6.51,29.49,13.78"/><path class="cls-19" d="M119.23,109.29c2.07.85,4.42,1.85,6.87,2.95"/><line class="cls-24" x1="123.16" y1="129.6" x2="151.68" y2="136.83"/><line class="cls-24" x1="170.1" y1="108.47" x2="156.74" y2="133.53"/><path class="cls-25" d="M72.93,132.46a42.9,42.9,0,0,1-10.8,4.65,33.08,33.08,0,0,1-11.35,1.38c-1.28-.11-1.27,1.88,0,2A34.68,34.68,0,0,0,62.66,139a44.88,44.88,0,0,0,11.27-4.86c1.1-.66.1-2.39-1-1.72Z"/><path class="cls-25" d="M73.09,131a42.15,42.15,0,0,1-17.23,5.89c-1.27.13-1.28,2.13,0,2a44.51,44.51,0,0,0,18.24-6.15,1,1,0,0,0-1-1.73Z"/><path class="cls-25" d="M73.35,128.73a42.49,42.49,0,0,1-12.43,5.41,1,1,0,0,0,.53,1.93,44.71,44.71,0,0,0,12.91-5.61c1.08-.69.08-2.42-1-1.73Z"/><path class="cls-25" d="M73.57,126.84a42.7,42.7,0,0,1-12.42,5.41,1,1,0,0,0,.53,1.92,44.5,44.5,0,0,0,12.9-5.61c1.08-.69.08-2.42-1-1.72Z"/><line class="cls-26" x1="124.64" y1="211.51" x2="126.1" y2="227.31"/><line class="cls-26" x1="127.64" y1="243.65" x2="129.11" y2="259.45"/><path class="cls-25" d="M119.88,156.52l.64,10.35.41.58,2.59,2.39.78,3.4.12.28,2.08-1.2.59,3.09-3.45,6.46a64.26,64.26,0,0,1-49.23.53l-1.33-.53-1.19-7.8,4.2-3.68-3.23-2.94-.06-7,2.92-2.93s-.75-10.77-1-15.2C85.16,152,119.88,156.52,119.88,156.52Z"/><path class="cls-27" d="M81.14,69.55a32.79,32.79,0,0,1,1.45,4.29c.46,1.76.65,4-.76,5.09a1.27,1.27,0,0,1-.65.31c-.24,0-1,.55-1.26.44-1.7-.83-1.55-3.65-2.74-5.12-.48-.6-1.11-1.08-1.57-1.7a6.77,6.77,0,0,1-.89-2.64c-1-3.8-1.59-8-.41-11.7s4.18-7.07,8-7.78a3.88,3.88,0,0,0,1-.25,3.63,3.63,0,0,0,1.49-2.07A8.6,8.6,0,0,1,90,44.31a11.2,11.2,0,0,1,3.57-.17,7.87,7.87,0,0,1,4.56,2.08c.61.76-.82-.24.15-.24,6.44,0,10.41,3.5,12.06,7.34a7.16,7.16,0,0,1,.66,3,17.61,17.61,0,0,1-.7,4.85c.49,1.26.84,2.44,1.36,3.83A3.8,3.8,0,0,1,110.63,69c-.52.57-.55,1.13-1.28,1.37-9.11,3-19.25,3.27-27.35,8.37"/><path class="cls-28" d="M92.56,74a37.79,37.79,0,0,0-10.31,4.18c-.09.12,0,.44-.12.54a6.34,6.34,0,0,1-1.31.87c-.25,0-.59-.22-.82-.33-1.7-.83-1.55-3.65-2.74-5.12-.48-.6-2.75.75-3.21.13a6.21,6.21,0,0,1-.62-3.38c.12-4.64-.22-9,1-12.79a10.63,10.63,0,0,1,7.93-7.17,6.38,6.38,0,0,1,2.23,2.27c1.49,3,.68,6.59,1,9.94A14.61,14.61,0,0,0,92.56,74Z"/><path class="cls-15" d="M109.57,68A3.85,3.85,0,0,1,111,75.57"/><ellipse class="cls-15" cx="76.7" cy="76.94" rx="3.87" ry="4.43"/><ellipse class="cls-20" cx="77.58" cy="76.82" rx="3.01" ry="3.44"/><path class="cls-15" d="M108.78,65.1l2.1,10.34a26,26,0,0,1,.31,9.1c-1.06,6.89-4.66,11.52-11.29,12.86h0a14.58,14.58,0,0,1-10.7-2.35A20.23,20.23,0,0,1,80.38,82l-.46-2.27A3.16,3.16,0,0,0,83,76.51c.11-3.12-2.15-7-2.15-7l1,1.72,3.26-.88L87,68.63l1.32-1.92,2.45,1.17,3.43-.21,2.5-1.62,2,2.14,3.35.78,3-1.09Z"/><path class="cls-20" d="M106.4,94.55a13.93,13.93,0,0,1-6.34,3,12.11,12.11,0,0,1-2.45.24,15.6,15.6,0,0,1-8.26-2.59,20.25,20.25,0,0,1-8.81-13.1l-.46-2.27a3.17,3.17,0,0,0,3-2.55c2,9.18,4.55,12.73,8.15,15.36C95,95.36,99.07,95.32,102,95.32a13,13,0,0,0,2.46-.25A16.18,16.18,0,0,0,106.4,94.55Z"/><path class="cls-7" d="M103.56,68.66A12.32,12.32,0,0,0,111.11,57"/><path class="cls-7" d="M73.59,62.91c-.71,5.22-.33,8.81.3,10.9"/><ellipse class="cls-7" cx="76.7" cy="76.94" rx="3.87" ry="4.43"/><path class="cls-29" d="M76.22,74.61s-1.89,1.57-.41,4.39"/><path class="cls-29" d="M75.26,76.61a2.36,2.36,0,0,1,2,1.09"/><path class="cls-30" d="M111.88,72.09a2,2,0,0,0-1.08-1.68"/><path class="cls-7" d="M109.57,68A3.85,3.85,0,0,1,111,75.57"/><path class="cls-7" d="M110.28,61.74a6.68,6.68,0,0,1,1.17,6.45"/><line class="cls-7" x1="93.24" y1="103.95" x2="93.24" y2="96.96"/><path class="cls-3" d="M102.48,105.62c-1.67,2.61-6.46,2.3-8.65-.59"/><line class="cls-7" x1="102.73" y1="96.96" x2="102.73" y2="103.95"/><path class="cls-7" d="M102.73,102.71h.2a9,9,0,0,1,2.86.47c5.82,2,28.28,10,43.93,21.66"/><path class="cls-7" d="M146.3,122.42s17.87-18.79,21.63-28.56c0,0,4,4.17,8.52,4.34l-19.68,37.71a4,4,0,0,1-4.5,2l-29.78-7.65"/><path class="cls-7" d="M122.49,126.44v12.62a2.83,2.83,0,0,1-.16.95l-2.76,7.51a2.84,2.84,0,0,0-.17.95l1.19,19.39"/><polyline class="cls-7" points="65.54 120.17 70.58 116.82 83.35 106.25 93.24 102.71"/><path class="cls-7" d="M73.77,134.09,72.2,135a39.33,39.33,0,0,1-19.93,5.42h-4L21.44,101.12s5.95,2.62,10-.78l26.39,25,6.07-4"/><line class="cls-7" x1="125.03" y1="202.1" x2="123.33" y2="183.98"/><line class="cls-7" x1="127.95" y1="233.41" x2="125.32" y2="205.21"/><path class="cls-7" d="M95.17,238.08l4.94-32.89,8.85,29.4,6.85,26,2.34,16.71s5.18,3.84,13.87-1.67l-3.77-39.13"/><path class="cls-7" d="M74.68,240.66l-.63,34.52s3.51,6.42,15,2.25l5.57-35.93"/><line class="cls-7" x1="74.62" y1="232.33" x2="74.59" y2="237.79"/><line class="cls-7" x1="74.99" y1="183.06" x2="74.59" y2="229.84"/><polyline class="cls-3" points="94.6 185.09 94.6 196.45 101.84 202.13"/><line class="cls-3" x1="97.49" y1="190.21" x2="97.49" y2="191.49"/><line class="cls-3" x1="97.49" y1="193.61" x2="97.49" y2="194.88"/><path class="cls-3" d="M116.89,190.21s-1,8,9.22,8"/><path class="cls-3" d="M82.26,190.21s1,8-9.23,8"/><path class="cls-3" d="M120.7,278.37l1.76,6.4a1.86,1.86,0,0,0,1.6,1.38,5.94,5.94,0,0,0,4.55-1.23,1.86,1.86,0,0,0,.61-1.67l-.78-5.73"/><path class="cls-3" d="M80.34,278.73v5.07a4.8,4.8,0,0,0,5.35,0v-5.38"/><path class="cls-3" d="M91.8,103.48c0,3.06,3,5.54,6.66,5.54s6.66-2.48,6.66-5.54v-.3"/><polyline class="cls-3" points="174.45 97.88 178.34 89.65 182.35 83.97 183.02 78.41 180.12 74.17 178.73 73.06 174.45 73.06"/><polyline class="cls-3" points="169.09 94.9 169.09 75.57 175.56 60.92"/><line class="cls-3" x1="178.5" y1="64.04" x2="173.54" y2="74.95"/><path class="cls-3" d="M176.32,60.12s1.52-1.26,2.41,0A3.45,3.45,0,0,1,179,63"/><line class="cls-3" x1="149.13" y1="177.74" x2="163.52" y2="177.74"/><line class="cls-3" x1="149.13" y1="179.74" x2="158.07" y2="179.74"/><line class="cls-3" x1="149.13" y1="181.75" x2="158.07" y2="181.75"/><polygon class="cls-3" points="160.94 168.72 155.03 172.12 149.13 175.53 149.13 168.72 149.13 161.9 155.03 165.31 160.94 168.72"/><circle class="cls-31" cx="143.4" cy="153.45" r="0.86"/><circle class="cls-31" cx="146.83" cy="153.45" r="0.86"/><circle class="cls-31" cx="150.33" cy="153.45" r="0.86"/><path class="cls-3" d="M78.81,280.69c-1.77.77-2.94,2.09-2.94,3.58,0,2.38,3,4.32,6.62,4.32s6.61-1.94,6.61-4.32A3.91,3.91,0,0,0,86.85,281"/><path class="cls-7" d="M67.15,303a26.34,26.34,0,0,1-7.73-2.16h0a4.28,4.28,0,0,1,1-4.94,42.51,42.51,0,0,1,16.38-9.44"/><path class="cls-7" d="M89,285.38l.83,9.27A8.09,8.09,0,0,1,89,299h0a74.68,74.68,0,0,1-16.43,3.8"/><g class="cls-32"><circle class="cls-33" cx="41.32" cy="199.67" r="11.36"/><path class="cls-33" d="M40.65,204.5a1.45,1.45,0,0,1-.76-.21L34.22,201a1.48,1.48,0,1,1,1.5-2.55L40.09,201l3.77-6.8a1.48,1.48,0,0,1,2.59,1.43l-4.51,8.13a1.45,1.45,0,0,1-.91.71A1.21,1.21,0,0,1,40.65,204.5Z"/></g><path class="cls-21" d="M41.13,205.14a1.48,1.48,0,0,1-.75-.2L34.7,201.6a1.48,1.48,0,1,1,1.5-2.55l4.37,2.57,3.77-6.81a1.48,1.48,0,0,1,2.59,1.44l-4.51,8.13a1.45,1.45,0,0,1-.91.71A1.2,1.2,0,0,1,41.13,205.14Z"/><path class="cls-34" d="M31.37,196.09s2.8-7.31,10.61-7"/><circle class="cls-3" cx="41.32" cy="199.67" r="11.36"/><path class="cls-35" d="M41.24,205.09a1.44,1.44,0,0,1-.75-.21l-5.68-3.34a1.48,1.48,0,1,1,1.5-2.55l4.37,2.57,3.77-6.8A1.48,1.48,0,0,1,47,196.19l-4.51,8.14a1.52,1.52,0,0,1-.9.71A1.74,1.74,0,0,1,41.24,205.09Z"/><circle class="cls-36" cx="134.02" cy="60.86" r="11.36"/><path class="cls-37" d="M145.38,61.2a11.37,11.37,0,0,1-5.74,9.88,11.36,11.36,0,0,0-14.91-16.41,11.36,11.36,0,0,1,20.65,6.53Z"/><path class="cls-36" d="M133.35,65.69a1.44,1.44,0,0,1-.75-.21l-5.68-3.34a1.48,1.48,0,0,1,1.5-2.55l4.37,2.57,3.78-6.8a1.47,1.47,0,0,1,2-.58,1.49,1.49,0,0,1,.58,2l-4.51,8.13a1.47,1.47,0,0,1-.91.71A1.32,1.32,0,0,1,133.35,65.69Z"/><path class="cls-5" d="M133.83,66.33a1.53,1.53,0,0,1-.75-.2l-5.68-3.34a1.48,1.48,0,0,1,1.5-2.55l4.37,2.57L137.05,56a1.48,1.48,0,0,1,2.59,1.44l-4.51,8.13a1.47,1.47,0,0,1-.91.71A1.31,1.31,0,0,1,133.83,66.33Z"/><path class="cls-34" d="M124.08,57.28s2.8-7.31,10.61-7"/><circle class="cls-3" cx="134.02" cy="60.86" r="11.36"/><path class="cls-35" d="M133.94,66.28a1.44,1.44,0,0,1-.75-.21l-5.68-3.34a1.48,1.48,0,0,1,1.5-2.55l4.38,2.57,3.77-6.8a1.48,1.48,0,1,1,2.59,1.43l-4.51,8.14a1.54,1.54,0,0,1-.91.71A1.74,1.74,0,0,1,133.94,66.28Z"/><path class="cls-3" d="M23.57,101.78C23.3,95.36,16,89.6,16,89.6v-5a4.61,4.61,0,0,1,3.07-3.4"/><path class="cls-3" d="M26.5,93.94a25.09,25.09,0,0,1,4.44,6.79"/><polyline class="cls-3" points="27.6 95.24 28.72 83.64 18.6 69.61"/><line class="cls-3" x1="16.07" y1="71.84" x2="20.93" y2="81.8"/><path class="cls-3" d="M15.48,70.39a2,2,0,0,1,.55-1.9"/><path class="cls-3" d="M17,68.3s.23-.25.93.53"/><line class="cls-38" x1="65.23" y1="40.31" x2="55.35" y2="59.62"/><line class="cls-38" x1="68.7" y1="41.88" x2="58.82" y2="61.19"/><path class="cls-39" d="M37.83,50.91,64.21,64l9.84-19.66L46.72,31.43S43.38,44.53,37.83,50.91Z"/><polygon class="cls-3" points="49.61 36.53 47.33 41.71 53.28 44.55 56.29 39.43 49.61 36.53"/><line class="cls-3" x1="46.77" y1="44.55" x2="59.35" y2="50.75"/><line class="cls-3" x1="46.1" y1="46.17" x2="51.22" y2="48.62"/><line class="cls-3" x1="44.77" y1="48.12" x2="55.73" y2="53.36"/><path class="cls-40" d="M87.84,63.26a2.48,2.48,0,0,0,1.28,2.23c.28.15.54-.28.25-.43a2,2,0,0,1-1-1.8.25.25,0,0,0-.49,0Z"/><path class="cls-40" d="M107.69,63.67a2.68,2.68,0,0,0,.37-.76.25.25,0,1,0-.48-.13,2,2,0,0,1-.08.22l0-.06a3.72,3.72,0,0,1-.27.48.25.25,0,0,0,0,.19.26.26,0,0,0,.12.15.21.21,0,0,0,.19,0,.27.27,0,0,0,.15-.11Z"/><path class="cls-40" d="M76.29,57.92a4.25,4.25,0,0,0-.75,1.54.25.25,0,0,0,.48.14c0-.13.07-.26.11-.38L76.2,59s0,0,0-.06l0-.08c.06-.11.12-.22.19-.33l.1-.17.06-.08s.06-.08,0,0a.27.27,0,0,0,0-.36.26.26,0,0,0-.36,0Z"/><path class="cls-40" d="M76.08,69.56A20.78,20.78,0,0,1,75.52,61c0-.32-.44-.45-.48-.14a21.38,21.38,0,0,0,.56,8.79.25.25,0,0,0,.48-.13Z"/><rect class="cls-3" x="171.99" y="43.76" width="22.05" height="19.27" rx="1.36" transform="translate(-7.63 53.14) rotate(-16.19)"/><path class="cls-40" d="M98.23,65.27c1,1.35,2.84,1.77,4.41,1.69a5.17,5.17,0,0,0,2.45-.72,10.5,10.5,0,0,0,2-1.83c.22-.23-.14-.59-.36-.35-1.14,1.21-2.29,2.28-4,2.4-1.39.1-3.22-.22-4.08-1.44-.19-.26-.62,0-.43.25Z"/><line class="cls-41" x1="108" y1="220.88" x2="106.8" y2="216.94"/><line class="cls-41" x1="107.47" y1="222.56" x2="106.27" y2="218.62"/><line class="cls-41" x1="119.95" y1="131.06" x2="119.73" y2="126.94"/><line class="cls-41" x1="119.12" y1="132.58" x2="118.81" y2="128.47"/><line class="cls-41" x1="141.35" y1="133.21" x2="145.31" y2="134.37"/><line class="cls-41" x1="140.19" y1="131.92" x2="144.17" y2="132.99"/><line class="cls-41" x1="77.32" y1="254.39" x2="77.52" y2="250.27"/><line class="cls-41" x1="76.26" y1="255.79" x2="76.46" y2="251.68"/><ellipse class="cls-42" cx="105.55" cy="55.03" rx="2.91" ry="2.17" transform="translate(-3.67 102.35) rotate(-50.96)"/><ellipse class="cls-42" cx="105.58" cy="59.24" rx="1.17" ry="0.87" transform="translate(-12.36 31.91) rotate(-16.25)"/><path class="cls-20" d="M83.93,79.2a6.22,6.22,0,0,0,.8-3.56,11.07,11.07,0,0,0-1.07-4.26l-.59,1.47a11.85,11.85,0,0,0,3.59-1.32A7,7,0,0,0,89.3,68.4,1,1,0,0,0,88.94,67a1,1,0,0,0-1.36.35,5.18,5.18,0,0,1-2,2.48,10,10,0,0,1-3,1,1,1,0,0,0-.59,1.47,6.48,6.48,0,0,1,.48,1.55,10,10,0,0,1,.31,1.7,4.33,4.33,0,0,1-.52,2.55c-.68,1.1,1.05,2.1,1.72,1Z"/><path class="cls-7" d="M111.42,79.7a24.47,24.47,0,0,1-.23,4.84c-1.06,6.89-4.66,11.52-11.29,12.86h0a14.58,14.58,0,0,1-10.7-2.35A20.23,20.23,0,0,1,80.38,82l-.46-2.27A3.16,3.16,0,0,0,83,76.51c.11-3.12-2.15-7-2.15-7"/><path class="cls-42" d="M87.2,48.27a5.87,5.87,0,0,1,4-2.34,8,8,0,0,1,5.3,1.32c1.09.69,2.09-1,1-1.72A9.94,9.94,0,0,0,90.75,44a7.82,7.82,0,0,0-5.27,3.28,1,1,0,0,0,1.72,1Z"/><path class="cls-43" d="M87.76,47.6a4.72,4.72,0,0,1,.41-.37l.11-.09c.17-.15-.12.08,0,0l.22-.16a8.91,8.91,0,0,1,1-.57l.13,0c.12-.06,0,0-.05,0a1.19,1.19,0,0,0,.26-.11l.54-.17.57-.13.28,0c.14,0-.2,0-.06,0l.18,0a1.08,1.08,0,0,0,.7-.29,1,1,0,0,0,.29-.71,1,1,0,0,0-1-1,8.09,8.09,0,0,0-5,2.27,1,1,0,0,0,1.41,1.41Z"/><path class="cls-7" d="M100.39,48.9a9.16,9.16,0,0,0-7.88-4.74"/><path class="cls-7" d="M91.43,44.16c-6,0-7.65,6.31-7.65,6.31s-10,1.33-10,10.44"/><path class="cls-42" d="M101.42,48.21c.63.18,1.26.35,1.88.58l.23.09.12,0q-.21-.09-.06,0l.39.19a7.61,7.61,0,0,1,.87.51,1,1,0,0,0,.76.11,1,1,0,0,0,.24-1.83,12.1,12.1,0,0,0-3.9-1.59,1,1,0,1,0-.53,1.92Z"/><path class="cls-7" d="M103,46.58a12.77,12.77,0,0,0-5-.58"/><path class="cls-7" d="M110.93,55.23a11.74,11.74,0,0,0-6.47-8"/><path class="cls-42" d="M102.13,53.11a2.91,2.91,0,0,0-1.2,1.66c-.09.35-.11.72-.21,1.07a2.56,2.56,0,0,1-1,1.38,1.52,1.52,0,0,1-1.23.24,2.19,2.19,0,0,1-.8-.56,2,2,0,0,1-.8-1.49,1.83,1.83,0,0,1,.35-.78l1-1.48a4.58,4.58,0,0,1,1.75-1.82,3.06,3.06,0,0,1,2.21,0c.57.2,1.18.64,1.15,1.24s-.56.92-1,1.15a9.3,9.3,0,0,1-1.36.52"/><path class="cls-24" d="M74.64,132.07c0,.12,1,13.11,1,13.11"/><path class="cls-24" d="M76.53,135.41c0,.12,1,13.11,1,13.11"/><line class="cls-7" x1="73.77" y1="130.63" x2="75.78" y2="157.36"/><path class="cls-20" d="M88.61,68.89a8.06,8.06,0,0,0,4.92.78,6.67,6.67,0,0,0,3.83-2,1,1,0,0,0,0-1.41,1,1,0,0,0-1.42,0,4.71,4.71,0,0,1-2.83,1.41,6,6,0,0,1-3.49-.55,1,1,0,0,0-1.37.36,1,1,0,0,0,.36,1.36Z"/><path class="cls-20" d="M95.59,67.77a6.33,6.33,0,0,0,5.83,3.13,1,1,0,0,0,1-1,1,1,0,0,0-1-1,5.93,5.93,0,0,1-.73,0h-.18c-.09,0-.19-.07,0,0-.11,0-.24,0-.35-.06s-.44-.11-.65-.18l-.17-.06-.07,0c.14.08-.07,0-.08,0l-.15-.08a4.15,4.15,0,0,1-.57-.35s-.2-.13-.07,0,0,0-.06-.06l-.27-.23-.24-.26a.94.94,0,0,1-.1-.1l-.07-.09,0,.06s-.16-.22-.19-.26a3.24,3.24,0,0,1-.21-.35A1,1,0,0,0,96,66.4a1,1,0,0,0-.36,1.37Z"/><path class="cls-7" d="M93.24,67.88a4.41,4.41,0,0,0,4-3.8"/><path class="cls-7" d="M96.74,65.53s.81,3.59,5.38,3.44"/><path class="cls-7" d="M86.75,62.48s-.11,5.4,5.12,5.4"/><line class="cls-44" x1="179.83" y1="157.42" x2="192.73" y2="157.46"/><line class="cls-44" x1="144.64" y1="157.42" x2="152.62" y2="157.36"/><rect class="cls-3" x="139.25" y="151.01" width="57.13" height="42.54" rx="2.74"/><line class="cls-3" x1="139.25" y1="156.33" x2="196.38" y2="156.33"/><path class="cls-45" d="M79.29,155.41l-5.4,5.4,0,6.38,3.45,3.31-4.62,4,1.2,6.71A67.73,67.73,0,0,0,92.68,186"/><ellipse class="cls-9" cx="82.2" cy="297.47" rx="2.51" ry="1.25" transform="translate(-52.3 19.7) rotate(-10.39)"/><circle class="cls-9" cx="84.62" cy="295.59" r="0.42"/><circle class="cls-9" cx="87.14" cy="296.78" r="0.65"/><circle class="cls-9" cx="77.18" cy="297.76" r="1.71"/><path class="cls-10" d="M124.36,290.56a7.79,7.79,0,0,0,5.82-1"/><path class="cls-7" d="M129.34,281.3a4.61,4.61,0,0,1,2.94,4c0,2.64-3,4.77-6.62,4.77s-6.61-2.13-6.61-4.77a4.36,4.36,0,0,1,2.25-3.59"/><path class="cls-7" d="M144.16,305.13a30.57,30.57,0,0,0,8.9-2.49h0A5,5,0,0,0,152,297a48.87,48.87,0,0,0-19.67-11.09"/><path class="cls-7" d="M119.61,287.61l.24,9.48a3.48,3.48,0,0,0,1,2.89h0a3.42,3.42,0,0,0,1.34.84c5.88,2,9.6,3.4,15.78,4.12"/><line class="cls-3" x1="140.03" y1="305.18" x2="142.04" y2="305.29"/><rect class="cls-40" x="95.21" y="72.91" width="3.06" height="4.9" rx="1.53"/><circle class="cls-5" cx="98.11" cy="75.07" r="0.61"/><rect class="cls-40" x="104.58" y="71.23" width="3.06" height="4.9" rx="1.53"/><circle class="cls-5" cx="107.47" cy="73.38" r="0.61"/><path class="cls-40" d="M91.82,107.27A5.11,5.11,0,0,0,94,109a.25.25,0,0,0,.25-.43,4.61,4.61,0,0,1-2-1.58.25.25,0,0,0-.43.26Z"/><path class="cls-40" d="M103.19,109a11.19,11.19,0,0,0,1.66-1.32.25.25,0,0,0,0-.36.26.26,0,0,0-.35,0,11,11,0,0,1-1.56,1.25.26.26,0,0,0-.09.34.24.24,0,0,0,.34.09Z"/><path class="cls-40" d="M97.37,110.23a3.89,3.89,0,0,0,2.14,0c.31-.09.18-.58-.13-.49a3.43,3.43,0,0,1-1.88,0,.25.25,0,0,0-.13.48Z"/><polyline class="cls-45" points="109.47 169.44 115.48 169.44 120.38 168.33"/><polyline class="cls-3" points="109.41 168.72 115.53 168.72 120.95 167.44 123.55 169.83 124.37 173.41"/><polyline class="cls-45" points="112.92 178.02 116.65 177.85 120.21 176.63 125.06 173.9"/><path class="cls-7" d="M79.34,154l-6.46,6.46v7l3.23,2.95-4.19,3.67,1.19,7.8,1.33.54a64.33,64.33,0,0,0,49.22-.54h0l3.46-6.46-.6-3.08L120.21,176l-3.45,1.22-4.12.22"/><line class="cls-46" x1="23.02" y1="76.65" x2="27.24" y2="82.58"/><path class="cls-4" d="M10.3,80,29.73,66.88,20,52.35.33,66.16S8.07,73.62,10.3,80Z"/><line class="cls-47" x1="13.75" y1="56.86" x2="23.22" y2="71.28"/><line class="cls-47" x1="16.2" y1="55.08" x2="25.67" y2="69.5"/><path class="cls-3" d="M10.3,80,29.73,66.88,20,52.35.33,66.16S8.07,73.62,10.3,80Z"/><path class="cls-48" d="M103,79.59,103.7,81a2.18,2.18,0,0,1-1.49,3.14h0"/><path class="cls-27" d="M97.83,85.76c-.87.25-1.35,1.85-1.3,2.76a6.11,6.11,0,0,0,.93,2.54,6,6,0,0,1,.9,2.55c0,1.29-.73,2.49-.75,3.78,0,2.11,1.94,3.73,3.94,4.41a8.37,8.37,0,0,0,6.5-.3,5.75,5.75,0,0,0,3.16-5.44c-.19-1.88-1.45-3.52-1.64-5.4a19.77,19.77,0,0,1,.18-3.07,3.89,3.89,0,0,0-.79-2.9c-.91-1-2.44-1-3.78-.88a25,25,0,0,0-5.86,1.33"/><path class="cls-28" d="M108.26,101.34a8.42,8.42,0,0,1-6.5.29c-2-.68-4-2.3-3.94-4.41a5.68,5.68,0,0,1,.29-1.52,5.88,5.88,0,0,0,3.74,3.21,8.31,8.31,0,0,0,6.49-.29,6.08,6.08,0,0,0,3-3.47,4.58,4.58,0,0,1,.13.74A5.77,5.77,0,0,1,108.26,101.34Z"/><path class="cls-3" d="M106.16,86.47A5.71,5.71,0,0,1,101.3,88l-.47-.06"/><path class="cls-42" d="M106.13,84.7c1.15.07,2.32.57,2.48,1.84.18,1.43-.5,2.81-.06,4.23a.5.5,0,0,0,1-.27c-.47-1.54.48-3.14,0-4.7a3.49,3.49,0,0,0-3.34-2.1c-.64,0-.64,1,0,1Z"/><path class="cls-42" d="M108.91,92.21c.2.55.41,1.09.65,1.62a.47.47,0,0,0,.3.23.51.51,0,0,0,.38,0,.5.5,0,0,0,.23-.3.56.56,0,0,0,0-.38c0-.1-.08-.2-.13-.3l0,.12c-.16-.4-.32-.8-.47-1.21a.52.52,0,0,0-.23-.3.5.5,0,0,0-.38,0,.52.52,0,0,0-.35.62Z"/><path class="cls-5" d="M107.9,67.58l1.07,5.1a.75.75,0,0,0,.92.52.77.77,0,0,0,.53-.92l-1.07-5.1a.75.75,0,0,0-1.45.4Z"/><path class="cls-7" d="M108.78,65.1l2.1,10.34c.15.75.28,1.5.37,2.26"/><path class="cls-20" d="M101.39,101.88a7.85,7.85,0,0,1-1-.26l-.1,0,0,0a1.12,1.12,0,0,1-.25-.11l-.38-.22-.15-.1c-.06,0-.26-.23,0,0-.1-.09-.22-.18-.32-.28s-.2-.21-.3-.31-.08-.13-.12-.15l.05.06-.07-.1a5,5,0,0,1-.32-.66l-.3-.67a1,1,0,0,0-1.37-.36,1,1,0,0,0-.36,1.36l.33.71a3.51,3.51,0,0,0,.4.77,5.88,5.88,0,0,0,3.68,2.29,1,1,0,0,0,1.23-.7,1,1,0,0,0-.7-1.22Z"/><path class="cls-7" d="M97.89,85.7c-.88.25-1.36,1.85-1.31,2.76A6.35,6.35,0,0,0,97.51,91a6.12,6.12,0,0,1,.91,2.55c0,1.29-.73,2.48-.75,3.77,0,2.11,1.94,3.73,3.94,4.41a8.35,8.35,0,0,0,6.49-.29A5.77,5.77,0,0,0,111.27,96c-.19-1.88-1.46-3.52-1.64-5.4a18.67,18.67,0,0,1,.18-3.07,3.9,3.9,0,0,0-.79-2.89c-.92-1-2.44-1-3.78-.89a25.24,25.24,0,0,0-5.87,1.34"/><rect class="cls-49" x="170.16" y="168.59" width="15.37" height="13.36" rx="0.59"/><path class="cls-50" d="M170.16,179.23h15.37a0,0,0,0,1,0,0v1.86a.86.86,0,0,1-.86.86H171a.86.86,0,0,1-.86-.86v-1.86A0,0,0,0,1,170.16,179.23Z"/><line class="cls-51" x1="172.06" y1="169.15" x2="180.33" y2="169.15"/><line class="cls-52" x1="175.11" y1="169.15" x2="177.24" y2="169.15"/><line class="cls-3" x1="170.21" y1="176.23" x2="170.21" y2="172.87"/><path class="cls-3" d="M170.21,171.24v-2a.59.59,0,0,1,.6-.59H185a.59.59,0,0,1,.59.59v12.18a.6.6,0,0,1-.59.59H170.81a.6.6,0,0,1-.6-.59V178"/><rect class="cls-49" x="50.44" y="94.45" width="15.37" height="13.36" rx="0.59" transform="translate(-39.14 36.75) rotate(-26.61)"/><path class="cls-50" d="M52.83,104.53H68.19a0,0,0,0,1,0,0v1.86a.86.86,0,0,1-.86.86H53.69a.86.86,0,0,1-.86-.86v-1.86a0,0,0,0,1,0,0Z" transform="translate(-41.02 38.32) rotate(-26.61)"/><line class="cls-51" x1="50.22" y1="98.25" x2="57.61" y2="94.54"/><line class="cls-52" x1="52.95" y1="96.88" x2="54.85" y2="95.93"/><line class="cls-3" x1="51.74" y1="105.41" x2="50.23" y2="102.41"/><path class="cls-3" d="M49.5,100.94l-.91-1.82a.58.58,0,0,1,.26-.79L61.53,92a.61.61,0,0,1,.8.27l5.45,10.88a.59.59,0,0,1-.26.8l-12.68,6.35A.59.59,0,0,1,54,110l-1.51-3"/><rect class="cls-53" x="9.8" y="146.55" width="26.38" height="17.35" rx="1.61"/><path class="cls-54" d="M21.41,146.84l-6.73,17.1,5.61,0,5.61-17.12H24.12S21.57,146.77,21.41,146.84Z"/><path class="cls-54" d="M27.43,146.84l-5.77,17.1h1.52l5.76-17.13h-.49A5.27,5.27,0,0,0,27.43,146.84Z"/><path class="cls-55" d="M33.45,146.84l-5.78,17.1H29.2L35,146.81h-.49A5.16,5.16,0,0,0,33.45,146.84Z"/><rect class="cls-5" x="12.97" y="148.97" width="7.18" height="4.43"/><line class="cls-3" x1="12.96" y1="155.85" x2="27.36" y2="155.85"/><line class="cls-3" x1="12.96" y1="157.85" x2="21.9" y2="157.85"/><line class="cls-3" x1="12.96" y1="159.86" x2="21.9" y2="159.86"/><rect class="cls-3" x="9.8" y="146.55" width="26.38" height="17.35" rx="1.61"/><rect class="cls-3" x="12.97" y="148.97" width="7.18" height="4.43"/><rect class="cls-49" x="26.39" y="159.06" width="15.37" height="13.36" rx="0.59" transform="translate(31.5 -3.45) rotate(10.75)"/><path class="cls-50" d="M25.4,169.61H40.77a0,0,0,0,1,0,0v1.86a.86.86,0,0,1-.86.86H26.27a.86.86,0,0,1-.86-.86v-1.86A0,0,0,0,1,25.4,169.61Z" transform="translate(32.46 -3.17) rotate(10.75)"/><line class="cls-51" x1="29.54" y1="158.65" x2="37.67" y2="160.19"/><line class="cls-52" x1="32.54" y1="159.22" x2="34.63" y2="159.61"/><line class="cls-3" x1="26.41" y1="165.26" x2="27.03" y2="161.96"/><path class="cls-3" d="M27.34,160.36l.38-2a.59.59,0,0,1,.69-.47l13.93,2.65a.58.58,0,0,1,.47.69l-2.27,12a.58.58,0,0,1-.69.47L25.92,171a.59.59,0,0,1-.47-.69l.62-3.31"/><rect class="cls-49" x="219.93" y="24.78" width="15.37" height="13.36" rx="0.59" transform="translate(0.44 65.95) rotate(-16.5)"/><path class="cls-50" d="M221.44,35.2h15.37a0,0,0,0,1,0,0v1.86a.86.86,0,0,1-.86.86H222.31a.86.86,0,0,1-.86-.86V35.2A0,0,0,0,1,221.44,35.2Z" transform="translate(-0.95 66.59) rotate(-16.5)"/><line class="cls-51" x1="220.34" y1="27.23" x2="228.27" y2="24.88"/><line class="cls-52" x1="223.26" y1="26.36" x2="225.3" y2="25.76"/><line class="cls-3" x1="220.57" y1="34.54" x2="219.62" y2="31.33"/><path class="cls-3" d="M219.16,29.76l-.58-2a.59.59,0,0,1,.4-.74l13.59-4a.6.6,0,0,1,.74.4l3.46,11.67a.6.6,0,0,1-.4.74l-13.6,4a.59.59,0,0,1-.73-.4l-1-3.23"/><rect class="cls-49" x="201.45" y="26.78" width="15.37" height="13.36" rx="0.59" transform="translate(-0.89 60.78) rotate(-16.5)"/><path class="cls-50" d="M203,37.21h15.37a0,0,0,0,1,0,0v1.86a.86.86,0,0,1-.86.86H203.82a.86.86,0,0,1-.86-.86V37.21A0,0,0,0,1,203,37.21Z" transform="translate(-2.28 61.42) rotate(-16.5)"/><line class="cls-51" x1="201.85" y1="29.23" x2="209.78" y2="26.89"/><line class="cls-52" x1="204.78" y1="28.37" x2="206.82" y2="27.76"/><line class="cls-3" x1="202.09" y1="36.55" x2="201.14" y2="33.33"/><path class="cls-3" d="M200.67,31.76l-.58-2a.6.6,0,0,1,.4-.74l13.6-4a.61.61,0,0,1,.74.4l3.46,11.68a.6.6,0,0,1-.41.74l-13.59,4a.58.58,0,0,1-.74-.4l-1-3.22"/><rect class="cls-56" x="163.72" y="8.67" width="74.79" height="55.69" rx="4.68" transform="matrix(0.96, -0.28, 0.28, 0.96, -2.09, 58.6)"/><line class="cls-44" x1="165.72" y1="26.94" x2="180.65" y2="22.65"/><line class="cls-44" x1="206.81" y1="14.8" x2="221.74" y2="10.51"/><rect class="cls-3" x="163.72" y="8.67" width="74.79" height="55.69" rx="4.68" transform="matrix(0.96, -0.28, 0.28, 0.96, -2.09, 58.6)"/><path class="cls-3" d="M159.53,27.75c.07.24,71.69-21.29,71.69-21.29"/><circle class="cls-40" cx="163.77" cy="22.64" r="0.94"/><circle class="cls-40" cx="166.73" cy="21.79" r="0.94"/><circle class="cls-40" cx="169.7" cy="20.76" r="0.94"/><line class="cls-57" x1="126.7" y1="78.1" x2="153.26" y2="70.15"/><line class="cls-57" x1="131.51" y1="81.63" x2="158.07" y2="73.68"/><line class="cls-57" x1="138.55" y1="84.49" x2="165.12" y2="76.54"/><path class="cls-7" d="M81.84,71.22s4,.39,6.52-4.51"/></g></g></svg>