<svg xmlns="http://www.w3.org/2000/svg" viewBox="0 0 89 101.6"><defs><style>.cls-1,.cls-2,.cls-23,.cls-24,.cls-27,.cls-29,.cls-33,.cls-36,.cls-37,.cls-43,.cls-44,.cls-47,.cls-55,.cls-56,.cls-59,.cls-62,.cls-63,.cls-67,.cls-70,.cls-72,.cls-76,.cls-77{fill:none;stroke-linecap:round;stroke-linejoin:round;}.cls-1,.cls-2{stroke:#000402;stroke-width:0.42px;}.cls-2{stroke-dasharray:2.51 2.51;}.cls-3{fill:#ffe56b;}.cls-4{fill:#ffb320;}.cls-5{fill:#c9d2df;}.cls-6{fill:#d3d4d8;}.cls-7{fill:#6395c6;}.cls-26,.cls-7{opacity:0.75;}.cls-32,.cls-48,.cls-61,.cls-8{fill:#6a9bc9;}.cls-9{fill:#3e3126;}.cls-10{fill:#42caf8;}.cls-11{fill:#048edd;}.cls-12{fill:#c5f3ff;}.cls-13{fill:#fafcfc;}.cls-14{fill:#3ec4ff;}.cls-15,.cls-50,.cls-51,.cls-65{fill:#fff;}.cls-16{fill:#99d8f4;}.cls-17{fill:#def6ff;}.cls-18{fill:#587ec1;}.cls-19{fill:#3d6bad;}.cls-20,.cls-21{fill:#9ea4b7;}.cls-20{opacity:0.39;}.cls-22{fill:#7382a8;}.cls-23,.cls-33,.cls-36,.cls-37,.cls-43,.cls-44,.cls-59,.cls-62,.cls-63,.cls-67,.cls-70,.cls-72,.cls-77{stroke:#000201;}.cls-23{stroke-width:0.63px;}.cls-24,.cls-56{stroke:#fff;}.cls-24{stroke-width:0.52px;}.cls-25{fill:#2e99ce;}.cls-26,.cls-31,.cls-34{fill:#1784af;}.cls-27,.cls-29,.cls-47,.cls-55{stroke:#1f1712;}.cls-27{stroke-width:0.45px;}.cls-28{fill:#1f1712;}.cls-29{stroke-width:0.5px;}.cls-30{fill:#3eacec;}.cls-31{opacity:0.65;}.cls-32,.cls-39,.cls-57{opacity:0.5;}.cls-33,.cls-56{stroke-width:0.5px;}.cls-34{opacity:0.21;}.cls-35{fill:#ffc871;}.cls-36{stroke-width:0.51px;}.cls-37{stroke-width:0.55px;}.cls-38{fill:#fbd947;}.cls-39,.cls-58,.cls-60{fill:#f8a547;}.cls-40{fill:#e78427;}.cls-41{fill:#fdc6a2;}.cls-42,.cls-64{fill:#ff9976;}.cls-43{stroke-width:0.39px;}.cls-44{stroke-width:0.42px;}.cls-45{fill:#5e5e5e;}.cls-46,.cls-53{fill:#3e3f3f;}.cls-47{stroke-width:0.49px;}.cls-48{opacity:0.27;}.cls-49{fill:#62c6f9;}.cls-50{opacity:0.6;}.cls-51{opacity:0.35;}.cls-52{fill:#000201;}.cls-53{opacity:0.69;}.cls-54{fill:#606060;}.cls-55{stroke-width:0.37px;}.cls-59{stroke-width:0.48px;}.cls-60,.cls-61{opacity:0.4;}.cls-62{stroke-width:0.4px;}.cls-63{stroke-width:0.46px;}.cls-64{opacity:0.25;}.cls-65{opacity:0.55;isolation:isolate;}.cls-66{fill:#ffe8dc;}.cls-67{stroke-width:0.42px;}.cls-68,.cls-69{fill:#303030;}.cls-69{opacity:0.29;}.cls-70{stroke-width:0.52px;}.cls-71,.cls-74{fill:#a1c92f;}.cls-72{stroke-width:0.43px;}.cls-73{fill:#eef47a;}.cls-74{opacity:0.47;}.cls-75{fill:#faff9f;}.cls-76{stroke:#ff9976;stroke-width:0.85px;}.cls-77{stroke-width:0.41px;}.cls-78{opacity:0.15;}.cls-79{fill:#1b3c47;}</style></defs><g id="Layer_2" data-name="Layer 2"><g id="Layer_1-2" data-name="Layer 1"><path class="cls-1" d="M44.63,65.87l-1.24.28"/><path class="cls-2" d="M40.93,66.61a13,13,0,0,1-5-.1,17.58,17.58,0,0,1-5.7-2.94A26.77,26.77,0,0,1,24.82,59a15.25,15.25,0,0,1-3.34-11.8c.33-2.3,1.57-4.85,3.86-5.27s4.42,1.66,4.56,3.92a6.08,6.08,0,0,1-3.41,5.47C23.24,53,19,52.14,16.2,49.74A14.53,14.53,0,0,1,11.63,40a20.42,20.42,0,0,1,7.95-17.7"/><path class="cls-1" d="M20.6,21.56a12.15,12.15,0,0,1,1.09-.66"/><path class="cls-3" d="M17.51,28c-1.07,1.78-4.61,2.69-4.61,2.69s-.88-3.55.19-5.33,2.92-2.65,4.14-1.92S18.57,26.23,17.51,28Z"/><path class="cls-4" d="M15.34,26l2.51,1.5-.16.29-.08.11a8,8,0,0,1-1.84,1.37c-.36.19-.69.67-1.08.58a22.78,22.78,0,0,0,.46-2.44c-.36.1-.73.21-1.09.33a1.68,1.68,0,0,1,0-.74,7.58,7.58,0,0,1,.36-1.55l.47.28Z"/><path class="cls-5" d="M19.66,24.35l-.8,3.38a.46.46,0,0,1-.69.29l-2.31-1.38-.78-.46-2.3-1.38a.47.47,0,0,1-.07-.75l2.6-2.3"/><path class="cls-6" d="M19.66,24.35l-.8,3.38a.46.46,0,0,1-.69.29l-2.31-1.38-.78-.46-2.3-1.38a.47.47,0,0,1-.07-.75l2.6-2.3"/><path class="cls-7" d="M19.42,25.11a5.47,5.47,0,0,1-2.79-.77,5.29,5.29,0,0,1-2-2.09l.6-.53.2.12a5.31,5.31,0,0,0,1.71,1.62,5.17,5.17,0,0,0,2.23.74l.21.12Z"/><path class="cls-8" d="M19.28,26a3.49,3.49,0,0,1-2.94-.53,4.82,4.82,0,0,1-1.8-3l1.25-1,.21.12a3.35,3.35,0,0,0,1,1.25c.19.2.28.58.52.72a3.51,3.51,0,0,0,2.45.38l-.25,0Z"/><circle class="cls-9" cx="14.94" cy="26.09" r="0.26"/><path class="cls-9" d="M12.69,25a.65.65,0,0,1-.31-.49.63.63,0,0,1,.21-.54l2.6-2.3a.18.18,0,1,1,.23.27l-2.59,2.29a.29.29,0,0,0,0,.47.17.17,0,0,1-.18.3Z"/><path class="cls-9" d="M13.82,25.69,12.66,25a.69.69,0,0,1-.1-1.11l2.6-2.3a.23.23,0,0,1,.3.34l-2.6,2.3a.22.22,0,0,0-.08.2.25.25,0,0,0,.11.18l1.17.7a.22.22,0,0,1,.07.31A.23.23,0,0,1,13.82,25.69Z"/><path class="cls-9" d="M18.06,28.22l-2.31-1.38a.23.23,0,0,1-.08-.31.23.23,0,0,1,.31-.08l2.31,1.38a.22.22,0,0,0,.21,0,.25.25,0,0,0,.14-.16l.8-3.38a.23.23,0,0,1,.27-.17.25.25,0,0,1,.17.28l-.8,3.37a.69.69,0,0,1-.4.48A.68.68,0,0,1,18.06,28.22Z"/><path class="cls-10" d="M22.78,26.8l.76.46a7.47,7.47,0,0,0,3-2.72c1.88-3.15.15-6.76.15-6.76l-4,5.57A2.49,2.49,0,0,1,22.78,26.8Z"/><path class="cls-9" d="M22.77,27.06h0a.22.22,0,0,1-.06-.31c.6-.86,1.09-2.11,0-3.16a.23.23,0,0,1,0-.32.22.22,0,0,1,.32,0A2.7,2.7,0,0,1,23.07,27,.22.22,0,0,1,22.77,27.06Z"/><path class="cls-9" d="M27.41,20.73a.23.23,0,0,1-.11-.17,8.57,8.57,0,0,0-.66-2.62.22.22,0,0,1,.1-.3.23.23,0,0,1,.31.1,9,9,0,0,1,.7,2.78.22.22,0,0,1-.2.24A.22.22,0,0,1,27.41,20.73Z"/><path class="cls-11" d="M22.87,23.67a2.64,2.64,0,0,1,.5.65,5.34,5.34,0,0,0,2-1.95l1.87-3.14a7.42,7.42,0,0,0-.4-1.14l-2.27,3.8A5.27,5.27,0,0,1,22.87,23.67Z"/><path class="cls-9" d="M23.53,27.52a.34.34,0,0,1-.08-.09.23.23,0,0,1,.09-.31,6.36,6.36,0,0,0,3.78-5.4.23.23,0,0,1,.24-.21.22.22,0,0,1,.21.24,6.84,6.84,0,0,1-4,5.77A.24.24,0,0,1,23.53,27.52Z"/><path class="cls-9" d="M27.39,20.52a.25.25,0,0,1-.11-.17,8.66,8.66,0,0,0-.64-2.41.22.22,0,0,1,.1-.3.23.23,0,0,1,.31.1,9,9,0,0,1,.68,2.56.22.22,0,0,1-.2.25A.32.32,0,0,1,27.39,20.52Z"/><path class="cls-9" d="M22.77,27.06h0a.22.22,0,0,1-.06-.31c.6-.86,1.09-2.11,0-3.16a.23.23,0,0,1,0-.32.22.22,0,0,1,.32,0A2.7,2.7,0,0,1,23.07,27,.22.22,0,0,1,22.77,27.06Z"/><path class="cls-10" d="M11.56,20.09l-.76-.45a7.37,7.37,0,0,1,1-4c1.88-3.14,5.88-3.33,5.88-3.33l-3,6.17A2.5,2.5,0,0,0,11.56,20.09Z"/><path class="cls-12" d="M12.19,16a7.31,7.31,0,0,0-1,4l-.49-.29a7.37,7.37,0,0,1,1-4c1.88-3.15,5.88-3.33,5.88-3.33l-.12.07A8.15,8.15,0,0,0,12.19,16Z"/><path class="cls-9" d="M11.44,20.29a.24.24,0,0,1-.09-.3,2.73,2.73,0,0,1,3.35-1.7.23.23,0,0,1,.14.29.22.22,0,0,1-.28.14c-1.46-.48-2.33.54-2.8,1.47a.22.22,0,0,1-.31.1Z"/><path class="cls-9" d="M10.68,19.83a.24.24,0,0,1-.11-.19c-.08-7.11,7-7.52,7.06-7.53a.22.22,0,0,1,.23.22.22.22,0,0,1-.21.23c-.28,0-6.71.41-6.63,7.08a.22.22,0,0,1-.22.22A.18.18,0,0,1,10.68,19.83Z"/><path class="cls-6" d="M30.19,12.26l-5.61,9.38a5.37,5.37,0,1,1-9.21-5.51L21,6.75A13.57,13.57,0,0,1,31.13.23,13.55,13.55,0,0,1,30.19,12.26Z"/><path class="cls-13" d="M17.56,23.83c-.14-.07-.28-.14-.41-.22a5.35,5.35,0,0,1-1.87-7.33L20.85,7A13.45,13.45,0,0,1,31,.51c.07.18.15.37.21.56a13.26,13.26,0,0,0-5.23,2,13.44,13.44,0,0,0-4.29,4.42l-5.57,9.32A5.34,5.34,0,0,0,17.56,23.83Z"/><path class="cls-11" d="M14.44,18.63a2.67,2.67,0,0,0-.8-.13,5.25,5.25,0,0,1,.76-2.71l2.84-3.29c.7-.16.22,0,.22,0l-2.27,3.79A5.35,5.35,0,0,0,14.44,18.63Z"/><path class="cls-8" d="M30.18,12.25l-5.61,9.39a5.37,5.37,0,0,1-10-3.09,5.38,5.38,0,0,0,9.17-.08l5.61-9.39A13.62,13.62,0,0,0,31.2.42,13.58,13.58,0,0,1,30.18,12.25Z"/><circle class="cls-9" cx="19.53" cy="9.17" r="0.26"/><circle class="cls-9" cx="29.64" cy="13.18" r="0.26"/><path class="cls-9" d="M17.1,23.69A5.6,5.6,0,0,1,15.17,16L18.79,10a.23.23,0,0,1,.31-.08.22.22,0,0,1,.08.31l-3.62,6.06a5.14,5.14,0,0,0,8.82,5.28l3.47-5.8a.23.23,0,0,1,.31-.08.23.23,0,0,1,.08.31l-3.47,5.8A5.6,5.6,0,0,1,17.1,23.69Z"/><rect class="cls-14" x="18.19" y="15.77" width="1.23" height="9.87" rx="0.62" transform="translate(13.29 -6.72) rotate(30.88)"/><path class="cls-11" d="M19.42,20.89l-2.2,3.68a.63.63,0,0,1-.85.22.62.62,0,0,1-.21-.85l1.89-3.17A5.3,5.3,0,0,0,19.42,20.89Z"/><path class="cls-9" d="M16.28,25.05A.79.79,0,0,1,16,24l2.54-4.24a.17.17,0,1,1,.29.17L16.3,24.15a.45.45,0,0,0,.77.46L21.5,17.2a.45.45,0,0,0-.15-.62.46.46,0,0,0-.62.16l-.68,1.15a.17.17,0,1,1-.3-.18l.69-1.15a.79.79,0,1,1,1.35.81l-4.43,7.41A.79.79,0,0,1,16.28,25.05Z"/><path class="cls-9" d="M19.78,19.2a.11.11,0,0,1,0-.15l.59-1a.12.12,0,0,1,.2.12l-.59,1A.13.13,0,0,1,19.78,19.2Z"/><path class="cls-9" d="M10.68,19.83a.24.24,0,0,1-.11-.19c-.08-7.11,7-7.52,7.06-7.53a.22.22,0,0,1,.23.22.22.22,0,0,1-.21.23c-.28,0-6.71.41-6.63,7.08a.22.22,0,0,1-.22.22A.18.18,0,0,1,10.68,19.83Z"/><path class="cls-9" d="M11.44,20.29a.24.24,0,0,1-.09-.3,2.73,2.73,0,0,1,3.35-1.7.23.23,0,0,1,.14.29.22.22,0,0,1-.28.14c-1.46-.48-2.33.54-2.8,1.47a.22.22,0,0,1-.31.1Z"/><ellipse class="cls-11" cx="14.51" cy="15.7" rx="0.64" ry="0.42" transform="translate(-6.41 20.1) rotate(-59.12)"/><circle class="cls-11" cx="15.28" cy="14.75" r="0.21"/><circle class="cls-11" cx="13.33" cy="17.41" r="0.28"/><circle class="cls-11" cx="13.51" cy="16.48" r="0.09"/><circle class="cls-11" cx="15.36" cy="14" r="0.12"/><circle class="cls-11" cx="16.08" cy="13.83" r="0.19"/><circle class="cls-9" cx="19.08" cy="19.18" r="0.26"/><path class="cls-10" d="M32,3.8a6.69,6.69,0,0,1-2.52-.89,6.78,6.78,0,0,1-1.95-1.77l0,0A13.72,13.72,0,0,1,31.14.2,13.49,13.49,0,0,1,32,3.8Z"/><path class="cls-13" d="M31.18,1a13.58,13.58,0,0,0-3,.81,7.08,7.08,0,0,1-.52-.59A13.42,13.42,0,0,1,31,.43Z"/><path class="cls-11" d="M32,3.82a5.71,5.71,0,0,1-.8-.17,13.7,13.7,0,0,0,0-3.2A13.6,13.6,0,0,1,32,3.82Z"/><path class="cls-9" d="M28.62,14.88a.23.23,0,0,1-.08-.31l.44-.74a.23.23,0,0,1,.31-.07.22.22,0,0,1,.08.31l-.44.73A.22.22,0,0,1,28.62,14.88Z"/><path class="cls-9" d="M19.94,8.48a.23.23,0,0,1-.07-.31l.91-1.54A13.87,13.87,0,0,1,31.1,0a.24.24,0,0,1,.24.14,13.87,13.87,0,0,1-.95,12.23.24.24,0,0,1-.32.08.22.22,0,0,1-.07-.31A13.4,13.4,0,0,0,31,.47a13.34,13.34,0,0,0-5.57,2,13.51,13.51,0,0,0-4.24,4.37L20.25,8.4A.23.23,0,0,1,19.94,8.48Z"/><path class="cls-15" d="M12.78,27.09a21,21,0,0,0,.09,2.5.23.23,0,0,0,.26.15.21.21,0,0,0,.15-.26,19,19,0,0,1-.08-2.39.21.21,0,0,0-.42,0Z"/><path class="cls-9" d="M12.79,30.9a.22.22,0,0,1-.11-.14c0-.15-.89-3.65.22-5.5a.23.23,0,0,1,.31-.08.24.24,0,0,1,.08.31c-.86,1.43-.39,4.13-.22,4.93.78-.23,3.39-1.09,4.24-2.52a.23.23,0,0,1,.39.23C16.6,30,13.11,30.89,13,30.93A.25.25,0,0,1,12.79,30.9Z"/><circle class="cls-8" cx="24.95" cy="10.71" r="4.07"/><circle class="cls-16" cx="25.37" cy="9.59" r="3.98"/><path class="cls-17" d="M28.67,11.84l-.16.25A4,4,0,0,0,21.69,8l.14-.26a4,4,0,0,1,6.84,4.09Z"/><path class="cls-18" d="M27.24,10.94a2.3,2.3,0,1,1-.79-3.14A2.3,2.3,0,0,1,27.24,10.94Z"/><path class="cls-19" d="M27.34,10.76a1.14,1.14,0,0,1-.18.25,2.28,2.28,0,0,0-3.89-2.32,1.47,1.47,0,0,1,.14-.28,2.29,2.29,0,0,1,3.93,2.35Z"/><path class="cls-9" d="M23.21,13.2A4.21,4.21,0,1,1,29,11.75,4.21,4.21,0,0,1,23.21,13.2ZM27.3,6.37a3.75,3.75,0,1,0,1.29,5.14A3.75,3.75,0,0,0,27.3,6.37Z"/><rect class="cls-17" x="24.82" y="7.14" width="0.59" height="4.58" transform="translate(19.03 -16.7) rotate(56.3)"/><polygon class="cls-17" points="24.19 11.44 23.82 11.28 27.41 8.94 27.62 9.15 24.19 11.44"/><path class="cls-9" d="M24.09,11.73a2.49,2.49,0,1,1,3.42-.86A2.5,2.5,0,0,1,24.09,11.73Zm2.36-3.94a2.1,2.1,0,1,0,.72,2.87A2.11,2.11,0,0,0,26.45,7.79Z"/><circle class="cls-9" cx="22.59" cy="8.18" r="0.22"/><circle class="cls-9" cx="27.92" cy="11.36" r="0.22"/><circle class="cls-9" cx="23.99" cy="12.33" r="0.22"/><circle class="cls-9" cx="27.13" cy="7.06" r="0.22"/><path class="cls-9" d="M31.93,4.23,27.26,1.44a.16.16,0,0,1-.05-.22.16.16,0,0,1,.22-.05L32.1,4a.16.16,0,0,1-.17.27Z"/><ellipse class="cls-9" cx="29.67" cy="2.72" rx="0.36" ry="2.19" transform="translate(12.11 26.79) rotate(-59.12)"/><ellipse class="cls-13" cx="16.95" cy="15.44" rx="0.99" ry="0.67" transform="translate(-5 22.06) rotate(-59.12)"/><circle class="cls-13" cx="18.65" cy="14.39" r="0.49"/><ellipse class="cls-13" cx="25" cy="3.78" rx="0.99" ry="0.67" transform="translate(8.93 23.29) rotate(-59.12)"/><circle class="cls-13" cx="26.7" cy="2.73" r="0.49"/><path class="cls-9" d="M16.7,17.51s0,0,0,0a.09.09,0,0,1,0-.13h0l1.16-.73a.1.1,0,1,1,.11.17l-1.17.72A.09.09,0,0,1,16.7,17.51Z"/><path class="cls-9" d="M17.56,17.4s0,0,0,0a.09.09,0,0,1,0-.13h0l.62-.38a.1.1,0,0,1,.14,0,.1.1,0,0,1,0,.13l-.63.39A.09.09,0,0,1,17.56,17.4Z"/><path class="cls-9" d="M25,4.58l0,0a.1.1,0,0,1,0-.14h0l1.17-.73a.1.1,0,0,1,.13,0,.1.1,0,0,1,0,.14l-1.16.72A.08.08,0,0,1,25,4.58Z"/><path class="cls-9" d="M25.83,4.47l0,0a.09.09,0,0,1,0-.13h0l.63-.39a.09.09,0,0,1,.13,0,.09.09,0,0,1,0,.13l-.62.39A.11.11,0,0,1,25.83,4.47Z"/><ellipse class="cls-20" cx="54.01" cy="96.1" rx="21.04" ry="3.59"/><polygon class="cls-21" points="64.04 101.03 66.41 101.01 58.12 80.45 55.87 81.15 64.04 101.03"/><polygon class="cls-21" points="71.84 99.54 74.3 99.48 65.92 78.96 63.67 79.66 71.84 99.54"/><polygon class="cls-21" points="42 101.29 39.55 101.26 47.59 80.57 49.85 81.22 42 101.29"/><polygon class="cls-21" points="34.17 99.98 31.91 99.33 39.76 79.26 42.02 79.91 34.17 99.98"/><polygon class="cls-22" points="46.54 90.06 43.98 89.83 51.83 69.76 54.09 70.41 46.54 90.06"/><polygon class="cls-22" points="38.41 89.17 36.15 88.52 44 68.45 46.26 69.1 38.41 89.17"/><polygon class="cls-22" points="60.34 91.92 62.58 91.9 54.41 72.01 52.17 72.72 60.34 91.92"/><polygon class="cls-22" points="67.8 89.22 69.72 88.8 61.56 68.92 59.53 69.91 67.8 89.22"/><polygon class="cls-23" points="64.04 101.01 66.58 101.01 58.12 80.45 55.87 81.15 64.04 101.01"/><polyline class="cls-23" points="70.55 90.17 65.92 78.96 63.67 79.66 71.84 99.54 74.41 99.52 71.49 92.46"/><polygon class="cls-23" points="42 101.29 39.35 101.29 47.59 80.57 49.85 81.22 42 101.29"/><polygon class="cls-23" points="34.17 99.98 31.91 99.33 39.76 79.26 42.02 79.91 34.17 99.98"/><ellipse class="cls-6" cx="60.72" cy="68.21" rx="16.85" ry="13.05" transform="translate(-21.76 107.41) rotate(-73.75)"/><path class="cls-24" d="M64.43,52.21a9.81,9.81,0,0,1,6.63,5"/><rect class="cls-25" x="22.44" y="83.09" width="20.64" height="6.49" rx="3.25" transform="translate(96.6 19.62) rotate(64.52)"/><path class="cls-26" d="M32.87,94.11,26.79,81.34c-.78-1.62,3.41,7.94,7.35,9l4.38,1.17c0-1-6.65-14.59-5.88-13l6.09,12.77a3.25,3.25,0,0,1-1.53,4.33h0A3.25,3.25,0,0,1,32.87,94.11Z"/><rect class="cls-27" x="22.44" y="83.09" width="20.64" height="6.49" rx="3.25" transform="translate(96.6 19.62) rotate(64.52)"/><path class="cls-28" d="M30.64,92.93h10.9a1.16,1.16,0,0,1,1.16,1.16v.81a4.43,4.43,0,0,1-4.43,4.43h-3A5.28,5.28,0,0,1,30,94.05v-.47a.65.65,0,0,1,.65-.65Z" transform="translate(109.48 168.35) rotate(155.35)"/><path class="cls-28" d="M33.48,90.66h5.38a0,0,0,0,1,0,0v1.18a2.35,2.35,0,0,1-2.35,2.35h-.68a2.35,2.35,0,0,1-2.35-2.35V90.66A0,0,0,0,1,33.48,90.66Z" transform="translate(107.58 161.34) rotate(155.35)"/><rect class="cls-25" x="26.38" y="76.17" width="23.61" height="6.94" rx="3.47" transform="translate(11.78 -4.64) rotate(8.22)"/><rect class="cls-29" x="26.38" y="76.17" width="23.61" height="6.94" rx="3.47" transform="translate(11.78 -4.64) rotate(8.22)"/><rect class="cls-30" x="19.16" y="84.34" width="20.64" height="6.49" rx="3.25" transform="translate(118.02 114.05) rotate(125.24)"/><path class="cls-31" d="M38.55,79.76a2.92,2.92,0,0,1-.24,1.2L35.25,85.3a3.24,3.24,0,0,1-5.89-1.88,2.92,2.92,0,0,1,.24-1.2l3.06-4.33a3.24,3.24,0,0,1,5.89,1.87Z"/><path class="cls-32" d="M68.64,70.87c-.52,1.79.28,4.23,2,6.47,3.6,4.61-12.34,6.06-16.93,4.72-5.92-1.72-8.85-9.53-6.54-17.44s9-12.92,14.89-11.19S70.94,63,68.64,70.87Z"/><path class="cls-33" d="M73.93,68.67a23,23,0,0,1-.68,3.19C70.64,80.79,62.92,86.4,56,84.39s-10.42-10.9-7.81-19.83S58.51,50,65.43,52c3.85,1.12,6.64,4.36,7.91,8.55"/><path class="cls-33" d="M73.89,63a18.88,18.88,0,0,1,.16,4.4"/><rect class="cls-27" x="19.16" y="84.34" width="20.64" height="6.49" rx="3.25" transform="translate(118.02 114.05) rotate(125.24)"/><path class="cls-28" d="M17.18,92.55h10.9a1.16,1.16,0,0,1,1.16,1.16v.81a4.43,4.43,0,0,1-4.43,4.43h-3a5.28,5.28,0,0,1-5.28-5.28v-.47A.65.65,0,0,1,17.18,92.55Z" transform="translate(20.75 194.17) rotate(-165.3)"/><path class="cls-28" d="M22.42,91h5.38a0,0,0,0,1,0,0v1.18a2.35,2.35,0,0,1-2.35,2.35h-.68a2.35,2.35,0,0,1-2.35-2.35V91a0,0,0,0,1,0,0Z" transform="matrix(-0.97, -0.25, 0.25, -0.97, 25.86, 188.85)"/><rect class="cls-30" x="30.46" y="79.17" width="23.61" height="6.94" rx="3.47" transform="translate(12.25 -5.19) rotate(8.22)"/><path class="cls-31" d="M34.63,83.48l16.75,2.24c1.9.28,2.84-3.29,2.57-1.39h0A3.47,3.47,0,0,1,50,87.27l-16.5-2.39c-1.9-.27-2.87,0-2.59-1.89"/><path class="cls-34" d="M30.93,83c-.28,1.9.69,1.62,2.59,1.89L50,87.27A3.47,3.47,0,0,0,54,84.33h0c.27-1.9-.67,1.67-2.57,1.39L41.53,83a20.38,20.38,0,0,0-10.6,0h0"/><rect class="cls-29" x="30.46" y="79.17" width="23.61" height="6.94" rx="3.47" transform="translate(12.25 -5.19) rotate(8.22)"/><path class="cls-35" d="M48.87,56.87h0a4,4,0,0,1,4,4v5.47a1.4,1.4,0,0,1-1.4,1.4H46.25a1.4,1.4,0,0,1-1.4-1.4V60.9a4,4,0,0,1,4-4Z" transform="translate(12.3 -7.93) rotate(10.6)"/><path class="cls-36" d="M50.45,68.16l-5.16-1a1.4,1.4,0,0,1-1.12-1.63l1-5.38A4,4,0,0,1,49.88,57l1,.18c2.18.41,2.64,2.33,2.23,4.51l-1,5.38A1.4,1.4,0,0,1,50.45,68.16Z"/><path class="cls-30" d="M47.94,70.81H65.6a0,0,0,0,1,0,0V77a8.83,8.83,0,0,1-8.83,8.83h0A8.83,8.83,0,0,1,47.94,77V70.81A0,0,0,0,1,47.94,70.81Z"/><path class="cls-37" d="M47.94,70.81H65.6a0,0,0,0,1,0,0V77a8.83,8.83,0,0,1-8.83,8.83h0A8.83,8.83,0,0,1,47.94,77V70.81A0,0,0,0,1,47.94,70.81Z"/><rect class="cls-38" x="46.72" y="53.72" width="19.75" height="25.89" rx="9.88"/><path class="cls-39" d="M56.6,79.61l2.65.51C57.57,80.92,52.6,77,49,76.54l3.87-5.84c0-2.73,3.17-6.54,4.39-9,1.44-2.9-.64-7,3.65-7l-4.33-1a9.87,9.87,0,0,1,9.87,9.87v6.14A9.87,9.87,0,0,1,56.6,79.61Z"/><path class="cls-15" d="M57.67,79.56c-.33,0-.67,0-1,0a9.88,9.88,0,0,1-9.88-9.88V63.6a9.88,9.88,0,0,1,9.88-9.89c.34,0,.68,0,1,0-5,.53-9.84,4.73-9.84,9.84v6.13C47.83,74.84,52.7,79,57.67,79.56Z"/><path class="cls-40" d="M66.47,63.34v6.14a9.87,9.87,0,0,1-9.87,9.87,10.86,10.86,0,0,1-1.28-.08,9.88,9.88,0,0,0,8.6-9.79V63.34a9.87,9.87,0,0,0-8.6-9.79,10.86,10.86,0,0,1,1.28-.08,9.87,9.87,0,0,1,9.87,9.87Z"/><path class="cls-36" d="M56.6,79.61h0a9.88,9.88,0,0,1-9.88-9.88V63.59a9.86,9.86,0,0,1,9.88-9.87h0a9.87,9.87,0,0,1,9.87,9.87v6.14A9.87,9.87,0,0,1,56.6,79.61Z"/><rect class="cls-15" x="48.7" y="62.46" width="0.56" height="1.7" rx="0.25"/><circle class="cls-15" cx="48.98" cy="64.86" r="0.35"/><path class="cls-41" d="M53,47.94h4.56a0,0,0,0,1,0,0v5.77A2.28,2.28,0,0,1,55.27,56h0A2.28,2.28,0,0,1,53,53.71V47.94A0,0,0,0,1,53,47.94Z"/><path class="cls-42" d="M53,45.23h4.56a0,0,0,0,1,0,0V51a2.28,2.28,0,0,1-2.28,2.28h0A2.28,2.28,0,0,1,53,51V45.23A0,0,0,0,1,53,45.23Z"/><path class="cls-43" d="M53,47.94h4.56a0,0,0,0,1,0,0v5.77A2.28,2.28,0,0,1,55.27,56h0A2.28,2.28,0,0,1,53,53.71V47.94A0,0,0,0,1,53,47.94Z"/><path class="cls-41" d="M63.83,74A3.61,3.61,0,0,1,63,74L51.5,71.6l.81-3.94,10.75,2.21c-1.42-6.64-1.4-6.7-1.16-7.36l3.78,1.37a1.71,1.71,0,0,0,.11-.79c0,.17.17,1.14,1.36,6.66a3.51,3.51,0,0,1-1,3.23A3.48,3.48,0,0,1,63.83,74Z"/><path class="cls-42" d="M66.11,72.88a3.5,3.5,0,0,1-2.38,1.05,3.17,3.17,0,0,1-.86-.08L51.41,71.51l-.14-1.15,9.59,2.06c.29,0,1.77.43,2,.41a4.51,4.51,0,0,0,2.77-1.06c.84-.84-.08-3-.34-4.21-.41-1.87-.69-3.22-.88-4.19l1.13.4A1.85,1.85,0,0,0,65.7,63c0,.17.16,1.15,1.35,6.67A3.48,3.48,0,0,1,66.11,72.88Z"/><path class="cls-44" d="M63.83,74A3.61,3.61,0,0,1,63,74L51.5,71.6l.81-3.94,10.75,2.21c-1.42-6.64-1.4-6.7-1.16-7.36l3.78,1.37a1.71,1.71,0,0,0,.11-.79c0,.17.17,1.14,1.36,6.66a3.51,3.51,0,0,1-1,3.23A3.48,3.48,0,0,1,63.83,74Z"/><circle class="cls-15" cx="51.3" cy="69.55" r="2.51"/><ellipse class="cls-41" cx="51.68" cy="69.84" rx="2.02" ry="1.94" transform="translate(-19.34 119.87) rotate(-88.66)"/><circle class="cls-44" cx="51.28" cy="69.36" r="2.51"/><path class="cls-38" d="M62.74,56.61h0a3.8,3.8,0,0,1,3.8,3.8v5.17a1.32,1.32,0,0,1-1.32,1.32h-5a1.32,1.32,0,0,1-1.32-1.32V60.41a3.8,3.8,0,0,1,3.8-3.8Z" transform="matrix(0.96, -0.27, 0.27, 0.96, -14.26, 19.08)"/><polygon class="cls-45" points="64.81 77.86 23.36 78.35 23 76.19 64.81 75.85 64.81 77.86"/><polygon class="cls-46" points="64.81 76.77 23 77.11 23 76.19 64.81 75.85 64.81 76.77"/><polygon class="cls-47" points="64.81 77.86 23.36 78.35 23 76.19 64.81 75.85 64.81 77.86"/><ellipse class="cls-6" cx="59.52" cy="82.1" rx="13.26" ry="7.8" transform="translate(-11.72 9.94) rotate(-8.69)"/><path class="cls-48" d="M61,90c-7.23,1.11-13.63-1.45-14.28-5.71a5.29,5.29,0,0,1,.8-3.56c2,3.1,7.49,4.77,13.52,3.84,5.2-.79,9.41-3.28,11.13-6.23a4.84,4.84,0,0,1,.77,2C73.57,84.51,68.23,88.86,61,90Z"/><path class="cls-8" d="M60.69,89.72C53.46,90.83,47.06,88.27,46.41,84a5,5,0,0,1,.4-2.78C48,86,54.3,89,61.21,88c5.67-.88,10.12-4.21,11.39-8.11l0,.14C73.28,84.26,67.93,88.62,60.69,89.72Z"/><rect class="cls-49" x="34.22" y="79.17" width="5.81" height="1.46" rx="0.73" transform="translate(12.4 -4.66) rotate(8.63)"/><rect class="cls-49" x="42.06" y="80.3" width="3.84" height="0.97" rx="0.48" transform="translate(12.61 -5.68) rotate(8.63)"/><rect class="cls-49" x="31.78" y="80.53" width="3.04" height="0.77" rx="0.38" transform="translate(12.51 -4.08) rotate(8.63)"/><rect class="cls-49" x="24.75" y="86.99" width="4.8" height="1.21" rx="0.6" transform="translate(-60.37 60.22) rotate(-55.41)"/><path class="cls-24" d="M51.92,77a19.93,19.93,0,0,1,12.81-2.15"/><circle class="cls-15" cx="56.96" cy="75.48" r="0.37"/><circle class="cls-50" cx="56.43" cy="76.28" r="0.21"/><circle class="cls-50" cx="58.02" cy="75.71" r="0.26"/><circle class="cls-51" cx="57.22" cy="76.24" r="0.17"/><circle class="cls-15" cx="67.94" cy="54.36" r="0.48"/><circle class="cls-50" cx="66.8" cy="54.9" r="0.28"/><circle class="cls-50" cx="68.98" cy="55.34" r="0.34"/><circle class="cls-51" cx="67.72" cy="55.39" r="0.23"/><path class="cls-52" d="M49.45,82.44l-.08,0a.19.19,0,0,1-.09-.26h0l1.2-2.49a.21.21,0,0,1,.27-.1.21.21,0,0,1,.09.27l-1.2,2.49A.2.2,0,0,1,49.45,82.44Z"/><path class="cls-52" d="M50.94,81.28h-.08a.2.2,0,0,1-.09-.26h0l.65-1.33a.19.19,0,1,1,.35.17l-.64,1.33A.2.2,0,0,1,50.94,81.28Z"/><ellipse class="cls-33" cx="59.52" cy="82.1" rx="13.26" ry="7.8" transform="translate(-11.72 9.94) rotate(-8.69)"/><path class="cls-45" d="M50.91,76.27l-28.65.31L15.72,59.23a.36.36,0,0,1,.33-.49l29.14-.32Z"/><path class="cls-53" d="M50.73,76.17l-28.65.31-.32-.75c1-2.06,5.5-4.6,7.63-6.31,5.19-4.14,9-7,11.3-10.9l4.36-.38Z"/><ellipse class="cls-54" cx="32.93" cy="67.8" rx="2.56" ry="2.78" transform="translate(-16.96 11.3) rotate(-15.54)"/><path class="cls-55" d="M32.18,65.13a2.79,2.79,0,1,1-1.71,3.36,2.82,2.82,0,0,1,.34-2.34"/><line class="cls-56" x1="16.99" y1="59.19" x2="30.5" y2="58.9"/><path class="cls-33" d="M35.07,58.41l9.77-.16a.56.56,0,0,1,.56.4l5.51,17.62-28.77.24L15.71,59.23a.37.37,0,0,1,.33-.49l16.36-.28"/><g class="cls-57"><path class="cls-58" d="M62.7,56.54h0a3.8,3.8,0,0,1,3.8,3.8v5.17a1.32,1.32,0,0,1-1.32,1.32h-5a1.32,1.32,0,0,1-1.32-1.32V60.34a3.8,3.8,0,0,1,3.8-3.8Z" transform="translate(-14.24 19.07) rotate(-15.55)"/></g><path class="cls-39" d="M65.94,59.39l1.39,5A1.32,1.32,0,0,1,66.41,66l-1.71.47a1.32,1.32,0,0,0,.92-1.63l-1.39-5a3.77,3.77,0,0,0-1.8-2.28,3.81,3.81,0,0,0-2-.5,4.66,4.66,0,0,1,.83-.34,3.81,3.81,0,0,1,4.68,2.65Z"/><path class="cls-59" d="M61.32,56.73h0A3.79,3.79,0,0,1,66,59.37l1.39,5A1.32,1.32,0,0,1,66.47,66l-4.78,1.33a1.33,1.33,0,0,1-1.63-.92"/><circle class="cls-58" cx="64.79" cy="61.75" r="0.8" transform="translate(-11.39 14.76) rotate(-11.96)"/><circle class="cls-58" cx="63.01" cy="61.58" r="0.27" transform="translate(-11.39 14.39) rotate(-11.96)"/><circle class="cls-58" cx="65.53" cy="63.49" r="0.27" transform="translate(-11.73 14.95) rotate(-11.96)"/><circle class="cls-58" cx="63.54" cy="59.97" r="0.33" transform="translate(-11.05 14.47) rotate(-11.96)"/><circle class="cls-60" cx="64.5" cy="63.49" r="0.23" transform="translate(-11.76 14.74) rotate(-11.96)"/><circle class="cls-60" cx="63.69" cy="62.95" r="0.24" transform="translate(-11.66 14.56) rotate(-11.96)"/><circle class="cls-60" cx="62.72" cy="63.18" r="0.09" transform="translate(-11.73 14.37) rotate(-11.96)"/><circle class="cls-8" cx="60.82" cy="88.06" r="0.8" transform="translate(-16.92 14.51) rotate(-11.96)"/><circle class="cls-8" cx="60.99" cy="86.27" r="0.27" transform="translate(-16.55 14.51) rotate(-11.96)"/><circle class="cls-8" cx="59.08" cy="88.79" r="0.27" transform="matrix(0.98, -0.21, 0.21, 0.98, -17.11, 14.17)"/><circle class="cls-8" cx="62.6" cy="86.81" r="0.33" transform="translate(-16.63 14.85) rotate(-11.96)"/><circle class="cls-61" cx="59.08" cy="87.76" r="0.23" transform="translate(-16.9 14.15) rotate(-11.96)"/><circle class="cls-61" cx="59.63" cy="86.95" r="0.24" transform="translate(-16.72 14.24) rotate(-11.96)"/><circle class="cls-61" cx="59.39" cy="85.99" r="0.09" transform="translate(-16.53 14.17) rotate(-11.96)"/><path class="cls-52" d="M49.32,59.87l-.06,0a.17.17,0,0,1,0-.24h0l1.48-1.86a.17.17,0,0,1,.24,0A.16.16,0,0,1,51,58L49.5,59.8A.19.19,0,0,1,49.32,59.87Z"/><path class="cls-52" d="M50.79,59.18l-.06,0a.16.16,0,0,1,0-.24h0l.79-1a.18.18,0,0,1,.24,0,.17.17,0,0,1,0,.24l-.79,1A.18.18,0,0,1,50.79,59.18Z"/><path class="cls-9" d="M21.07,64.83l-.08,0a.23.23,0,0,1-.13-.3h0l1.25-3a.24.24,0,0,1,.3-.12.22.22,0,0,1,.12.3l-1.25,3A.22.22,0,0,1,21.07,64.83Z"/><path class="cls-9" d="M22.74,63.4l-.09,0a.23.23,0,0,1-.13-.3h0l.66-1.58a.24.24,0,0,1,.3-.13.25.25,0,0,1,.13.31L23,63.25A.24.24,0,0,1,22.74,63.4Z"/><circle class="cls-6" cx="39.51" cy="37.16" r="1.47"/><circle class="cls-32" cx="39.64" cy="37.1" r="0.83"/><circle class="cls-62" cx="39.51" cy="37.16" r="1.47"/><path class="cls-15" d="M61.74,37a1.05,1.05,0,0,1,.51-.62c.21-.09.1-.44-.12-.34a1.45,1.45,0,0,0-.72.8c-.08.21.24.38.33.17Z"/><ellipse class="cls-15" cx="61.36" cy="37.71" rx="0.29" ry="0.23" transform="translate(18.08 95.28) rotate(-84.65)"/><path class="cls-33" d="M63.6,32.15l-.07-1.22"/><path class="cls-24" d="M62.85,23.52a5.08,5.08,0,0,0-.07,3.19"/><circle class="cls-50" cx="61.63" cy="21.59" r="0.26"/><circle class="cls-50" cx="63.31" cy="24.51" r="0.17"/><circle class="cls-51" cx="63.51" cy="25.38" r="0.17"/><path class="cls-41" d="M64.57,35l1.24,0a2.93,2.93,0,0,1,3,2.82h0a2.91,2.91,0,0,1-2.81,3h0l-1.23,0a2.93,2.93,0,0,1-3-2.82h0a2.91,2.91,0,0,1,2.8-3h0Z"/><path class="cls-63" d="M64.57,35l1.24,0a2.93,2.93,0,0,1,3,2.82h0a2.91,2.91,0,0,1-2.81,3h0l-1.23,0a2.93,2.93,0,0,1-3-2.82h0a2.91,2.91,0,0,1,2.8-3h0Z"/><path class="cls-42" d="M65.05,36.28l.65,0a1.52,1.52,0,0,1,1.56,1.46h0a1.52,1.52,0,0,1-1.46,1.57l-.64,0a1.53,1.53,0,0,1-1.57-1.47h0A1.52,1.52,0,0,1,65.05,36.28Z"/><path class="cls-41" d="M60.49,21.86l.37.32a10.85,10.85,0,0,1,3.58,7.5L65,40.85A10.84,10.84,0,0,1,43.4,42.23l-.61-11.4a10.83,10.83,0,0,1,3.09-8.18C49.31,19.17,56.71,18.79,60.49,21.86Z"/><path class="cls-64" d="M64.46,29.25l.59,11.17A10.83,10.83,0,0,1,54.84,51.86h0L53.08,19.37a11.07,11.07,0,0,1,7.43,2.07c.13.1.25.21.37.32A10.83,10.83,0,0,1,64.46,29.25Z"/><ellipse class="cls-15" cx="46.17" cy="30.37" rx="0.54" ry="0.31" transform="translate(4.7 66.89) rotate(-74.71)"/><circle class="cls-65" cx="47.15" cy="30.62" r="0.17"/><path class="cls-65" d="M46.64,30.82a.13.13,0,0,1,.14.12.13.13,0,0,1-.13.14.13.13,0,0,1-.14-.12.13.13,0,0,1,.13-.14Z"/><circle class="cls-65" cx="46.75" cy="29.71" r="0.18"/><path class="cls-42" d="M64.44,29.12,65,40.29A10.84,10.84,0,0,1,54.83,51.73c-.27,0-.54,0-.8,0,5.62-.7,10.29-5.67,10-11.4l-.6-11.17c-.15-2.87-1.93-5.54-4.07-7.47L59,21.39a10.8,10.8,0,0,0-6.7-2.08,11.4,11.4,0,0,1,8.23,2c.13.1.25.21.37.32A10.75,10.75,0,0,1,64.44,29.12Z"/><path class="cls-15" d="M55.28,51.82l-.59,0c-6,.3-11.07-4.3-11.34-9.82l-.6-11.16a11.16,11.16,0,0,1,2.74-8.3c.12-.13.22-.25.34-.36a11.26,11.26,0,0,1,7.78-2.86A10.79,10.79,0,0,0,47,22.16c-.12.11-.22.23-.33.35a10.8,10.8,0,0,0-2.77,7.83l.6,11.17A10.85,10.85,0,0,0,55.28,51.82Z"/><path class="cls-33" d="M42.74,30.39a10.83,10.83,0,0,1,3.1-8.18c3.42-3.48,10.82-3.85,14.6-.78.14.1.25.21.38.32a10.83,10.83,0,0,1,3.58,7.49l.12,2.33.11,2.11L65,40.41a10.85,10.85,0,0,1-17.2,9.39"/><rect class="cls-66" x="46.02" y="32.01" width="0.88" height="4.76" rx="0.44" transform="translate(-1.76 2.52) rotate(-3.05)"/><path class="cls-45" d="M65.74,35h0a.77.77,0,0,0,.73-.8l-1-5.68c0-.42.36-.78-.06-.76h0a.75.75,0,0,0-.72.8l.3,5.72A.76.76,0,0,0,65.74,35Z"/><path class="cls-67" d="M65.74,35h0a.77.77,0,0,0,.73-.8l-1-5.68c0-.42.36-.78-.06-.76h0a.75.75,0,0,0-.72.8l.3,5.72A.76.76,0,0,0,65.74,35Z"/><path class="cls-45" d="M63.65,36.12h0a1.05,1.05,0,0,0,1.1-1l-.64-7.93c0-.58.6-1,0-1.06h0a1.06,1.06,0,0,0-1.1,1L62.65,35A1,1,0,0,0,63.65,36.12Z"/><path class="cls-45" d="M64.06,15.85c.77,0-1.06-1.1-1.78-1.35a7.38,7.38,0,0,0-6.74,1l1-1.94a1.94,1.94,0,0,0-1.5-.94,3.73,3.73,0,0,0-1.8.31,6.66,6.66,0,0,0-3.86,4.34l-1.22-.18a9.13,9.13,0,0,0-3.15.44,6.42,6.42,0,0,0-2.94,1.86,4.69,4.69,0,0,0-.93,2.51c-.06.54,0,1.22.53,1.43a2,2,0,0,0,.82,0,.34.34,0,0,1,.22,0c.22.11.16.43.09.65a7.24,7.24,0,0,0-.31,3.2,1.61,1.61,0,0,0,.29.86,1.55,1.55,0,0,0,1.63.37,3.69,3.69,0,0,0,2.68-3.27l.91-.16A2.06,2.06,0,0,0,49.43,25a3.37,3.37,0,0,0,1.32-1.78l1-2.21a8.49,8.49,0,0,0,1.87,2.92,3.54,3.54,0,0,0,2,1.18,1.8,1.8,0,0,0,1.63-.65l.81-.09A5.18,5.18,0,0,0,61,26.68a.76.76,0,0,1,.26.11.8.8,0,0,1,.19.32,8.79,8.79,0,0,0,3.49,4.28,2.19,2.19,0,0,0,1.72.43,1.81,1.81,0,0,0,1-1.11,5.94,5.94,0,0,0-.54-4.55,4.26,4.26,0,0,0-2.23-2.53l.07-.07a4.09,4.09,0,0,0,1.39.11A1.75,1.75,0,0,0,67.56,23a2,2,0,0,0,.3-1.53,3.85,3.85,0,0,0-1.22-2.31,6.72,6.72,0,0,0-4.32-1.34,8.47,8.47,0,0,0-3.51.43S61.54,16,64.06,15.85Z"/><path class="cls-68" d="M67.13,26.12a5.88,5.88,0,0,1,.55,4.54,1.78,1.78,0,0,1-1.05,1.11,2.12,2.12,0,0,1-1.71-.43,8.74,8.74,0,0,1-3.5-4.27.65.65,0,0,0-.19-.32.88.88,0,0,0-.26-.12,5.18,5.18,0,0,1-2.91-2.33l-.81.1a2.08,2.08,0,0,1,.21-.21,1.75,1.75,0,0,1,.71-.46c.67-.22,1.39.18,2.1.16a1.69,1.69,0,0,0,1.4-.79,1.56,1.56,0,0,0,0-1.6c-.36-.58-1.09-.83-1.58-1.32A2.19,2.19,0,0,1,59.58,18a9.81,9.81,0,0,1,2.76-.2,6.69,6.69,0,0,1,4.32,1.35,3.8,3.8,0,0,1,1.22,2.31,2,2,0,0,1-.3,1.53,1.74,1.74,0,0,1-1.21.63,4.07,4.07,0,0,1-1.39-.1l-.07.07A4.18,4.18,0,0,1,67.13,26.12Z"/><path class="cls-69" d="M57.24,24.45a1.82,1.82,0,0,1-1.63.64,3.58,3.58,0,0,1-2-1.17,9.08,9.08,0,0,1-1-1.18,6.29,6.29,0,0,1,1.78-2.66c.52-.44,1.11-.81,1.61-1.28a5,5,0,0,0,1.42-4.27,7.46,7.46,0,0,1,4.85,0c.72.25,2.54,1.31,1.78,1.35-2.52.14-5.25,2.43-5.25,2.43a5.15,5.15,0,0,1,.76-.24,2.19,2.19,0,0,0,.53,2.14c.49.49,1.22.73,1.58,1.32a1.56,1.56,0,0,1,0,1.6,1.72,1.72,0,0,1-1.4.79c-.71,0-1.43-.38-2.1-.17a2,2,0,0,0-.71.46l-.21.21"/><circle class="cls-52" cx="48.35" cy="17.16" r="0.32"/><circle class="cls-52" cx="65.95" cy="18.66" r="0.32"/><circle class="cls-52" cx="60.63" cy="16.92" r="0.32"/><circle class="cls-52" cx="67.19" cy="26.26" r="0.32"/><circle class="cls-68" cx="60.06" cy="23.67" r="0.76"/><circle class="cls-68" cx="59.89" cy="19.74" r="0.65"/><circle class="cls-68" cx="58.71" cy="20.39" r="0.33"/><circle class="cls-68" cx="55.78" cy="24.41" r="0.61"/><path class="cls-70" d="M65,18.28a10.1,10.1,0,0,0-2.63-.41,8.65,8.65,0,0,0-3.51.44"/><path class="cls-70" d="M66.71,25.33A3.31,3.31,0,0,0,65,23.57v0a4.09,4.09,0,0,0,1.39.11,1.75,1.75,0,0,0,1.21-.64,2,2,0,0,0,.3-1.53,3.9,3.9,0,0,0-1-2.15"/><path class="cls-70" d="M49.38,17.34A6.69,6.69,0,0,1,53.24,13a3.73,3.73,0,0,1,1.8-.31,2.3,2.3,0,0,1,.88.3.87.87,0,0,1,.23,1.22h0"/><path class="cls-70" d="M55.54,15.57a7.39,7.39,0,0,1,6.74-1,3,3,0,0,1,1.79,1.35,14.89,14.89,0,0,0-2.38.57"/><path class="cls-24" d="M41.91,20.75A5.23,5.23,0,0,1,46,17.86"/><circle class="cls-15" cx="47.15" cy="17.66" r="0.34"/><path class="cls-70" d="M47.27,17.16A7.61,7.61,0,0,0,45,17.6a6.54,6.54,0,0,0-2.94,1.85,4,4,0,0,0-.62,1.12"/><circle class="cls-15" cx="44.36" cy="18.96" r="0.37"/><circle class="cls-50" cx="43.91" cy="19.81" r="0.21"/><circle class="cls-50" cx="45.44" cy="19.08" r="0.26"/><circle class="cls-51" cx="44.7" cy="19.69" r="0.17"/><circle class="cls-50" cx="44.04" cy="27.92" r="0.26"/><path class="cls-52" d="M44.74,25.2a.12.12,0,0,1-.08,0,.2.2,0,0,1-.12-.25h0l.93-2.6a.2.2,0,0,1,.26-.12.21.21,0,0,1,.12.25l-.94,2.6A.19.19,0,0,1,44.74,25.2Z"/><path class="cls-52" d="M46.11,23.9H46a.2.2,0,0,1-.12-.25h0l.5-1.39a.2.2,0,0,1,.26-.12.19.19,0,0,1,.11.25l-.5,1.39A.18.18,0,0,1,46.11,23.9Z"/><rect class="cls-42" x="44.5" y="39.13" width="12.88" height="1.02" transform="translate(-2.04 2.77) rotate(-3.05)"/><path class="cls-33" d="M46.22,48.4a10.75,10.75,0,0,1-2.87-6.6l-.49-9.22"/><rect class="cls-71" x="47.34" y="34.03" width="9.87" height="4.87" transform="translate(-1.87 2.83) rotate(-3.05)"/><path class="cls-15" d="M46.47,41.21H58.33a0,0,0,0,1,0,0v1.16A5.93,5.93,0,0,1,52.4,48.3h0a5.93,5.93,0,0,1-5.93-5.93V41.21A0,0,0,0,1,46.47,41.21Z" transform="translate(-2.03 2.5) rotate(-2.68)"/><path class="cls-72" d="M46.47,41.21H58.33a0,0,0,0,1,0,0v1.16A5.93,5.93,0,0,1,52.4,48.3h0a5.93,5.93,0,0,1-5.93-5.93V41.21A0,0,0,0,1,46.47,41.21Z" transform="translate(-2.03 2.5) rotate(-2.68)"/><circle class="cls-6" cx="57.9" cy="35.94" r="1.47"/><circle class="cls-32" cx="57.76" cy="35.91" r="0.83"/><circle class="cls-62" cx="57.9" cy="35.94" r="1.47"/><path class="cls-73" d="M40.42,34.24H57.22a0,0,0,0,1,0,0v4.87a0,0,0,0,1,0,0H40.42a.81.81,0,0,1-.81-.81V35.05a.81.81,0,0,1,.81-.81Z" transform="translate(-1.88 2.63) rotate(-3.05)"/><rect class="cls-71" x="49.84" y="33.97" width="7.37" height="4.87" transform="translate(-1.86 2.9) rotate(-3.05)"/><rect class="cls-74" x="46.65" y="34.05" width="10.57" height="4.87" transform="translate(-1.87 2.81) rotate(-3.05)"/><rect class="cls-75" x="43.36" y="34.5" width="0.44" height="4.87" transform="translate(-1.9 2.37) rotate(-3.05)"/><rect class="cls-15" x="41.13" y="34.73" width="0.44" height="4.87" transform="translate(-1.92 2.25) rotate(-3.05)"/><rect class="cls-15" x="42.16" y="34.72" width="0.44" height="4.87" transform="translate(-1.92 2.31) rotate(-3.05)"/><rect class="cls-75" x="44.68" y="34.43" width="0.44" height="4.87" transform="translate(-1.9 2.44) rotate(-3.05)"/><path class="cls-33" d="M53.2,34l3.23-.17a.81.81,0,0,1,.86.77l.17,3.24a.82.82,0,0,1-.77.86l-16,.85a.81.81,0,0,1-.85-.77l-.18-3.24a.82.82,0,0,1,.77-.86l10.08-.51"/><path class="cls-70" d="M41.14,22c-.06.54,0,1.22.53,1.43a2,2,0,0,0,.82,0,.33.33,0,0,1,.22,0c.22.11.17.42.09.65a7.24,7.24,0,0,0-.31,3.2,1.7,1.7,0,0,0,.29.86,1.55,1.55,0,0,0,1.63.37,3.69,3.69,0,0,0,2.68-3.27"/><path class="cls-76" d="M58.08,25.29s1.11,1.83,2.78,1.79a5.87,5.87,0,0,0,1.38,2.72"/><path class="cls-70" d="M58,24.38A5.22,5.22,0,0,0,61,26.71a.76.76,0,0,1,.26.11.7.7,0,0,1,.19.32,8.81,8.81,0,0,0,3.5,4.28,2.16,2.16,0,0,0,1.71.43,1.78,1.78,0,0,0,1-1.11,5,5,0,0,0-.12-3.48"/><path class="cls-76" d="M51.77,21.79s1.53,3.76,4.31,3.67"/><path class="cls-76" d="M48.23,25.52s2.28.59,3.3-3.59"/><path class="cls-70" d="M48,25.12A2.06,2.06,0,0,0,49.43,25a3.37,3.37,0,0,0,1.32-1.78l1-2.21a8.64,8.64,0,0,0,1.87,2.92,3.57,3.57,0,0,0,2,1.18,1.8,1.8,0,0,0,1.63-.65"/><path class="cls-76" d="M62.44,31l-.21,4.31s-.1,1.73,1.31,1.23"/><path class="cls-77" d="M62.85,30.84,62.65,35a1,1,0,0,0,1,1.1h0a1.05,1.05,0,0,0,1.1-1l-.3-3.73"/><circle class="cls-52" cx="51.72" cy="34.08" r="0.32"/><circle class="cls-52" cx="46.94" cy="49.11" r="0.32"/><circle class="cls-52" cx="73.64" cy="61.78" r="0.32"/><circle class="cls-52" cx="33.74" cy="58.46" r="0.29"/><circle class="cls-52" cx="31.42" cy="65.55" r="0.29"/><circle class="cls-52" cx="64.58" cy="99.33" r="0.29"/><circle class="cls-52" cx="41.28" cy="99.55" r="0.29"/><circle class="cls-52" cx="72.4" cy="97.95" r="0.29"/><circle class="cls-52" cx="71.01" cy="91.22" r="0.29"/><g class="cls-78"><path class="cls-79" d="M43.53,9.54H41.36V5.87h6.46a.27.27,0,0,1,.33.18.27.27,0,0,1-.18.34.38.38,0,0,1-.15,0H41.88V9h1.65a.27.27,0,0,1,.15.52.38.38,0,0,1-.15,0Z"/><path class="cls-79" d="M45.23,9.54H44.3A.27.27,0,0,1,44,9.35.27.27,0,0,1,44.15,9a.2.2,0,0,1,.15,0h.93a.27.27,0,1,1,.15.52A.38.38,0,0,1,45.23,9.54Z"/><path class="cls-79" d="M46,9.54h0a.27.27,0,0,1-.34-.19A.27.27,0,0,1,45.79,9,.22.22,0,0,1,46,9h0a.27.27,0,0,1,.19.33A.3.3,0,0,1,46,9.54Z"/><path class="cls-79" d="M50.54,9.54H46.7a.27.27,0,0,1-.19-.34A.27.27,0,0,1,46.7,9H50V6.39H48.87a.27.27,0,1,1-.15-.52h1.83Z"/><path class="cls-79" d="M46.14,6.39H37V2.73h9.18Zm-8.67-.52H45.6V3.25H37.47Z"/></g><g class="cls-78"><path class="cls-79" d="M79,48.79H76.84V45.12H83.3a.28.28,0,0,1,.34.18.28.28,0,0,1-.19.34.2.2,0,0,1-.15,0H77.36v2.63H79a.27.27,0,1,1,.15.52Z"/><path class="cls-79" d="M80.72,48.79h-.94a.27.27,0,0,1-.15-.52.38.38,0,0,1,.15,0h.94a.27.27,0,0,1,.33.18.27.27,0,0,1-.18.34Z"/><path class="cls-79" d="M81.45,48.79h0a.28.28,0,0,1-.34-.18.27.27,0,0,1,.19-.34.38.38,0,0,1,.15,0h0a.27.27,0,0,1,.18.34A.27.27,0,0,1,81.45,48.79Z"/><path class="cls-79" d="M86,48.79H82.18a.27.27,0,0,1-.18-.34.27.27,0,0,1,.18-.18H85.5V45.64H84.35a.28.28,0,0,1-.34-.18.28.28,0,0,1,.19-.34H86Z"/><path class="cls-79" d="M81.62,45.64H72.44V42h9.18ZM73,45.12h8.13V42.5H73Z"/></g><g class="cls-78"><path class="cls-79" d="M11.69,56.77h0a.28.28,0,0,1-.34-.18.27.27,0,0,1,.19-.34h.2a.27.27,0,0,1,.18.34A.24.24,0,0,1,11.69,56.77Z"/><path class="cls-79" d="M13.59,56.77H12.54a.28.28,0,0,1-.34-.18.27.27,0,0,1,.19-.34h.67V53.63H4.93v2.62H9.66a.27.27,0,0,1,.19.34.27.27,0,0,1-.19.18H4.4V53.11h9.19Z"/><path class="cls-79" d="M10.93,56.77h-.46a.27.27,0,0,1-.15-.52h.62a.27.27,0,0,1,.18.34.27.27,0,0,1-.18.18Z"/><path class="cls-79" d="M6.58,63.07H4.41V59.39h6.46a.28.28,0,0,1,.34.19.27.27,0,0,1-.19.33.2.2,0,0,1-.15,0H4.92v2.62H6.58a.27.27,0,0,1,.19.33.26.26,0,0,1-.19.19Z"/><path class="cls-79" d="M8.28,63.07H7.34a.27.27,0,0,1-.19-.33.25.25,0,0,1,.19-.19h.94a.28.28,0,0,1,.2.33A.27.27,0,0,1,8.28,63.07Z"/><path class="cls-79" d="M9,63.07H9a.27.27,0,0,1-.19-.33A.26.26,0,0,1,9,62.55H9a.27.27,0,0,1,.33.19.27.27,0,0,1-.19.33Z"/><path class="cls-79" d="M13.59,63.07H9.74a.27.27,0,0,1-.19-.33.26.26,0,0,1,.19-.19h3.32V59.93H11.91a.27.27,0,0,1-.33-.19.26.26,0,0,1,.19-.33.17.17,0,0,1,.14,0h1.68Z"/><path class="cls-79" d="M9.18,59.91H0V56.26H9.18ZM.51,59.39H8.64V56.78H.51Z"/></g><g class="cls-78"><path class="cls-79" d="M87.09,74.74h0a.27.27,0,0,1-.34-.19.27.27,0,0,1,.18-.33.22.22,0,0,1,.16,0h0a.27.27,0,0,1,.19.33A.3.3,0,0,1,87.09,74.74Z"/><path class="cls-79" d="M89,74.74H88a.27.27,0,0,1-.34-.19.27.27,0,0,1,.18-.33.22.22,0,0,1,.16,0h.52V71.59H80.34v2.63h4.73a.26.26,0,0,1,.18.33.27.27,0,0,1-.18.19H79.81V71.07H89Z"/><path class="cls-79" d="M86.33,74.74h-.45a.27.27,0,0,1-.34-.19.27.27,0,0,1,.19-.33.19.19,0,0,1,.15,0h.46a.27.27,0,0,1,.19.33.3.3,0,0,1-.19.19Z"/><path class="cls-79" d="M82,81H79.82V77.36h6.46a.27.27,0,0,1,.14.52.33.33,0,0,1-.14,0h-6V80.5H82A.27.27,0,0,1,82,81Z"/><path class="cls-79" d="M83.69,81h-1a.27.27,0,0,1-.19-.33.29.29,0,0,1,.19-.2h1a.27.27,0,0,1,.19.34A.28.28,0,0,1,83.69,81Z"/><path class="cls-79" d="M84.4,81h0a.27.27,0,0,1-.19-.33.29.29,0,0,1,.19-.2h0a.29.29,0,0,1,.34.2.27.27,0,0,1-.19.33Z"/><path class="cls-79" d="M89,81H85.15a.27.27,0,0,1-.19-.33.26.26,0,0,1,.19-.2h3.32V77.89H87.32a.27.27,0,1,1-.15-.52.38.38,0,0,1,.15,0H89Z"/><path class="cls-79" d="M84.59,77.88H75.41V74.22h9.18Zm-8.67-.52h8.13V74.75H75.92Z"/></g><rect class="cls-28" x="24.33" y="77.09" width="1.9" height="0.58" rx="0.29"/><rect class="cls-28" x="26.74" y="77.08" width="1.9" height="0.58" rx="0.29"/></g></g></svg>